<?xml version="1.0" encoding="UTF-8" standalone="no"?>
<!DOCTYPE svg PUBLIC "-//W3C//DTD SVG 1.1//EN" "http://www.w3.org/Graphics/SVG/1.1/DTD/svg11.dtd">
<svg xmlns="http://www.w3.org/2000/svg" version="1.1" viewBox="0.00 0.00 449.00 447.00">
<g stroke-width="2.00" fill="none" stroke-linecap="butt">
<path stroke="#868ea6" vector-effect="non-scaling-stroke" d="
  M 379.17 447.00
  L 379.13 69.92
  A 0.37 0.37 0.0 0 0 378.76 69.55
  L 4.04 69.51"
/>
<path stroke="#909cbf" vector-effect="non-scaling-stroke" d="
  M 4.04 69.51
  L 0.00 69.68"
/>
<path stroke="#f086b2" vector-effect="non-scaling-stroke" d="
  M 408.72 39.25
  A 0.47 0.47 0.0 0 1 409.19 39.72
  L 409.12 158.45
  A 0.40 0.40 0.0 0 0 409.80 158.73
  Q 427.58 141.06 446.65 121.92
  Q 448.75 119.82 448.75 117.09
  Q 448.72 58.40 448.74 0.78
  A 0.41 0.41 0.0 0 0 448.33 0.37
  Q 390.57 0.41 332.12 0.33
  C 330.57 0.33 328.59 0.33 327.58 1.33
  Q 308.95 19.91 290.09 38.68
  Q 289.20 39.57 290.46 39.57
  L 408.72 39.25"
/>
<path stroke="#172b65" vector-effect="non-scaling-stroke" d="
  M 4.04 69.51
  Q 4.03 69.88 3.51 69.90
  Q 2.99 69.93 3.32 70.33
  Q 3.56 70.62 3.95 70.62
  Q 186.08 70.56 376.81 70.59
  Q 378.22 70.59 378.21 71.99
  Q 378.03 160.22 378.28 248.25
  Q 378.30 256.28 378.30 264.25
  Q 378.34 324.68 378.06 383.87
  Q 378.01 395.50 378.28 408.19
  C 378.40 413.22 377.98 418.21 378.13 422.97
  C 378.37 430.40 377.38 437.81 378.41 445.07
  Q 378.49 445.65 378.04 446.01
  Q 377.62 446.34 377.50 446.82"
/>
<path stroke="#909cbf" vector-effect="non-scaling-stroke" d="
  M 377.50 446.82
  L 1.95 447.00"
/>
<path stroke="#909cbf" vector-effect="non-scaling-stroke" d="
  M 0.50 447.00
  L 0.00 95.91"
/>
<path stroke="#909cbf" vector-effect="non-scaling-stroke" d="
  M 0.00 79.45
  L 0.00 75.19"
/>
<path stroke="#909cbf" vector-effect="non-scaling-stroke" d="
  M 213.87 211.73
  Q 213.49 211.42 213.05 211.64
  C 201.39 217.37 188.52 219.35 175.50 218.65
  C 168.03 218.25 161.25 215.50 158.54 207.96
  Q 156.89 203.40 156.30 198.13
  A 0.51 0.50 86.9 0 1 156.80 197.57
  L 226.51 197.73
  Q 227.37 197.73 227.37 196.88
  L 227.04 159.56"
/>
<path stroke="#172b65" vector-effect="non-scaling-stroke" d="
  M 227.04 159.56
  Q 227.66 151.74 225.15 143.57
  Q 224.19 140.46 222.91 137.48
  Q 219.06 128.51 210.17 122.16
  Q 204.68 118.23 199.00 117.03
  C 197.34 116.68 195.89 115.96 194.18 115.89
  Q 191.50 115.78 188.74 115.35
  Q 186.06 114.93 183.33 114.85
  Q 173.92 114.57 165.65 115.59
  C 162.84 115.94 160.28 116.92 157.44 117.23
  Q 156.28 117.36 155.13 117.77
  C 153.19 118.45 151.60 118.84 149.75 119.95
  Q 145.31 122.60 141.06 125.25
  Q 139.41 126.28 133.71 132.86
  C 131.50 135.42 130.37 138.75 128.69 141.65
  C 127.51 143.69 127.27 145.91 126.20 147.98
  C 125.31 149.70 125.35 151.71 124.62 153.47
  Q 123.89 155.24 123.74 157.13
  Q 123.40 161.27 122.63 165.53
  Q 121.90 169.61 121.91 173.27
  Q 121.97 183.06 121.76 190.00
  Q 121.69 192.47 122.20 194.59
  Q 122.94 197.60 123.02 199.02
  Q 123.70 211.60 127.95 222.23
  Q 132.73 234.22 144.00 241.53
  Q 147.14 243.57 151.71 245.25
  Q 155.87 246.78 159.38 247.47
  Q 162.66 248.12 166.46 248.57
  C 170.86 249.08 175.17 248.61 179.46 249.26
  Q 182.03 249.65 184.58 249.43
  Q 195.66 248.48 200.09 247.54
  Q 213.41 244.71 226.39 239.01
  A 1.78 1.78 0.0 0 0 227.43 237.06
  C 227.15 235.50 226.05 234.48 225.49 233.01
  Q 224.92 231.50 224.12 230.06
  Q 222.07 226.36 220.29 222.72
  C 219.70 221.51 219.62 220.38 218.89 219.21
  Q 218.22 218.16 217.61 216.93
  Q 216.27 214.25 214.63 211.58
  Q 214.46 211.30 214.15 211.40
  Q 213.97 211.47 213.87 211.73"
/>
<path stroke="#868ea6" vector-effect="non-scaling-stroke" d="
  M 227.04 159.56
  Q 225.71 150.26 224.27 144.28
  C 219.51 124.63 203.23 117.03 184.28 116.24
  C 171.33 115.70 158.37 116.64 147.46 122.72
  C 133.10 130.72 127.19 144.59 124.81 160.30
  Q 122.07 178.51 124.18 200.45
  C 125.55 214.70 129.29 228.80 140.88 237.98
  C 149.37 244.70 161.31 247.40 172.21 247.76
  C 191.31 248.39 208.90 246.11 225.83 237.77
  A 0.89 0.88 -26.7 0 0 226.23 236.58
  L 213.87 211.73"
/>
<path stroke="#172b65" vector-effect="non-scaling-stroke" d="
  M 249.67 235.37
  C 251.43 237.08 253.23 238.88 255.29 240.20
  Q 266.86 247.64 280.10 248.96
  Q 280.71 249.02 287.70 249.91
  Q 291.38 250.38 295.31 250.19
  Q 295.85 250.16 299.05 249.56
  Q 300.65 249.26 302.23 249.14
  Q 305.55 248.88 312.29 247.36
  Q 317.02 246.29 323.28 243.32
  Q 323.85 243.05 324.47 242.79
  Q 328.41 241.15 332.62 237.53
  Q 336.48 234.20 338.83 230.45
  Q 344.48 221.45 346.49 211.84
  Q 347.44 207.35 348.32 202.03
  Q 349.12 197.24 349.18 193.06
  Q 349.27 186.65 349.50 180.83
  C 349.61 178.03 349.33 175.19 349.34 172.33
  Q 349.37 167.76 348.40 162.01
  Q 348.35 161.72 348.18 161.49
  Q 347.95 161.20 347.92 160.84
  Q 346.41 146.09 339.76 136.00
  Q 336.28 130.71 329.90 125.06
  Q 328.41 123.74 326.41 122.75
  Q 324.51 121.80 322.63 120.82
  Q 319.44 119.15 316.85 118.35
  Q 309.50 116.05 302.00 115.35
  Q 301.81 115.33 301.63 115.17
  Q 301.28 114.84 300.79 114.85
  Q 294.66 114.91 288.91 114.83
  Q 284.05 114.75 278.49 115.67
  Q 272.50 116.66 268.01 117.89
  Q 261.37 119.71 254.06 125.07
  Q 244.68 131.95 240.18 142.67
  Q 237.19 149.79 235.93 156.91
  C 235.13 161.35 234.21 165.82 234.09 170.36
  C 233.94 175.93 233.54 181.63 233.95 187.10
  Q 234.13 189.47 234.09 191.85
  Q 234.03 195.16 234.61 198.71
  Q 235.27 202.74 235.95 206.76
  C 237.67 217.05 242.06 227.97 249.67 235.37"
/>
<path stroke="#909cbf" vector-effect="non-scaling-stroke" d="
  M 62.21 245.26
  Q 72.25 247.87 82.82 248.05
  C 92.70 248.21 102.77 247.48 112.30 244.09
  Q 117.52 242.23 123.72 239.48
  Q 124.04 239.34 123.88 239.03
  L 111.53 214.28
  A 1.02 1.00 65.6 0 0 110.26 213.79
  C 101.52 217.30 93.20 219.42 83.59 218.15
  C 71.27 216.52 67.17 206.52 66.33 195.51
  C 65.50 184.44 65.02 172.20 68.17 161.41
  C 70.73 152.65 77.31 148.29 86.55 147.84
  Q 97.82 147.28 106.89 151.98
  A 0.87 0.86 26.9 0 0 108.06 151.60
  L 122.13 123.73
  A 1.01 1.01 0.0 0 0 121.63 122.35
  Q 108.40 116.54 93.75 116.29
  Q 85.79 116.16 78.20 116.31"
/>
<path stroke="#172b65" vector-effect="non-scaling-stroke" d="
  M 78.20 116.31
  Q 76.74 115.24 73.61 115.67
  Q 63.69 117.04 55.67 120.79
  Q 50.78 123.08 47.10 126.36
  Q 42.48 130.47 40.15 134.02
  Q 36.26 139.94 32.88 150.45
  Q 31.96 153.32 31.73 155.98
  Q 31.45 159.18 30.80 162.04
  Q 29.83 166.27 29.85 170.64
  Q 29.88 174.76 30.00 178.79
  C 30.17 184.68 29.76 190.66 29.86 196.66
  Q 29.90 198.70 30.44 200.84
  Q 30.96 202.91 31.33 205.15
  Q 32.61 213.02 35.67 221.07
  Q 37.75 226.52 41.22 231.39
  Q 45.03 236.75 49.55 240.20
  Q 55.01 244.36 62.21 245.26"
/>
<path stroke="#868ea6" vector-effect="non-scaling-stroke" d="
  M 78.20 116.31
  Q 75.30 116.67 72.75 116.98
  C 56.43 118.96 42.68 127.48 36.59 143.30
  Q 32.40 154.22 31.59 165.91
  Q 30.48 181.99 31.62 198.03
  C 32.34 208.24 34.91 218.69 39.85 227.66
  Q 46.54 239.83 62.21 245.26"
/>
<path stroke="#909cbf" vector-effect="non-scaling-stroke" d="
  M 168.8526 266.4202
  A 0.96 0.96 0.0 0 0 167.8727 265.4805
  L 166.9129 265.5007
  A 0.96 0.96 0.0 0 0 165.9732 266.4805
  L 166.0474 270.0198
  A 0.96 0.96 0.0 0 0 167.0273 270.9595
  L 167.9871 270.9393
  A 0.96 0.96 0.0 0 0 168.9268 269.9595
  L 168.8526 266.4202"
/>
<path stroke="#909cbf" vector-effect="non-scaling-stroke" d="
  M 129.27 317.32
  L 130.75 317.15
  Q 131.30 317.09 131.30 316.54
  L 131.25 303.51
  Q 131.25 302.59 131.80 303.33
  C 135.66 308.52 140.88 308.29 146.73 307.92
  C 153.47 307.50 156.79 302.56 157.48 296.41
  C 158.36 288.55 158.19 276.77 147.81 275.16
  C 142.68 274.37 135.63 274.70 132.13 278.97
  A 0.81 0.80 -23.7 0 0 131.96 279.40
  Q 131.93 279.81 131.60 280.06
  Q 130.96 280.57 130.92 279.75
  L 130.75 275.86"
/>
<path stroke="#172b65" vector-effect="non-scaling-stroke" d="
  M 130.75 275.86
  Q 131.54 275.71 130.79 274.79
  A 0.94 0.93 63.6 0 0 129.86 274.47
  C 128.40 274.80 127.30 275.75 127.29 277.37
  Q 127.24 285.01 127.27 291.97
  Q 127.28 294.81 127.11 297.53
  Q 126.93 300.31 127.12 303.14
  C 127.42 307.56 127.46 311.75 127.35 316.17
  Q 127.33 316.84 127.78 317.28
  Q 128.40 317.88 129.27 317.32"
/>
<path stroke="#868ea6" vector-effect="non-scaling-stroke" d="
  M 130.75 275.86
  Q 129.54 274.88 128.64 275.80
  Q 128.29 276.16 128.29 276.67
  L 128.29 316.54
  Q 128.29 317.04 128.75 317.22
  Q 129.01 317.32 129.27 317.32"
/>
<path stroke="#909cbf" vector-effect="non-scaling-stroke" d="
  M 40.28 278.68
  Q 47.96 275.81 54.19 280.45
  Q 55.43 281.38 56.39 280.16
  L 56.63 279.85
  Q 57.31 278.99 56.44 278.33
  Q 48.99 272.72 39.15 275.92
  C 34.79 277.33 31.95 281.55 31.44 285.95
  C 30.25 296.18 30.93 307.41 44.25 308.24
  Q 51.80 308.71 56.66 304.43
  Q 57.20 303.95 56.76 303.38
  L 56.27 302.77
  A 1.12 1.12 0.0 0 0 54.72 302.55
  Q 48.63 307.03 41.13 304.88
  C 33.15 302.59 33.14 291.61 34.82 284.96
  Q 36.00 280.28 40.28 278.68"
/>
<path stroke="#909cbf" vector-effect="non-scaling-stroke" d="
  M 85.86 303.08
  Q 86.49 302.07 86.59 303.26
  Q 87.01 308.36 91.82 307.62
  Q 92.84 307.47 92.78 306.44
  L 92.74 305.62
  Q 92.70 304.92 91.99 304.99
  Q 89.01 305.29 89.01 302.39
  Q 88.99 294.57 89.07 286.36
  C 89.11 281.46 88.11 276.69 82.67 275.44
  Q 74.40 273.53 66.39 277.46
  A 1.20 1.19 70.2 0 0 65.76 278.82
  Q 65.84 279.15 66.07 279.40
  Q 67.01 280.43 68.23 279.75
  Q 73.76 276.68 81.47 277.97
  A 4.87 4.86 86.4 0 1 85.32 281.37
  Q 85.51 281.99 86.31 284.67
  Q 87.13 287.41 84.28 287.33
  Q 78.57 287.18 72.33 288.12
  C 66.99 288.92 62.90 291.35 62.47 297.44
  Q 61.75 307.81 71.83 308.16
  C 77.38 308.36 82.60 308.19 85.86 303.08"
/>
<path stroke="#909cbf" vector-effect="non-scaling-stroke" d="
  M 117.93 296.54
  C 119.36 301.11 117.10 305.06 112.22 305.48
  C 106.71 305.96 103.08 305.20 98.20 302.94
  Q 97.44 302.59 96.96 303.28
  L 96.39 304.08
  Q 95.92 304.75 96.62 305.18
  C 101.98 308.38 108.73 308.81 114.67 307.70
  C 116.93 307.28 118.88 306.11 119.92 303.98
  C 122.08 299.57 121.54 292.85 115.91 291.36
  Q 110.93 290.05 105.87 288.92
  C 101.74 288.00 99.29 285.46 100.75 281.04
  C 102.62 275.38 114.56 277.95 118.16 279.65
  Q 118.97 280.03 119.19 279.16
  L 119.48 278.02
  Q 119.67 277.26 118.96 276.95
  C 113.28 274.45 99.65 272.44 97.60 281.05
  C 96.16 287.12 100.14 290.44 105.75 291.54
  C 108.55 292.09 116.98 293.51 117.93 296.54"
/>
<path stroke="#909cbf" vector-effect="non-scaling-stroke" d="
  M 201.09 303.30
  Q 201.25 303.72 201.28 304.17
  C 201.47 306.75 203.71 307.91 206.25 307.53
  A 0.97 0.96 -7.0 0 0 207.07 306.49
  L 207.03 306.03
  Q 206.95 305.02 205.93 304.99
  C 204.60 304.96 203.65 304.06 203.65 302.72
  Q 203.69 294.23 203.64 285.82
  C 203.61 281.79 202.63 277.13 198.23 275.81
  Q 190.33 273.44 181.75 277.08
  Q 180.66 277.55 180.62 278.73
  Q 180.61 279.06 180.77 279.36
  Q 181.38 280.43 182.46 279.85
  Q 188.28 276.78 195.12 277.80
  Q 199.32 278.43 200.35 282.55
  Q 200.69 283.91 200.90 285.26
  Q 201.26 287.61 198.88 287.45
  Q 193.54 287.08 187.10 288.12
  Q 175.59 289.98 177.16 300.65
  Q 178.07 306.77 183.57 307.73
  Q 188.90 308.65 194.29 307.53
  Q 197.89 306.77 200.29 303.20
  Q 200.79 302.47 201.09 303.30"
/>
<path stroke="#909cbf" vector-effect="non-scaling-stroke" d="
  M 217.18 279.00
  L 217.15 276.54
  Q 217.15 275.90 216.54 275.69
  L 216.04 275.51
  Q 214.86 275.09 214.86 276.34
  L 214.92 306.47
  A 0.71 0.68 31.3 0 0 215.01 306.81
  Q 215.90 308.40 217.15 307.18
  A 1.17 1.16 68.3 0 0 217.49 306.38
  Q 217.53 297.30 217.61 288.17
  Q 217.70 277.97 227.65 277.68
  C 236.41 277.42 238.22 280.45 238.16 288.76
  Q 238.09 297.46 238.32 306.43
  A 1.24 1.23 -0.5 0 0 239.55 307.63
  L 239.94 307.63
  A 0.97 0.97 0.0 0 0 240.91 306.68
  Q 241.15 297.31 240.98 286.71
  Q 240.92 283.05 240.16 280.53
  C 238.11 273.77 228.47 274.36 223.07 275.72
  C 220.81 276.28 219.46 277.57 218.05 279.30
  Q 217.19 280.36 217.18 279.00"
/>
<path stroke="#172b65" vector-effect="non-scaling-stroke" d="
  M 165.83 278.32
  Q 164.73 280.33 164.72 284.25
  Q 164.70 298.23 165.61 306.95"
/>
<path stroke="#909cbf" vector-effect="non-scaling-stroke" d="
  M 165.61 306.95
  Q 167.20 308.10 168.43 307.52
  Q 168.90 307.31 168.90 306.79
  L 168.96 276.56
  Q 168.96 275.66 168.06 275.62
  L 167.00 275.56
  Q 165.96 275.51 166.04 276.55
  Q 166.11 277.53 165.83 278.32"
/>
<path stroke="#868ea6" vector-effect="non-scaling-stroke" d="
  M 165.61 306.95
  Q 166.43 292.68 165.83 278.32"
/>
<path stroke="#909cbf" vector-effect="non-scaling-stroke" d="
  M 171.48 327.69
  L 171.52 318.31
  A 0.65 0.65 0.0 0 0 170.80 317.66
  L 170.31 317.72
  Q 169.45 317.81 169.41 318.68
  L 168.98 327.71
  A 0.70 0.69 -88.2 0 1 168.29 328.37
  L 163.74 328.35
  Q 162.58 328.35 162.69 329.51
  L 162.73 329.90
  Q 162.81 330.74 163.65 330.75
  L 168.44 330.78
  A 0.56 0.56 0.0 0 1 169.00 331.34
  Q 168.86 341.74 168.92 353.19
  C 168.94 357.30 170.19 359.75 174.48 360.06
  Q 177.33 360.26 179.87 360.12
  Q 180.99 360.05 181.01 358.93
  L 181.01 358.51
  Q 181.02 357.88 180.40 357.85
  C 177.10 357.70 171.50 358.71 171.56 353.52
  Q 171.68 342.83 171.49 331.27
  Q 171.49 330.74 172.01 330.74
  L 180.02 330.75
  Q 181.03 330.75 181.00 329.73
  L 180.99 329.37
  Q 180.95 328.29 179.87 328.30
  L 172.19 328.39
  Q 171.48 328.40 171.48 327.69"
/>
<path stroke="#909cbf" vector-effect="non-scaling-stroke" d="
  M 34.47 344.73
  L 58.04 344.78
  A 0.47 0.47 0.0 0 0 58.51 344.32
  Q 58.63 340.78 58.16 336.70
  C 57.22 328.56 49.73 326.86 42.89 327.64
  C 34.83 328.55 31.28 334.20 31.14 341.80
  C 31.00 349.35 30.99 357.29 39.63 359.89
  Q 48.38 362.52 57.03 357.99
  Q 58.11 357.42 57.75 356.26
  L 57.63 355.87
  Q 57.21 354.52 56.06 355.34
  Q 50.13 359.53 41.55 357.85
  C 35.69 356.70 33.93 351.02 33.80 345.42
  Q 33.78 344.73 34.47 344.73"
/>
<path stroke="#172b65" vector-effect="non-scaling-stroke" d="
  M 117.05 356.56
  Q 112.96 355.90 111.27 358.01"
/>
<path stroke="#909cbf" vector-effect="non-scaling-stroke" d="
  M 111.27 358.01
  Q 106.36 359.01 102.54 357.20
  C 98.33 355.22 96.74 350.09 96.92 345.30
  Q 96.94 344.73 97.50 344.73
  L 120.75 344.78
  Q 121.59 344.78 121.62 343.94
  C 121.83 336.65 120.93 328.98 112.06 327.73
  C 103.56 326.53 95.76 329.29 94.46 338.87
  Q 93.81 343.68 94.37 348.92
  Q 95.58 360.22 107.68 360.79
  Q 115.33 361.16 120.43 357.55
  Q 121.21 357.00 120.68 356.20
  L 120.33 355.69
  A 0.87 0.87 0.0 0 0 119.19 355.41
  L 117.05 356.56"
/>
<path stroke="#868ea6" vector-effect="non-scaling-stroke" d="
  M 111.27 358.01
  Q 114.25 358.18 117.05 356.56"
/>
<path stroke="#909cbf" vector-effect="non-scaling-stroke" d="
  M 132.51 331.71
  Q 132.36 330.56 132.47 329.26
  A 1.06 1.06 0.0 0 0 131.89 328.24
  Q 131.60 328.10 131.27 328.11
  Q 130.03 328.13 130.03 329.37
  L 130.04 359.27
  Q 130.04 360.25 131.02 360.24
  L 131.95 360.23
  Q 132.98 360.23 132.97 359.20
  Q 132.88 348.77 133.13 339.47
  C 133.27 334.46 136.32 331.05 141.19 330.53
  C 149.20 329.67 153.75 331.60 153.58 340.30
  Q 153.38 350.57 153.68 359.56
  Q 153.70 360.18 154.33 360.21
  L 155.20 360.24
  Q 156.06 360.27 156.08 359.41
  Q 156.36 345.80 155.94 336.43
  Q 155.63 329.44 149.63 328.06
  C 144.84 326.95 136.31 326.95 133.38 331.89
  Q 132.68 333.07 132.51 331.71"
/>
<path stroke="#909cbf" vector-effect="non-scaling-stroke" d="
  M 76.74 356.59
  A 0.11 0.10 -41.4 0 1 76.55 356.58
  L 65.64 328.93
  Q 65.28 328.03 64.31 328.02
  L 63.23 328.01
  A 0.66 0.66 0.0 0 0 62.61 328.91
  L 74.80 359.38
  A 2.06 2.06 0.0 0 0 78.52 359.61
  Q 79.29 358.19 79.86 356.71
  Q 85.03 343.29 90.78 329.34
  Q 91.29 328.12 89.97 328.04
  L 89.61 328.01
  A 1.95 1.95 0.0 0 0 87.68 329.26
  Q 83.42 340.42 78.55 352.74
  Q 77.74 354.77 76.74 356.59"
/>
<path stroke="#909cbf" vector-effect="non-scaling-stroke" d="
  M 195.8978 371.2842
  A 0.59 0.59 0.0 0 0 195.3182 370.6840
  L 193.7585 370.6568
  A 0.59 0.59 0.0 0 0 193.1583 371.2364
  L 193.0822 375.5958
  A 0.59 0.59 0.0 0 0 193.6618 376.1960
  L 195.2215 376.2232
  A 0.59 0.59 0.0 0 0 195.8217 375.6436
  L 195.8978 371.2842"
/>
<path stroke="#172b65" vector-effect="non-scaling-stroke" d="
  M 90.09 398.46
  Q 88.82 402.76 89.65 406.50
  A 0.73 0.73 0.0 0 1 89.31 407.28
  Q 83.22 410.98 84.80 417.74
  C 86.66 425.78 100.50 424.90 106.61 423.91
  Q 110.59 423.26 113.06 421.18
  Q 116.49 418.28 115.76 412.64
  Q 115.26 408.80 111.88 406.90
  Q 107.56 404.47 104.49 406.15"
/>
<path stroke="#909cbf" vector-effect="non-scaling-stroke" d="
  M 104.49 406.15
  L 94.69 405.78
  Q 92.19 405.69 92.66 403.23
  L 92.87 402.12
  Q 93.29 399.92 95.45 400.53
  Q 98.37 401.35 103.21 400.90
  Q 112.78 400.00 112.62 390.27
  Q 112.53 385.04 108.67 382.41
  Q 107.87 381.87 108.83 381.81
  Q 110.46 381.72 112.52 382.26
  A 0.84 0.83 25.6 0 0 113.38 381.96
  Q 113.92 381.24 113.74 380.27
  A 0.68 0.67 -6.2 0 0 113.04 379.71
  C 108.78 379.95 104.64 380.48 100.38 380.26
  C 94.32 379.94 88.18 381.98 87.50 388.99
  Q 86.94 394.76 90.09 398.46"
/>
<path stroke="#868ea6" vector-effect="non-scaling-stroke" d="
  M 104.49 406.15
  Q 110.26 406.36 112.69 408.26
  Q 114.48 409.65 114.87 411.87
  Q 116.43 420.82 107.56 422.65
  C 102.53 423.69 92.58 424.34 88.17 421.16
  Q 84.68 418.63 85.53 413.60
  Q 86.30 409.03 90.98 407.83
  Q 92.40 407.47 91.24 406.58
  C 89.12 404.98 89.90 401.94 91.19 400.06
  Q 91.51 399.57 91.05 399.21
  L 90.09 398.46"
/>
<path stroke="#909cbf" vector-effect="non-scaling-stroke" d="
  M 61.00 393.09
  A 12.80 12.80 0.0 0 0 48.20 380.29
  L 44.00 380.29
  A 12.80 12.80 0.0 0 0 31.20 393.09
  L 31.20 400.69
  A 12.80 12.80 0.0 0 0 44.00 413.49
  L 48.20 413.49
  A 12.80 12.80 0.0 0 0 61.00 400.69
  L 61.00 393.09"
/>
<path stroke="#172b65" vector-effect="non-scaling-stroke" d="
  M 129.86 392.94
  Q 118.00 393.16 118.45 404.86
  Q 118.56 407.65 119.54 409.47
  Q 120.80 411.79 123.12 412.89
  Q 132.19 417.18 139.61 412.15"
/>
<path stroke="#909cbf" vector-effect="non-scaling-stroke" d="
  M 139.61 412.15
  L 142.79 408.55
  Q 143.64 407.59 143.70 408.87
  Q 143.87 413.19 148.76 412.93
  Q 149.43 412.89 149.65 412.29
  Q 149.83 411.79 149.71 411.24
  Q 149.56 410.62 148.98 410.41
  Q 148.54 410.25 148.08 410.19
  A 2.40 2.40 0.0 0 1 145.98 407.83
  Q 145.92 399.08 145.72 389.85
  C 145.62 385.48 144.58 381.82 139.69 380.80
  Q 131.01 378.99 123.23 382.96
  Q 122.30 383.43 122.94 384.24
  L 123.33 384.74
  Q 123.98 385.56 124.90 385.06
  Q 129.14 382.77 134.57 382.82
  C 140.78 382.89 143.34 385.25 143.30 391.71
  Q 143.29 392.47 142.54 392.50
  L 129.86 392.94"
/>
<path stroke="#868ea6" vector-effect="non-scaling-stroke" d="
  M 139.61 412.15
  Q 133.89 413.97 127.46 413.31
  C 122.58 412.82 119.75 410.05 119.28 405.10
  Q 118.36 395.24 129.86 392.94"
/>
<path stroke="#172b65" vector-effect="non-scaling-stroke" d="
  M 156.98 398.99
  Q 155.56 405.54 156.52 412.45
  Q 156.59 412.95 157.03 413.20
  Q 158.22 413.89 159.03 413.00"
/>
<path stroke="#909cbf" vector-effect="non-scaling-stroke" d="
  M 159.03 413.00
  L 159.61 412.74
  Q 160.10 412.52 160.10 411.98
  Q 160.17 404.26 160.09 396.49
  C 159.97 386.23 163.22 381.97 174.02 383.10
  Q 180.65 383.79 180.61 391.20
  Q 180.56 401.74 180.90 411.80
  Q 180.93 412.80 181.94 412.81
  L 182.36 412.82
  Q 183.29 412.83 183.32 411.89
  Q 183.55 401.82 183.44 390.99
  C 183.39 386.86 182.27 382.36 177.79 381.06
  C 172.65 379.57 163.92 379.43 160.38 384.76
  Q 159.84 385.57 159.80 384.60
  L 159.68 381.70
  A 0.76 0.76 0.0 0 0 158.95 380.97
  L 158.04 380.93
  A 0.84 0.84 0.0 0 0 157.16 381.76
  L 156.98 398.99"
/>
<path stroke="#868ea6" vector-effect="non-scaling-stroke" d="
  M 159.03 413.00
  Q 158.23 413.08 157.76 412.90
  Q 157.27 412.71 157.26 412.18
  L 156.98 398.99"
/>
<path stroke="#172b65" vector-effect="non-scaling-stroke" d="
  M 210.93 413.58
  Q 217.22 416.13 224.26 413.03
  C 230.03 410.48 231.15 401.58 226.47 397.49
  Q 224.36 395.65 221.77 396.02"
/>
<path stroke="#909cbf" vector-effect="non-scaling-stroke" d="
  M 221.77 396.02
  Q 216.67 395.15 211.26 393.54
  C 205.92 391.96 205.94 384.59 211.27 383.35
  Q 218.07 381.76 225.08 384.66
  Q 226.07 385.07 226.52 384.10
  L 226.64 383.85
  A 1.26 1.25 23.2 0 0 225.96 382.16
  Q 217.72 378.91 209.97 381.02
  C 204.07 382.62 202.81 391.04 207.35 394.47
  Q 209.91 396.41 214.16 397.18
  Q 218.88 398.02 223.02 399.66
  C 225.98 400.84 225.60 404.39 225.15 406.88
  C 224.82 408.70 223.08 409.84 221.43 410.23
  Q 213.50 412.12 205.60 408.39
  Q 205.04 408.13 204.49 408.42
  Q 203.74 408.83 203.67 409.54
  Q 203.62 410.14 204.17 410.40
  L 210.93 413.58"
/>
<path stroke="#868ea6" vector-effect="non-scaling-stroke" d="
  M 221.77 396.02
  Q 228.07 398.17 228.35 403.71
  C 228.56 408.04 226.89 411.42 222.79 412.72
  Q 220.15 413.57 218.00 413.54
  Q 212.70 413.46 210.93 413.58"
/>
<path stroke="#909cbf" vector-effect="non-scaling-stroke" d="
  M 236.55 397.85
  A 0.45 0.45 0.0 0 1 237.00 397.39
  L 260.96 397.42
  Q 261.18 397.42 261.20 397.20
  Q 261.57 392.25 260.40 387.43
  C 258.69 380.41 250.86 379.63 244.79 380.46
  C 239.36 381.20 235.68 384.53 234.43 389.94
  Q 232.69 397.49 234.64 404.62
  C 237.55 415.27 252.24 415.55 259.88 410.44
  Q 260.77 409.85 260.37 408.86
  Q 260.22 408.49 259.95 408.20
  Q 259.51 407.74 258.97 408.06
  Q 252.96 411.63 246.29 410.81
  C 238.53 409.85 236.59 404.54 236.55 397.85"
/>
<path stroke="#909cbf" vector-effect="non-scaling-stroke" d="
  M 308.43 401.70
  Q 310.52 410.16 301.84 410.81
  Q 294.92 411.32 289.22 408.51
  Q 287.95 407.88 287.02 408.94
  Q 286.77 409.21 286.77 409.66
  A 0.80 0.79 16.3 0 0 287.16 410.36
  Q 294.03 414.39 303.30 413.32
  C 308.32 412.74 311.58 410.07 311.82 404.83
  Q 312.13 398.06 304.97 396.21
  Q 300.55 395.06 295.79 393.91
  C 291.75 392.94 289.61 389.97 291.38 385.92
  C 292.35 383.70 294.78 383.13 296.96 382.91
  Q 303.38 382.26 308.39 384.70
  Q 309.42 385.20 309.98 384.20
  L 310.19 383.82
  Q 310.71 382.89 309.74 382.45
  Q 301.87 378.92 293.76 380.94
  Q 289.22 382.06 288.34 385.84
  C 285.47 398.25 300.33 396.34 307.21 400.11
  A 2.51 2.49 7.7 0 1 308.43 401.70"
/>
<path stroke="#909cbf" vector-effect="non-scaling-stroke" d="
  M 71.65 385.69
  L 71.60 381.91
  Q 71.58 380.99 70.67 380.91
  L 70.08 380.85
  Q 69.19 380.77 69.19 381.67
  L 69.14 412.21
  Q 69.14 413.03 69.96 413.00
  L 71.07 412.95
  Q 71.94 412.92 71.98 412.05
  Q 72.24 405.04 72.06 397.52
  C 71.88 390.02 74.05 383.52 82.60 383.25
  Q 83.58 383.22 83.52 382.24
  L 83.46 381.08
  Q 83.43 380.59 82.94 380.59
  Q 75.28 380.70 72.17 385.83
  Q 71.67 386.66 71.65 385.69"
/>
<path stroke="#909cbf" vector-effect="non-scaling-stroke" d="
  M 272.19 385.44
  L 272.22 381.89
  Q 272.24 380.78 271.13 380.82
  L 270.83 380.83
  Q 269.53 380.87 269.53 382.17
  L 269.54 412.30
  Q 269.54 413.06 270.30 413.00
  L 271.98 412.89
  Q 272.68 412.84 272.69 412.15
  Q 272.87 404.35 272.69 396.76
  C 272.52 389.62 275.05 383.52 282.93 383.28
  A 0.99 0.98 -0.6 0 0 283.89 382.31
  L 283.90 381.32
  Q 283.91 380.67 283.26 380.65
  Q 278.29 380.54 274.34 383.63
  C 273.63 384.19 273.40 385.05 272.78 385.69
  Q 272.18 386.32 272.19 385.44"
/>
<path stroke="#909cbf" vector-effect="non-scaling-stroke" d="
  M 195.88 381.47
  A 0.60 0.60 0.0 0 0 195.28 380.87
  L 193.64 380.87
  A 0.60 0.60 0.0 0 0 193.04 381.47
  L 193.04 412.35
  A 0.60 0.60 0.0 0 0 193.64 412.95
  L 195.28 412.95
  A 0.60 0.60 0.0 0 0 195.88 412.35
  L 195.88 381.47"
/>
<path stroke="#868ea6" vector-effect="non-scaling-stroke" d="
  M 378.50 447.00
  Q 378.08 446.52 377.50 446.82"
/>
<path stroke="#868ea6" vector-effect="non-scaling-stroke" d="
  M 347.19 201.52
  Q 348.74 186.11 347.92 172.17
  C 347.27 160.90 345.94 150.82 341.12 140.73
  Q 334.19 126.23 318.90 120.40
  Q 312.82 118.09 309.01 117.47
  Q 292.09 114.74 275.14 117.40
  C 269.17 118.34 262.86 120.68 257.62 123.82
  C 240.07 134.37 235.84 155.73 235.27 174.61
  C 234.75 191.63 235.20 210.67 243.73 225.96
  C 251.07 239.11 264.13 245.57 278.95 247.61
  Q 294.50 249.75 309.42 246.83
  Q 319.82 244.80 327.57 239.76
  C 340.16 231.59 345.69 216.35 347.19 201.52"
/>
<path stroke="#909cbf" vector-effect="non-scaling-stroke" d="
  M 187.10 146.96
  C 181.15 145.30 174.21 145.40 168.20 147.20
  Q 160.79 149.41 158.21 157.73
  Q 156.33 163.80 156.05 170.55
  Q 156.03 171.17 156.65 171.17
  L 197.04 171.19
  A 0.46 0.46 0.0 0 0 197.50 170.71
  C 197.11 162.30 197.50 149.86 187.10 146.96"
/>
<path stroke="#909cbf" vector-effect="non-scaling-stroke" d="
  M 287.32 148.12
  C 275.43 149.28 271.46 158.10 270.34 168.56
  Q 268.75 183.50 270.35 198.15
  C 271.29 206.72 274.54 215.06 283.73 217.52
  Q 291.17 219.51 299.18 217.73
  C 309.56 215.41 312.39 206.52 313.20 196.83
  Q 314.40 182.45 313.10 168.28
  C 311.62 152.05 303.11 146.57 287.32 148.12"
/>
<path stroke="#909cbf" vector-effect="non-scaling-stroke" d="
  M 85.50 289.84
  C 80.45 290.11 75.01 290.06 70.12 291.34
  Q 65.68 292.49 65.45 297.39
  C 65.30 300.63 65.44 303.93 69.08 305.02
  Q 74.14 306.54 79.44 304.94
  C 85.61 303.08 86.77 295.98 86.19 290.43
  Q 86.12 289.80 85.50 289.84"
/>
<path stroke="#868ea6" vector-effect="non-scaling-stroke" d="
  M 154.6053 287.3297
  A 9.61 9.61 0.0 0 0 144.9619 277.7533
  L 141.1019 277.7668
  A 9.61 9.61 0.0 0 0 131.5255 287.4103
  L 131.5547 295.7703
  A 9.61 9.61 0.0 0 0 141.1981 305.3467
  L 145.0581 305.3332
  A 9.61 9.61 0.0 0 0 154.6345 295.6897
  L 154.6053 287.3297"
/>
<path stroke="#909cbf" vector-effect="non-scaling-stroke" d="
  M 190.46 290.36
  C 187.52 290.56 183.30 290.87 181.45 293.43
  Q 178.68 297.24 180.50 302.21
  C 182.13 306.62 189.97 306.03 193.34 305.19
  C 200.07 303.51 201.23 296.43 200.71 290.46
  Q 200.66 289.86 200.06 289.88
  Q 195.24 290.03 190.46 290.36"
/>
<path stroke="#172b65" vector-effect="non-scaling-stroke" d="
  M 153.5407 287.3494
  A 8.29 8.29 0.0 0 0 145.4261 278.8876
  L 141.1471 278.7980
  A 8.29 8.29 0.0 0 0 132.6853 286.9125
  L 132.4993 295.7906
  A 8.29 8.29 0.0 0 0 140.6139 304.2524
  L 144.8929 304.3420
  A 8.29 8.29 0.0 0 0 153.3547 296.2275
  L 153.5407 287.3494"
/>
<path stroke="#909cbf" vector-effect="non-scaling-stroke" d="
  M 34.65 342.11
  L 55.59 342.01
  A 0.38 0.38 0.0 0 0 55.97 341.62
  L 55.96 339.64
  A 9.52 9.35 89.7 0 0 46.56 330.17
  L 43.56 330.19
  A 9.52 9.35 89.7 0 0 34.26 339.76
  L 34.27 341.74
  A 0.38 0.38 0.0 0 0 34.65 342.11"
/>
<path stroke="#909cbf" vector-effect="non-scaling-stroke" d="
  M 97.50 342.18
  L 118.84 341.88
  A 0.23 0.23 0.0 0 0 119.07 341.65
  L 119.04 339.61
  A 9.55 9.51 89.2 0 0 109.40 330.19
  L 106.62 330.23
  A 9.55 9.51 89.2 0 0 97.24 339.91
  L 97.27 341.95
  A 0.23 0.23 0.0 0 0 97.50 342.18"
/>
<path stroke="#909cbf" vector-effect="non-scaling-stroke" d="
  M 109.7265 390.1617
  A 7.18 7.18 0.0 0 0 102.6221 382.9069
  L 97.5623 382.8539
  A 7.18 7.18 0.0 0 0 90.3075 389.9584
  L 90.2935 391.2983
  A 7.18 7.18 0.0 0 0 97.3979 398.5531
  L 102.4577 398.6061
  A 7.18 7.18 0.0 0 0 109.7125 391.5016
  L 109.7265 390.1617"
/>
<path stroke="#909cbf" vector-effect="non-scaling-stroke" d="
  M 112.0635 414.2058
  A 5.55 5.55 0.0 0 0 106.4270 408.7437
  L 94.0686 408.9378
  A 5.55 5.55 0.0 0 0 88.6064 414.5743
  L 88.6165 415.2142
  A 5.55 5.55 0.0 0 0 94.2530 420.6763
  L 106.6114 420.4822
  A 5.55 5.55 0.0 0 0 112.0736 414.8457
  L 112.0635 414.2058"
/>
<path stroke="#868ea6" vector-effect="non-scaling-stroke" d="
  M 58.15 393.35
  A 10.39 10.39 0.0 0 0 47.76 382.96
  L 44.54 382.96
  A 10.39 10.39 0.0 0 0 34.15 393.35
  L 34.15 400.25
  A 10.39 10.39 0.0 0 0 44.54 410.64
  L 47.76 410.64
  A 10.39 10.39 0.0 0 0 58.15 400.25
  L 58.15 393.35"
/>
<path stroke="#868ea6" vector-effect="non-scaling-stroke" d="
  M 125.11 397.40
  Q 118.83 404.88 125.48 409.99"
/>
<path stroke="#909cbf" vector-effect="non-scaling-stroke" d="
  M 125.48 409.99
  Q 130.49 412.01 136.27 410.20
  C 142.93 408.13 143.37 401.64 143.35 395.80
  Q 143.35 395.22 142.77 395.19
  Q 132.86 394.69 125.11 397.40"
/>
<path stroke="#172b65" vector-effect="non-scaling-stroke" d="
  M 125.48 409.99
  Q 123.34 407.13 123.30 405.01
  Q 123.23 401.38 125.11 397.40"
/>
<path stroke="#909cbf" vector-effect="non-scaling-stroke" d="
  M 237.41 394.73
  L 258.39 394.51
  A 0.49 0.49 0.0 0 0 258.88 394.01
  L 258.86 392.56
  A 9.86 9.03 89.4 0 0 249.73 382.80
  L 245.83 382.84
  A 9.86 9.03 89.4 0 0 236.90 392.79
  L 236.92 394.24
  A 0.49 0.49 0.0 0 0 237.41 394.73"
/>
<path stroke="#172b65" vector-effect="non-scaling-stroke" d="
  M 57.1319 392.9883
  A 9.36 9.36 0.0 0 0 47.5940 383.8097
  L 44.1946 383.8750
  A 9.36 9.36 0.0 0 0 35.0160 393.4130
  L 35.1481 400.2917
  A 9.36 9.36 0.0 0 0 44.6860 409.4703
  L 48.0854 409.4050
  A 9.36 9.36 0.0 0 0 57.2640 399.8670
  L 57.1319 392.9883"
/>
</g>
<path fill="#ffffff" d="
  M 0.00 0.00
  L 449.00 0.00
  L 449.00 447.00
  L 379.17 447.00
  L 379.13 69.92
  A 0.37 0.37 0.0 0 0 378.76 69.55
  L 4.04 69.51
  L 0.00 69.68
  L 0.00 0.00
  Z
  M 408.72 39.25
  A 0.47 0.47 0.0 0 1 409.19 39.72
  L 409.12 158.45
  A 0.40 0.40 0.0 0 0 409.80 158.73
  Q 427.58 141.06 446.65 121.92
  Q 448.75 119.82 448.75 117.09
  Q 448.72 58.40 448.74 0.78
  A 0.41 0.41 0.0 0 0 448.33 0.37
  Q 390.57 0.41 332.12 0.33
  C 330.57 0.33 328.59 0.33 327.58 1.33
  Q 308.95 19.91 290.09 38.68
  Q 289.20 39.57 290.46 39.57
  L 408.72 39.25
  Z"
/>
<path fill="#e00c64" d="
  M 408.72 39.25
  L 290.46 39.57
  Q 289.20 39.57 290.09 38.68
  Q 308.95 19.91 327.58 1.33
  C 328.59 0.33 330.57 0.33 332.12 0.33
  Q 390.57 0.41 448.33 0.37
  A 0.41 0.41 0.0 0 1 448.74 0.78
  Q 448.72 58.40 448.75 117.09
  Q 448.75 119.82 446.65 121.92
  Q 427.58 141.06 409.80 158.73
  A 0.40 0.40 0.0 0 1 409.12 158.45
  L 409.19 39.72
  A 0.47 0.47 0.0 0 0 408.72 39.25
  Z"
/>
<path fill="#21397e" d="
  M 4.04 69.51
  Q 4.03 69.88 3.51 69.90
  Q 2.99 69.93 3.32 70.33
  Q 3.56 70.62 3.95 70.62
  Q 186.08 70.56 376.81 70.59
  Q 378.22 70.59 378.21 71.99
  Q 378.03 160.22 378.28 248.25
  Q 378.30 256.28 378.30 264.25
  Q 378.34 324.68 378.06 383.87
  Q 378.01 395.50 378.28 408.19
  C 378.40 413.22 377.98 418.21 378.13 422.97
  C 378.37 430.40 377.38 437.81 378.41 445.07
  Q 378.49 445.65 378.04 446.01
  Q 377.62 446.34 377.50 446.82
  L 1.95 447.00
  L 0.50 447.00
  L 0.00 95.91
  L 0.00 79.45
  L 0.00 75.19
  L 0.00 69.68
  L 4.04 69.51
  Z
  M 213.87 211.73
  Q 213.49 211.42 213.05 211.64
  C 201.39 217.37 188.52 219.35 175.50 218.65
  C 168.03 218.25 161.25 215.50 158.54 207.96
  Q 156.89 203.40 156.30 198.13
  A 0.51 0.50 86.9 0 1 156.80 197.57
  L 226.51 197.73
  Q 227.37 197.73 227.37 196.88
  L 227.04 159.56
  Q 227.66 151.74 225.15 143.57
  Q 224.19 140.46 222.91 137.48
  Q 219.06 128.51 210.17 122.16
  Q 204.68 118.23 199.00 117.03
  C 197.34 116.68 195.89 115.96 194.18 115.89
  Q 191.50 115.78 188.74 115.35
  Q 186.06 114.93 183.33 114.85
  Q 173.92 114.57 165.65 115.59
  C 162.84 115.94 160.28 116.92 157.44 117.23
  Q 156.28 117.36 155.13 117.77
  C 153.19 118.45 151.60 118.84 149.75 119.95
  Q 145.31 122.60 141.06 125.25
  Q 139.41 126.28 133.71 132.86
  C 131.50 135.42 130.37 138.75 128.69 141.65
  C 127.51 143.69 127.27 145.91 126.20 147.98
  C 125.31 149.70 125.35 151.71 124.62 153.47
  Q 123.89 155.24 123.74 157.13
  Q 123.40 161.27 122.63 165.53
  Q 121.90 169.61 121.91 173.27
  Q 121.97 183.06 121.76 190.00
  Q 121.69 192.47 122.20 194.59
  Q 122.94 197.60 123.02 199.02
  Q 123.70 211.60 127.95 222.23
  Q 132.73 234.22 144.00 241.53
  Q 147.14 243.57 151.71 245.25
  Q 155.87 246.78 159.38 247.47
  Q 162.66 248.12 166.46 248.57
  C 170.86 249.08 175.17 248.61 179.46 249.26
  Q 182.03 249.65 184.58 249.43
  Q 195.66 248.48 200.09 247.54
  Q 213.41 244.71 226.39 239.01
  A 1.78 1.78 0.0 0 0 227.43 237.06
  C 227.15 235.50 226.05 234.48 225.49 233.01
  Q 224.92 231.50 224.12 230.06
  Q 222.07 226.36 220.29 222.72
  C 219.70 221.51 219.62 220.38 218.89 219.21
  Q 218.22 218.16 217.61 216.93
  Q 216.27 214.25 214.63 211.58
  Q 214.46 211.30 214.15 211.40
  Q 213.97 211.47 213.87 211.73
  Z
  M 249.67 235.37
  C 251.43 237.08 253.23 238.88 255.29 240.20
  Q 266.86 247.64 280.10 248.96
  Q 280.71 249.02 287.70 249.91
  Q 291.38 250.38 295.31 250.19
  Q 295.85 250.16 299.05 249.56
  Q 300.65 249.26 302.23 249.14
  Q 305.55 248.88 312.29 247.36
  Q 317.02 246.29 323.28 243.32
  Q 323.85 243.05 324.47 242.79
  Q 328.41 241.15 332.62 237.53
  Q 336.48 234.20 338.83 230.45
  Q 344.48 221.45 346.49 211.84
  Q 347.44 207.35 348.32 202.03
  Q 349.12 197.24 349.18 193.06
  Q 349.27 186.65 349.50 180.83
  C 349.61 178.03 349.33 175.19 349.34 172.33
  Q 349.37 167.76 348.40 162.01
  Q 348.35 161.72 348.18 161.49
  Q 347.95 161.20 347.92 160.84
  Q 346.41 146.09 339.76 136.00
  Q 336.28 130.71 329.90 125.06
  Q 328.41 123.74 326.41 122.75
  Q 324.51 121.80 322.63 120.82
  Q 319.44 119.15 316.85 118.35
  Q 309.50 116.05 302.00 115.35
  Q 301.81 115.33 301.63 115.17
  Q 301.28 114.84 300.79 114.85
  Q 294.66 114.91 288.91 114.83
  Q 284.05 114.75 278.49 115.67
  Q 272.50 116.66 268.01 117.89
  Q 261.37 119.71 254.06 125.07
  Q 244.68 131.95 240.18 142.67
  Q 237.19 149.79 235.93 156.91
  C 235.13 161.35 234.21 165.82 234.09 170.36
  C 233.94 175.93 233.54 181.63 233.95 187.10
  Q 234.13 189.47 234.09 191.85
  Q 234.03 195.16 234.61 198.71
  Q 235.27 202.74 235.95 206.76
  C 237.67 217.05 242.06 227.97 249.67 235.37
  Z
  M 62.21 245.26
  Q 72.25 247.87 82.82 248.05
  C 92.70 248.21 102.77 247.48 112.30 244.09
  Q 117.52 242.23 123.72 239.48
  Q 124.04 239.34 123.88 239.03
  L 111.53 214.28
  A 1.02 1.00 65.6 0 0 110.26 213.79
  C 101.52 217.30 93.20 219.42 83.59 218.15
  C 71.27 216.52 67.17 206.52 66.33 195.51
  C 65.50 184.44 65.02 172.20 68.17 161.41
  C 70.73 152.65 77.31 148.29 86.55 147.84
  Q 97.82 147.28 106.89 151.98
  A 0.87 0.86 26.9 0 0 108.06 151.60
  L 122.13 123.73
  A 1.01 1.01 0.0 0 0 121.63 122.35
  Q 108.40 116.54 93.75 116.29
  Q 85.79 116.16 78.20 116.31
  Q 76.74 115.24 73.61 115.67
  Q 63.69 117.04 55.67 120.79
  Q 50.78 123.08 47.10 126.36
  Q 42.48 130.47 40.15 134.02
  Q 36.26 139.94 32.88 150.45
  Q 31.96 153.32 31.73 155.98
  Q 31.45 159.18 30.80 162.04
  Q 29.83 166.27 29.85 170.64
  Q 29.88 174.76 30.00 178.79
  C 30.17 184.68 29.76 190.66 29.86 196.66
  Q 29.90 198.70 30.44 200.84
  Q 30.96 202.91 31.33 205.15
  Q 32.61 213.02 35.67 221.07
  Q 37.75 226.52 41.22 231.39
  Q 45.03 236.75 49.55 240.20
  Q 55.01 244.36 62.21 245.26
  Z
  M 168.8526 266.4202
  A 0.96 0.96 0.0 0 0 167.8727 265.4805
  L 166.9129 265.5007
  A 0.96 0.96 0.0 0 0 165.9732 266.4805
  L 166.0474 270.0198
  A 0.96 0.96 0.0 0 0 167.0273 270.9595
  L 167.9871 270.9393
  A 0.96 0.96 0.0 0 0 168.9268 269.9595
  L 168.8526 266.4202
  Z
  M 129.27 317.32
  L 130.75 317.15
  Q 131.30 317.09 131.30 316.54
  L 131.25 303.51
  Q 131.25 302.59 131.80 303.33
  C 135.66 308.52 140.88 308.29 146.73 307.92
  C 153.47 307.50 156.79 302.56 157.48 296.41
  C 158.36 288.55 158.19 276.77 147.81 275.16
  C 142.68 274.37 135.63 274.70 132.13 278.97
  A 0.81 0.80 -23.7 0 0 131.96 279.40
  Q 131.93 279.81 131.60 280.06
  Q 130.96 280.57 130.92 279.75
  L 130.75 275.86
  Q 131.54 275.71 130.79 274.79
  A 0.94 0.93 63.6 0 0 129.86 274.47
  C 128.40 274.80 127.30 275.75 127.29 277.37
  Q 127.24 285.01 127.27 291.97
  Q 127.28 294.81 127.11 297.53
  Q 126.93 300.31 127.12 303.14
  C 127.42 307.56 127.46 311.75 127.35 316.17
  Q 127.33 316.84 127.78 317.28
  Q 128.40 317.88 129.27 317.32
  Z
  M 40.28 278.68
  Q 47.96 275.81 54.19 280.45
  Q 55.43 281.38 56.39 280.16
  L 56.63 279.85
  Q 57.31 278.99 56.44 278.33
  Q 48.99 272.72 39.15 275.92
  C 34.79 277.33 31.95 281.55 31.44 285.95
  C 30.25 296.18 30.93 307.41 44.25 308.24
  Q 51.80 308.71 56.66 304.43
  Q 57.20 303.95 56.76 303.38
  L 56.27 302.77
  A 1.12 1.12 0.0 0 0 54.72 302.55
  Q 48.63 307.03 41.13 304.88
  C 33.15 302.59 33.14 291.61 34.82 284.96
  Q 36.00 280.28 40.28 278.68
  Z
  M 85.86 303.08
  Q 86.49 302.07 86.59 303.26
  Q 87.01 308.36 91.82 307.62
  Q 92.84 307.47 92.78 306.44
  L 92.74 305.62
  Q 92.70 304.92 91.99 304.99
  Q 89.01 305.29 89.01 302.39
  Q 88.99 294.57 89.07 286.36
  C 89.11 281.46 88.11 276.69 82.67 275.44
  Q 74.40 273.53 66.39 277.46
  A 1.20 1.19 70.2 0 0 65.76 278.82
  Q 65.84 279.15 66.07 279.40
  Q 67.01 280.43 68.23 279.75
  Q 73.76 276.68 81.47 277.97
  A 4.87 4.86 86.4 0 1 85.32 281.37
  Q 85.51 281.99 86.31 284.67
  Q 87.13 287.41 84.28 287.33
  Q 78.57 287.18 72.33 288.12
  C 66.99 288.92 62.90 291.35 62.47 297.44
  Q 61.75 307.81 71.83 308.16
  C 77.38 308.36 82.60 308.19 85.86 303.08
  Z
  M 117.93 296.54
  C 119.36 301.11 117.10 305.06 112.22 305.48
  C 106.71 305.96 103.08 305.20 98.20 302.94
  Q 97.44 302.59 96.96 303.28
  L 96.39 304.08
  Q 95.92 304.75 96.62 305.18
  C 101.98 308.38 108.73 308.81 114.67 307.70
  C 116.93 307.28 118.88 306.11 119.92 303.98
  C 122.08 299.57 121.54 292.85 115.91 291.36
  Q 110.93 290.05 105.87 288.92
  C 101.74 288.00 99.29 285.46 100.75 281.04
  C 102.62 275.38 114.56 277.95 118.16 279.65
  Q 118.97 280.03 119.19 279.16
  L 119.48 278.02
  Q 119.67 277.26 118.96 276.95
  C 113.28 274.45 99.65 272.44 97.60 281.05
  C 96.16 287.12 100.14 290.44 105.75 291.54
  C 108.55 292.09 116.98 293.51 117.93 296.54
  Z
  M 201.09 303.30
  Q 201.25 303.72 201.28 304.17
  C 201.47 306.75 203.71 307.91 206.25 307.53
  A 0.97 0.96 -7.0 0 0 207.07 306.49
  L 207.03 306.03
  Q 206.95 305.02 205.93 304.99
  C 204.60 304.96 203.65 304.06 203.65 302.72
  Q 203.69 294.23 203.64 285.82
  C 203.61 281.79 202.63 277.13 198.23 275.81
  Q 190.33 273.44 181.75 277.08
  Q 180.66 277.55 180.62 278.73
  Q 180.61 279.06 180.77 279.36
  Q 181.38 280.43 182.46 279.85
  Q 188.28 276.78 195.12 277.80
  Q 199.32 278.43 200.35 282.55
  Q 200.69 283.91 200.90 285.26
  Q 201.26 287.61 198.88 287.45
  Q 193.54 287.08 187.10 288.12
  Q 175.59 289.98 177.16 300.65
  Q 178.07 306.77 183.57 307.73
  Q 188.90 308.65 194.29 307.53
  Q 197.89 306.77 200.29 303.20
  Q 200.79 302.47 201.09 303.30
  Z
  M 217.18 279.00
  L 217.15 276.54
  Q 217.15 275.90 216.54 275.69
  L 216.04 275.51
  Q 214.86 275.09 214.86 276.34
  L 214.92 306.47
  A 0.71 0.68 31.3 0 0 215.01 306.81
  Q 215.90 308.40 217.15 307.18
  A 1.17 1.16 68.3 0 0 217.49 306.38
  Q 217.53 297.30 217.61 288.17
  Q 217.70 277.97 227.65 277.68
  C 236.41 277.42 238.22 280.45 238.16 288.76
  Q 238.09 297.46 238.32 306.43
  A 1.24 1.23 -0.5 0 0 239.55 307.63
  L 239.94 307.63
  A 0.97 0.97 0.0 0 0 240.91 306.68
  Q 241.15 297.31 240.98 286.71
  Q 240.92 283.05 240.16 280.53
  C 238.11 273.77 228.47 274.36 223.07 275.72
  C 220.81 276.28 219.46 277.57 218.05 279.30
  Q 217.19 280.36 217.18 279.00
  Z
  M 165.83 278.32
  Q 164.73 280.33 164.72 284.25
  Q 164.70 298.23 165.61 306.95
  Q 167.20 308.10 168.43 307.52
  Q 168.90 307.31 168.90 306.79
  L 168.96 276.56
  Q 168.96 275.66 168.06 275.62
  L 167.00 275.56
  Q 165.96 275.51 166.04 276.55
  Q 166.11 277.53 165.83 278.32
  Z
  M 171.48 327.69
  L 171.52 318.31
  A 0.65 0.65 0.0 0 0 170.80 317.66
  L 170.31 317.72
  Q 169.45 317.81 169.41 318.68
  L 168.98 327.71
  A 0.70 0.69 -88.2 0 1 168.29 328.37
  L 163.74 328.35
  Q 162.58 328.35 162.69 329.51
  L 162.73 329.90
  Q 162.81 330.74 163.65 330.75
  L 168.44 330.78
  A 0.56 0.56 0.0 0 1 169.00 331.34
  Q 168.86 341.74 168.92 353.19
  C 168.94 357.30 170.19 359.75 174.48 360.06
  Q 177.33 360.26 179.87 360.12
  Q 180.99 360.05 181.01 358.93
  L 181.01 358.51
  Q 181.02 357.88 180.40 357.85
  C 177.10 357.70 171.50 358.71 171.56 353.52
  Q 171.68 342.83 171.49 331.27
  Q 171.49 330.74 172.01 330.74
  L 180.02 330.75
  Q 181.03 330.75 181.00 329.73
  L 180.99 329.37
  Q 180.95 328.29 179.87 328.30
  L 172.19 328.39
  Q 171.48 328.40 171.48 327.69
  Z
  M 34.47 344.73
  L 58.04 344.78
  A 0.47 0.47 0.0 0 0 58.51 344.32
  Q 58.63 340.78 58.16 336.70
  C 57.22 328.56 49.73 326.86 42.89 327.64
  C 34.83 328.55 31.28 334.20 31.14 341.80
  C 31.00 349.35 30.99 357.29 39.63 359.89
  Q 48.38 362.52 57.03 357.99
  Q 58.11 357.42 57.75 356.26
  L 57.63 355.87
  Q 57.21 354.52 56.06 355.34
  Q 50.13 359.53 41.55 357.85
  C 35.69 356.70 33.93 351.02 33.80 345.42
  Q 33.78 344.73 34.47 344.73
  Z
  M 117.05 356.56
  Q 112.96 355.90 111.27 358.01
  Q 106.36 359.01 102.54 357.20
  C 98.33 355.22 96.74 350.09 96.92 345.30
  Q 96.94 344.73 97.50 344.73
  L 120.75 344.78
  Q 121.59 344.78 121.62 343.94
  C 121.83 336.65 120.93 328.98 112.06 327.73
  C 103.56 326.53 95.76 329.29 94.46 338.87
  Q 93.81 343.68 94.37 348.92
  Q 95.58 360.22 107.68 360.79
  Q 115.33 361.16 120.43 357.55
  Q 121.21 357.00 120.68 356.20
  L 120.33 355.69
  A 0.87 0.87 0.0 0 0 119.19 355.41
  L 117.05 356.56
  Z
  M 132.51 331.71
  Q 132.36 330.56 132.47 329.26
  A 1.06 1.06 0.0 0 0 131.89 328.24
  Q 131.60 328.10 131.27 328.11
  Q 130.03 328.13 130.03 329.37
  L 130.04 359.27
  Q 130.04 360.25 131.02 360.24
  L 131.95 360.23
  Q 132.98 360.23 132.97 359.20
  Q 132.88 348.77 133.13 339.47
  C 133.27 334.46 136.32 331.05 141.19 330.53
  C 149.20 329.67 153.75 331.60 153.58 340.30
  Q 153.38 350.57 153.68 359.56
  Q 153.70 360.18 154.33 360.21
  L 155.20 360.24
  Q 156.06 360.27 156.08 359.41
  Q 156.36 345.80 155.94 336.43
  Q 155.63 329.44 149.63 328.06
  C 144.84 326.95 136.31 326.95 133.38 331.89
  Q 132.68 333.07 132.51 331.71
  Z
  M 76.74 356.59
  A 0.11 0.10 -41.4 0 1 76.55 356.58
  L 65.64 328.93
  Q 65.28 328.03 64.31 328.02
  L 63.23 328.01
  A 0.66 0.66 0.0 0 0 62.61 328.91
  L 74.80 359.38
  A 2.06 2.06 0.0 0 0 78.52 359.61
  Q 79.29 358.19 79.86 356.71
  Q 85.03 343.29 90.78 329.34
  Q 91.29 328.12 89.97 328.04
  L 89.61 328.01
  A 1.95 1.95 0.0 0 0 87.68 329.26
  Q 83.42 340.42 78.55 352.74
  Q 77.74 354.77 76.74 356.59
  Z
  M 195.8978 371.2842
  A 0.59 0.59 0.0 0 0 195.3182 370.6840
  L 193.7585 370.6568
  A 0.59 0.59 0.0 0 0 193.1583 371.2364
  L 193.0822 375.5958
  A 0.59 0.59 0.0 0 0 193.6618 376.1960
  L 195.2215 376.2232
  A 0.59 0.59 0.0 0 0 195.8217 375.6436
  L 195.8978 371.2842
  Z
  M 90.09 398.46
  Q 88.82 402.76 89.65 406.50
  A 0.73 0.73 0.0 0 1 89.31 407.28
  Q 83.22 410.98 84.80 417.74
  C 86.66 425.78 100.50 424.90 106.61 423.91
  Q 110.59 423.26 113.06 421.18
  Q 116.49 418.28 115.76 412.64
  Q 115.26 408.80 111.88 406.90
  Q 107.56 404.47 104.49 406.15
  L 94.69 405.78
  Q 92.19 405.69 92.66 403.23
  L 92.87 402.12
  Q 93.29 399.92 95.45 400.53
  Q 98.37 401.35 103.21 400.90
  Q 112.78 400.00 112.62 390.27
  Q 112.53 385.04 108.67 382.41
  Q 107.87 381.87 108.83 381.81
  Q 110.46 381.72 112.52 382.26
  A 0.84 0.83 25.6 0 0 113.38 381.96
  Q 113.92 381.24 113.74 380.27
  A 0.68 0.67 -6.2 0 0 113.04 379.71
  C 108.78 379.95 104.64 380.48 100.38 380.26
  C 94.32 379.94 88.18 381.98 87.50 388.99
  Q 86.94 394.76 90.09 398.46
  Z
  M 61.00 393.09
  A 12.80 12.80 0.0 0 0 48.20 380.29
  L 44.00 380.29
  A 12.80 12.80 0.0 0 0 31.20 393.09
  L 31.20 400.69
  A 12.80 12.80 0.0 0 0 44.00 413.49
  L 48.20 413.49
  A 12.80 12.80 0.0 0 0 61.00 400.69
  L 61.00 393.09
  Z
  M 129.86 392.94
  Q 118.00 393.16 118.45 404.86
  Q 118.56 407.65 119.54 409.47
  Q 120.80 411.79 123.12 412.89
  Q 132.19 417.18 139.61 412.15
  L 142.79 408.55
  Q 143.64 407.59 143.70 408.87
  Q 143.87 413.19 148.76 412.93
  Q 149.43 412.89 149.65 412.29
  Q 149.83 411.79 149.71 411.24
  Q 149.56 410.62 148.98 410.41
  Q 148.54 410.25 148.08 410.19
  A 2.40 2.40 0.0 0 1 145.98 407.83
  Q 145.92 399.08 145.72 389.85
  C 145.62 385.48 144.58 381.82 139.69 380.80
  Q 131.01 378.99 123.23 382.96
  Q 122.30 383.43 122.94 384.24
  L 123.33 384.74
  Q 123.98 385.56 124.90 385.06
  Q 129.14 382.77 134.57 382.82
  C 140.78 382.89 143.34 385.25 143.30 391.71
  Q 143.29 392.47 142.54 392.50
  L 129.86 392.94
  Z
  M 156.98 398.99
  Q 155.56 405.54 156.52 412.45
  Q 156.59 412.95 157.03 413.20
  Q 158.22 413.89 159.03 413.00
  L 159.61 412.74
  Q 160.10 412.52 160.10 411.98
  Q 160.17 404.26 160.09 396.49
  C 159.97 386.23 163.22 381.97 174.02 383.10
  Q 180.65 383.79 180.61 391.20
  Q 180.56 401.74 180.90 411.80
  Q 180.93 412.80 181.94 412.81
  L 182.36 412.82
  Q 183.29 412.83 183.32 411.89
  Q 183.55 401.82 183.44 390.99
  C 183.39 386.86 182.27 382.36 177.79 381.06
  C 172.65 379.57 163.92 379.43 160.38 384.76
  Q 159.84 385.57 159.80 384.60
  L 159.68 381.70
  A 0.76 0.76 0.0 0 0 158.95 380.97
  L 158.04 380.93
  A 0.84 0.84 0.0 0 0 157.16 381.76
  L 156.98 398.99
  Z
  M 210.93 413.58
  Q 217.22 416.13 224.26 413.03
  C 230.03 410.48 231.15 401.58 226.47 397.49
  Q 224.36 395.65 221.77 396.02
  Q 216.67 395.15 211.26 393.54
  C 205.92 391.96 205.94 384.59 211.27 383.35
  Q 218.07 381.76 225.08 384.66
  Q 226.07 385.07 226.52 384.10
  L 226.64 383.85
  A 1.26 1.25 23.2 0 0 225.96 382.16
  Q 217.72 378.91 209.97 381.02
  C 204.07 382.62 202.81 391.04 207.35 394.47
  Q 209.91 396.41 214.16 397.18
  Q 218.88 398.02 223.02 399.66
  C 225.98 400.84 225.60 404.39 225.15 406.88
  C 224.82 408.70 223.08 409.84 221.43 410.23
  Q 213.50 412.12 205.60 408.39
  Q 205.04 408.13 204.49 408.42
  Q 203.74 408.83 203.67 409.54
  Q 203.62 410.14 204.17 410.40
  L 210.93 413.58
  Z
  M 236.55 397.85
  A 0.45 0.45 0.0 0 1 237.00 397.39
  L 260.96 397.42
  Q 261.18 397.42 261.20 397.20
  Q 261.57 392.25 260.40 387.43
  C 258.69 380.41 250.86 379.63 244.79 380.46
  C 239.36 381.20 235.68 384.53 234.43 389.94
  Q 232.69 397.49 234.64 404.62
  C 237.55 415.27 252.24 415.55 259.88 410.44
  Q 260.77 409.85 260.37 408.86
  Q 260.22 408.49 259.95 408.20
  Q 259.51 407.74 258.97 408.06
  Q 252.96 411.63 246.29 410.81
  C 238.53 409.85 236.59 404.54 236.55 397.85
  Z
  M 308.43 401.70
  Q 310.52 410.16 301.84 410.81
  Q 294.92 411.32 289.22 408.51
  Q 287.95 407.88 287.02 408.94
  Q 286.77 409.21 286.77 409.66
  A 0.80 0.79 16.3 0 0 287.16 410.36
  Q 294.03 414.39 303.30 413.32
  C 308.32 412.74 311.58 410.07 311.82 404.83
  Q 312.13 398.06 304.97 396.21
  Q 300.55 395.06 295.79 393.91
  C 291.75 392.94 289.61 389.97 291.38 385.92
  C 292.35 383.70 294.78 383.13 296.96 382.91
  Q 303.38 382.26 308.39 384.70
  Q 309.42 385.20 309.98 384.20
  L 310.19 383.82
  Q 310.71 382.89 309.74 382.45
  Q 301.87 378.92 293.76 380.94
  Q 289.22 382.06 288.34 385.84
  C 285.47 398.25 300.33 396.34 307.21 400.11
  A 2.51 2.49 7.7 0 1 308.43 401.70
  Z
  M 71.65 385.69
  L 71.60 381.91
  Q 71.58 380.99 70.67 380.91
  L 70.08 380.85
  Q 69.19 380.77 69.19 381.67
  L 69.14 412.21
  Q 69.14 413.03 69.96 413.00
  L 71.07 412.95
  Q 71.94 412.92 71.98 412.05
  Q 72.24 405.04 72.06 397.52
  C 71.88 390.02 74.05 383.52 82.60 383.25
  Q 83.58 383.22 83.52 382.24
  L 83.46 381.08
  Q 83.43 380.59 82.94 380.59
  Q 75.28 380.70 72.17 385.83
  Q 71.67 386.66 71.65 385.69
  Z
  M 272.19 385.44
  L 272.22 381.89
  Q 272.24 380.78 271.13 380.82
  L 270.83 380.83
  Q 269.53 380.87 269.53 382.17
  L 269.54 412.30
  Q 269.54 413.06 270.30 413.00
  L 271.98 412.89
  Q 272.68 412.84 272.69 412.15
  Q 272.87 404.35 272.69 396.76
  C 272.52 389.62 275.05 383.52 282.93 383.28
  A 0.99 0.98 -0.6 0 0 283.89 382.31
  L 283.90 381.32
  Q 283.91 380.67 283.26 380.65
  Q 278.29 380.54 274.34 383.63
  C 273.63 384.19 273.40 385.05 272.78 385.69
  Q 272.18 386.32 272.19 385.44
  Z
  M 195.88 381.47
  A 0.60 0.60 0.0 0 0 195.28 380.87
  L 193.64 380.87
  A 0.60 0.60 0.0 0 0 193.04 381.47
  L 193.04 412.35
  A 0.60 0.60 0.0 0 0 193.64 412.95
  L 195.28 412.95
  A 0.60 0.60 0.0 0 0 195.88 412.35
  L 195.88 381.47
  Z"
/>
<path fill="#0c1c4c" d="
  M 4.04 69.51
  L 378.76 69.55
  A 0.37 0.37 0.0 0 1 379.13 69.92
  L 379.17 447.00
  Q 378.83 447.00 378.50 447.00
  Q 378.08 446.52 377.50 446.82
  Q 377.62 446.34 378.04 446.01
  Q 378.49 445.65 378.41 445.07
  C 377.38 437.81 378.37 430.40 378.13 422.97
  C 377.98 418.21 378.40 413.22 378.28 408.19
  Q 378.01 395.50 378.06 383.87
  Q 378.34 324.68 378.30 264.25
  Q 378.30 256.28 378.28 248.25
  Q 378.03 160.22 378.21 71.99
  Q 378.22 70.59 376.81 70.59
  Q 186.08 70.56 3.95 70.62
  Q 3.56 70.62 3.32 70.33
  Q 2.99 69.93 3.51 69.90
  Q 4.03 69.88 4.04 69.51
  Z"
/>
<path fill="#ffffff" d="
  M 0.00 75.19
  L 0.00 79.45
  L 0.00 75.19
  Z"
/>
<path fill="#ffffff" d="
  M 0.00 95.91
  L 0.50 447.00
  L 0.00 447.00
  L 0.00 95.91
  Z"
/>
<path fill="#0c1c4c" d="
  M 227.04 159.56
  Q 225.71 150.26 224.27 144.28
  C 219.51 124.63 203.23 117.03 184.28 116.24
  C 171.33 115.70 158.37 116.64 147.46 122.72
  C 133.10 130.72 127.19 144.59 124.81 160.30
  Q 122.07 178.51 124.18 200.45
  C 125.55 214.70 129.29 228.80 140.88 237.98
  C 149.37 244.70 161.31 247.40 172.21 247.76
  C 191.31 248.39 208.90 246.11 225.83 237.77
  A 0.89 0.88 -26.7 0 0 226.23 236.58
  L 213.87 211.73
  Q 213.97 211.47 214.15 211.40
  Q 214.46 211.30 214.63 211.58
  Q 216.27 214.25 217.61 216.93
  Q 218.22 218.16 218.89 219.21
  C 219.62 220.38 219.70 221.51 220.29 222.72
  Q 222.07 226.36 224.12 230.06
  Q 224.92 231.50 225.49 233.01
  C 226.05 234.48 227.15 235.50 227.43 237.06
  A 1.78 1.78 0.0 0 1 226.39 239.01
  Q 213.41 244.71 200.09 247.54
  Q 195.66 248.48 184.58 249.43
  Q 182.03 249.65 179.46 249.26
  C 175.17 248.61 170.86 249.08 166.46 248.57
  Q 162.66 248.12 159.38 247.47
  Q 155.87 246.78 151.71 245.25
  Q 147.14 243.57 144.00 241.53
  Q 132.73 234.22 127.95 222.23
  Q 123.70 211.60 123.02 199.02
  Q 122.94 197.60 122.20 194.59
  Q 121.69 192.47 121.76 190.00
  Q 121.97 183.06 121.91 173.27
  Q 121.90 169.61 122.63 165.53
  Q 123.40 161.27 123.74 157.13
  Q 123.89 155.24 124.62 153.47
  C 125.35 151.71 125.31 149.70 126.20 147.98
  C 127.27 145.91 127.51 143.69 128.69 141.65
  C 130.37 138.75 131.50 135.42 133.71 132.86
  Q 139.41 126.28 141.06 125.25
  Q 145.31 122.60 149.75 119.95
  C 151.60 118.84 153.19 118.45 155.13 117.77
  Q 156.28 117.36 157.44 117.23
  C 160.28 116.92 162.84 115.94 165.65 115.59
  Q 173.92 114.57 183.33 114.85
  Q 186.06 114.93 188.74 115.35
  Q 191.50 115.78 194.18 115.89
  C 195.89 115.96 197.34 116.68 199.00 117.03
  Q 204.68 118.23 210.17 122.16
  Q 219.06 128.51 222.91 137.48
  Q 224.19 140.46 225.15 143.57
  Q 227.66 151.74 227.04 159.56
  Z"
/>
<path fill="#0c1c4c" d="
  M 249.67 235.37
  C 242.06 227.97 237.67 217.05 235.95 206.76
  Q 235.27 202.74 234.61 198.71
  Q 234.03 195.16 234.09 191.85
  Q 234.13 189.47 233.95 187.10
  C 233.54 181.63 233.94 175.93 234.09 170.36
  C 234.21 165.82 235.13 161.35 235.93 156.91
  Q 237.19 149.79 240.18 142.67
  Q 244.68 131.95 254.06 125.07
  Q 261.37 119.71 268.01 117.89
  Q 272.50 116.66 278.49 115.67
  Q 284.05 114.75 288.91 114.83
  Q 294.66 114.91 300.79 114.85
  Q 301.28 114.84 301.63 115.17
  Q 301.81 115.33 302.00 115.35
  Q 309.50 116.05 316.85 118.35
  Q 319.44 119.15 322.63 120.82
  Q 324.51 121.80 326.41 122.75
  Q 328.41 123.74 329.90 125.06
  Q 336.28 130.71 339.76 136.00
  Q 346.41 146.09 347.92 160.84
  Q 347.95 161.20 348.18 161.49
  Q 348.35 161.72 348.40 162.01
  Q 349.37 167.76 349.34 172.33
  C 349.33 175.19 349.61 178.03 349.50 180.83
  Q 349.27 186.65 349.18 193.06
  Q 349.12 197.24 348.32 202.03
  Q 347.44 207.35 346.49 211.84
  Q 344.48 221.45 338.83 230.45
  Q 336.48 234.20 332.62 237.53
  Q 328.41 241.15 324.47 242.79
  Q 323.85 243.05 323.28 243.32
  Q 317.02 246.29 312.29 247.36
  Q 305.55 248.88 302.23 249.14
  Q 300.65 249.26 299.05 249.56
  Q 295.85 250.16 295.31 250.19
  Q 291.38 250.38 287.70 249.91
  Q 280.71 249.02 280.10 248.96
  Q 266.86 247.64 255.29 240.20
  C 253.23 238.88 251.43 237.08 249.67 235.37
  Z
  M 347.19 201.52
  Q 348.74 186.11 347.92 172.17
  C 347.27 160.90 345.94 150.82 341.12 140.73
  Q 334.19 126.23 318.90 120.40
  Q 312.82 118.09 309.01 117.47
  Q 292.09 114.74 275.14 117.40
  C 269.17 118.34 262.86 120.68 257.62 123.82
  C 240.07 134.37 235.84 155.73 235.27 174.61
  C 234.75 191.63 235.20 210.67 243.73 225.96
  C 251.07 239.11 264.13 245.57 278.95 247.61
  Q 294.50 249.75 309.42 246.83
  Q 319.82 244.80 327.57 239.76
  C 340.16 231.59 345.69 216.35 347.19 201.52
  Z"
/>
<path fill="#0c1c4c" d="
  M 78.20 116.31
  Q 75.30 116.67 72.75 116.98
  C 56.43 118.96 42.68 127.48 36.59 143.30
  Q 32.40 154.22 31.59 165.91
  Q 30.48 181.99 31.62 198.03
  C 32.34 208.24 34.91 218.69 39.85 227.66
  Q 46.54 239.83 62.21 245.26
  Q 55.01 244.36 49.55 240.20
  Q 45.03 236.75 41.22 231.39
  Q 37.75 226.52 35.67 221.07
  Q 32.61 213.02 31.33 205.15
  Q 30.96 202.91 30.44 200.84
  Q 29.90 198.70 29.86 196.66
  C 29.76 190.66 30.17 184.68 30.00 178.79
  Q 29.88 174.76 29.85 170.64
  Q 29.83 166.27 30.80 162.04
  Q 31.45 159.18 31.73 155.98
  Q 31.96 153.32 32.88 150.45
  Q 36.26 139.94 40.15 134.02
  Q 42.48 130.47 47.10 126.36
  Q 50.78 123.08 55.67 120.79
  Q 63.69 117.04 73.61 115.67
  Q 76.74 115.24 78.20 116.31
  Z"
/>
<path fill="#ffffff" d="
  M 78.20 116.31
  Q 85.79 116.16 93.75 116.29
  Q 108.40 116.54 121.63 122.35
  A 1.01 1.01 0.0 0 1 122.13 123.73
  L 108.06 151.60
  A 0.87 0.86 26.9 0 1 106.89 151.98
  Q 97.82 147.28 86.55 147.84
  C 77.31 148.29 70.73 152.65 68.17 161.41
  C 65.02 172.20 65.50 184.44 66.33 195.51
  C 67.17 206.52 71.27 216.52 83.59 218.15
  C 93.20 219.42 101.52 217.30 110.26 213.79
  A 1.02 1.00 65.6 0 1 111.53 214.28
  L 123.88 239.03
  Q 124.04 239.34 123.72 239.48
  Q 117.52 242.23 112.30 244.09
  C 102.77 247.48 92.70 248.21 82.82 248.05
  Q 72.25 247.87 62.21 245.26
  Q 46.54 239.83 39.85 227.66
  C 34.91 218.69 32.34 208.24 31.62 198.03
  Q 30.48 181.99 31.59 165.91
  Q 32.40 154.22 36.59 143.30
  C 42.68 127.48 56.43 118.96 72.75 116.98
  Q 75.30 116.67 78.20 116.31
  Z"
/>
<path fill="#ffffff" d="
  M 227.04 159.56
  L 227.37 196.88
  Q 227.37 197.73 226.51 197.73
  L 156.80 197.57
  A 0.51 0.50 86.9 0 0 156.30 198.13
  Q 156.89 203.40 158.54 207.96
  C 161.25 215.50 168.03 218.25 175.50 218.65
  C 188.52 219.35 201.39 217.37 213.05 211.64
  Q 213.49 211.42 213.87 211.73
  L 226.23 236.58
  A 0.89 0.88 -26.7 0 1 225.83 237.77
  C 208.90 246.11 191.31 248.39 172.21 247.76
  C 161.31 247.40 149.37 244.70 140.88 237.98
  C 129.29 228.80 125.55 214.70 124.18 200.45
  Q 122.07 178.51 124.81 160.30
  C 127.19 144.59 133.10 130.72 147.46 122.72
  C 158.37 116.64 171.33 115.70 184.28 116.24
  C 203.23 117.03 219.51 124.63 224.27 144.28
  Q 225.71 150.26 227.04 159.56
  Z
  M 187.10 146.96
  C 181.15 145.30 174.21 145.40 168.20 147.20
  Q 160.79 149.41 158.21 157.73
  Q 156.33 163.80 156.05 170.55
  Q 156.03 171.17 156.65 171.17
  L 197.04 171.19
  A 0.46 0.46 0.0 0 0 197.50 170.71
  C 197.11 162.30 197.50 149.86 187.10 146.96
  Z"
/>
<path fill="#ffffff" d="
  M 347.19 201.52
  C 345.69 216.35 340.16 231.59 327.57 239.76
  Q 319.82 244.80 309.42 246.83
  Q 294.50 249.75 278.95 247.61
  C 264.13 245.57 251.07 239.11 243.73 225.96
  C 235.20 210.67 234.75 191.63 235.27 174.61
  C 235.84 155.73 240.07 134.37 257.62 123.82
  C 262.86 120.68 269.17 118.34 275.14 117.40
  Q 292.09 114.74 309.01 117.47
  Q 312.82 118.09 318.90 120.40
  Q 334.19 126.23 341.12 140.73
  C 345.94 150.82 347.27 160.90 347.92 172.17
  Q 348.74 186.11 347.19 201.52
  Z
  M 287.32 148.12
  C 275.43 149.28 271.46 158.10 270.34 168.56
  Q 268.75 183.50 270.35 198.15
  C 271.29 206.72 274.54 215.06 283.73 217.52
  Q 291.17 219.51 299.18 217.73
  C 309.56 215.41 312.39 206.52 313.20 196.83
  Q 314.40 182.45 313.10 168.28
  C 311.62 152.05 303.11 146.57 287.32 148.12
  Z"
/>
<path fill="#21397e" d="
  M 168.20 147.20
  C 174.21 145.40 181.15 145.30 187.10 146.96
  C 197.50 149.86 197.11 162.30 197.50 170.71
  A 0.46 0.46 0.0 0 1 197.04 171.19
  L 156.65 171.17
  Q 156.03 171.17 156.05 170.55
  Q 156.33 163.80 158.21 157.73
  Q 160.79 149.41 168.20 147.20
  Z"
/>
<path fill="#21397e" d="
  M 287.32 148.12
  C 303.11 146.57 311.62 152.05 313.10 168.28
  Q 314.40 182.45 313.20 196.83
  C 312.39 206.52 309.56 215.41 299.18 217.73
  Q 291.17 219.51 283.73 217.52
  C 274.54 215.06 271.29 206.72 270.35 198.15
  Q 268.75 183.50 270.34 168.56
  C 271.46 158.10 275.43 149.28 287.32 148.12
  Z"
/>
<rect fill="#ffffff" x="-1.44" y="-2.73" transform="translate(167.45,268.22) rotate(-1.2)" width="2.88" height="5.46" rx="0.96"/>
<path fill="#0c1c4c" d="
  M 130.75 275.86
  Q 129.54 274.88 128.64 275.80
  Q 128.29 276.16 128.29 276.67
  L 128.29 316.54
  Q 128.29 317.04 128.75 317.22
  Q 129.01 317.32 129.27 317.32
  Q 128.40 317.88 127.78 317.28
  Q 127.33 316.84 127.35 316.17
  C 127.46 311.75 127.42 307.56 127.12 303.14
  Q 126.93 300.31 127.11 297.53
  Q 127.28 294.81 127.27 291.97
  Q 127.24 285.01 127.29 277.37
  C 127.30 275.75 128.40 274.80 129.86 274.47
  A 0.94 0.93 63.6 0 1 130.79 274.79
  Q 131.54 275.71 130.75 275.86
  Z"
/>
<path fill="#ffffff" d="
  M 40.28 278.68
  Q 36.00 280.28 34.82 284.96
  C 33.14 291.61 33.15 302.59 41.13 304.88
  Q 48.63 307.03 54.72 302.55
  A 1.12 1.12 0.0 0 1 56.27 302.77
  L 56.76 303.38
  Q 57.20 303.95 56.66 304.43
  Q 51.80 308.71 44.25 308.24
  C 30.93 307.41 30.25 296.18 31.44 285.95
  C 31.95 281.55 34.79 277.33 39.15 275.92
  Q 48.99 272.72 56.44 278.33
  Q 57.31 278.99 56.63 279.85
  L 56.39 280.16
  Q 55.43 281.38 54.19 280.45
  Q 47.96 275.81 40.28 278.68
  Z"
/>
<path fill="#ffffff" d="
  M 85.86 303.08
  C 82.60 308.19 77.38 308.36 71.83 308.16
  Q 61.75 307.81 62.47 297.44
  C 62.90 291.35 66.99 288.92 72.33 288.12
  Q 78.57 287.18 84.28 287.33
  Q 87.13 287.41 86.31 284.67
  Q 85.51 281.99 85.32 281.37
  A 4.87 4.86 86.4 0 0 81.47 277.97
  Q 73.76 276.68 68.23 279.75
  Q 67.01 280.43 66.07 279.40
  Q 65.84 279.15 65.76 278.82
  A 1.20 1.19 70.2 0 1 66.39 277.46
  Q 74.40 273.53 82.67 275.44
  C 88.11 276.69 89.11 281.46 89.07 286.36
  Q 88.99 294.57 89.01 302.39
  Q 89.01 305.29 91.99 304.99
  Q 92.70 304.92 92.74 305.62
  L 92.78 306.44
  Q 92.84 307.47 91.82 307.62
  Q 87.01 308.36 86.59 303.26
  Q 86.49 302.07 85.86 303.08
  Z
  M 85.50 289.84
  C 80.45 290.11 75.01 290.06 70.12 291.34
  Q 65.68 292.49 65.45 297.39
  C 65.30 300.63 65.44 303.93 69.08 305.02
  Q 74.14 306.54 79.44 304.94
  C 85.61 303.08 86.77 295.98 86.19 290.43
  Q 86.12 289.80 85.50 289.84
  Z"
/>
<path fill="#ffffff" d="
  M 117.93 296.54
  C 116.98 293.51 108.55 292.09 105.75 291.54
  C 100.14 290.44 96.16 287.12 97.60 281.05
  C 99.65 272.44 113.28 274.45 118.96 276.95
  Q 119.67 277.26 119.48 278.02
  L 119.19 279.16
  Q 118.97 280.03 118.16 279.65
  C 114.56 277.95 102.62 275.38 100.75 281.04
  C 99.29 285.46 101.74 288.00 105.87 288.92
  Q 110.93 290.05 115.91 291.36
  C 121.54 292.85 122.08 299.57 119.92 303.98
  C 118.88 306.11 116.93 307.28 114.67 307.70
  C 108.73 308.81 101.98 308.38 96.62 305.18
  Q 95.92 304.75 96.39 304.08
  L 96.96 303.28
  Q 97.44 302.59 98.20 302.94
  C 103.08 305.20 106.71 305.96 112.22 305.48
  C 117.10 305.06 119.36 301.11 117.93 296.54
  Z"
/>
<path fill="#ffffff" d="
  M 129.27 317.32
  Q 129.01 317.32 128.75 317.22
  Q 128.29 317.04 128.29 316.54
  L 128.29 276.67
  Q 128.29 276.16 128.64 275.80
  Q 129.54 274.88 130.75 275.86
  L 130.92 279.75
  Q 130.96 280.57 131.60 280.06
  Q 131.93 279.81 131.96 279.40
  A 0.81 0.80 -23.7 0 1 132.13 278.97
  C 135.63 274.70 142.68 274.37 147.81 275.16
  C 158.19 276.77 158.36 288.55 157.48 296.41
  C 156.79 302.56 153.47 307.50 146.73 307.92
  C 140.88 308.29 135.66 308.52 131.80 303.33
  Q 131.25 302.59 131.25 303.51
  L 131.30 316.54
  Q 131.30 317.09 130.75 317.15
  L 129.27 317.32
  Z
  M 154.6053 287.3297
  A 9.61 9.61 0.0 0 0 144.9619 277.7533
  L 141.1019 277.7668
  A 9.61 9.61 0.0 0 0 131.5255 287.4103
  L 131.5547 295.7703
  A 9.61 9.61 0.0 0 0 141.1981 305.3467
  L 145.0581 305.3332
  A 9.61 9.61 0.0 0 0 154.6345 295.6897
  L 154.6053 287.3297
  Z"
/>
<path fill="#ffffff" d="
  M 200.29 303.20
  Q 197.89 306.77 194.29 307.53
  Q 188.90 308.65 183.57 307.73
  Q 178.07 306.77 177.16 300.65
  Q 175.59 289.98 187.10 288.12
  Q 193.54 287.08 198.88 287.45
  Q 201.26 287.61 200.90 285.26
  Q 200.69 283.91 200.35 282.55
  Q 199.32 278.43 195.12 277.80
  Q 188.28 276.78 182.46 279.85
  Q 181.38 280.43 180.77 279.36
  Q 180.61 279.06 180.62 278.73
  Q 180.66 277.55 181.75 277.08
  Q 190.33 273.44 198.23 275.81
  C 202.63 277.13 203.61 281.79 203.64 285.82
  Q 203.69 294.23 203.65 302.72
  C 203.65 304.06 204.60 304.96 205.93 304.99
  Q 206.95 305.02 207.03 306.03
  L 207.07 306.49
  A 0.97 0.96 -7.0 0 1 206.25 307.53
  C 203.71 307.91 201.47 306.75 201.28 304.17
  Q 201.25 303.72 201.09 303.30
  Q 200.79 302.47 200.29 303.20
  Z
  M 190.46 290.36
  C 187.52 290.56 183.30 290.87 181.45 293.43
  Q 178.68 297.24 180.50 302.21
  C 182.13 306.62 189.97 306.03 193.34 305.19
  C 200.07 303.51 201.23 296.43 200.71 290.46
  Q 200.66 289.86 200.06 289.88
  Q 195.24 290.03 190.46 290.36
  Z"
/>
<path fill="#ffffff" d="
  M 218.05 279.30
  C 219.46 277.57 220.81 276.28 223.07 275.72
  C 228.47 274.36 238.11 273.77 240.16 280.53
  Q 240.92 283.05 240.98 286.71
  Q 241.15 297.31 240.91 306.68
  A 0.97 0.97 0.0 0 1 239.94 307.63
  L 239.55 307.63
  A 1.24 1.23 -0.5 0 1 238.32 306.43
  Q 238.09 297.46 238.16 288.76
  C 238.22 280.45 236.41 277.42 227.65 277.68
  Q 217.70 277.97 217.61 288.17
  Q 217.53 297.30 217.49 306.38
  A 1.17 1.16 68.3 0 1 217.15 307.18
  Q 215.90 308.40 215.01 306.81
  A 0.71 0.68 31.3 0 1 214.92 306.47
  L 214.86 276.34
  Q 214.86 275.09 216.04 275.51
  L 216.54 275.69
  Q 217.15 275.90 217.15 276.54
  L 217.18 279.00
  Q 217.19 280.36 218.05 279.30
  Z"
/>
<path fill="#ffffff" d="
  M 165.61 306.95
  Q 166.43 292.68 165.83 278.32
  Q 166.11 277.53 166.04 276.55
  Q 165.96 275.51 167.00 275.56
  L 168.06 275.62
  Q 168.96 275.66 168.96 276.56
  L 168.90 306.79
  Q 168.90 307.31 168.43 307.52
  Q 167.20 308.10 165.61 306.95
  Z"
/>
<path fill="#0c1c4c" d="
  M 154.6345 295.6897
  A 9.61 9.61 0.0 0 1 145.0581 305.3332
  L 141.1981 305.3467
  A 9.61 9.61 0.0 0 1 131.5547 295.7703
  L 131.5255 287.4103
  A 9.61 9.61 0.0 0 1 141.1019 277.7668
  L 144.9619 277.7533
  A 9.61 9.61 0.0 0 1 154.6053 287.3297
  L 154.6345 295.6897
  Z
  M 153.5407 287.3494
  A 8.29 8.29 0.0 0 0 145.4261 278.8876
  L 141.1471 278.7980
  A 8.29 8.29 0.0 0 0 132.6853 286.9125
  L 132.4993 295.7906
  A 8.29 8.29 0.0 0 0 140.6139 304.2524
  L 144.8929 304.3420
  A 8.29 8.29 0.0 0 0 153.3547 296.2275
  L 153.5407 287.3494
  Z"
/>
<path fill="#0c1c4c" d="
  M 165.83 278.32
  Q 166.43 292.68 165.61 306.95
  Q 164.70 298.23 164.72 284.25
  Q 164.73 280.33 165.83 278.32
  Z"
/>
<rect fill="#21397e" x="-10.43" y="-12.73" transform="translate(143.02,291.57) rotate(1.2)" width="20.86" height="25.46" rx="8.29"/>
<path fill="#21397e" d="
  M 70.12 291.34
  C 75.01 290.06 80.45 290.11 85.50 289.84
  Q 86.12 289.80 86.19 290.43
  C 86.77 295.98 85.61 303.08 79.44 304.94
  Q 74.14 306.54 69.08 305.02
  C 65.44 303.93 65.30 300.63 65.45 297.39
  Q 65.68 292.49 70.12 291.34
  Z"
/>
<path fill="#21397e" d="
  M 190.46 290.36
  Q 195.24 290.03 200.06 289.88
  Q 200.66 289.86 200.71 290.46
  C 201.23 296.43 200.07 303.51 193.34 305.19
  C 189.97 306.03 182.13 306.62 180.50 302.21
  Q 178.68 297.24 181.45 293.43
  C 183.30 290.87 187.52 290.56 190.46 290.36
  Z"
/>
<path fill="#ffffff" d="
  M 172.19 328.39
  L 179.87 328.30
  Q 180.95 328.29 180.99 329.37
  L 181.00 329.73
  Q 181.03 330.75 180.02 330.75
  L 172.01 330.74
  Q 171.49 330.74 171.49 331.27
  Q 171.68 342.83 171.56 353.52
  C 171.50 358.71 177.10 357.70 180.40 357.85
  Q 181.02 357.88 181.01 358.51
  L 181.01 358.93
  Q 180.99 360.05 179.87 360.12
  Q 177.33 360.26 174.48 360.06
  C 170.19 359.75 168.94 357.30 168.92 353.19
  Q 168.86 341.74 169.00 331.34
  A 0.56 0.56 0.0 0 0 168.44 330.78
  L 163.65 330.75
  Q 162.81 330.74 162.73 329.90
  L 162.69 329.51
  Q 162.58 328.35 163.74 328.35
  L 168.29 328.37
  A 0.70 0.69 -88.2 0 0 168.98 327.71
  L 169.41 318.68
  Q 169.45 317.81 170.31 317.72
  L 170.80 317.66
  A 0.65 0.65 0.0 0 1 171.52 318.31
  L 171.48 327.69
  Q 171.48 328.40 172.19 328.39
  Z"
/>
<path fill="#ffffff" d="
  M 33.80 345.42
  C 33.93 351.02 35.69 356.70 41.55 357.85
  Q 50.13 359.53 56.06 355.34
  Q 57.21 354.52 57.63 355.87
  L 57.75 356.26
  Q 58.11 357.42 57.03 357.99
  Q 48.38 362.52 39.63 359.89
  C 30.99 357.29 31.00 349.35 31.14 341.80
  C 31.28 334.20 34.83 328.55 42.89 327.64
  C 49.73 326.86 57.22 328.56 58.16 336.70
  Q 58.63 340.78 58.51 344.32
  A 0.47 0.47 0.0 0 1 58.04 344.78
  L 34.47 344.73
  Q 33.78 344.73 33.80 345.42
  Z
  M 34.65 342.11
  L 55.59 342.01
  A 0.38 0.38 0.0 0 0 55.97 341.62
  L 55.96 339.64
  A 9.52 9.35 89.7 0 0 46.56 330.17
  L 43.56 330.19
  A 9.52 9.35 89.7 0 0 34.26 339.76
  L 34.27 341.74
  A 0.38 0.38 0.0 0 0 34.65 342.11
  Z"
/>
<path fill="#ffffff" d="
  M 111.27 358.01
  Q 114.25 358.18 117.05 356.56
  L 119.19 355.41
  A 0.87 0.87 0.0 0 1 120.33 355.69
  L 120.68 356.20
  Q 121.21 357.00 120.43 357.55
  Q 115.33 361.16 107.68 360.79
  Q 95.58 360.22 94.37 348.92
  Q 93.81 343.68 94.46 338.87
  C 95.76 329.29 103.56 326.53 112.06 327.73
  C 120.93 328.98 121.83 336.65 121.62 343.94
  Q 121.59 344.78 120.75 344.78
  L 97.50 344.73
  Q 96.94 344.73 96.92 345.30
  C 96.74 350.09 98.33 355.22 102.54 357.20
  Q 106.36 359.01 111.27 358.01
  Z
  M 97.50 342.18
  L 118.84 341.88
  A 0.23 0.23 0.0 0 0 119.07 341.65
  L 119.04 339.61
  A 9.55 9.51 89.2 0 0 109.40 330.19
  L 106.62 330.23
  A 9.55 9.51 89.2 0 0 97.24 339.91
  L 97.27 341.95
  A 0.23 0.23 0.0 0 0 97.50 342.18
  Z"
/>
<path fill="#ffffff" d="
  M 132.51 331.71
  Q 132.68 333.07 133.38 331.89
  C 136.31 326.95 144.84 326.95 149.63 328.06
  Q 155.63 329.44 155.94 336.43
  Q 156.36 345.80 156.08 359.41
  Q 156.06 360.27 155.20 360.24
  L 154.33 360.21
  Q 153.70 360.18 153.68 359.56
  Q 153.38 350.57 153.58 340.30
  C 153.75 331.60 149.20 329.67 141.19 330.53
  C 136.32 331.05 133.27 334.46 133.13 339.47
  Q 132.88 348.77 132.97 359.20
  Q 132.98 360.23 131.95 360.23
  L 131.02 360.24
  Q 130.04 360.25 130.04 359.27
  L 130.03 329.37
  Q 130.03 328.13 131.27 328.11
  Q 131.60 328.10 131.89 328.24
  A 1.06 1.06 0.0 0 1 132.47 329.26
  Q 132.36 330.56 132.51 331.71
  Z"
/>
<path fill="#ffffff" d="
  M 76.74 356.59
  Q 77.74 354.77 78.55 352.74
  Q 83.42 340.42 87.68 329.26
  A 1.95 1.95 0.0 0 1 89.61 328.01
  L 89.97 328.04
  Q 91.29 328.12 90.78 329.34
  Q 85.03 343.29 79.86 356.71
  Q 79.29 358.19 78.52 359.61
  A 2.06 2.06 0.0 0 1 74.80 359.38
  L 62.61 328.91
  A 0.66 0.66 0.0 0 1 63.23 328.01
  L 64.31 328.02
  Q 65.28 328.03 65.64 328.93
  L 76.55 356.58
  A 0.11 0.10 -41.4 0 0 76.74 356.59
  Z"
/>
<path fill="#21397e" d="
  M 34.65 342.11
  A 0.38 0.38 0.0 0 1 34.27 341.74
  L 34.26 339.76
  A 9.52 9.35 89.7 0 1 43.56 330.19
  L 46.56 330.17
  A 9.52 9.35 89.7 0 1 55.96 339.64
  L 55.97 341.62
  A 0.38 0.38 0.0 0 1 55.59 342.01
  L 34.65 342.11
  Z"
/>
<path fill="#21397e" d="
  M 97.50 342.18
  A 0.23 0.23 0.0 0 1 97.27 341.95
  L 97.24 339.91
  A 9.55 9.51 89.2 0 1 106.62 330.23
  L 109.40 330.19
  A 9.55 9.51 89.2 0 1 119.04 339.61
  L 119.07 341.65
  A 0.23 0.23 0.0 0 1 118.84 341.88
  L 97.50 342.18
  Z"
/>
<path fill="#0c1c4c" d="
  M 117.05 356.56
  Q 114.25 358.18 111.27 358.01
  Q 112.96 355.90 117.05 356.56
  Z"
/>
<rect fill="#ffffff" x="-1.37" y="-2.77" transform="translate(194.49,373.44) rotate(1.0)" width="2.74" height="5.54" rx="0.59"/>
<path fill="#ffffff" d="
  M 104.49 406.15
  Q 110.26 406.36 112.69 408.26
  Q 114.48 409.65 114.87 411.87
  Q 116.43 420.82 107.56 422.65
  C 102.53 423.69 92.58 424.34 88.17 421.16
  Q 84.68 418.63 85.53 413.60
  Q 86.30 409.03 90.98 407.83
  Q 92.40 407.47 91.24 406.58
  C 89.12 404.98 89.90 401.94 91.19 400.06
  Q 91.51 399.57 91.05 399.21
  L 90.09 398.46
  Q 86.94 394.76 87.50 388.99
  C 88.18 381.98 94.32 379.94 100.38 380.26
  C 104.64 380.48 108.78 379.95 113.04 379.71
  A 0.68 0.67 -6.2 0 1 113.74 380.27
  Q 113.92 381.24 113.38 381.96
  A 0.84 0.83 25.6 0 1 112.52 382.26
  Q 110.46 381.72 108.83 381.81
  Q 107.87 381.87 108.67 382.41
  Q 112.53 385.04 112.62 390.27
  Q 112.78 400.00 103.21 400.90
  Q 98.37 401.35 95.45 400.53
  Q 93.29 399.92 92.87 402.12
  L 92.66 403.23
  Q 92.19 405.69 94.69 405.78
  L 104.49 406.15
  Z
  M 109.7265 390.1617
  A 7.18 7.18 0.0 0 0 102.6221 382.9069
  L 97.5623 382.8539
  A 7.18 7.18 0.0 0 0 90.3075 389.9584
  L 90.2935 391.2983
  A 7.18 7.18 0.0 0 0 97.3979 398.5531
  L 102.4577 398.6061
  A 7.18 7.18 0.0 0 0 109.7125 391.5016
  L 109.7265 390.1617
  Z
  M 112.0635 414.2058
  A 5.55 5.55 0.0 0 0 106.4270 408.7437
  L 94.0686 408.9378
  A 5.55 5.55 0.0 0 0 88.6064 414.5743
  L 88.6165 415.2142
  A 5.55 5.55 0.0 0 0 94.2530 420.6763
  L 106.6114 420.4822
  A 5.55 5.55 0.0 0 0 112.0736 414.8457
  L 112.0635 414.2058
  Z"
/>
<path fill="#ffffff" d="
  M 61.00 400.69
  A 12.80 12.80 0.0 0 1 48.20 413.49
  L 44.00 413.49
  A 12.80 12.80 0.0 0 1 31.20 400.69
  L 31.20 393.09
  A 12.80 12.80 0.0 0 1 44.00 380.29
  L 48.20 380.29
  A 12.80 12.80 0.0 0 1 61.00 393.09
  L 61.00 400.69
  Z
  M 58.15 393.35
  A 10.39 10.39 0.0 0 0 47.76 382.96
  L 44.54 382.96
  A 10.39 10.39 0.0 0 0 34.15 393.35
  L 34.15 400.25
  A 10.39 10.39 0.0 0 0 44.54 410.64
  L 47.76 410.64
  A 10.39 10.39 0.0 0 0 58.15 400.25
  L 58.15 393.35
  Z"
/>
<path fill="#ffffff" d="
  M 139.61 412.15
  Q 133.89 413.97 127.46 413.31
  C 122.58 412.82 119.75 410.05 119.28 405.10
  Q 118.36 395.24 129.86 392.94
  L 142.54 392.50
  Q 143.29 392.47 143.30 391.71
  C 143.34 385.25 140.78 382.89 134.57 382.82
  Q 129.14 382.77 124.90 385.06
  Q 123.98 385.56 123.33 384.74
  L 122.94 384.24
  Q 122.30 383.43 123.23 382.96
  Q 131.01 378.99 139.69 380.80
  C 144.58 381.82 145.62 385.48 145.72 389.85
  Q 145.92 399.08 145.98 407.83
  A 2.40 2.40 0.0 0 0 148.08 410.19
  Q 148.54 410.25 148.98 410.41
  Q 149.56 410.62 149.71 411.24
  Q 149.83 411.79 149.65 412.29
  Q 149.43 412.89 148.76 412.93
  Q 143.87 413.19 143.70 408.87
  Q 143.64 407.59 142.79 408.55
  L 139.61 412.15
  Z
  M 125.11 397.40
  Q 118.83 404.88 125.48 409.99
  Q 130.49 412.01 136.27 410.20
  C 142.93 408.13 143.37 401.64 143.35 395.80
  Q 143.35 395.22 142.77 395.19
  Q 132.86 394.69 125.11 397.40
  Z"
/>
<path fill="#ffffff" d="
  M 159.03 413.00
  Q 158.23 413.08 157.76 412.90
  Q 157.27 412.71 157.26 412.18
  L 156.98 398.99
  L 157.16 381.76
  A 0.84 0.84 0.0 0 1 158.04 380.93
  L 158.95 380.97
  A 0.76 0.76 0.0 0 1 159.68 381.70
  L 159.80 384.60
  Q 159.84 385.57 160.38 384.76
  C 163.92 379.43 172.65 379.57 177.79 381.06
  C 182.27 382.36 183.39 386.86 183.44 390.99
  Q 183.55 401.82 183.32 411.89
  Q 183.29 412.83 182.36 412.82
  L 181.94 412.81
  Q 180.93 412.80 180.90 411.80
  Q 180.56 401.74 180.61 391.20
  Q 180.65 383.79 174.02 383.10
  C 163.22 381.97 159.97 386.23 160.09 396.49
  Q 160.17 404.26 160.10 411.98
  Q 160.10 412.52 159.61 412.74
  L 159.03 413.00
  Z"
/>
<path fill="#ffffff" d="
  M 221.77 396.02
  Q 228.07 398.17 228.35 403.71
  C 228.56 408.04 226.89 411.42 222.79 412.72
  Q 220.15 413.57 218.00 413.54
  Q 212.70 413.46 210.93 413.58
  L 204.17 410.40
  Q 203.62 410.14 203.67 409.54
  Q 203.74 408.83 204.49 408.42
  Q 205.04 408.13 205.60 408.39
  Q 213.50 412.12 221.43 410.23
  C 223.08 409.84 224.82 408.70 225.15 406.88
  C 225.60 404.39 225.98 400.84 223.02 399.66
  Q 218.88 398.02 214.16 397.18
  Q 209.91 396.41 207.35 394.47
  C 202.81 391.04 204.07 382.62 209.97 381.02
  Q 217.72 378.91 225.96 382.16
  A 1.26 1.25 23.2 0 1 226.64 383.85
  L 226.52 384.10
  Q 226.07 385.07 225.08 384.66
  Q 218.07 381.76 211.27 383.35
  C 205.94 384.59 205.92 391.96 211.26 393.54
  Q 216.67 395.15 221.77 396.02
  Z"
/>
<path fill="#ffffff" d="
  M 236.55 397.85
  C 236.59 404.54 238.53 409.85 246.29 410.81
  Q 252.96 411.63 258.97 408.06
  Q 259.51 407.74 259.95 408.20
  Q 260.22 408.49 260.37 408.86
  Q 260.77 409.85 259.88 410.44
  C 252.24 415.55 237.55 415.27 234.64 404.62
  Q 232.69 397.49 234.43 389.94
  C 235.68 384.53 239.36 381.20 244.79 380.46
  C 250.86 379.63 258.69 380.41 260.40 387.43
  Q 261.57 392.25 261.20 397.20
  Q 261.18 397.42 260.96 397.42
  L 237.00 397.39
  A 0.45 0.45 0.0 0 0 236.55 397.85
  Z
  M 237.41 394.73
  L 258.39 394.51
  A 0.49 0.49 0.0 0 0 258.88 394.01
  L 258.86 392.56
  A 9.86 9.03 89.4 0 0 249.73 382.80
  L 245.83 382.84
  A 9.86 9.03 89.4 0 0 236.90 392.79
  L 236.92 394.24
  A 0.49 0.49 0.0 0 0 237.41 394.73
  Z"
/>
<path fill="#ffffff" d="
  M 308.43 401.70
  A 2.51 2.49 7.7 0 0 307.21 400.11
  C 300.33 396.34 285.47 398.25 288.34 385.84
  Q 289.22 382.06 293.76 380.94
  Q 301.87 378.92 309.74 382.45
  Q 310.71 382.89 310.19 383.82
  L 309.98 384.20
  Q 309.42 385.20 308.39 384.70
  Q 303.38 382.26 296.96 382.91
  C 294.78 383.13 292.35 383.70 291.38 385.92
  C 289.61 389.97 291.75 392.94 295.79 393.91
  Q 300.55 395.06 304.97 396.21
  Q 312.13 398.06 311.82 404.83
  C 311.58 410.07 308.32 412.74 303.30 413.32
  Q 294.03 414.39 287.16 410.36
  A 0.80 0.79 16.3 0 1 286.77 409.66
  Q 286.77 409.21 287.02 408.94
  Q 287.95 407.88 289.22 408.51
  Q 294.92 411.32 301.84 410.81
  Q 310.52 410.16 308.43 401.70
  Z"
/>
<path fill="#ffffff" d="
  M 72.17 385.83
  Q 75.28 380.70 82.94 380.59
  Q 83.43 380.59 83.46 381.08
  L 83.52 382.24
  Q 83.58 383.22 82.60 383.25
  C 74.05 383.52 71.88 390.02 72.06 397.52
  Q 72.24 405.04 71.98 412.05
  Q 71.94 412.92 71.07 412.95
  L 69.96 413.00
  Q 69.14 413.03 69.14 412.21
  L 69.19 381.67
  Q 69.19 380.77 70.08 380.85
  L 70.67 380.91
  Q 71.58 380.99 71.60 381.91
  L 71.65 385.69
  Q 71.67 386.66 72.17 385.83
  Z"
/>
<path fill="#ffffff" d="
  M 272.78 385.69
  C 273.40 385.05 273.63 384.19 274.34 383.63
  Q 278.29 380.54 283.26 380.65
  Q 283.91 380.67 283.90 381.32
  L 283.89 382.31
  A 0.99 0.98 -0.6 0 1 282.93 383.28
  C 275.05 383.52 272.52 389.62 272.69 396.76
  Q 272.87 404.35 272.69 412.15
  Q 272.68 412.84 271.98 412.89
  L 270.30 413.00
  Q 269.54 413.06 269.54 412.30
  L 269.53 382.17
  Q 269.53 380.87 270.83 380.83
  L 271.13 380.82
  Q 272.24 380.78 272.22 381.89
  L 272.19 385.44
  Q 272.18 386.32 272.78 385.69
  Z"
/>
<rect fill="#ffffff" x="193.04" y="380.87" width="2.84" height="32.08" rx="0.60"/>
<rect fill="#21397e" x="-9.71" y="-7.85" transform="translate(100.01,390.73) rotate(0.6)" width="19.42" height="15.70" rx="7.18"/>
<path fill="#21397e" d="
  M 237.41 394.73
  A 0.49 0.49 0.0 0 1 236.92 394.24
  L 236.90 392.79
  A 9.86 9.03 89.4 0 1 245.83 382.84
  L 249.73 382.80
  A 9.86 9.03 89.4 0 1 258.86 392.56
  L 258.88 394.01
  A 0.49 0.49 0.0 0 1 258.39 394.51
  L 237.41 394.73
  Z"
/>
<path fill="#0c1c4c" d="
  M 58.15 400.25
  A 10.39 10.39 0.0 0 1 47.76 410.64
  L 44.54 410.64
  A 10.39 10.39 0.0 0 1 34.15 400.25
  L 34.15 393.35
  A 10.39 10.39 0.0 0 1 44.54 382.96
  L 47.76 382.96
  A 10.39 10.39 0.0 0 1 58.15 393.35
  L 58.15 400.25
  Z
  M 57.1319 392.9883
  A 9.36 9.36 0.0 0 0 47.5940 383.8097
  L 44.1946 383.8750
  A 9.36 9.36 0.0 0 0 35.0160 393.4130
  L 35.1481 400.2917
  A 9.36 9.36 0.0 0 0 44.6860 409.4703
  L 48.0854 409.4050
  A 9.36 9.36 0.0 0 0 57.2640 399.8670
  L 57.1319 392.9883
  Z"
/>
<rect fill="#21397e" x="-11.06" y="-12.80" transform="translate(46.14,396.64) rotate(-1.1)" width="22.12" height="25.60" rx="9.36"/>
<path fill="#0c1c4c" d="
  M 129.86 392.94
  Q 118.36 395.24 119.28 405.10
  C 119.75 410.05 122.58 412.82 127.46 413.31
  Q 133.89 413.97 139.61 412.15
  Q 132.19 417.18 123.12 412.89
  Q 120.80 411.79 119.54 409.47
  Q 118.56 407.65 118.45 404.86
  Q 118.00 393.16 129.86 392.94
  Z"
/>
<path fill="#21397e" d="
  M 125.48 409.99
  Q 123.34 407.13 123.30 405.01
  Q 123.23 401.38 125.11 397.40
  Q 132.86 394.69 142.77 395.19
  Q 143.35 395.22 143.35 395.80
  C 143.37 401.64 142.93 408.13 136.27 410.20
  Q 130.49 412.01 125.48 409.99
  Z"
/>
<path fill="#0c1c4c" d="
  M 210.93 413.58
  Q 212.70 413.46 218.00 413.54
  Q 220.15 413.57 222.79 412.72
  C 226.89 411.42 228.56 408.04 228.35 403.71
  Q 228.07 398.17 221.77 396.02
  Q 224.36 395.65 226.47 397.49
  C 231.15 401.58 230.03 410.48 224.26 413.03
  Q 217.22 416.13 210.93 413.58
  Z"
/>
<path fill="#0c1c4c" d="
  M 125.11 397.40
  Q 123.23 401.38 123.30 405.01
  Q 123.34 407.13 125.48 409.99
  Q 118.83 404.88 125.11 397.40
  Z"
/>
<path fill="#0c1c4c" d="
  M 90.09 398.46
  L 91.05 399.21
  Q 91.51 399.57 91.19 400.06
  C 89.90 401.94 89.12 404.98 91.24 406.58
  Q 92.40 407.47 90.98 407.83
  Q 86.30 409.03 85.53 413.60
  Q 84.68 418.63 88.17 421.16
  C 92.58 424.34 102.53 423.69 107.56 422.65
  Q 116.43 420.82 114.87 411.87
  Q 114.48 409.65 112.69 408.26
  Q 110.26 406.36 104.49 406.15
  Q 107.56 404.47 111.88 406.90
  Q 115.26 408.80 115.76 412.64
  Q 116.49 418.28 113.06 421.18
  Q 110.59 423.26 106.61 423.91
  C 100.50 424.90 86.66 425.78 84.80 417.74
  Q 83.22 410.98 89.31 407.28
  A 0.73 0.73 0.0 0 0 89.65 406.50
  Q 88.82 402.76 90.09 398.46
  Z"
/>
<path fill="#0c1c4c" d="
  M 156.98 398.99
  L 157.26 412.18
  Q 157.27 412.71 157.76 412.90
  Q 158.23 413.08 159.03 413.00
  Q 158.22 413.89 157.03 413.20
  Q 156.59 412.95 156.52 412.45
  Q 155.56 405.54 156.98 398.99
  Z"
/>
<rect fill="#21397e" x="-11.73" y="-5.87" transform="translate(100.34,414.71) rotate(-0.9)" width="23.46" height="11.74" rx="5.55"/>
<path fill="#ffffff" d="
  M 377.50 446.82
  Q 378.08 446.52 378.50 447.00
  L 1.95 447.00
  L 377.50 446.82
  Z"
/>
</svg>
