<?xml version="1.0" encoding="UTF-8" standalone="no"?>
<!DOCTYPE svg PUBLIC "-//W3C//DTD SVG 1.1//EN" "http://www.w3.org/Graphics/SVG/1.1/DTD/svg11.dtd">
<svg xmlns="http://www.w3.org/2000/svg" version="1.1" viewBox="0.00 0.00 274.00 184.00">
<g stroke-width="2.00" fill="none" stroke-linecap="butt">
<path stroke="#8c9eb6" vector-effect="non-scaling-stroke" d="
  M 65.70 31.92
  Q 30.58 47.25 13.11 81.62
  Q 12.71 82.41 12.86 82.93
  A 0.80 0.79 57.5 0 0 14.23 83.24
  Q 36.58 56.85 70.35 52.74
  C 77.21 51.90 85.41 52.10 93.00 52.09
  Q 159.69 52.05 226.47 52.13
  A 3.24 3.23 18.9 0 0 229.02 50.89
  L 249.83 24.08
  A 0.74 0.74 0.0 0 0 249.25 22.88
  Q 187.05 22.88 123.49 22.90
  Q 105.33 22.91 103.50 23.01
  Q 83.65 24.08 65.70 31.92"
/>
<path stroke="#8c9eb6" vector-effect="non-scaling-stroke" d="
  M 62.78 94.94
  Q 63.44 93.90 63.90 95.03
  L 75.96 124.58
  A 3.12 3.12 0.0 0 0 78.91 126.52
  Q 83.07 126.43 87.31 126.62
  Q 89.44 126.72 88.63 124.75
  L 71.22 82.51
  A 0.89 0.89 0.0 0 0 70.41 81.95
  L 58.83 81.75
  A 2.03 2.02 16.8 0 0 57.09 82.68
  L 29.55 125.30
  Q 28.75 126.55 30.23 126.52
  Q 35.50 126.42 40.76 126.50
  C 42.11 126.52 43.08 125.95 43.69 124.75
  Q 45.14 121.91 46.84 119.66
  Q 47.17 119.21 47.72 119.22
  L 61.83 119.33
  Q 63.36 119.35 64.17 118.04
  L 68.28 111.36
  Q 69.33 109.65 67.33 109.67
  L 54.20 109.80
  A 0.45 0.45 0.0 0 1 53.82 109.11
  L 62.78 94.94"
/>
<path stroke="#8c9eb6" vector-effect="non-scaling-stroke" d="
  M 88.31 115.88
  Q 90.51 120.56 92.10 125.22
  A 1.93 1.92 -9.8 0 0 93.95 126.52
  Q 102.01 126.41 110.65 126.57
  Q 120.96 126.76 124.83 125.00
  Q 131.75 121.84 134.53 115.07
  C 135.94 111.64 136.14 107.72 137.03 104.17
  C 140.00 92.18 132.46 81.94 119.87 81.86
  Q 106.40 81.78 93.30 81.87
  Q 92.20 81.87 92.02 82.96
  Q 89.96 95.23 87.27 108.58
  C 86.71 111.38 87.14 113.39 88.31 115.88"
/>
<path stroke="#8c9eb6" vector-effect="non-scaling-stroke" d="
  M 155.24 108.06
  Q 156.86 108.02 155.86 109.30
  L 143.26 125.48
  A 0.61 0.61 0.0 0 0 143.74 126.46
  L 155.46 126.50
  A 3.41 3.39 19.0 0 0 158.14 125.20
  L 190.85 83.12
  A 0.78 0.77 35.3 0 0 190.65 81.99
  Q 190.39 81.83 190.09 81.83
  Q 184.24 81.80 178.62 81.85
  A 3.19 3.18 -71.3 0 0 176.12 83.09
  L 158.92 105.38
  A 0.65 0.65 0.0 0 1 157.80 105.23
  L 148.52 82.47
  Q 148.28 81.88 147.64 81.87
  L 135.99 81.77
  A 0.72 0.71 -11.1 0 0 135.32 82.76
  L 145.50 107.37
  Q 145.88 108.29 146.88 108.26
  L 155.24 108.06"
/>
<path stroke="#8c9eb6" vector-effect="non-scaling-stroke" d="
  M 156.00 156.13
  C 165.52 156.31 176.07 156.80 184.91 154.71
  Q 204.31 150.12 217.66 133.30
  Q 219.95 130.41 221.67 127.04
  Q 222.03 126.33 221.23 126.33
  Q 207.88 126.32 195.10 126.31
  C 193.41 126.31 191.93 126.16 190.88 127.68
  C 180.92 142.10 164.12 152.84 146.10 152.89
  Q 91.53 153.05 38.31 153.10
  Q 29.19 153.11 14.13 153.94
  Q 13.39 153.98 13.15 154.68
  L 13.04 154.99
  A 0.40 0.40 0.0 0 0 13.41 155.52
  C 60.50 156.36 107.08 155.88 155.49 156.20
  Q 155.63 156.20 155.76 156.16
  Q 155.90 156.12 156.00 156.13"
/>
<path stroke="#8c9eb6" vector-effect="non-scaling-stroke" d="
  M 118.55 115.18
  C 124.73 114.93 124.85 107.40 125.92 103.06
  C 127.20 97.85 126.62 93.12 120.06 93.06
  Q 110.97 92.96 102.12 92.99
  A 0.59 0.58 -84.6 0 0 101.55 93.47
  L 97.67 114.78
  A 0.35 0.35 0.0 0 0 98.01 115.20
  Q 110.03 115.52 118.55 115.18"
/>
</g>
<path fill="#ffffff" d="
  M 0.00 0.00
  L 274.00 0.00
  L 274.00 184.00
  L 0.00 184.00
  L 0.00 0.00
  Z
  M 65.70 31.92
  Q 30.58 47.25 13.11 81.62
  Q 12.71 82.41 12.86 82.93
  A 0.80 0.79 57.5 0 0 14.23 83.24
  Q 36.58 56.85 70.35 52.74
  C 77.21 51.90 85.41 52.10 93.00 52.09
  Q 159.69 52.05 226.47 52.13
  A 3.24 3.23 18.9 0 0 229.02 50.89
  L 249.83 24.08
  A 0.74 0.74 0.0 0 0 249.25 22.88
  Q 187.05 22.88 123.49 22.90
  Q 105.33 22.91 103.50 23.01
  Q 83.65 24.08 65.70 31.92
  Z
  M 62.78 94.94
  Q 63.44 93.90 63.90 95.03
  L 75.96 124.58
  A 3.12 3.12 0.0 0 0 78.91 126.52
  Q 83.07 126.43 87.31 126.62
  Q 89.44 126.72 88.63 124.75
  L 71.22 82.51
  A 0.89 0.89 0.0 0 0 70.41 81.95
  L 58.83 81.75
  A 2.03 2.02 16.8 0 0 57.09 82.68
  L 29.55 125.30
  Q 28.75 126.55 30.23 126.52
  Q 35.50 126.42 40.76 126.50
  C 42.11 126.52 43.08 125.95 43.69 124.75
  Q 45.14 121.91 46.84 119.66
  Q 47.17 119.21 47.72 119.22
  L 61.83 119.33
  Q 63.36 119.35 64.17 118.04
  L 68.28 111.36
  Q 69.33 109.65 67.33 109.67
  L 54.20 109.80
  A 0.45 0.45 0.0 0 1 53.82 109.11
  L 62.78 94.94
  Z
  M 88.31 115.88
  Q 90.51 120.56 92.10 125.22
  A 1.93 1.92 -9.8 0 0 93.95 126.52
  Q 102.01 126.41 110.65 126.57
  Q 120.96 126.76 124.83 125.00
  Q 131.75 121.84 134.53 115.07
  C 135.94 111.64 136.14 107.72 137.03 104.17
  C 140.00 92.18 132.46 81.94 119.87 81.86
  Q 106.40 81.78 93.30 81.87
  Q 92.20 81.87 92.02 82.96
  Q 89.96 95.23 87.27 108.58
  C 86.71 111.38 87.14 113.39 88.31 115.88
  Z
  M 155.24 108.06
  Q 156.86 108.02 155.86 109.30
  L 143.26 125.48
  A 0.61 0.61 0.0 0 0 143.74 126.46
  L 155.46 126.50
  A 3.41 3.39 19.0 0 0 158.14 125.20
  L 190.85 83.12
  A 0.78 0.77 35.3 0 0 190.65 81.99
  Q 190.39 81.83 190.09 81.83
  Q 184.24 81.80 178.62 81.85
  A 3.19 3.18 -71.3 0 0 176.12 83.09
  L 158.92 105.38
  A 0.65 0.65 0.0 0 1 157.80 105.23
  L 148.52 82.47
  Q 148.28 81.88 147.64 81.87
  L 135.99 81.77
  A 0.72 0.71 -11.1 0 0 135.32 82.76
  L 145.50 107.37
  Q 145.88 108.29 146.88 108.26
  L 155.24 108.06
  Z
  M 156.00 156.13
  C 165.52 156.31 176.07 156.80 184.91 154.71
  Q 204.31 150.12 217.66 133.30
  Q 219.95 130.41 221.67 127.04
  Q 222.03 126.33 221.23 126.33
  Q 207.88 126.32 195.10 126.31
  C 193.41 126.31 191.93 126.16 190.88 127.68
  C 180.92 142.10 164.12 152.84 146.10 152.89
  Q 91.53 153.05 38.31 153.10
  Q 29.19 153.11 14.13 153.94
  Q 13.39 153.98 13.15 154.68
  L 13.04 154.99
  A 0.40 0.40 0.0 0 0 13.41 155.52
  C 60.50 156.36 107.08 155.88 155.49 156.20
  Q 155.63 156.20 155.76 156.16
  Q 155.90 156.12 156.00 156.13
  Z"
/>
<path fill="#183c6c" d="
  M 65.70 31.92
  Q 83.65 24.08 103.50 23.01
  Q 105.33 22.91 123.49 22.90
  Q 187.05 22.88 249.25 22.88
  A 0.74 0.74 0.0 0 1 249.83 24.08
  L 229.02 50.89
  A 3.24 3.23 18.9 0 1 226.47 52.13
  Q 159.69 52.05 93.00 52.09
  C 85.41 52.10 77.21 51.90 70.35 52.74
  Q 36.58 56.85 14.23 83.24
  A 0.80 0.79 57.5 0 1 12.86 82.93
  Q 12.71 82.41 13.11 81.62
  Q 30.58 47.25 65.70 31.92
  Z"
/>
<path fill="#183c6c" d="
  M 62.78 94.94
  L 53.82 109.11
  A 0.45 0.45 0.0 0 0 54.20 109.80
  L 67.33 109.67
  Q 69.33 109.65 68.28 111.36
  L 64.17 118.04
  Q 63.36 119.35 61.83 119.33
  L 47.72 119.22
  Q 47.17 119.21 46.84 119.66
  Q 45.14 121.91 43.69 124.75
  C 43.08 125.95 42.11 126.52 40.76 126.50
  Q 35.50 126.42 30.23 126.52
  Q 28.75 126.55 29.55 125.30
  L 57.09 82.68
  A 2.03 2.02 16.8 0 1 58.83 81.75
  L 70.41 81.95
  A 0.89 0.89 0.0 0 1 71.22 82.51
  L 88.63 124.75
  Q 89.44 126.72 87.31 126.62
  Q 83.07 126.43 78.91 126.52
  A 3.12 3.12 0.0 0 1 75.96 124.58
  L 63.90 95.03
  Q 63.44 93.90 62.78 94.94
  Z"
/>
<path fill="#183c6c" d="
  M 88.31 115.88
  C 87.14 113.39 86.71 111.38 87.27 108.58
  Q 89.96 95.23 92.02 82.96
  Q 92.20 81.87 93.30 81.87
  Q 106.40 81.78 119.87 81.86
  C 132.46 81.94 140.00 92.18 137.03 104.17
  C 136.14 107.72 135.94 111.64 134.53 115.07
  Q 131.75 121.84 124.83 125.00
  Q 120.96 126.76 110.65 126.57
  Q 102.01 126.41 93.95 126.52
  A 1.93 1.92 -9.8 0 1 92.10 125.22
  Q 90.51 120.56 88.31 115.88
  Z
  M 118.55 115.18
  C 124.73 114.93 124.85 107.40 125.92 103.06
  C 127.20 97.85 126.62 93.12 120.06 93.06
  Q 110.97 92.96 102.12 92.99
  A 0.59 0.58 -84.6 0 0 101.55 93.47
  L 97.67 114.78
  A 0.35 0.35 0.0 0 0 98.01 115.20
  Q 110.03 115.52 118.55 115.18
  Z"
/>
<path fill="#183c6c" d="
  M 155.24 108.06
  L 146.88 108.26
  Q 145.88 108.29 145.50 107.37
  L 135.32 82.76
  A 0.72 0.71 -11.1 0 1 135.99 81.77
  L 147.64 81.87
  Q 148.28 81.88 148.52 82.47
  L 157.80 105.23
  A 0.65 0.65 0.0 0 0 158.92 105.38
  L 176.12 83.09
  A 3.19 3.18 -71.3 0 1 178.62 81.85
  Q 184.24 81.80 190.09 81.83
  Q 190.39 81.83 190.65 81.99
  A 0.78 0.77 35.3 0 1 190.85 83.12
  L 158.14 125.20
  A 3.41 3.39 19.0 0 1 155.46 126.50
  L 143.74 126.46
  A 0.61 0.61 0.0 0 1 143.26 125.48
  L 155.86 109.30
  Q 156.86 108.02 155.24 108.06
  Z"
/>
<path fill="#ffffff" d="
  M 125.92 103.06
  C 124.85 107.40 124.73 114.93 118.55 115.18
  Q 110.03 115.52 98.01 115.20
  A 0.35 0.35 0.0 0 1 97.67 114.78
  L 101.55 93.47
  A 0.59 0.58 -84.6 0 1 102.12 92.99
  Q 110.97 92.96 120.06 93.06
  C 126.62 93.12 127.20 97.85 125.92 103.06
  Z"
/>
<path fill="#183c6c" d="
  M 155.76 156.16
  Q 155.63 156.20 155.49 156.20
  C 107.08 155.88 60.50 156.36 13.41 155.52
  A 0.40 0.40 0.0 0 1 13.04 154.99
  L 13.15 154.68
  Q 13.39 153.98 14.13 153.94
  Q 29.19 153.11 38.31 153.10
  Q 91.53 153.05 146.10 152.89
  C 164.12 152.84 180.92 142.10 190.88 127.68
  C 191.93 126.16 193.41 126.31 195.10 126.31
  Q 207.88 126.32 221.23 126.33
  Q 222.03 126.33 221.67 127.04
  Q 219.95 130.41 217.66 133.30
  Q 204.31 150.12 184.91 154.71
  C 176.07 156.80 165.52 156.31 156.00 156.13
  Q 155.90 156.12 155.76 156.16
  Z"
/>
</svg>
