<?xml version="1.0" encoding="UTF-8" standalone="no"?>
<!DOCTYPE svg PUBLIC "-//W3C//DTD SVG 1.1//EN" "http://www.w3.org/Graphics/SVG/1.1/DTD/svg11.dtd">
<svg xmlns="http://www.w3.org/2000/svg" version="1.1" viewBox="0.00 0.00 225.00 225.00">
<g stroke-width="2.00" fill="none" stroke-linecap="butt">
<path stroke="#f68d91" vector-effect="non-scaling-stroke" d="
  M 109.93 47.03
  A 0.48 0.48 0.0 0 1 110.65 47.03
  L 193.31 138.12
  A 0.48 0.48 0.0 0 0 193.66 138.28
  L 200.28 138.23
  A 0.48 0.48 0.0 0 0 200.63 137.43
  L 110.81 38.04
  A 0.48 0.48 0.0 0 0 110.10 38.04
  L 19.56 137.43
  A 0.48 0.48 0.0 0 0 19.91 138.24
  L 27.25 138.27
  A 0.48 0.48 0.0 0 0 27.60 138.11
  L 109.93 47.03"
/>
<path stroke="#f68d91" vector-effect="non-scaling-stroke" d="
  M 126.75 138.06
  A 0.60 0.60 0.0 0 0 127.19 138.25
  L 173.15 138.25
  A 0.60 0.60 0.0 0 0 173.58 137.24
  L 109.86 68.55
  A 0.60 0.60 0.0 0 0 108.98 68.55
  L 86.31 93.17
  A 0.60 0.60 0.0 0 0 86.31 93.99
  L 126.75 138.06"
/>
<path stroke="#f68d91" vector-effect="non-scaling-stroke" d="
  M 45.98 137.18
  A 0.61 0.61 0.0 0 0 46.43 138.20
  L 101.51 138.26
  A 0.61 0.61 0.0 0 0 101.97 137.25
  L 74.99 106.47
  A 0.61 0.61 0.0 0 0 74.08 106.46
  L 45.98 137.18"
/>
<path stroke="#808195" vector-effect="non-scaling-stroke" d="
  M 42.4437 144.2577
  A 0.39 0.39 0.0 0 0 42.0605 143.8609
  L 37.4012 143.7796
  A 0.39 0.39 0.0 0 0 37.0045 144.1627
  L 36.9563 146.9223
  A 0.39 0.39 0.0 0 0 37.3395 147.3191
  L 41.9988 147.4004
  A 0.39 0.39 0.0 0 0 42.3955 147.0173
  L 42.4437 144.2577"
/>
<path stroke="#808195" vector-effect="non-scaling-stroke" d="
  M 25.00 157.34
  A 0.34 0.34 0.0 0 1 25.34 157.00
  L 33.26 157.00
  A 0.34 0.34 0.0 0 0 33.60 156.65
  L 33.47 153.32
  A 0.34 0.34 0.0 0 0 33.13 152.99
  L 25.34 153.01
  A 0.34 0.34 0.0 0 1 25.00 152.67
  L 25.01 149.05
  A 0.34 0.34 0.0 0 1 25.35 148.71
  L 33.93 148.79
  A 0.34 0.34 0.0 0 0 34.27 148.44
  L 34.19 145.08
  A 0.34 0.34 0.0 0 0 33.85 144.75
  L 19.72 144.75
  A 0.34 0.34 0.0 0 0 19.38 145.09
  L 19.39 166.08
  A 0.34 0.34 0.0 0 0 19.73 166.42
  L 24.66 166.47
  A 0.34 0.34 0.0 0 0 25.00 166.13
  L 25.00 157.34"
/>
<path stroke="#808195" vector-effect="non-scaling-stroke" d="
  M 170.80 166.59
  Q 170.81 166.76 170.79 166.93
  Q 170.72 167.49 171.28 167.50
  L 175.09 167.57
  Q 175.75 167.58 175.75 166.91
  L 175.77 145.46
  A 0.56 0.56 0.0 0 0 175.21 144.90
  L 171.17 144.90
  A 0.61 0.60 90.0 0 0 170.56 145.52
  L 170.68 151.52
  A 0.28 0.28 0.0 0 1 170.27 151.78
  C 166.89 150.13 162.60 150.56 160.57 154.15
  Q 158.88 157.14 159.35 161.54
  C 159.64 164.37 160.94 167.64 164.18 167.84
  C 165.83 167.93 167.99 167.87 169.28 166.86
  Q 169.75 166.49 170.33 166.27
  A 0.35 0.35 0.0 0 1 170.80 166.59"
/>
<path stroke="#808195" vector-effect="non-scaling-stroke" d="
  M 185.2327 145.3146
  A 0.37 0.37 0.0 0 0 184.8634 144.9440
  L 180.3234 144.9360
  A 0.37 0.37 0.0 0 0 179.9527 145.3054
  L 179.9473 148.4454
  A 0.37 0.37 0.0 0 0 180.3166 148.8160
  L 184.8566 148.8240
  A 0.37 0.37 0.0 0 0 185.2273 148.4546
  L 185.2327 145.3146"
/>
<path stroke="#808195" vector-effect="non-scaling-stroke" d="
  M 113.00 154.78
  L 112.99 146.27
  A 0.48 0.47 0.6 0 0 112.52 145.80
  L 108.00 145.78
  Q 107.52 145.78 107.52 146.25
  L 107.51 167.02
  A 0.26 0.26 0.0 0 0 107.77 167.28
  L 112.75 167.29
  A 0.28 0.27 90.0 0 0 113.03 167.00
  Q 112.93 163.45 113.07 160.18
  Q 113.10 159.52 113.65 159.18
  A 0.65 0.65 0.0 0 1 114.52 159.36
  L 119.92 167.24
  A 0.54 0.53 -15.8 0 0 120.34 167.47
  Q 123.47 167.60 126.62 167.50
  A 0.04 0.04 0.0 0 0 126.65 167.44
  Q 122.81 161.91 118.94 156.54
  A 0.90 0.90 0.0 0 1 118.97 155.45
  L 125.92 146.67
  Q 126.62 145.79 125.50 145.80
  L 121.47 145.82
  Q 120.19 145.83 119.44 146.86
  L 113.50 154.95
  Q 113.00 155.64 113.00 154.78"
/>
<path stroke="#808195" vector-effect="non-scaling-stroke" d="
  M 195.27 154.69
  L 198.24 154.76
  Q 199.25 154.78 199.22 153.77
  L 199.18 152.23
  Q 199.14 151.01 197.96 151.28
  Q 196.44 151.62 194.96 151.26
  Q 194.49 151.14 194.50 150.66
  L 194.54 147.28
  Q 194.55 146.50 193.78 146.50
  L 190.34 146.52
  Q 189.46 146.52 189.47 147.41
  L 189.51 150.53
  A 0.79 0.78 77.5 0 1 189.05 151.26
  Q 188.54 151.50 187.99 151.46
  Q 187.44 151.42 187.45 151.97
  L 187.47 153.98
  Q 187.48 154.72 188.23 154.74
  L 188.90 154.75
  A 0.67 0.66 2.5 0 1 189.55 155.45
  Q 189.30 159.77 189.61 163.68
  C 190.00 168.76 195.18 168.20 198.86 167.97
  A 0.86 0.86 0.0 0 0 199.66 167.16
  L 199.78 164.75
  Q 199.85 163.57 198.83 164.16
  C 196.59 165.46 194.43 163.98 194.48 161.51
  Q 194.54 158.17 194.58 155.37
  Q 194.59 154.68 195.27 154.69"
/>
<path stroke="#808195" vector-effect="non-scaling-stroke" d="
  M 51.65 151.03
  Q 51.39 150.22 50.52 150.21
  Q 48.76 150.19 47.06 150.14
  Q 46.46 150.12 46.45 150.72
  L 46.41 165.92
  Q 46.40 166.43 46.92 166.43
  L 51.02 166.45
  Q 51.49 166.45 51.49 165.98
  L 51.48 156.02
  Q 51.48 154.00 53.48 153.73
  Q 53.82 153.68 54.15 153.68
  Q 56.98 153.65 56.99 156.47
  L 57.00 166.23
  Q 57.00 166.46 57.23 166.46
  L 61.95 166.44
  Q 62.23 166.44 62.23 166.16
  Q 62.12 162.16 62.22 157.37
  C 62.33 152.79 61.02 148.60 55.31 149.82
  C 54.24 150.05 53.22 150.58 52.36 151.25
  Q 51.85 151.65 51.65 151.03"
/>
<path stroke="#808195" vector-effect="non-scaling-stroke" d="
  M 70.95 159.20
  L 80.98 159.18
  A 0.58 0.58 0.0 0 0 81.55 158.66
  Q 82.20 151.25 76.40 149.85
  C 70.46 148.43 65.24 151.49 64.85 158.02
  C 64.31 167.25 74.93 168.25 81.07 165.61
  Q 81.30 165.51 81.30 165.27
  L 81.38 161.70
  A 0.24 0.24 0.0 0 0 81.03 161.48
  Q 73.15 165.51 70.15 160.65
  Q 69.26 159.21 70.95 159.20"
/>
<path stroke="#808195" vector-effect="non-scaling-stroke" d="
  M 42.23 150.54
  A 0.35 0.35 0.0 0 0 41.88 150.19
  L 37.34 150.19
  A 0.35 0.35 0.0 0 0 36.99 150.54
  L 36.99 166.10
  A 0.35 0.35 0.0 0 0 37.34 166.45
  L 41.88 166.45
  A 0.35 0.35 0.0 0 0 42.23 166.10
  L 42.23 150.54"
/>
<path stroke="#808195" vector-effect="non-scaling-stroke" d="
  M 91.41 161.99
  A 0.37 0.37 0.0 0 1 92.03 161.99
  L 94.89 166.26
  A 0.37 0.37 0.0 0 0 95.19 166.42
  L 100.34 166.49
  A 0.37 0.37 0.0 0 0 100.64 165.90
  L 95.00 158.38
  A 0.37 0.37 0.0 0 1 95.00 157.94
  L 100.41 150.73
  A 0.37 0.37 0.0 0 0 100.11 150.14
  L 95.33 150.14
  A 0.37 0.37 0.0 0 0 95.02 150.30
  L 92.13 154.53
  A 0.37 0.37 0.0 0 1 91.52 154.52
  L 88.83 150.36
  A 0.37 0.37 0.0 0 0 88.52 150.19
  L 83.42 150.20
  A 0.37 0.37 0.0 0 0 83.12 150.79
  L 88.62 158.12
  A 0.37 0.37 0.0 0 1 88.62 158.57
  L 83.01 165.82
  A 0.37 0.37 0.0 0 0 83.30 166.42
  L 88.21 166.47
  A 0.37 0.37 0.0 0 0 88.52 166.30
  L 91.41 161.99"
/>
<path stroke="#808195" vector-effect="non-scaling-stroke" d="
  M 147.17 160.24
  L 156.73 160.25
  Q 157.23 160.25 157.28 159.75
  Q 158.10 152.50 152.37 151.10
  Q 148.59 150.19 145.30 151.67
  Q 140.65 153.78 140.83 160.13
  C 141.08 168.62 150.28 168.87 156.17 166.99
  Q 157.25 166.64 157.22 165.50
  L 157.17 163.22
  Q 157.14 162.30 156.39 162.83
  Q 153.33 164.99 149.16 164.32
  A 3.87 3.86 80.1 0 1 146.40 162.38
  L 146.16 161.95
  Q 145.21 160.24 147.17 160.24"
/>
<path stroke="#808195" vector-effect="non-scaling-stroke" d="
  M 133.86 153.22
  L 133.81 152.00
  Q 133.77 151.24 133.01 151.27
  L 129.41 151.42
  Q 128.77 151.45 128.77 152.09
  L 128.76 167.27
  Q 128.76 167.52 129.02 167.52
  L 133.75 167.49
  Q 133.98 167.49 133.98 167.25
  L 133.89 157.00
  Q 133.88 156.13 134.75 156.13
  L 139.32 156.13
  Q 140.02 156.13 140.02 155.43
  L 140.03 152.02
  Q 140.04 151.24 139.26 151.28
  Q 136.29 151.39 134.45 153.42
  Q 133.90 154.02 133.86 153.22"
/>
<path stroke="#808195" vector-effect="non-scaling-stroke" d="
  M 185.13 151.71
  A 0.38 0.38 0.0 0 0 184.75 151.33
  L 180.31 151.33
  A 0.38 0.38 0.0 0 0 179.93 151.71
  L 179.93 167.17
  A 0.38 0.38 0.0 0 0 180.31 167.55
  L 184.75 167.55
  A 0.38 0.38 0.0 0 0 185.13 167.17
  L 185.13 151.71"
/>
<path stroke="#808195" vector-effect="non-scaling-stroke" d="
  M 164.72 162.60
  A 2.17 2.17 0.0 0 0 167.50 164.52
  L 169.11 164.05
  A 2.17 2.17 0.0 0 0 170.66 161.97
  L 170.66 156.38
  A 2.17 2.17 0.0 0 0 167.42 154.49
  L 165.46 155.60
  A 2.17 2.17 0.0 0 0 164.37 157.64
  L 164.72 162.60"
/>
<path stroke="#808195" vector-effect="non-scaling-stroke" d="
  M 70.22 156.23
  L 76.56 156.15
  A 0.17 0.17 0.0 0 0 76.73 155.97
  L 76.73 155.90
  A 3.22 3.18 -0.8 0 0 73.47 152.77
  L 73.23 152.77
  A 3.22 3.18 -0.8 0 0 70.05 156.00
  L 70.05 156.07
  A 0.17 0.17 0.0 0 0 70.22 156.23"
/>
<path stroke="#808195" vector-effect="non-scaling-stroke" d="
  M 146.30 157.64
  L 152.10 157.50
  A 0.29 0.29 0.0 0 0 152.39 157.20
  L 152.38 156.78
  A 2.89 2.71 88.6 0 0 149.60 153.96
  L 148.64 153.98
  A 2.89 2.71 88.6 0 0 146.00 156.94
  L 146.01 157.36
  A 0.29 0.29 0.0 0 0 146.30 157.64"
/>
</g>
<path fill="#ffffff" d="
  M 0.00 0.00
  L 225.00 0.00
  L 225.00 225.00
  L 0.00 225.00
  L 0.00 0.00
  Z
  M 109.93 47.03
  A 0.48 0.48 0.0 0 1 110.65 47.03
  L 193.31 138.12
  A 0.48 0.48 0.0 0 0 193.66 138.28
  L 200.28 138.23
  A 0.48 0.48 0.0 0 0 200.63 137.43
  L 110.81 38.04
  A 0.48 0.48 0.0 0 0 110.10 38.04
  L 19.56 137.43
  A 0.48 0.48 0.0 0 0 19.91 138.24
  L 27.25 138.27
  A 0.48 0.48 0.0 0 0 27.60 138.11
  L 109.93 47.03
  Z
  M 126.75 138.06
  A 0.60 0.60 0.0 0 0 127.19 138.25
  L 173.15 138.25
  A 0.60 0.60 0.0 0 0 173.58 137.24
  L 109.86 68.55
  A 0.60 0.60 0.0 0 0 108.98 68.55
  L 86.31 93.17
  A 0.60 0.60 0.0 0 0 86.31 93.99
  L 126.75 138.06
  Z
  M 45.98 137.18
  A 0.61 0.61 0.0 0 0 46.43 138.20
  L 101.51 138.26
  A 0.61 0.61 0.0 0 0 101.97 137.25
  L 74.99 106.47
  A 0.61 0.61 0.0 0 0 74.08 106.46
  L 45.98 137.18
  Z
  M 42.4437 144.2577
  A 0.39 0.39 0.0 0 0 42.0605 143.8609
  L 37.4012 143.7796
  A 0.39 0.39 0.0 0 0 37.0045 144.1627
  L 36.9563 146.9223
  A 0.39 0.39 0.0 0 0 37.3395 147.3191
  L 41.9988 147.4004
  A 0.39 0.39 0.0 0 0 42.3955 147.0173
  L 42.4437 144.2577
  Z
  M 25.00 157.34
  A 0.34 0.34 0.0 0 1 25.34 157.00
  L 33.26 157.00
  A 0.34 0.34 0.0 0 0 33.60 156.65
  L 33.47 153.32
  A 0.34 0.34 0.0 0 0 33.13 152.99
  L 25.34 153.01
  A 0.34 0.34 0.0 0 1 25.00 152.67
  L 25.01 149.05
  A 0.34 0.34 0.0 0 1 25.35 148.71
  L 33.93 148.79
  A 0.34 0.34 0.0 0 0 34.27 148.44
  L 34.19 145.08
  A 0.34 0.34 0.0 0 0 33.85 144.75
  L 19.72 144.75
  A 0.34 0.34 0.0 0 0 19.38 145.09
  L 19.39 166.08
  A 0.34 0.34 0.0 0 0 19.73 166.42
  L 24.66 166.47
  A 0.34 0.34 0.0 0 0 25.00 166.13
  L 25.00 157.34
  Z
  M 170.80 166.59
  Q 170.81 166.76 170.79 166.93
  Q 170.72 167.49 171.28 167.50
  L 175.09 167.57
  Q 175.75 167.58 175.75 166.91
  L 175.77 145.46
  A 0.56 0.56 0.0 0 0 175.21 144.90
  L 171.17 144.90
  A 0.61 0.60 90.0 0 0 170.56 145.52
  L 170.68 151.52
  A 0.28 0.28 0.0 0 1 170.27 151.78
  C 166.89 150.13 162.60 150.56 160.57 154.15
  Q 158.88 157.14 159.35 161.54
  C 159.64 164.37 160.94 167.64 164.18 167.84
  C 165.83 167.93 167.99 167.87 169.28 166.86
  Q 169.75 166.49 170.33 166.27
  A 0.35 0.35 0.0 0 1 170.80 166.59
  Z
  M 185.2327 145.3146
  A 0.37 0.37 0.0 0 0 184.8634 144.9440
  L 180.3234 144.9360
  A 0.37 0.37 0.0 0 0 179.9527 145.3054
  L 179.9473 148.4454
  A 0.37 0.37 0.0 0 0 180.3166 148.8160
  L 184.8566 148.8240
  A 0.37 0.37 0.0 0 0 185.2273 148.4546
  L 185.2327 145.3146
  Z
  M 113.00 154.78
  L 112.99 146.27
  A 0.48 0.47 0.6 0 0 112.52 145.80
  L 108.00 145.78
  Q 107.52 145.78 107.52 146.25
  L 107.51 167.02
  A 0.26 0.26 0.0 0 0 107.77 167.28
  L 112.75 167.29
  A 0.28 0.27 90.0 0 0 113.03 167.00
  Q 112.93 163.45 113.07 160.18
  Q 113.10 159.52 113.65 159.18
  A 0.65 0.65 0.0 0 1 114.52 159.36
  L 119.92 167.24
  A 0.54 0.53 -15.8 0 0 120.34 167.47
  Q 123.47 167.60 126.62 167.50
  A 0.04 0.04 0.0 0 0 126.65 167.44
  Q 122.81 161.91 118.94 156.54
  A 0.90 0.90 0.0 0 1 118.97 155.45
  L 125.92 146.67
  Q 126.62 145.79 125.50 145.80
  L 121.47 145.82
  Q 120.19 145.83 119.44 146.86
  L 113.50 154.95
  Q 113.00 155.64 113.00 154.78
  Z
  M 195.27 154.69
  L 198.24 154.76
  Q 199.25 154.78 199.22 153.77
  L 199.18 152.23
  Q 199.14 151.01 197.96 151.28
  Q 196.44 151.62 194.96 151.26
  Q 194.49 151.14 194.50 150.66
  L 194.54 147.28
  Q 194.55 146.50 193.78 146.50
  L 190.34 146.52
  Q 189.46 146.52 189.47 147.41
  L 189.51 150.53
  A 0.79 0.78 77.5 0 1 189.05 151.26
  Q 188.54 151.50 187.99 151.46
  Q 187.44 151.42 187.45 151.97
  L 187.47 153.98
  Q 187.48 154.72 188.23 154.74
  L 188.90 154.75
  A 0.67 0.66 2.5 0 1 189.55 155.45
  Q 189.30 159.77 189.61 163.68
  C 190.00 168.76 195.18 168.20 198.86 167.97
  A 0.86 0.86 0.0 0 0 199.66 167.16
  L 199.78 164.75
  Q 199.85 163.57 198.83 164.16
  C 196.59 165.46 194.43 163.98 194.48 161.51
  Q 194.54 158.17 194.58 155.37
  Q 194.59 154.68 195.27 154.69
  Z
  M 51.65 151.03
  Q 51.39 150.22 50.52 150.21
  Q 48.76 150.19 47.06 150.14
  Q 46.46 150.12 46.45 150.72
  L 46.41 165.92
  Q 46.40 166.43 46.92 166.43
  L 51.02 166.45
  Q 51.49 166.45 51.49 165.98
  L 51.48 156.02
  Q 51.48 154.00 53.48 153.73
  Q 53.82 153.68 54.15 153.68
  Q 56.98 153.65 56.99 156.47
  L 57.00 166.23
  Q 57.00 166.46 57.23 166.46
  L 61.95 166.44
  Q 62.23 166.44 62.23 166.16
  Q 62.12 162.16 62.22 157.37
  C 62.33 152.79 61.02 148.60 55.31 149.82
  C 54.24 150.05 53.22 150.58 52.36 151.25
  Q 51.85 151.65 51.65 151.03
  Z
  M 70.95 159.20
  L 80.98 159.18
  A 0.58 0.58 0.0 0 0 81.55 158.66
  Q 82.20 151.25 76.40 149.85
  C 70.46 148.43 65.24 151.49 64.85 158.02
  C 64.31 167.25 74.93 168.25 81.07 165.61
  Q 81.30 165.51 81.30 165.27
  L 81.38 161.70
  A 0.24 0.24 0.0 0 0 81.03 161.48
  Q 73.15 165.51 70.15 160.65
  Q 69.26 159.21 70.95 159.20
  Z
  M 42.23 150.54
  A 0.35 0.35 0.0 0 0 41.88 150.19
  L 37.34 150.19
  A 0.35 0.35 0.0 0 0 36.99 150.54
  L 36.99 166.10
  A 0.35 0.35 0.0 0 0 37.34 166.45
  L 41.88 166.45
  A 0.35 0.35 0.0 0 0 42.23 166.10
  L 42.23 150.54
  Z
  M 91.41 161.99
  A 0.37 0.37 0.0 0 1 92.03 161.99
  L 94.89 166.26
  A 0.37 0.37 0.0 0 0 95.19 166.42
  L 100.34 166.49
  A 0.37 0.37 0.0 0 0 100.64 165.90
  L 95.00 158.38
  A 0.37 0.37 0.0 0 1 95.00 157.94
  L 100.41 150.73
  A 0.37 0.37 0.0 0 0 100.11 150.14
  L 95.33 150.14
  A 0.37 0.37 0.0 0 0 95.02 150.30
  L 92.13 154.53
  A 0.37 0.37 0.0 0 1 91.52 154.52
  L 88.83 150.36
  A 0.37 0.37 0.0 0 0 88.52 150.19
  L 83.42 150.20
  A 0.37 0.37 0.0 0 0 83.12 150.79
  L 88.62 158.12
  A 0.37 0.37 0.0 0 1 88.62 158.57
  L 83.01 165.82
  A 0.37 0.37 0.0 0 0 83.30 166.42
  L 88.21 166.47
  A 0.37 0.37 0.0 0 0 88.52 166.30
  L 91.41 161.99
  Z
  M 147.17 160.24
  L 156.73 160.25
  Q 157.23 160.25 157.28 159.75
  Q 158.10 152.50 152.37 151.10
  Q 148.59 150.19 145.30 151.67
  Q 140.65 153.78 140.83 160.13
  C 141.08 168.62 150.28 168.87 156.17 166.99
  Q 157.25 166.64 157.22 165.50
  L 157.17 163.22
  Q 157.14 162.30 156.39 162.83
  Q 153.33 164.99 149.16 164.32
  A 3.87 3.86 80.1 0 1 146.40 162.38
  L 146.16 161.95
  Q 145.21 160.24 147.17 160.24
  Z
  M 133.86 153.22
  L 133.81 152.00
  Q 133.77 151.24 133.01 151.27
  L 129.41 151.42
  Q 128.77 151.45 128.77 152.09
  L 128.76 167.27
  Q 128.76 167.52 129.02 167.52
  L 133.75 167.49
  Q 133.98 167.49 133.98 167.25
  L 133.89 157.00
  Q 133.88 156.13 134.75 156.13
  L 139.32 156.13
  Q 140.02 156.13 140.02 155.43
  L 140.03 152.02
  Q 140.04 151.24 139.26 151.28
  Q 136.29 151.39 134.45 153.42
  Q 133.90 154.02 133.86 153.22
  Z
  M 185.13 151.71
  A 0.38 0.38 0.0 0 0 184.75 151.33
  L 180.31 151.33
  A 0.38 0.38 0.0 0 0 179.93 151.71
  L 179.93 167.17
  A 0.38 0.38 0.0 0 0 180.31 167.55
  L 184.75 167.55
  A 0.38 0.38 0.0 0 0 185.13 167.17
  L 185.13 151.71
  Z"
/>
<path fill="#ec1a23" d="
  M 109.93 47.03
  L 27.60 138.11
  A 0.48 0.48 0.0 0 1 27.25 138.27
  L 19.91 138.24
  A 0.48 0.48 0.0 0 1 19.56 137.43
  L 110.10 38.04
  A 0.48 0.48 0.0 0 1 110.81 38.04
  L 200.63 137.43
  A 0.48 0.48 0.0 0 1 200.28 138.23
  L 193.66 138.28
  A 0.48 0.48 0.0 0 1 193.31 138.12
  L 110.65 47.03
  A 0.48 0.48 0.0 0 0 109.93 47.03
  Z"
/>
<path fill="#ec1a23" d="
  M 126.75 138.06
  L 86.31 93.99
  A 0.60 0.60 0.0 0 1 86.31 93.17
  L 108.98 68.55
  A 0.60 0.60 0.0 0 1 109.86 68.55
  L 173.58 137.24
  A 0.60 0.60 0.0 0 1 173.15 138.25
  L 127.19 138.25
  A 0.60 0.60 0.0 0 1 126.75 138.06
  Z"
/>
<path fill="#ec1a23" d="
  M 45.98 137.18
  L 74.08 106.46
  A 0.61 0.61 0.0 0 1 74.99 106.47
  L 101.97 137.25
  A 0.61 0.61 0.0 0 1 101.51 138.26
  L 46.43 138.20
  A 0.61 0.61 0.0 0 1 45.98 137.18
  Z"
/>
<rect fill="#01032a" x="-2.72" y="-1.77" transform="translate(39.70,145.59) rotate(1.0)" width="5.44" height="3.54" rx="0.39"/>
<path fill="#01032a" d="
  M 25.00 157.34
  L 25.00 166.13
  A 0.34 0.34 0.0 0 1 24.66 166.47
  L 19.73 166.42
  A 0.34 0.34 0.0 0 1 19.39 166.08
  L 19.38 145.09
  A 0.34 0.34 0.0 0 1 19.72 144.75
  L 33.85 144.75
  A 0.34 0.34 0.0 0 1 34.19 145.08
  L 34.27 148.44
  A 0.34 0.34 0.0 0 1 33.93 148.79
  L 25.35 148.71
  A 0.34 0.34 0.0 0 0 25.01 149.05
  L 25.00 152.67
  A 0.34 0.34 0.0 0 0 25.34 153.01
  L 33.13 152.99
  A 0.34 0.34 0.0 0 1 33.47 153.32
  L 33.60 156.65
  A 0.34 0.34 0.0 0 1 33.26 157.00
  L 25.34 157.00
  A 0.34 0.34 0.0 0 0 25.00 157.34
  Z"
/>
<path fill="#01032a" d="
  M 170.33 166.27
  Q 169.75 166.49 169.28 166.86
  C 167.99 167.87 165.83 167.93 164.18 167.84
  C 160.94 167.64 159.64 164.37 159.35 161.54
  Q 158.88 157.14 160.57 154.15
  C 162.60 150.56 166.89 150.13 170.27 151.78
  A 0.28 0.28 0.0 0 0 170.68 151.52
  L 170.56 145.52
  A 0.61 0.60 90.0 0 1 171.17 144.90
  L 175.21 144.90
  A 0.56 0.56 0.0 0 1 175.77 145.46
  L 175.75 166.91
  Q 175.75 167.58 175.09 167.57
  L 171.28 167.50
  Q 170.72 167.49 170.79 166.93
  Q 170.81 166.76 170.80 166.59
  A 0.35 0.35 0.0 0 0 170.33 166.27
  Z
  M 164.72 162.60
  A 2.17 2.17 0.0 0 0 167.50 164.52
  L 169.11 164.05
  A 2.17 2.17 0.0 0 0 170.66 161.97
  L 170.66 156.38
  A 2.17 2.17 0.0 0 0 167.42 154.49
  L 165.46 155.60
  A 2.17 2.17 0.0 0 0 164.37 157.64
  L 164.72 162.60
  Z"
/>
<rect fill="#01032a" x="-2.64" y="-1.94" transform="translate(182.59,146.88) rotate(0.1)" width="5.28" height="3.88" rx="0.37"/>
<path fill="#01032a" d="
  M 113.50 154.95
  L 119.44 146.86
  Q 120.19 145.83 121.47 145.82
  L 125.50 145.80
  Q 126.62 145.79 125.92 146.67
  L 118.97 155.45
  A 0.90 0.90 0.0 0 0 118.94 156.54
  Q 122.81 161.91 126.65 167.44
  A 0.04 0.04 0.0 0 1 126.62 167.50
  Q 123.47 167.60 120.34 167.47
  A 0.54 0.53 -15.8 0 1 119.92 167.24
  L 114.52 159.36
  A 0.65 0.65 0.0 0 0 113.65 159.18
  Q 113.10 159.52 113.07 160.18
  Q 112.93 163.45 113.03 167.00
  A 0.28 0.27 90.0 0 1 112.75 167.29
  L 107.77 167.28
  A 0.26 0.26 0.0 0 1 107.51 167.02
  L 107.52 146.25
  Q 107.52 145.78 108.00 145.78
  L 112.52 145.80
  A 0.48 0.47 0.6 0 1 112.99 146.27
  L 113.00 154.78
  Q 113.00 155.64 113.50 154.95
  Z"
/>
<path fill="#01032a" d="
  M 194.58 155.37
  Q 194.54 158.17 194.48 161.51
  C 194.43 163.98 196.59 165.46 198.83 164.16
  Q 199.85 163.57 199.78 164.75
  L 199.66 167.16
  A 0.86 0.86 0.0 0 1 198.86 167.97
  C 195.18 168.20 190.00 168.76 189.61 163.68
  Q 189.30 159.77 189.55 155.45
  A 0.67 0.66 2.5 0 0 188.90 154.75
  L 188.23 154.74
  Q 187.48 154.72 187.47 153.98
  L 187.45 151.97
  Q 187.44 151.42 187.99 151.46
  Q 188.54 151.50 189.05 151.26
  A 0.79 0.78 77.5 0 0 189.51 150.53
  L 189.47 147.41
  Q 189.46 146.52 190.34 146.52
  L 193.78 146.50
  Q 194.55 146.50 194.54 147.28
  L 194.50 150.66
  Q 194.49 151.14 194.96 151.26
  Q 196.44 151.62 197.96 151.28
  Q 199.14 151.01 199.18 152.23
  L 199.22 153.77
  Q 199.25 154.78 198.24 154.76
  L 195.27 154.69
  Q 194.59 154.68 194.58 155.37
  Z"
/>
<path fill="#01032a" d="
  M 52.36 151.25
  C 53.22 150.58 54.24 150.05 55.31 149.82
  C 61.02 148.60 62.33 152.79 62.22 157.37
  Q 62.12 162.16 62.23 166.16
  Q 62.23 166.44 61.95 166.44
  L 57.23 166.46
  Q 57.00 166.46 57.00 166.23
  L 56.99 156.47
  Q 56.98 153.65 54.15 153.68
  Q 53.82 153.68 53.48 153.73
  Q 51.48 154.00 51.48 156.02
  L 51.49 165.98
  Q 51.49 166.45 51.02 166.45
  L 46.92 166.43
  Q 46.40 166.43 46.41 165.92
  L 46.45 150.72
  Q 46.46 150.12 47.06 150.14
  Q 48.76 150.19 50.52 150.21
  Q 51.39 150.22 51.65 151.03
  Q 51.85 151.65 52.36 151.25
  Z"
/>
<path fill="#01032a" d="
  M 70.95 159.20
  Q 69.26 159.21 70.15 160.65
  Q 73.15 165.51 81.03 161.48
  A 0.24 0.24 0.0 0 1 81.38 161.70
  L 81.30 165.27
  Q 81.30 165.51 81.07 165.61
  C 74.93 168.25 64.31 167.25 64.85 158.02
  C 65.24 151.49 70.46 148.43 76.40 149.85
  Q 82.20 151.25 81.55 158.66
  A 0.58 0.58 0.0 0 1 80.98 159.18
  L 70.95 159.20
  Z
  M 70.22 156.23
  L 76.56 156.15
  A 0.17 0.17 0.0 0 0 76.73 155.97
  L 76.73 155.90
  A 3.22 3.18 -0.8 0 0 73.47 152.77
  L 73.23 152.77
  A 3.22 3.18 -0.8 0 0 70.05 156.00
  L 70.05 156.07
  A 0.17 0.17 0.0 0 0 70.22 156.23
  Z"
/>
<rect fill="#01032a" x="36.99" y="150.19" width="5.24" height="16.26" rx="0.35"/>
<path fill="#01032a" d="
  M 91.41 161.99
  L 88.52 166.30
  A 0.37 0.37 0.0 0 1 88.21 166.47
  L 83.30 166.42
  A 0.37 0.37 0.0 0 1 83.01 165.82
  L 88.62 158.57
  A 0.37 0.37 0.0 0 0 88.62 158.12
  L 83.12 150.79
  A 0.37 0.37 0.0 0 1 83.42 150.20
  L 88.52 150.19
  A 0.37 0.37 0.0 0 1 88.83 150.36
  L 91.52 154.52
  A 0.37 0.37 0.0 0 0 92.13 154.53
  L 95.02 150.30
  A 0.37 0.37 0.0 0 1 95.33 150.14
  L 100.11 150.14
  A 0.37 0.37 0.0 0 1 100.41 150.73
  L 95.00 157.94
  A 0.37 0.37 0.0 0 0 95.00 158.38
  L 100.64 165.90
  A 0.37 0.37 0.0 0 1 100.34 166.49
  L 95.19 166.42
  A 0.37 0.37 0.0 0 1 94.89 166.26
  L 92.03 161.99
  A 0.37 0.37 0.0 0 0 91.41 161.99
  Z"
/>
<path fill="#01032a" d="
  M 147.17 160.24
  Q 145.21 160.24 146.16 161.95
  L 146.40 162.38
  A 3.87 3.86 80.1 0 0 149.16 164.32
  Q 153.33 164.99 156.39 162.83
  Q 157.14 162.30 157.17 163.22
  L 157.22 165.50
  Q 157.25 166.64 156.17 166.99
  C 150.28 168.87 141.08 168.62 140.83 160.13
  Q 140.65 153.78 145.30 151.67
  Q 148.59 150.19 152.37 151.10
  Q 158.10 152.50 157.28 159.75
  Q 157.23 160.25 156.73 160.25
  L 147.17 160.24
  Z
  M 146.30 157.64
  L 152.10 157.50
  A 0.29 0.29 0.0 0 0 152.39 157.20
  L 152.38 156.78
  A 2.89 2.71 88.6 0 0 149.60 153.96
  L 148.64 153.98
  A 2.89 2.71 88.6 0 0 146.00 156.94
  L 146.01 157.36
  A 0.29 0.29 0.0 0 0 146.30 157.64
  Z"
/>
<path fill="#01032a" d="
  M 134.45 153.42
  Q 136.29 151.39 139.26 151.28
  Q 140.04 151.24 140.03 152.02
  L 140.02 155.43
  Q 140.02 156.13 139.32 156.13
  L 134.75 156.13
  Q 133.88 156.13 133.89 157.00
  L 133.98 167.25
  Q 133.98 167.49 133.75 167.49
  L 129.02 167.52
  Q 128.76 167.52 128.76 167.27
  L 128.77 152.09
  Q 128.77 151.45 129.41 151.42
  L 133.01 151.27
  Q 133.77 151.24 133.81 152.00
  L 133.86 153.22
  Q 133.90 154.02 134.45 153.42
  Z"
/>
<rect fill="#01032a" x="179.93" y="151.33" width="5.20" height="16.22" rx="0.38"/>
<path fill="#ffffff" d="
  M 70.22 156.23
  A 0.17 0.17 0.0 0 1 70.05 156.07
  L 70.05 156.00
  A 3.22 3.18 -0.8 0 1 73.23 152.77
  L 73.47 152.77
  A 3.22 3.18 -0.8 0 1 76.73 155.90
  L 76.73 155.97
  A 0.17 0.17 0.0 0 1 76.56 156.15
  L 70.22 156.23
  Z"
/>
<path fill="#ffffff" d="
  M 146.30 157.64
  A 0.29 0.29 0.0 0 1 146.01 157.36
  L 146.00 156.94
  A 2.89 2.71 88.6 0 1 148.64 153.98
  L 149.60 153.96
  A 2.89 2.71 88.6 0 1 152.38 156.78
  L 152.39 157.20
  A 0.29 0.29 0.0 0 1 152.10 157.50
  L 146.30 157.64
  Z"
/>
<path fill="#ffffff" d="
  M 164.72 162.60
  L 164.37 157.64
  A 2.17 2.17 0.0 0 1 165.46 155.60
  L 167.42 154.49
  A 2.17 2.17 0.0 0 1 170.66 156.38
  L 170.66 161.97
  A 2.17 2.17 0.0 0 1 169.11 164.05
  L 167.50 164.52
  A 2.17 2.17 0.0 0 1 164.72 162.60
  Z"
/>
</svg>
