<?xml version="1.0" encoding="UTF-8" standalone="no"?>
<!DOCTYPE svg PUBLIC "-//W3C//DTD SVG 1.1//EN" "http://www.w3.org/Graphics/SVG/1.1/DTD/svg11.dtd">
<svg xmlns="http://www.w3.org/2000/svg" version="1.1" viewBox="0.00 0.00 231.00 101.00">
<g stroke-width="2.00" fill="none" stroke-linecap="butt">
<path stroke="#def0f4" vector-effect="non-scaling-stroke" d="
  M 136.50 0.00
  Q 127.64 0.04 124.76 1.37
  Q 121.41 2.91 119.97 5.61
  Q 118.26 8.79 116.68 12.08
  Q 115.42 14.70 116.81 17.66
  Q 117.36 18.84 118.46 19.06
  Q 119.81 19.32 121.17 18.51
  A 0.71 0.67 31.8 0 1 121.61 18.42
  Q 122.25 18.51 122.13 18.86
  Q 121.89 19.57 122.53 19.18
  Q 122.98 18.90 123.39 18.61
  A 1.34 1.33 29.6 0 1 124.23 18.38
  Q 125.45 18.48 126.49 17.78
  Q 128.04 16.74 128.40 16.61
  Q 130.01 16.01 131.42 15.41
  Q 132.71 14.86 133.56 13.94
  Q 134.47 12.96 135.66 12.37
  Q 136.10 12.16 135.67 11.93
  Q 135.48 11.83 135.60 11.51
  Q 135.74 11.14 136.08 10.94
  Q 137.19 10.26 138.10 9.27
  C 138.64 8.68 139.11 8.67 139.81 8.44
  Q 140.32 8.27 140.67 7.86
  L 143.21 4.99
  Q 143.61 4.53 144.22 4.49
  L 147.99 4.24
  Q 148.57 4.20 149.05 3.87
  Q 150.05 3.18 151.35 3.42
  Q 151.55 3.46 151.69 3.31
  L 151.91 3.10
  A 0.69 0.68 23.2 0 1 152.42 2.90
  Q 157.35 3.13 161.30 5.91
  C 162.35 6.64 163.00 7.97 164.02 8.85
  Q 168.99 13.17 172.79 17.98
  A 1.23 1.23 0.0 0 1 172.96 19.22
  Q 172.74 19.77 172.95 20.31
  A 0.66 0.59 -51.2 0 1 172.97 20.69
  L 171.88 25.32
  Q 171.71 26.04 172.32 25.61
  Q 172.72 25.33 173.22 25.60
  Q 173.80 25.91 173.62 26.54
  C 173.26 27.87 172.28 28.45 171.84 29.71
  Q 171.23 31.47 170.81 33.48
  Q 170.71 33.97 171.09 34.29
  Q 171.90 34.96 172.24 36.11
  A 0.45 0.44 65.5 0 0 172.90 36.36
  L 173.15 36.20
  Q 173.75 35.81 174.05 36.46
  Q 174.30 37.02 174.33 37.68
  Q 174.35 38.13 174.78 38.26
  Q 175.82 38.55 175.54 39.42"
/>
<path stroke="#93bd8b" vector-effect="non-scaling-stroke" d="
  M 175.54 39.42
  Q 173.57 39.45 173.27 40.48
  Q 172.58 42.76 171.77 45.07
  A 0.63 0.63 0.0 0 0 172.51 45.89
  Q 178.65 44.48 185.74 45.39
  Q 187.33 45.59 187.29 47.20
  L 187.27 47.98
  Q 187.22 49.69 185.52 49.74
  L 171.53 50.10
  A 0.97 0.96 6.3 0 0 170.62 50.82
  Q 169.26 56.26 168.53 61.53
  Q 167.85 66.42 172.63 66.47
  Q 180.48 66.55 188.49 66.36
  C 191.66 66.29 193.75 63.99 194.47 60.98
  Q 196.57 52.31 198.17 43.50
  Q 198.36 42.43 197.48 40.76"
/>
<path stroke="#def0f4" vector-effect="non-scaling-stroke" d="
  M 197.48 40.76
  L 199.15 41.81
  Q 199.62 42.11 199.53 42.65
  Q 199.42 43.34 199.66 44.04
  Q 199.84 44.58 200.17 44.11
  Q 200.48 43.67 200.93 43.99
  Q 201.38 44.30 201.38 43.75
  L 201.38 43.24
  Q 201.38 42.64 201.98 42.59
  C 202.83 42.52 203.36 42.90 204.14 43.09
  Q 204.77 43.24 204.72 43.84
  Q 204.69 44.21 205.03 44.37
  Q 206.27 44.95 207.17 45.84
  Q 208.00 46.66 209.41 47.24
  Q 212.66 48.55 215.37 50.83
  Q 215.73 51.13 216.20 51.19
  C 217.92 51.39 219.10 52.43 220.95 52.44
  Q 224.03 52.47 226.59 53.21
  A 2.15 2.14 21.8 0 0 229.09 52.15
  Q 230.13 50.19 230.27 48.00
  Q 230.48 44.70 231.00 41.48"
/>
<path stroke="#8bafc4" vector-effect="non-scaling-stroke" d="
  M 231.00 95.63
  Q 230.74 95.03 230.70 94.30
  Q 230.68 93.81 230.20 93.88
  Q 222.94 94.91 217.43 100.19
  A 0.23 0.23 0.0 0 0 217.52 100.57
  L 218.88 101.00"
/>
<path stroke="#97c78e" vector-effect="non-scaling-stroke" d="
  M 72.99 101.00
  L 75.56 100.66
  Q 76.14 100.59 75.64 100.28
  Q 69.32 96.40 61.49 92.00
  Q 48.39 84.63 34.25 86.46
  A 0.91 0.89 75.4 0 1 33.30 85.89
  L 28.68 73.99"
/>
<path stroke="#b2db97" vector-effect="non-scaling-stroke" d="
  M 28.68 73.99
  Q 23.46 50.00 38.54 31.80
  Q 41.48 28.25 47.83 24.06
  Q 49.39 23.03 51.07 22.35
  Q 52.88 21.62 54.51 20.65
  Q 56.69 19.34 59.38 18.70
  Q 62.73 17.90 65.83 17.12
  C 75.61 14.65 84.96 17.74 93.61 22.16
  Q 93.63 22.18 93.65 22.15
  L 93.77 21.93
  Q 93.89 21.74 93.70 21.61
  Q 81.56 13.41 66.91 11.94"
/>
<path stroke="#a9d6e4" vector-effect="non-scaling-stroke" d="
  M 66.91 11.94
  Q 62.05 10.87 60.75 10.97
  Q 47.98 11.96 39.75 14.92
  Q 11.98 24.91 1.42 53.03
  Q 0.76 54.80 0.54 57.08
  Q 0.34 59.19 0.00 61.26"
/>
<path stroke="#93bd8b" vector-effect="non-scaling-stroke" d="
  M 118.51 49.85
  C 119.68 46.74 121.94 39.11 115.76 39.05
  Q 105.91 38.94 96.45 39.12
  A 0.38 0.37 -4.1 0 0 96.08 39.54
  Q 96.29 41.61 95.92 43.68
  Q 93.94 54.70 91.29 65.91
  A 0.61 0.61 0.0 0 0 91.89 66.66
  Q 100.83 66.58 110.49 66.57
  Q 114.70 66.57 115.75 63.00
  Q 116.99 58.76 117.46 54.32
  Q 117.71 51.99 118.51 49.85"
/>
<path stroke="#8bae86" vector-effect="non-scaling-stroke" d="
  M 38.27 52.71
  Q 37.02 57.17 36.46 61.75
  C 35.90 66.41 39.70 67.06 43.26 66.37
  Q 44.33 66.16 44.10 67.23
  Q 43.84 68.42 43.97 69.52
  Q 44.05 70.14 44.67 70.13
  L 50.44 69.99
  A 1.36 1.36 0.0 0 0 51.53 69.39
  Q 52.13 68.48 52.09 67.30
  A 0.88 0.87 2.6 0 1 53.07 66.41
  C 57.32 66.90 60.72 66.37 62.21 61.83
  Q 63.70 57.31 64.24 52.53"
/>
<path stroke="#a0cd90" vector-effect="non-scaling-stroke" d="
  M 64.24 52.53
  C 65.31 49.47 68.32 39.41 62.49 39.47
  Q 55.57 39.54 48.41 39.32
  C 39.99 39.06 38.84 46.02 38.27 52.71"
/>
<path stroke="#418824" vector-effect="non-scaling-stroke" d="
  M 64.24 52.53
  Q 61.71 51.06 59.32 52.17
  Q 58.87 52.38 58.39 52.29
  Q 56.27 51.90 54.52 52.38"
/>
<path stroke="#9bd280" vector-effect="non-scaling-stroke" d="
  M 54.52 52.38
  L 55.64 46.68
  Q 55.92 45.25 54.46 45.24
  L 51.07 45.22
  Q 49.55 45.21 49.24 46.70
  L 47.88 53.24"
/>
<path stroke="#418824" vector-effect="non-scaling-stroke" d="
  M 47.88 53.24
  Q 45.46 52.74 42.88 53.07
  Q 42.39 53.13 41.94 52.93
  Q 40.11 52.10 38.27 52.71"
/>
<path stroke="#85b376" vector-effect="non-scaling-stroke" d="
  M 54.52 52.38
  L 53.13 59.26
  Q 52.77 61.03 50.96 61.02
  L 48.04 61.00
  Q 46.29 60.99 46.64 59.28
  L 47.88 53.24"
/>
<path stroke="#93bd8b" vector-effect="non-scaling-stroke" d="
  M 136.28 46.23
  L 136.28 48.75
  Q 136.28 49.90 135.13 49.90
  L 121.49 49.95
  A 1.46 1.45 -82.1 0 0 120.09 51.01
  Q 118.43 56.86 117.80 62.57
  A 3.38 3.37 -86.0 0 0 121.05 66.32
  Q 129.39 66.59 137.30 66.43
  Q 142.34 66.33 143.72 61.09
  Q 145.96 52.55 147.24 43.90
  Q 147.87 39.60 143.72 39.54
  Q 133.91 39.39 123.36 39.28
  Q 123.00 39.28 122.90 39.62
  L 121.10 45.80
  Q 121.04 46.02 121.26 45.98
  Q 128.71 44.71 135.47 45.33
  A 0.90 0.89 3.1 0 1 136.28 46.23"
/>
<path stroke="#93bd8b" vector-effect="non-scaling-stroke" d="
  M 166.00 62.06
  Q 166.21 60.88 165.09 61.28
  Q 161.75 62.46 158.22 62.15
  A 2.17 2.16 89.7 0 1 156.26 60.21
  Q 156.13 58.92 156.39 57.50
  Q 158.12 48.18 160.43 40.05
  Q 160.59 39.47 160.00 39.47
  L 150.12 39.31
  A 0.73 0.72 85.7 0 0 149.39 40.16
  Q 149.61 41.46 149.39 42.67
  Q 147.43 53.56 145.28 63.85
  Q 144.71 66.56 147.49 66.59
  L 164.23 66.73
  A 1.12 1.11 5.2 0 0 165.34 65.81
  L 166.00 62.06"
/>
<path stroke="#93bd8b" vector-effect="non-scaling-stroke" d="
  M 82.86 46.04
  L 82.73 48.96
  A 0.95 0.94 -88.7 0 1 81.79 49.87
  L 67.88 49.91
  A 1.47 1.47 0.0 0 0 66.45 51.10
  L 64.36 62.22
  A 3.45 3.45 0.0 0 0 67.70 66.31
  Q 74.41 66.42 81.87 66.44
  C 89.89 66.46 89.91 63.07 91.53 55.74
  Q 92.66 50.62 93.61 45.41
  C 94.05 43.00 94.46 39.56 90.78 39.52
  Q 80.82 39.41 70.53 39.52
  Q 69.46 39.53 69.16 40.55
  L 67.88 44.91
  Q 67.52 46.14 68.77 45.91
  Q 75.29 44.73 82.24 45.34
  Q 82.89 45.39 82.86 46.04"
/>
<path stroke="#93bd8b" vector-effect="non-scaling-stroke" d="
  M 56.33 73.74
  L 57.16 72.09
  A 0.82 0.81 17.8 0 0 56.56 70.93
  Q 54.69 70.62 53.36 71.49
  Q 52.99 71.73 52.91 72.17
  L 51.40 80.33
  A 0.95 0.95 0.0 0 0 52.14 81.43
  Q 53.39 81.69 54.77 81.22
  Q 55.37 81.02 55.47 80.41
  L 55.63 79.50
  Q 55.92 77.82 56.63 79.37
  Q 57.71 81.76 60.54 81.47
  A 0.94 0.94 0.0 0 0 61.22 80.01
  Q 60.21 78.51 59.77 76.96
  Q 59.60 76.33 60.01 75.83
  L 63.11 72.09
  Q 63.87 71.17 62.73 70.80
  L 62.33 70.67
  A 2.13 2.12 -61.8 0 0 60.00 71.38
  L 57.81 74.17
  A 0.77 0.75 -70.8 0 1 57.21 74.47
  Q 57.04 74.48 56.88 74.50
  A 0.53 0.53 0.0 0 1 56.33 73.74"
/>
<path stroke="#93bd8b" vector-effect="non-scaling-stroke" d="
  M 63.02 79.14
  A 1.73 1.73 0.0 0 0 64.68 81.26
  L 71.18 81.35
  A 1.73 1.73 0.0 0 0 72.92 79.83
  L 73.81 72.64
  A 1.73 1.73 0.0 0 0 72.07 70.70
  L 66.30 70.77
  A 1.73 1.73 0.0 0 0 64.64 72.11
  L 63.02 79.14"
/>
<path stroke="#b2db97" vector-effect="non-scaling-stroke" d="
  M 86.79 80.87
  Q 87.40 80.81 87.73 81.05"
/>
<path stroke="#8bae86" vector-effect="non-scaling-stroke" d="
  M 87.73 81.05
  Q 92.37 81.97 96.45 80.85"
/>
<path stroke="#b2db97" vector-effect="non-scaling-stroke" d="
  M 96.45 80.85
  Q 97.05 80.52 97.77 80.81"
/>
<path stroke="#93bd8b" vector-effect="non-scaling-stroke" d="
  M 97.77 80.81
  Q 99.07 81.47 101.00 81.37
  Q 105.55 81.13 110.13 81.20
  Q 110.72 81.21 111.00 80.69
  L 111.34 80.04
  A 0.90 0.90 0.0 0 1 112.73 79.78
  Q 113.97 80.87 115.55 81.46
  A 1.14 1.13 -78.1 0 0 117.08 80.46
  Q 117.33 76.24 118.46 72.25
  Q 118.79 71.08 117.59 70.94
  Q 114.52 70.57 111.67 70.90
  Q 109.53 71.14 106.33 70.89
  Q 102.27 70.57 98.19 71.75"
/>
<path stroke="#97c78e" vector-effect="non-scaling-stroke" d="
  M 98.19 71.75
  Q 94.87 69.76 89.68 71.57"
/>
<path stroke="#b2db97" vector-effect="non-scaling-stroke" d="
  M 89.68 71.57
  L 88.13 70.92"
/>
<path stroke="#93bd8b" vector-effect="non-scaling-stroke" d="
  M 88.13 70.92
  Q 86.23 70.49 84.74 71.32
  Q 84.22 71.61 84.25 72.19
  Q 84.31 73.50 84.11 74.65
  Q 83.85 76.10 83.01 74.90
  Q 82.31 73.92 81.88 72.71
  C 81.18 70.76 78.72 70.52 76.97 70.79
  Q 75.60 71.00 75.87 72.36
  C 76.24 74.16 74.83 77.58 74.31 79.49
  Q 73.83 81.26 75.66 81.39
  L 76.67 81.47
  Q 78.44 81.59 78.60 79.83
  L 79.06 74.80
  Q 79.15 73.81 79.74 74.61
  Q 81.65 77.22 82.81 80.37
  Q 82.99 80.85 83.43 81.09
  Q 84.96 81.92 86.79 80.87"
/>
<path stroke="#5ba42f" vector-effect="non-scaling-stroke" d="
  M 88.13 70.92
  Q 87.14 73.13 87.49 75.35
  Q 87.57 75.83 87.50 76.32
  L 86.79 80.87"
/>
<path stroke="#53962a" vector-effect="non-scaling-stroke" d="
  M 93.81 78.84
  L 88.60 79.04
  Q 88.05 79.06 87.96 79.61
  L 87.73 81.05"
/>
<path stroke="#409026" vector-effect="non-scaling-stroke" d="
  M 98.19 71.75
  Q 98.37 72.61 97.26 73.50"
/>
<path stroke="#5fae32" vector-effect="non-scaling-stroke" d="
  M 97.26 73.50
  Q 97.21 74.18 96.37 74.16
  Q 95.84 74.15 95.48 73.78
  Q 95.25 73.54 95.11 73.25
  Q 94.80 72.62 94.11 72.46
  Q 92.93 72.18 92.33 73.15
  A 1.36 1.35 -78.1 0 0 93.67 75.21
  Q 95.87 74.90 97.07 75.55"
/>
<path stroke="#378221" vector-effect="non-scaling-stroke" d="
  M 97.07 75.55
  Q 94.95 75.23 93.76 75.89
  Q 93.31 76.15 93.66 76.53
  Q 95.18 78.17 93.81 78.84"
/>
<path stroke="#5fae32" vector-effect="non-scaling-stroke" d="
  M 93.81 78.84
  Q 94.36 78.07 94.22 77.57
  Q 94.10 77.14 93.31 77.06
  Q 91.53 76.89 89.80 76.85
  Q 88.98 76.83 88.37 76.08
  Q 88.04 75.68 88.41 75.30
  Q 89.57 74.15 89.68 71.57"
/>
<path stroke="#53962a" vector-effect="non-scaling-stroke" d="
  M 96.45 80.85
  C 96.72 78.70 97.65 77.73 97.07 75.55"
/>
<path stroke="#5ba42f" vector-effect="non-scaling-stroke" d="
  M 97.77 80.81
  Q 97.85 78.03 98.18 77.26
  Q 100.22 72.66 97.26 73.50"
/>
<path stroke="#93bd8b" vector-effect="non-scaling-stroke" d="
  M 123.82 74.32
  L 123.75 72.27
  A 1.39 1.39 0.0 0 0 122.52 70.94
  L 121.06 70.76
  Q 119.94 70.63 120.05 71.76
  L 120.95 80.56
  Q 121.03 81.34 121.81 81.32
  L 124.22 81.25
  Q 125.11 81.23 125.54 80.45
  L 130.38 71.70
  Q 130.89 70.78 129.85 70.86
  L 127.74 71.03
  A 1.61 1.60 6.6 0 0 126.35 72.13
  Q 125.89 73.55 125.00 74.70
  Q 123.89 76.13 123.82 74.32"
/>
<path stroke="#93bd8b" vector-effect="non-scaling-stroke" d="
  M 146.65 79.84
  Q 147.37 80.10 147.88 80.65
  C 148.94 81.80 150.62 81.93 152.06 81.62
  A 0.95 0.94 81.5 0 0 152.81 80.60
  L 151.93 71.25
  A 0.48 0.48 0.0 0 0 151.29 70.84
  C 149.47 71.47 147.87 72.22 146.80 73.99
  Q 143.85 78.85 140.92 83.84
  A 0.51 0.51 0.0 0 0 141.00 84.47
  Q 141.45 84.92 142.00 84.65
  A 3.03 3.01 89.2 0 0 143.44 83.16
  Q 144.29 81.26 145.69 80.02
  A 0.95 0.93 33.8 0 1 146.65 79.84"
/>
<path stroke="#93bd8b" vector-effect="non-scaling-stroke" d="
  M 138.53 78.14
  L 142.98 72.61
  A 0.54 0.53 -70.9 0 0 142.56 71.74
  L 135.26 71.76
  Q 134.15 71.77 133.60 72.73
  Q 133.52 72.87 133.45 73.01
  Q 132.81 74.25 134.20 74.19
  L 136.83 74.06
  Q 138.53 73.98 137.37 75.23
  L 132.83 80.08
  A 0.82 0.80 64.5 0 0 132.62 80.70
  Q 132.68 81.40 133.21 81.40
  Q 136.57 81.42 140.12 81.47
  A 1.36 1.33 22.1 0 0 141.07 81.08
  Q 141.67 80.48 141.59 79.85
  Q 141.45 78.65 140.23 78.74
  L 138.90 78.84
  A 0.43 0.43 0.0 0 1 138.53 78.14"
/>
<path stroke="#e5f8e2" vector-effect="non-scaling-stroke" d="
  M 163.28 73.17
  Q 163.89 73.19 164.07 74.51"
/>
<path stroke="#93bd8b" vector-effect="non-scaling-stroke" d="
  M 164.07 74.51
  L 162.77 79.66
  Q 162.39 81.19 163.95 81.41
  Q 166.78 81.81 169.63 81.35
  Q 171.48 81.05 173.32 81.36
  Q 177.73 82.12 180.95 80.68
  Q 181.39 80.49 181.80 80.71
  C 183.63 81.69 189.54 82.49 190.49 79.74
  Q 191.46 76.95 191.79 73.16
  Q 191.90 71.79 190.53 71.77
  L 190.04 71.77
  Q 189.02 71.76 188.75 72.74
  L 186.97 79.00
  A 0.44 0.44 0.0 0 1 186.37 79.28
  L 186.01 79.13
  Q 185.41 78.87 185.52 78.24
  L 186.47 72.71
  Q 186.61 71.94 185.83 71.81
  C 184.08 71.51 183.51 72.21 182.73 73.56
  Q 182.43 74.09 182.27 73.50
  C 181.69 71.33 177.84 71.82 176.17 71.97
  Q 173.96 72.17 170.88 71.80
  Q 167.66 71.41 164.75 72.27"
/>
<path stroke="#e5f8e2" vector-effect="non-scaling-stroke" d="
  M 164.75 72.27
  Q 164.87 72.55 163.74 72.42"
/>
<path stroke="#93bd8b" vector-effect="non-scaling-stroke" d="
  M 163.74 72.42
  Q 162.78 71.38 161.45 71.80
  C 160.05 72.23 159.51 73.90 158.87 75.15
  Q 157.67 77.48 157.44 74.87
  Q 157.34 73.78 157.48 72.74
  Q 157.57 72.09 156.93 71.93
  Q 155.78 71.66 154.78 71.80
  Q 154.14 71.89 154.19 72.53
  Q 154.47 75.98 154.85 79.58
  C 155.11 82.02 158.57 82.17 159.54 80.34
  Q 161.00 77.62 162.25 74.25
  Q 162.55 73.47 163.28 73.17"
/>
<path stroke="#8ec27b" vector-effect="non-scaling-stroke" d="
  M 163.74 72.42
  Q 163.73 72.83 163.28 73.17"
/>
<path stroke="#8ec27b" vector-effect="non-scaling-stroke" d="
  M 164.07 74.51
  Q 164.12 73.45 164.75 72.27"
/>
<path stroke="#b2db97" vector-effect="non-scaling-stroke" d="
  M 112.96 100.65
  C 114.24 100.66 114.78 99.53 115.04 98.47
  Q 115.22 97.72 114.57 98.14
  Q 113.43 98.86 112.61 99.93
  Q 112.05 100.65 112.96 100.65"
/>
<path stroke="#87ba8c" vector-effect="non-scaling-stroke" d="
  M 197.48 40.76
  Q 196.19 39.62 195.00 39.60
  Q 185.27 39.48 175.54 39.42"
/>
<path stroke="#71be88" vector-effect="non-scaling-stroke" d="
  M 66.91 11.94
  Q 64.70 11.55 62.78 12.87
  Q 62.37 13.15 61.87 13.13
  Q 56.90 12.93 55.49 13.39
  Q 51.77 14.59 48.44 15.56"
/>
<path stroke="#95857c" vector-effect="non-scaling-stroke" d="
  M 48.44 15.56
  Q 46.16 16.30 44.06 16.95
  C 40.12 18.18 36.45 20.55 32.79 22.49
  Q 30.53 23.69 24.29 29.31
  Q 21.70 31.65 19.68 34.56
  Q 17.80 37.28 15.72 40.38
  Q 7.57 52.52 6.65 67.15"
/>
<path stroke="#4a92b6" vector-effect="non-scaling-stroke" d="
  M 6.65 67.15
  Q 4.67 69.62 2.75 69.62
  Q 0.68 69.62 0.00 70.25"
/>
<path stroke="#5fae32" vector-effect="non-scaling-stroke" d="
  M 28.68 73.99
  Q 20.97 73.86 18.14 72.59
  Q 17.40 72.26 15.63 70.43"
/>
<path stroke="#9e892f" vector-effect="non-scaling-stroke" d="
  M 15.63 70.43
  Q 14.53 61.10 16.91 54.25
  C 18.51 49.66 19.90 44.93 22.23 40.81
  Q 25.30 35.42 29.86 30.24
  C 30.44 29.58 31.20 29.17 31.98 28.79
  Q 32.88 28.35 33.71 27.49
  Q 36.29 24.84 38.47 23.55
  Q 41.68 21.65 45.43 19.81
  Q 45.93 19.56 46.19 19.07
  Q 46.61 18.25 47.49 18.12
  Q 48.14 18.03 48.22 17.38
  L 48.44 15.56"
/>
<path stroke="#827526" vector-effect="non-scaling-stroke" d="
  M 15.63 70.43
  Q 15.81 73.66 16.58 76.21
  Q 17.33 78.69 17.57 80.90
  Q 18.01 84.88 20.78 88.34
  Q 21.11 88.75 21.21 89.26
  Q 21.51 90.72 22.97 92.64"
/>
<path stroke="#b3a446" vector-effect="non-scaling-stroke" d="
  M 22.97 92.64
  L 19.97 94.05"
/>
<path stroke="#827526" vector-effect="non-scaling-stroke" d="
  M 19.97 94.05
  Q 18.24 94.25 16.81 95.43
  Q 16.29 95.86 15.06 97.87
  Q 13.76 100.01 12.04 99.19"
/>
<path stroke="#775d5d" vector-effect="non-scaling-stroke" d="
  M 12.04 99.19
  Q 11.51 98.83 11.16 98.30
  Q 10.84 97.82 10.84 97.24
  Q 10.85 94.39 9.26 91.98
  C 8.64 91.04 8.39 90.21 8.01 89.15
  Q 7.59 88.01 7.52 86.79
  Q 7.37 84.00 6.97 81.31
  C 6.29 76.72 6.62 71.82 6.65 67.15"
/>
<path stroke="#8ec27b" vector-effect="non-scaling-stroke" d="
  M 103.93 50.11
  A 1.03 1.03 0.0 0 0 105.08 51.31
  L 108.26 50.90
  A 1.03 1.03 0.0 0 0 109.13 50.14
  L 110.55 44.67
  A 1.03 1.03 0.0 0 0 109.73 43.40
  L 106.25 42.78
  A 1.03 1.03 0.0 0 0 105.05 43.62
  L 103.93 50.11"
/>
<path stroke="#8ec27b" vector-effect="non-scaling-stroke" d="
  M 101.50 62.40
  A 0.78 0.78 0.0 0 0 102.29 63.31
  L 106.01 63.20
  A 0.78 0.78 0.0 0 0 106.76 62.57
  L 107.95 56.31
  A 0.78 0.78 0.0 0 0 107.24 55.38
  L 103.44 55.14
  A 0.78 0.78 0.0 0 0 102.62 55.78
  L 101.50 62.40"
/>
<path stroke="#8ec27b" vector-effect="non-scaling-stroke" d="
  M 128.52 55.68
  A 1.35 1.35 0.0 0 0 127.17 56.83
  L 126.73 59.68
  A 1.35 1.35 0.0 0 0 128.09 61.24
  L 132.67 61.17
  A 1.35 1.35 0.0 0 0 133.95 60.18
  L 134.71 57.43
  A 1.35 1.35 0.0 0 0 133.42 55.72
  L 128.52 55.68"
/>
<path stroke="#8ec27b" vector-effect="non-scaling-stroke" d="
  M 179.42 55.62
  A 1.55 1.55 0.0 0 0 177.90 56.89
  L 177.44 59.39
  A 1.55 1.55 0.0 0 0 179.02 61.22
  L 183.37 61.09
  A 1.55 1.55 0.0 0 0 184.84 59.85
  L 185.32 57.48
  A 1.55 1.55 0.0 0 0 183.80 55.62
  L 179.42 55.62"
/>
<path stroke="#8ec27b" vector-effect="non-scaling-stroke" d="
  M 79.25 61.11
  A 1.34 1.34 0.0 0 0 80.48 60.13
  L 81.24 57.45
  A 1.34 1.34 0.0 0 0 79.97 55.75
  L 75.12 55.67
  A 1.34 1.34 0.0 0 0 73.77 56.83
  L 73.39 59.76
  A 1.34 1.34 0.0 0 0 74.77 61.28
  L 79.25 61.11"
/>
<path stroke="#388260" vector-effect="non-scaling-stroke" d="
  M 12.04 99.19
  Q 11.93 99.79 11.39 99.88
  Q 10.97 99.95 10.89 100.36
  L 10.75 101.00"
/>
<path stroke="#8bafc4" vector-effect="non-scaling-stroke" d="
  M 4.35 101.00
  Q 1.24 95.13 0.00 88.92"
/>
<path stroke="#97c78e" vector-effect="non-scaling-stroke" d="
  M 71.28 101.00
  Q 68.08 100.01 64.89 101.00"
/>
<path stroke="#74c949" vector-effect="non-scaling-stroke" d="
  M 19.97 94.05
  Q 20.40 95.26 22.75 94.37
  C 26.27 93.02 29.47 91.62 33.29 91.34
  C 44.99 90.51 53.91 94.04 63.97 99.20
  Q 65.45 99.96 66.95 99.65
  Q 67.77 99.48 67.06 99.04
  Q 59.07 94.10 53.74 91.78
  Q 41.79 86.59 28.63 90.72
  Q 25.19 91.80 22.97 92.64"
/>
<path stroke="#8ec27b" vector-effect="non-scaling-stroke" d="
  M 67.35 78.28
  A 0.77 0.77 0.0 0 0 68.40 79.07
  L 69.07 78.80
  A 0.77 0.77 0.0 0 0 69.53 78.29
  L 70.73 73.75
  A 0.77 0.77 0.0 0 0 69.95 72.79
  L 68.58 72.84
  A 0.77 0.77 0.0 0 0 67.84 73.53
  L 67.35 78.28"
/>
<path stroke="#8ec27b" vector-effect="non-scaling-stroke" d="
  M 112.8256 77.1782
  A 2.58 1.32 101.5 0 0 114.6335 74.9132
  A 2.58 1.32 101.5 0 0 113.8544 72.1218
  A 2.58 1.32 101.5 0 0 112.0465 74.3868
  A 2.58 1.32 101.5 0 0 112.8256 77.1782"
/>
<path stroke="#5ba42f" vector-effect="non-scaling-stroke" d="
  M 105.7155 73.4888
  A 1.91 1.36 -10.9 0 0 103.5828 72.5145
  A 1.91 1.36 -10.9 0 0 101.9645 74.2112
  A 1.91 1.36 -10.9 0 0 104.0972 75.1855
  A 1.91 1.36 -10.9 0 0 105.7155 73.4888"
/>
<path stroke="#8ec27b" vector-effect="non-scaling-stroke" d="
  M 108.3605 78.2958
  A 0.95 0.95 0.0 0 0 107.4323 77.3245
  L 102.6535 77.2160
  A 0.95 0.95 0.0 0 0 101.6822 78.1442
  L 101.6795 78.2642
  A 0.95 0.95 0.0 0 0 102.6077 79.2355
  L 107.3865 79.3440
  A 0.95 0.95 0.0 0 0 108.3578 78.4158
  L 108.3605 78.2958"
/>
<path stroke="#87ba8c" vector-effect="non-scaling-stroke" d="
  M 147.1415 78.8818
  A 1.61 0.84 102.5 0 0 148.3101 77.4918
  A 1.61 0.84 102.5 0 0 147.8385 75.7382
  A 1.61 0.84 102.5 0 0 146.6699 77.1282
  A 1.61 0.84 102.5 0 0 147.1415 78.8818"
/>
<path stroke="#93bd8b" vector-effect="non-scaling-stroke" d="
  M 169.3979 74.6007
  A 0.91 0.91 0.0 0 0 168.6543 73.5504
  L 168.5360 73.5302
  A 0.91 0.91 0.0 0 0 167.4857 74.2739
  L 166.8421 78.0393
  A 0.91 0.91 0.0 0 0 167.5857 79.0896
  L 167.7040 79.1098
  A 0.91 0.91 0.0 0 0 168.7543 78.3661
  L 169.3979 74.6007"
/>
<path stroke="#87ba8c" vector-effect="non-scaling-stroke" d="
  M 176.9108 79.0845
  A 2.83 1.01 97.7 0 0 178.2909 76.4153
  A 2.83 1.01 97.7 0 0 177.6692 73.4755
  A 2.83 1.01 97.7 0 0 176.2891 76.1447
  A 2.83 1.01 97.7 0 0 176.9108 79.0845"
/>
</g>
<path fill="#eaf3f2" d="
  M 0.00 0.00
  L 136.50 0.00
  Q 127.64 0.04 124.76 1.37
  Q 121.41 2.91 119.97 5.61
  Q 118.26 8.79 116.68 12.08
  Q 115.42 14.70 116.81 17.66
  Q 117.36 18.84 118.46 19.06
  Q 119.81 19.32 121.17 18.51
  A 0.71 0.67 31.8 0 1 121.61 18.42
  Q 122.25 18.51 122.13 18.86
  Q 121.89 19.57 122.53 19.18
  Q 122.98 18.90 123.39 18.61
  A 1.34 1.33 29.6 0 1 124.23 18.38
  Q 125.45 18.48 126.49 17.78
  Q 128.04 16.74 128.40 16.61
  Q 130.01 16.01 131.42 15.41
  Q 132.71 14.86 133.56 13.94
  Q 134.47 12.96 135.66 12.37
  Q 136.10 12.16 135.67 11.93
  Q 135.48 11.83 135.60 11.51
  Q 135.74 11.14 136.08 10.94
  Q 137.19 10.26 138.10 9.27
  C 138.64 8.68 139.11 8.67 139.81 8.44
  Q 140.32 8.27 140.67 7.86
  L 143.21 4.99
  Q 143.61 4.53 144.22 4.49
  L 147.99 4.24
  Q 148.57 4.20 149.05 3.87
  Q 150.05 3.18 151.35 3.42
  Q 151.55 3.46 151.69 3.31
  L 151.91 3.10
  A 0.69 0.68 23.2 0 1 152.42 2.90
  Q 157.35 3.13 161.30 5.91
  C 162.35 6.64 163.00 7.97 164.02 8.85
  Q 168.99 13.17 172.79 17.98
  A 1.23 1.23 0.0 0 1 172.96 19.22
  Q 172.74 19.77 172.95 20.31
  A 0.66 0.59 -51.2 0 1 172.97 20.69
  L 171.88 25.32
  Q 171.71 26.04 172.32 25.61
  Q 172.72 25.33 173.22 25.60
  Q 173.80 25.91 173.62 26.54
  C 173.26 27.87 172.28 28.45 171.84 29.71
  Q 171.23 31.47 170.81 33.48
  Q 170.71 33.97 171.09 34.29
  Q 171.90 34.96 172.24 36.11
  A 0.45 0.44 65.5 0 0 172.90 36.36
  L 173.15 36.20
  Q 173.75 35.81 174.05 36.46
  Q 174.30 37.02 174.33 37.68
  Q 174.35 38.13 174.78 38.26
  Q 175.82 38.55 175.54 39.42
  Q 173.57 39.45 173.27 40.48
  Q 172.58 42.76 171.77 45.07
  A 0.63 0.63 0.0 0 0 172.51 45.89
  Q 178.65 44.48 185.74 45.39
  Q 187.33 45.59 187.29 47.20
  L 187.27 47.98
  Q 187.22 49.69 185.52 49.74
  L 171.53 50.10
  A 0.97 0.96 6.3 0 0 170.62 50.82
  Q 169.26 56.26 168.53 61.53
  Q 167.85 66.42 172.63 66.47
  Q 180.48 66.55 188.49 66.36
  C 191.66 66.29 193.75 63.99 194.47 60.98
  Q 196.57 52.31 198.17 43.50
  Q 198.36 42.43 197.48 40.76
  L 199.15 41.81
  Q 199.62 42.11 199.53 42.65
  Q 199.42 43.34 199.66 44.04
  Q 199.84 44.58 200.17 44.11
  Q 200.48 43.67 200.93 43.99
  Q 201.38 44.30 201.38 43.75
  L 201.38 43.24
  Q 201.38 42.64 201.98 42.59
  C 202.83 42.52 203.36 42.90 204.14 43.09
  Q 204.77 43.24 204.72 43.84
  Q 204.69 44.21 205.03 44.37
  Q 206.27 44.95 207.17 45.84
  Q 208.00 46.66 209.41 47.24
  Q 212.66 48.55 215.37 50.83
  Q 215.73 51.13 216.20 51.19
  C 217.92 51.39 219.10 52.43 220.95 52.44
  Q 224.03 52.47 226.59 53.21
  A 2.15 2.14 21.8 0 0 229.09 52.15
  Q 230.13 50.19 230.27 48.00
  Q 230.48 44.70 231.00 41.48
  L 231.00 95.63
  Q 230.74 95.03 230.70 94.30
  Q 230.68 93.81 230.20 93.88
  Q 222.94 94.91 217.43 100.19
  A 0.23 0.23 0.0 0 0 217.52 100.57
  L 218.88 101.00
  L 72.99 101.00
  L 75.56 100.66
  Q 76.14 100.59 75.64 100.28
  Q 69.32 96.40 61.49 92.00
  Q 48.39 84.63 34.25 86.46
  A 0.91 0.89 75.4 0 1 33.30 85.89
  L 28.68 73.99
  Q 23.46 50.00 38.54 31.80
  Q 41.48 28.25 47.83 24.06
  Q 49.39 23.03 51.07 22.35
  Q 52.88 21.62 54.51 20.65
  Q 56.69 19.34 59.38 18.70
  Q 62.73 17.90 65.83 17.12
  C 75.61 14.65 84.96 17.74 93.61 22.16
  Q 93.63 22.18 93.65 22.15
  L 93.77 21.93
  Q 93.89 21.74 93.70 21.61
  Q 81.56 13.41 66.91 11.94
  Q 62.05 10.87 60.75 10.97
  Q 47.98 11.96 39.75 14.92
  Q 11.98 24.91 1.42 53.03
  Q 0.76 54.80 0.54 57.08
  Q 0.34 59.19 0.00 61.26
  L 0.00 0.00
  Z
  M 118.51 49.85
  C 119.68 46.74 121.94 39.11 115.76 39.05
  Q 105.91 38.94 96.45 39.12
  A 0.38 0.37 -4.1 0 0 96.08 39.54
  Q 96.29 41.61 95.92 43.68
  Q 93.94 54.70 91.29 65.91
  A 0.61 0.61 0.0 0 0 91.89 66.66
  Q 100.83 66.58 110.49 66.57
  Q 114.70 66.57 115.75 63.00
  Q 116.99 58.76 117.46 54.32
  Q 117.71 51.99 118.51 49.85
  Z
  M 38.27 52.71
  Q 37.02 57.17 36.46 61.75
  C 35.90 66.41 39.70 67.06 43.26 66.37
  Q 44.33 66.16 44.10 67.23
  Q 43.84 68.42 43.97 69.52
  Q 44.05 70.14 44.67 70.13
  L 50.44 69.99
  A 1.36 1.36 0.0 0 0 51.53 69.39
  Q 52.13 68.48 52.09 67.30
  A 0.88 0.87 2.6 0 1 53.07 66.41
  C 57.32 66.90 60.72 66.37 62.21 61.83
  Q 63.70 57.31 64.24 52.53
  C 65.31 49.47 68.32 39.41 62.49 39.47
  Q 55.57 39.54 48.41 39.32
  C 39.99 39.06 38.84 46.02 38.27 52.71
  Z
  M 136.28 46.23
  L 136.28 48.75
  Q 136.28 49.90 135.13 49.90
  L 121.49 49.95
  A 1.46 1.45 -82.1 0 0 120.09 51.01
  Q 118.43 56.86 117.80 62.57
  A 3.38 3.37 -86.0 0 0 121.05 66.32
  Q 129.39 66.59 137.30 66.43
  Q 142.34 66.33 143.72 61.09
  Q 145.96 52.55 147.24 43.90
  Q 147.87 39.60 143.72 39.54
  Q 133.91 39.39 123.36 39.28
  Q 123.00 39.28 122.90 39.62
  L 121.10 45.80
  Q 121.04 46.02 121.26 45.98
  Q 128.71 44.71 135.47 45.33
  A 0.90 0.89 3.1 0 1 136.28 46.23
  Z
  M 166.00 62.06
  Q 166.21 60.88 165.09 61.28
  Q 161.75 62.46 158.22 62.15
  A 2.17 2.16 89.7 0 1 156.26 60.21
  Q 156.13 58.92 156.39 57.50
  Q 158.12 48.18 160.43 40.05
  Q 160.59 39.47 160.00 39.47
  L 150.12 39.31
  A 0.73 0.72 85.7 0 0 149.39 40.16
  Q 149.61 41.46 149.39 42.67
  Q 147.43 53.56 145.28 63.85
  Q 144.71 66.56 147.49 66.59
  L 164.23 66.73
  A 1.12 1.11 5.2 0 0 165.34 65.81
  L 166.00 62.06
  Z
  M 82.86 46.04
  L 82.73 48.96
  A 0.95 0.94 -88.7 0 1 81.79 49.87
  L 67.88 49.91
  A 1.47 1.47 0.0 0 0 66.45 51.10
  L 64.36 62.22
  A 3.45 3.45 0.0 0 0 67.70 66.31
  Q 74.41 66.42 81.87 66.44
  C 89.89 66.46 89.91 63.07 91.53 55.74
  Q 92.66 50.62 93.61 45.41
  C 94.05 43.00 94.46 39.56 90.78 39.52
  Q 80.82 39.41 70.53 39.52
  Q 69.46 39.53 69.16 40.55
  L 67.88 44.91
  Q 67.52 46.14 68.77 45.91
  Q 75.29 44.73 82.24 45.34
  Q 82.89 45.39 82.86 46.04
  Z
  M 56.33 73.74
  L 57.16 72.09
  A 0.82 0.81 17.8 0 0 56.56 70.93
  Q 54.69 70.62 53.36 71.49
  Q 52.99 71.73 52.91 72.17
  L 51.40 80.33
  A 0.95 0.95 0.0 0 0 52.14 81.43
  Q 53.39 81.69 54.77 81.22
  Q 55.37 81.02 55.47 80.41
  L 55.63 79.50
  Q 55.92 77.82 56.63 79.37
  Q 57.71 81.76 60.54 81.47
  A 0.94 0.94 0.0 0 0 61.22 80.01
  Q 60.21 78.51 59.77 76.96
  Q 59.60 76.33 60.01 75.83
  L 63.11 72.09
  Q 63.87 71.17 62.73 70.80
  L 62.33 70.67
  A 2.13 2.12 -61.8 0 0 60.00 71.38
  L 57.81 74.17
  A 0.77 0.75 -70.8 0 1 57.21 74.47
  Q 57.04 74.48 56.88 74.50
  A 0.53 0.53 0.0 0 1 56.33 73.74
  Z
  M 63.02 79.14
  A 1.73 1.73 0.0 0 0 64.68 81.26
  L 71.18 81.35
  A 1.73 1.73 0.0 0 0 72.92 79.83
  L 73.81 72.64
  A 1.73 1.73 0.0 0 0 72.07 70.70
  L 66.30 70.77
  A 1.73 1.73 0.0 0 0 64.64 72.11
  L 63.02 79.14
  Z
  M 86.79 80.87
  Q 87.40 80.81 87.73 81.05
  Q 92.37 81.97 96.45 80.85
  Q 97.05 80.52 97.77 80.81
  Q 99.07 81.47 101.00 81.37
  Q 105.55 81.13 110.13 81.20
  Q 110.72 81.21 111.00 80.69
  L 111.34 80.04
  A 0.90 0.90 0.0 0 1 112.73 79.78
  Q 113.97 80.87 115.55 81.46
  A 1.14 1.13 -78.1 0 0 117.08 80.46
  Q 117.33 76.24 118.46 72.25
  Q 118.79 71.08 117.59 70.94
  Q 114.52 70.57 111.67 70.90
  Q 109.53 71.14 106.33 70.89
  Q 102.27 70.57 98.19 71.75
  Q 94.87 69.76 89.68 71.57
  L 88.13 70.92
  Q 86.23 70.49 84.74 71.32
  Q 84.22 71.61 84.25 72.19
  Q 84.31 73.50 84.11 74.65
  Q 83.85 76.10 83.01 74.90
  Q 82.31 73.92 81.88 72.71
  C 81.18 70.76 78.72 70.52 76.97 70.79
  Q 75.60 71.00 75.87 72.36
  C 76.24 74.16 74.83 77.58 74.31 79.49
  Q 73.83 81.26 75.66 81.39
  L 76.67 81.47
  Q 78.44 81.59 78.60 79.83
  L 79.06 74.80
  Q 79.15 73.81 79.74 74.61
  Q 81.65 77.22 82.81 80.37
  Q 82.99 80.85 83.43 81.09
  Q 84.96 81.92 86.79 80.87
  Z
  M 123.82 74.32
  L 123.75 72.27
  A 1.39 1.39 0.0 0 0 122.52 70.94
  L 121.06 70.76
  Q 119.94 70.63 120.05 71.76
  L 120.95 80.56
  Q 121.03 81.34 121.81 81.32
  L 124.22 81.25
  Q 125.11 81.23 125.54 80.45
  L 130.38 71.70
  Q 130.89 70.78 129.85 70.86
  L 127.74 71.03
  A 1.61 1.60 6.6 0 0 126.35 72.13
  Q 125.89 73.55 125.00 74.70
  Q 123.89 76.13 123.82 74.32
  Z
  M 146.65 79.84
  Q 147.37 80.10 147.88 80.65
  C 148.94 81.80 150.62 81.93 152.06 81.62
  A 0.95 0.94 81.5 0 0 152.81 80.60
  L 151.93 71.25
  A 0.48 0.48 0.0 0 0 151.29 70.84
  C 149.47 71.47 147.87 72.22 146.80 73.99
  Q 143.85 78.85 140.92 83.84
  A 0.51 0.51 0.0 0 0 141.00 84.47
  Q 141.45 84.92 142.00 84.65
  A 3.03 3.01 89.2 0 0 143.44 83.16
  Q 144.29 81.26 145.69 80.02
  A 0.95 0.93 33.8 0 1 146.65 79.84
  Z
  M 138.53 78.14
  L 142.98 72.61
  A 0.54 0.53 -70.9 0 0 142.56 71.74
  L 135.26 71.76
  Q 134.15 71.77 133.60 72.73
  Q 133.52 72.87 133.45 73.01
  Q 132.81 74.25 134.20 74.19
  L 136.83 74.06
  Q 138.53 73.98 137.37 75.23
  L 132.83 80.08
  A 0.82 0.80 64.5 0 0 132.62 80.70
  Q 132.68 81.40 133.21 81.40
  Q 136.57 81.42 140.12 81.47
  A 1.36 1.33 22.1 0 0 141.07 81.08
  Q 141.67 80.48 141.59 79.85
  Q 141.45 78.65 140.23 78.74
  L 138.90 78.84
  A 0.43 0.43 0.0 0 1 138.53 78.14
  Z
  M 163.28 73.17
  Q 163.89 73.19 164.07 74.51
  L 162.77 79.66
  Q 162.39 81.19 163.95 81.41
  Q 166.78 81.81 169.63 81.35
  Q 171.48 81.05 173.32 81.36
  Q 177.73 82.12 180.95 80.68
  Q 181.39 80.49 181.80 80.71
  C 183.63 81.69 189.54 82.49 190.49 79.74
  Q 191.46 76.95 191.79 73.16
  Q 191.90 71.79 190.53 71.77
  L 190.04 71.77
  Q 189.02 71.76 188.75 72.74
  L 186.97 79.00
  A 0.44 0.44 0.0 0 1 186.37 79.28
  L 186.01 79.13
  Q 185.41 78.87 185.52 78.24
  L 186.47 72.71
  Q 186.61 71.94 185.83 71.81
  C 184.08 71.51 183.51 72.21 182.73 73.56
  Q 182.43 74.09 182.27 73.50
  C 181.69 71.33 177.84 71.82 176.17 71.97
  Q 173.96 72.17 170.88 71.80
  Q 167.66 71.41 164.75 72.27
  Q 164.87 72.55 163.74 72.42
  Q 162.78 71.38 161.45 71.80
  C 160.05 72.23 159.51 73.90 158.87 75.15
  Q 157.67 77.48 157.44 74.87
  Q 157.34 73.78 157.48 72.74
  Q 157.57 72.09 156.93 71.93
  Q 155.78 71.66 154.78 71.80
  Q 154.14 71.89 154.19 72.53
  Q 154.47 75.98 154.85 79.58
  C 155.11 82.02 158.57 82.17 159.54 80.34
  Q 161.00 77.62 162.25 74.25
  Q 162.55 73.47 163.28 73.17
  Z
  M 112.96 100.65
  C 114.24 100.66 114.78 99.53 115.04 98.47
  Q 115.22 97.72 114.57 98.14
  Q 113.43 98.86 112.61 99.93
  Q 112.05 100.65 112.96 100.65
  Z"
/>
<path fill="#d1edf5" d="
  M 136.50 0.00
  L 231.00 0.00
  L 231.00 41.48
  Q 230.48 44.70 230.27 48.00
  Q 230.13 50.19 229.09 52.15
  A 2.15 2.14 21.8 0 1 226.59 53.21
  Q 224.03 52.47 220.95 52.44
  C 219.10 52.43 217.92 51.39 216.20 51.19
  Q 215.73 51.13 215.37 50.83
  Q 212.66 48.55 209.41 47.24
  Q 208.00 46.66 207.17 45.84
  Q 206.27 44.95 205.03 44.37
  Q 204.69 44.21 204.72 43.84
  Q 204.77 43.24 204.14 43.09
  C 203.36 42.90 202.83 42.52 201.98 42.59
  Q 201.38 42.64 201.38 43.24
  L 201.38 43.75
  Q 201.38 44.30 200.93 43.99
  Q 200.48 43.67 200.17 44.11
  Q 199.84 44.58 199.66 44.04
  Q 199.42 43.34 199.53 42.65
  Q 199.62 42.11 199.15 41.81
  L 197.48 40.76
  Q 196.19 39.62 195.00 39.60
  Q 185.27 39.48 175.54 39.42
  Q 175.82 38.55 174.78 38.26
  Q 174.35 38.13 174.33 37.68
  Q 174.30 37.02 174.05 36.46
  Q 173.75 35.81 173.15 36.20
  L 172.90 36.36
  A 0.45 0.44 65.5 0 1 172.24 36.11
  Q 171.90 34.96 171.09 34.29
  Q 170.71 33.97 170.81 33.48
  Q 171.23 31.47 171.84 29.71
  C 172.28 28.45 173.26 27.87 173.62 26.54
  Q 173.80 25.91 173.22 25.60
  Q 172.72 25.33 172.32 25.61
  Q 171.71 26.04 171.88 25.32
  L 172.97 20.69
  A 0.66 0.59 -51.2 0 0 172.95 20.31
  Q 172.74 19.77 172.96 19.22
  A 1.23 1.23 0.0 0 0 172.79 17.98
  Q 168.99 13.17 164.02 8.85
  C 163.00 7.97 162.35 6.64 161.30 5.91
  Q 157.35 3.13 152.42 2.90
  A 0.69 0.68 23.2 0 0 151.91 3.10
  L 151.69 3.31
  Q 151.55 3.46 151.35 3.42
  Q 150.05 3.18 149.05 3.87
  Q 148.57 4.20 147.99 4.24
  L 144.22 4.49
  Q 143.61 4.53 143.21 4.99
  L 140.67 7.86
  Q 140.32 8.27 139.81 8.44
  C 139.11 8.67 138.64 8.68 138.10 9.27
  Q 137.19 10.26 136.08 10.94
  Q 135.74 11.14 135.60 11.51
  Q 135.48 11.83 135.67 11.93
  Q 136.10 12.16 135.66 12.37
  Q 134.47 12.96 133.56 13.94
  Q 132.71 14.86 131.42 15.41
  Q 130.01 16.01 128.40 16.61
  Q 128.04 16.74 126.49 17.78
  Q 125.45 18.48 124.23 18.38
  A 1.34 1.33 29.6 0 0 123.39 18.61
  Q 122.98 18.90 122.53 19.18
  Q 121.89 19.57 122.13 18.86
  Q 122.25 18.51 121.61 18.42
  A 0.71 0.67 31.8 0 0 121.17 18.51
  Q 119.81 19.32 118.46 19.06
  Q 117.36 18.84 116.81 17.66
  Q 115.42 14.70 116.68 12.08
  Q 118.26 8.79 119.97 5.61
  Q 121.41 2.91 124.76 1.37
  Q 127.64 0.04 136.50 0.00
  Z"
/>
<path fill="#68b9d5" d="
  M 66.91 11.94
  Q 64.70 11.55 62.78 12.87
  Q 62.37 13.15 61.87 13.13
  Q 56.90 12.93 55.49 13.39
  Q 51.77 14.59 48.44 15.56
  Q 46.16 16.30 44.06 16.95
  C 40.12 18.18 36.45 20.55 32.79 22.49
  Q 30.53 23.69 24.29 29.31
  Q 21.70 31.65 19.68 34.56
  Q 17.80 37.28 15.72 40.38
  Q 7.57 52.52 6.65 67.15
  Q 4.67 69.62 2.75 69.62
  Q 0.68 69.62 0.00 70.25
  L 0.00 61.26
  Q 0.34 59.19 0.54 57.08
  Q 0.76 54.80 1.42 53.03
  Q 11.98 24.91 39.75 14.92
  Q 47.98 11.96 60.75 10.97
  Q 62.05 10.87 66.91 11.94
  Z"
/>
<path fill="#7ac23b" d="
  M 66.91 11.94
  Q 81.56 13.41 93.70 21.61
  Q 93.89 21.74 93.77 21.93
  L 93.65 22.15
  Q 93.63 22.18 93.61 22.16
  C 84.96 17.74 75.61 14.65 65.83 17.12
  Q 62.73 17.90 59.38 18.70
  Q 56.69 19.34 54.51 20.65
  Q 52.88 21.62 51.07 22.35
  Q 49.39 23.03 47.83 24.06
  Q 41.48 28.25 38.54 31.80
  Q 23.46 50.00 28.68 73.99
  Q 20.97 73.86 18.14 72.59
  Q 17.40 72.26 15.63 70.43
  Q 14.53 61.10 16.91 54.25
  C 18.51 49.66 19.90 44.93 22.23 40.81
  Q 25.30 35.42 29.86 30.24
  C 30.44 29.58 31.20 29.17 31.98 28.79
  Q 32.88 28.35 33.71 27.49
  Q 36.29 24.84 38.47 23.55
  Q 41.68 21.65 45.43 19.81
  Q 45.93 19.56 46.19 19.07
  Q 46.61 18.25 47.49 18.12
  Q 48.14 18.03 48.22 17.38
  L 48.44 15.56
  Q 51.77 14.59 55.49 13.39
  Q 56.90 12.93 61.87 13.13
  Q 62.37 13.15 62.78 12.87
  Q 64.70 11.55 66.91 11.94
  Z"
/>
<path fill="#c15023" d="
  M 48.44 15.56
  L 48.22 17.38
  Q 48.14 18.03 47.49 18.12
  Q 46.61 18.25 46.19 19.07
  Q 45.93 19.56 45.43 19.81
  Q 41.68 21.65 38.47 23.55
  Q 36.29 24.84 33.71 27.49
  Q 32.88 28.35 31.98 28.79
  C 31.20 29.17 30.44 29.58 29.86 30.24
  Q 25.30 35.42 22.23 40.81
  C 19.90 44.93 18.51 49.66 16.91 54.25
  Q 14.53 61.10 15.63 70.43
  Q 15.81 73.66 16.58 76.21
  Q 17.33 78.69 17.57 80.90
  Q 18.01 84.88 20.78 88.34
  Q 21.11 88.75 21.21 89.26
  Q 21.51 90.72 22.97 92.64
  L 19.97 94.05
  Q 18.24 94.25 16.81 95.43
  Q 16.29 95.86 15.06 97.87
  Q 13.76 100.01 12.04 99.19
  Q 11.51 98.83 11.16 98.30
  Q 10.84 97.82 10.84 97.24
  Q 10.85 94.39 9.26 91.98
  C 8.64 91.04 8.39 90.21 8.01 89.15
  Q 7.59 88.01 7.52 86.79
  Q 7.37 84.00 6.97 81.31
  C 6.29 76.72 6.62 71.82 6.65 67.15
  Q 7.57 52.52 15.72 40.38
  Q 17.80 37.28 19.68 34.56
  Q 21.70 31.65 24.29 29.31
  Q 30.53 23.69 32.79 22.49
  C 36.45 20.55 40.12 18.18 44.06 16.95
  Q 46.16 16.30 48.44 15.56
  Z"
/>
<path fill="#3c8623" d="
  M 117.46 54.32
  Q 116.99 58.76 115.75 63.00
  Q 114.70 66.57 110.49 66.57
  Q 100.83 66.58 91.89 66.66
  A 0.61 0.61 0.0 0 1 91.29 65.91
  Q 93.94 54.70 95.92 43.68
  Q 96.29 41.61 96.08 39.54
  A 0.38 0.37 -4.1 0 1 96.45 39.12
  Q 105.91 38.94 115.76 39.05
  C 121.94 39.11 119.68 46.74 118.51 49.85
  Q 117.71 51.99 117.46 54.32
  Z
  M 103.93 50.11
  A 1.03 1.03 0.0 0 0 105.08 51.31
  L 108.26 50.90
  A 1.03 1.03 0.0 0 0 109.13 50.14
  L 110.55 44.67
  A 1.03 1.03 0.0 0 0 109.73 43.40
  L 106.25 42.78
  A 1.03 1.03 0.0 0 0 105.05 43.62
  L 103.93 50.11
  Z
  M 101.50 62.40
  A 0.78 0.78 0.0 0 0 102.29 63.31
  L 106.01 63.20
  A 0.78 0.78 0.0 0 0 106.76 62.57
  L 107.95 56.31
  A 0.78 0.78 0.0 0 0 107.24 55.38
  L 103.44 55.14
  A 0.78 0.78 0.0 0 0 102.62 55.78
  L 101.50 62.40
  Z"
/>
<path fill="#56a72e" d="
  M 64.24 52.53
  Q 61.71 51.06 59.32 52.17
  Q 58.87 52.38 58.39 52.29
  Q 56.27 51.90 54.52 52.38
  L 55.64 46.68
  Q 55.92 45.25 54.46 45.24
  L 51.07 45.22
  Q 49.55 45.21 49.24 46.70
  L 47.88 53.24
  Q 45.46 52.74 42.88 53.07
  Q 42.39 53.13 41.94 52.93
  Q 40.11 52.10 38.27 52.71
  C 38.84 46.02 39.99 39.06 48.41 39.32
  Q 55.57 39.54 62.49 39.47
  C 68.32 39.41 65.31 49.47 64.24 52.53
  Z"
/>
<path fill="#3c8623" d="
  M 135.47 45.33
  Q 128.71 44.71 121.26 45.98
  Q 121.04 46.02 121.10 45.80
  L 122.90 39.62
  Q 123.00 39.28 123.36 39.28
  Q 133.91 39.39 143.72 39.54
  Q 147.87 39.60 147.24 43.90
  Q 145.96 52.55 143.72 61.09
  Q 142.34 66.33 137.30 66.43
  Q 129.39 66.59 121.05 66.32
  A 3.38 3.37 -86.0 0 1 117.80 62.57
  Q 118.43 56.86 120.09 51.01
  A 1.46 1.45 -82.1 0 1 121.49 49.95
  L 135.13 49.90
  Q 136.28 49.90 136.28 48.75
  L 136.28 46.23
  A 0.90 0.89 3.1 0 0 135.47 45.33
  Z
  M 128.52 55.68
  A 1.35 1.35 0.0 0 0 127.17 56.83
  L 126.73 59.68
  A 1.35 1.35 0.0 0 0 128.09 61.24
  L 132.67 61.17
  A 1.35 1.35 0.0 0 0 133.95 60.18
  L 134.71 57.43
  A 1.35 1.35 0.0 0 0 133.42 55.72
  L 128.52 55.68
  Z"
/>
<path fill="#3c8623" d="
  M 166.00 62.06
  L 165.34 65.81
  A 1.12 1.11 5.2 0 1 164.23 66.73
  L 147.49 66.59
  Q 144.71 66.56 145.28 63.85
  Q 147.43 53.56 149.39 42.67
  Q 149.61 41.46 149.39 40.16
  A 0.73 0.72 85.7 0 1 150.12 39.31
  L 160.00 39.47
  Q 160.59 39.47 160.43 40.05
  Q 158.12 48.18 156.39 57.50
  Q 156.13 58.92 156.26 60.21
  A 2.17 2.16 89.7 0 0 158.22 62.15
  Q 161.75 62.46 165.09 61.28
  Q 166.21 60.88 166.00 62.06
  Z"
/>
<path fill="#3c8623" d="
  M 197.48 40.76
  Q 198.36 42.43 198.17 43.50
  Q 196.57 52.31 194.47 60.98
  C 193.75 63.99 191.66 66.29 188.49 66.36
  Q 180.48 66.55 172.63 66.47
  Q 167.85 66.42 168.53 61.53
  Q 169.26 56.26 170.62 50.82
  A 0.97 0.96 6.3 0 1 171.53 50.10
  L 185.52 49.74
  Q 187.22 49.69 187.27 47.98
  L 187.29 47.20
  Q 187.33 45.59 185.74 45.39
  Q 178.65 44.48 172.51 45.89
  A 0.63 0.63 0.0 0 1 171.77 45.07
  Q 172.58 42.76 173.27 40.48
  Q 173.57 39.45 175.54 39.42
  Q 185.27 39.48 195.00 39.60
  Q 196.19 39.62 197.48 40.76
  Z
  M 179.42 55.62
  A 1.55 1.55 0.0 0 0 177.90 56.89
  L 177.44 59.39
  A 1.55 1.55 0.0 0 0 179.02 61.22
  L 183.37 61.09
  A 1.55 1.55 0.0 0 0 184.84 59.85
  L 185.32 57.48
  A 1.55 1.55 0.0 0 0 183.80 55.62
  L 179.42 55.62
  Z"
/>
<path fill="#3c8623" d="
  M 82.86 46.04
  Q 82.89 45.39 82.24 45.34
  Q 75.29 44.73 68.77 45.91
  Q 67.52 46.14 67.88 44.91
  L 69.16 40.55
  Q 69.46 39.53 70.53 39.52
  Q 80.82 39.41 90.78 39.52
  C 94.46 39.56 94.05 43.00 93.61 45.41
  Q 92.66 50.62 91.53 55.74
  C 89.91 63.07 89.89 66.46 81.87 66.44
  Q 74.41 66.42 67.70 66.31
  A 3.45 3.45 0.0 0 1 64.36 62.22
  L 66.45 51.10
  A 1.47 1.47 0.0 0 1 67.88 49.91
  L 81.79 49.87
  A 0.95 0.94 -88.7 0 0 82.73 48.96
  L 82.86 46.04
  Z
  M 79.25 61.11
  A 1.34 1.34 0.0 0 0 80.48 60.13
  L 81.24 57.45
  A 1.34 1.34 0.0 0 0 79.97 55.75
  L 75.12 55.67
  A 1.34 1.34 0.0 0 0 73.77 56.83
  L 73.39 59.76
  A 1.34 1.34 0.0 0 0 74.77 61.28
  L 79.25 61.11
  Z"
/>
<path fill="#dffdd2" d="
  M 103.93 50.11
  L 105.05 43.62
  A 1.03 1.03 0.0 0 1 106.25 42.78
  L 109.73 43.40
  A 1.03 1.03 0.0 0 1 110.55 44.67
  L 109.13 50.14
  A 1.03 1.03 0.0 0 1 108.26 50.90
  L 105.08 51.31
  A 1.03 1.03 0.0 0 1 103.93 50.11
  Z"
/>
<path fill="#dffdd2" d="
  M 54.52 52.38
  L 53.13 59.26
  Q 52.77 61.03 50.96 61.02
  L 48.04 61.00
  Q 46.29 60.99 46.64 59.28
  L 47.88 53.24
  L 49.24 46.70
  Q 49.55 45.21 51.07 45.22
  L 54.46 45.24
  Q 55.92 45.25 55.64 46.68
  L 54.52 52.38
  Z"
/>
<path fill="#2b6919" d="
  M 64.24 52.53
  Q 63.70 57.31 62.21 61.83
  C 60.72 66.37 57.32 66.90 53.07 66.41
  A 0.88 0.87 2.6 0 0 52.09 67.30
  Q 52.13 68.48 51.53 69.39
  A 1.36 1.36 0.0 0 1 50.44 69.99
  L 44.67 70.13
  Q 44.05 70.14 43.97 69.52
  Q 43.84 68.42 44.10 67.23
  Q 44.33 66.16 43.26 66.37
  C 39.70 67.06 35.90 66.41 36.46 61.75
  Q 37.02 57.17 38.27 52.71
  Q 40.11 52.10 41.94 52.93
  Q 42.39 53.13 42.88 53.07
  Q 45.46 52.74 47.88 53.24
  L 46.64 59.28
  Q 46.29 60.99 48.04 61.00
  L 50.96 61.02
  Q 52.77 61.03 53.13 59.26
  L 54.52 52.38
  Q 56.27 51.90 58.39 52.29
  Q 58.87 52.38 59.32 52.17
  Q 61.71 51.06 64.24 52.53
  Z"
/>
<path fill="#dffdd2" d="
  M 101.50 62.40
  L 102.62 55.78
  A 0.78 0.78 0.0 0 1 103.44 55.14
  L 107.24 55.38
  A 0.78 0.78 0.0 0 1 107.95 56.31
  L 106.76 62.57
  A 0.78 0.78 0.0 0 1 106.01 63.20
  L 102.29 63.31
  A 0.78 0.78 0.0 0 1 101.50 62.40
  Z"
/>
<path fill="#dffdd2" d="
  M 179.42 55.62
  L 183.80 55.62
  A 1.55 1.55 0.0 0 1 185.32 57.48
  L 184.84 59.85
  A 1.55 1.55 0.0 0 1 183.37 61.09
  L 179.02 61.22
  A 1.55 1.55 0.0 0 1 177.44 59.39
  L 177.90 56.89
  A 1.55 1.55 0.0 0 1 179.42 55.62
  Z"
/>
<path fill="#dffdd2" d="
  M 79.25 61.11
  L 74.77 61.28
  A 1.34 1.34 0.0 0 1 73.39 59.76
  L 73.77 56.83
  A 1.34 1.34 0.0 0 1 75.12 55.67
  L 79.97 55.75
  A 1.34 1.34 0.0 0 1 81.24 57.45
  L 80.48 60.13
  A 1.34 1.34 0.0 0 1 79.25 61.11
  Z"
/>
<path fill="#dffdd2" d="
  M 128.52 55.68
  L 133.42 55.72
  A 1.35 1.35 0.0 0 1 134.71 57.43
  L 133.95 60.18
  A 1.35 1.35 0.0 0 1 132.67 61.17
  L 128.09 61.24
  A 1.35 1.35 0.0 0 1 126.73 59.68
  L 127.17 56.83
  A 1.35 1.35 0.0 0 1 128.52 55.68
  Z"
/>
<path fill="#2c6a96" d="
  M 6.65 67.15
  C 6.62 71.82 6.29 76.72 6.97 81.31
  Q 7.37 84.00 7.52 86.79
  Q 7.59 88.01 8.01 89.15
  C 8.39 90.21 8.64 91.04 9.26 91.98
  Q 10.85 94.39 10.84 97.24
  Q 10.84 97.82 11.16 98.30
  Q 11.51 98.83 12.04 99.19
  Q 11.93 99.79 11.39 99.88
  Q 10.97 99.95 10.89 100.36
  L 10.75 101.00
  L 4.35 101.00
  Q 1.24 95.13 0.00 88.92
  L 0.00 70.25
  Q 0.68 69.62 2.75 69.62
  Q 4.67 69.62 6.65 67.15
  Z"
/>
<path fill="#439a29" d="
  M 28.68 73.99
  L 33.30 85.89
  A 0.91 0.89 75.4 0 0 34.25 86.46
  Q 48.39 84.63 61.49 92.00
  Q 69.32 96.40 75.64 100.28
  Q 76.14 100.59 75.56 100.66
  L 72.99 101.00
  L 71.28 101.00
  Q 68.08 100.01 64.89 101.00
  L 10.75 101.00
  L 10.89 100.36
  Q 10.97 99.95 11.39 99.88
  Q 11.93 99.79 12.04 99.19
  Q 13.76 100.01 15.06 97.87
  Q 16.29 95.86 16.81 95.43
  Q 18.24 94.25 19.97 94.05
  Q 20.40 95.26 22.75 94.37
  C 26.27 93.02 29.47 91.62 33.29 91.34
  C 44.99 90.51 53.91 94.04 63.97 99.20
  Q 65.45 99.96 66.95 99.65
  Q 67.77 99.48 67.06 99.04
  Q 59.07 94.10 53.74 91.78
  Q 41.79 86.59 28.63 90.72
  Q 25.19 91.80 22.97 92.64
  Q 21.51 90.72 21.21 89.26
  Q 21.11 88.75 20.78 88.34
  Q 18.01 84.88 17.57 80.90
  Q 17.33 78.69 16.58 76.21
  Q 15.81 73.66 15.63 70.43
  Q 17.40 72.26 18.14 72.59
  Q 20.97 73.86 28.68 73.99
  Z"
/>
<path fill="#3c8623" d="
  M 56.88 74.50
  Q 57.04 74.48 57.21 74.47
  A 0.77 0.75 -70.8 0 0 57.81 74.17
  L 60.00 71.38
  A 2.13 2.12 -61.8 0 1 62.33 70.67
  L 62.73 70.80
  Q 63.87 71.17 63.11 72.09
  L 60.01 75.83
  Q 59.60 76.33 59.77 76.96
  Q 60.21 78.51 61.22 80.01
  A 0.94 0.94 0.0 0 1 60.54 81.47
  Q 57.71 81.76 56.63 79.37
  Q 55.92 77.82 55.63 79.50
  L 55.47 80.41
  Q 55.37 81.02 54.77 81.22
  Q 53.39 81.69 52.14 81.43
  A 0.95 0.95 0.0 0 1 51.40 80.33
  L 52.91 72.17
  Q 52.99 71.73 53.36 71.49
  Q 54.69 70.62 56.56 70.93
  A 0.82 0.81 17.8 0 1 57.16 72.09
  L 56.33 73.74
  A 0.53 0.53 0.0 0 0 56.88 74.50
  Z"
/>
<path fill="#3c8623" d="
  M 63.02 79.14
  L 64.64 72.11
  A 1.73 1.73 0.0 0 1 66.30 70.77
  L 72.07 70.70
  A 1.73 1.73 0.0 0 1 73.81 72.64
  L 72.92 79.83
  A 1.73 1.73 0.0 0 1 71.18 81.35
  L 64.68 81.26
  A 1.73 1.73 0.0 0 1 63.02 79.14
  Z
  M 67.35 78.28
  A 0.77 0.77 0.0 0 0 68.40 79.07
  L 69.07 78.80
  A 0.77 0.77 0.0 0 0 69.53 78.29
  L 70.73 73.75
  A 0.77 0.77 0.0 0 0 69.95 72.79
  L 68.58 72.84
  A 0.77 0.77 0.0 0 0 67.84 73.53
  L 67.35 78.28
  Z"
/>
<path fill="#3c8623" d="
  M 88.13 70.92
  Q 87.14 73.13 87.49 75.35
  Q 87.57 75.83 87.50 76.32
  L 86.79 80.87
  Q 84.96 81.92 83.43 81.09
  Q 82.99 80.85 82.81 80.37
  Q 81.65 77.22 79.74 74.61
  Q 79.15 73.81 79.06 74.80
  L 78.60 79.83
  Q 78.44 81.59 76.67 81.47
  L 75.66 81.39
  Q 73.83 81.26 74.31 79.49
  C 74.83 77.58 76.24 74.16 75.87 72.36
  Q 75.60 71.00 76.97 70.79
  C 78.72 70.52 81.18 70.76 81.88 72.71
  Q 82.31 73.92 83.01 74.90
  Q 83.85 76.10 84.11 74.65
  Q 84.31 73.50 84.25 72.19
  Q 84.22 71.61 84.74 71.32
  Q 86.23 70.49 88.13 70.92
  Z"
/>
<path fill="#439a29" d="
  M 98.19 71.75
  Q 98.37 72.61 97.26 73.50
  Q 97.21 74.18 96.37 74.16
  Q 95.84 74.15 95.48 73.78
  Q 95.25 73.54 95.11 73.25
  Q 94.80 72.62 94.11 72.46
  Q 92.93 72.18 92.33 73.15
  A 1.36 1.35 -78.1 0 0 93.67 75.21
  Q 95.87 74.90 97.07 75.55
  Q 94.95 75.23 93.76 75.89
  Q 93.31 76.15 93.66 76.53
  Q 95.18 78.17 93.81 78.84
  Q 94.36 78.07 94.22 77.57
  Q 94.10 77.14 93.31 77.06
  Q 91.53 76.89 89.80 76.85
  Q 88.98 76.83 88.37 76.08
  Q 88.04 75.68 88.41 75.30
  Q 89.57 74.15 89.68 71.57
  Q 94.87 69.76 98.19 71.75
  Z"
/>
<path fill="#3c8623" d="
  M 97.77 80.81
  Q 97.85 78.03 98.18 77.26
  Q 100.22 72.66 97.26 73.50
  Q 98.37 72.61 98.19 71.75
  Q 102.27 70.57 106.33 70.89
  Q 109.53 71.14 111.67 70.90
  Q 114.52 70.57 117.59 70.94
  Q 118.79 71.08 118.46 72.25
  Q 117.33 76.24 117.08 80.46
  A 1.14 1.13 -78.1 0 1 115.55 81.46
  Q 113.97 80.87 112.73 79.78
  A 0.90 0.90 0.0 0 0 111.34 80.04
  L 111.00 80.69
  Q 110.72 81.21 110.13 81.20
  Q 105.55 81.13 101.00 81.37
  Q 99.07 81.47 97.77 80.81
  Z
  M 112.8256 77.1782
  A 2.58 1.32 101.5 0 0 114.6335 74.9132
  A 2.58 1.32 101.5 0 0 113.8544 72.1218
  A 2.58 1.32 101.5 0 0 112.0465 74.3868
  A 2.58 1.32 101.5 0 0 112.8256 77.1782
  Z
  M 105.7155 73.4888
  A 1.91 1.36 -10.9 0 0 103.5828 72.5145
  A 1.91 1.36 -10.9 0 0 101.9645 74.2112
  A 1.91 1.36 -10.9 0 0 104.0972 75.1855
  A 1.91 1.36 -10.9 0 0 105.7155 73.4888
  Z
  M 108.3605 78.2958
  A 0.95 0.95 0.0 0 0 107.4323 77.3245
  L 102.6535 77.2160
  A 0.95 0.95 0.0 0 0 101.6822 78.1442
  L 101.6795 78.2642
  A 0.95 0.95 0.0 0 0 102.6077 79.2355
  L 107.3865 79.3440
  A 0.95 0.95 0.0 0 0 108.3578 78.4158
  L 108.3605 78.2958
  Z"
/>
<path fill="#3c8623" d="
  M 123.82 74.32
  Q 123.89 76.13 125.00 74.70
  Q 125.89 73.55 126.35 72.13
  A 1.61 1.60 6.6 0 1 127.74 71.03
  L 129.85 70.86
  Q 130.89 70.78 130.38 71.70
  L 125.54 80.45
  Q 125.11 81.23 124.22 81.25
  L 121.81 81.32
  Q 121.03 81.34 120.95 80.56
  L 120.05 71.76
  Q 119.94 70.63 121.06 70.76
  L 122.52 70.94
  A 1.39 1.39 0.0 0 1 123.75 72.27
  L 123.82 74.32
  Z"
/>
<path fill="#3c8623" d="
  M 145.69 80.02
  Q 144.29 81.26 143.44 83.16
  A 3.03 3.01 89.2 0 1 142.00 84.65
  Q 141.45 84.92 141.00 84.47
  A 0.51 0.51 0.0 0 1 140.92 83.84
  Q 143.85 78.85 146.80 73.99
  C 147.87 72.22 149.47 71.47 151.29 70.84
  A 0.48 0.48 0.0 0 1 151.93 71.25
  L 152.81 80.60
  A 0.95 0.94 81.5 0 1 152.06 81.62
  C 150.62 81.93 148.94 81.80 147.88 80.65
  Q 147.37 80.10 146.65 79.84
  A 0.95 0.93 33.8 0 0 145.69 80.02
  Z
  M 147.1415 78.8818
  A 1.61 0.84 102.5 0 0 148.3101 77.4918
  A 1.61 0.84 102.5 0 0 147.8385 75.7382
  A 1.61 0.84 102.5 0 0 146.6699 77.1282
  A 1.61 0.84 102.5 0 0 147.1415 78.8818
  Z"
/>
<path fill="#7ac23b" d="
  M 88.13 70.92
  L 89.68 71.57
  Q 89.57 74.15 88.41 75.30
  Q 88.04 75.68 88.37 76.08
  Q 88.98 76.83 89.80 76.85
  Q 91.53 76.89 93.31 77.06
  Q 94.10 77.14 94.22 77.57
  Q 94.36 78.07 93.81 78.84
  L 88.60 79.04
  Q 88.05 79.06 87.96 79.61
  L 87.73 81.05
  Q 87.40 80.81 86.79 80.87
  L 87.50 76.32
  Q 87.57 75.83 87.49 75.35
  Q 87.14 73.13 88.13 70.92
  Z"
/>
<path fill="#3c8623" d="
  M 138.90 78.84
  L 140.23 78.74
  Q 141.45 78.65 141.59 79.85
  Q 141.67 80.48 141.07 81.08
  A 1.36 1.33 22.1 0 1 140.12 81.47
  Q 136.57 81.42 133.21 81.40
  Q 132.68 81.40 132.62 80.70
  A 0.82 0.80 64.5 0 1 132.83 80.08
  L 137.37 75.23
  Q 138.53 73.98 136.83 74.06
  L 134.20 74.19
  Q 132.81 74.25 133.45 73.01
  Q 133.52 72.87 133.60 72.73
  Q 134.15 71.77 135.26 71.76
  L 142.56 71.74
  A 0.54 0.53 -70.9 0 1 142.98 72.61
  L 138.53 78.14
  A 0.43 0.43 0.0 0 0 138.90 78.84
  Z"
/>
<path fill="#3c8623" d="
  M 163.74 72.42
  Q 163.73 72.83 163.28 73.17
  Q 162.55 73.47 162.25 74.25
  Q 161.00 77.62 159.54 80.34
  C 158.57 82.17 155.11 82.02 154.85 79.58
  Q 154.47 75.98 154.19 72.53
  Q 154.14 71.89 154.78 71.80
  Q 155.78 71.66 156.93 71.93
  Q 157.57 72.09 157.48 72.74
  Q 157.34 73.78 157.44 74.87
  Q 157.67 77.48 158.87 75.15
  C 159.51 73.90 160.05 72.23 161.45 71.80
  Q 162.78 71.38 163.74 72.42
  Z"
/>
<path fill="#3c8623" d="
  M 164.07 74.51
  Q 164.12 73.45 164.75 72.27
  Q 167.66 71.41 170.88 71.80
  Q 173.96 72.17 176.17 71.97
  C 177.84 71.82 181.69 71.33 182.27 73.50
  Q 182.43 74.09 182.73 73.56
  C 183.51 72.21 184.08 71.51 185.83 71.81
  Q 186.61 71.94 186.47 72.71
  L 185.52 78.24
  Q 185.41 78.87 186.01 79.13
  L 186.37 79.28
  A 0.44 0.44 0.0 0 0 186.97 79.00
  L 188.75 72.74
  Q 189.02 71.76 190.04 71.77
  L 190.53 71.77
  Q 191.90 71.79 191.79 73.16
  Q 191.46 76.95 190.49 79.74
  C 189.54 82.49 183.63 81.69 181.80 80.71
  Q 181.39 80.49 180.95 80.68
  Q 177.73 82.12 173.32 81.36
  Q 171.48 81.05 169.63 81.35
  Q 166.78 81.81 163.95 81.41
  Q 162.39 81.19 162.77 79.66
  L 164.07 74.51
  Z
  M 169.3979 74.6007
  A 0.91 0.91 0.0 0 0 168.6543 73.5504
  L 168.5360 73.5302
  A 0.91 0.91 0.0 0 0 167.4857 74.2739
  L 166.8421 78.0393
  A 0.91 0.91 0.0 0 0 167.5857 79.0896
  L 167.7040 79.1098
  A 0.91 0.91 0.0 0 0 168.7543 78.3661
  L 169.3979 74.6007
  Z
  M 176.9108 79.0845
  A 2.83 1.01 97.7 0 0 178.2909 76.4153
  A 2.83 1.01 97.7 0 0 177.6692 73.4755
  A 2.83 1.01 97.7 0 0 176.2891 76.1447
  A 2.83 1.01 97.7 0 0 176.9108 79.0845
  Z"
/>
<ellipse fill="#dffdd2" cx="0.00" cy="0.00" transform="translate(113.34,74.65) rotate(101.5)" rx="2.58" ry="1.32"/>
<path fill="#7ac23b" d="
  M 97.26 73.50
  Q 100.22 72.66 98.18 77.26
  Q 97.85 78.03 97.77 80.81
  Q 97.05 80.52 96.45 80.85
  C 96.72 78.70 97.65 77.73 97.07 75.55
  Q 95.87 74.90 93.67 75.21
  A 1.36 1.35 -78.1 0 1 92.33 73.15
  Q 92.93 72.18 94.11 72.46
  Q 94.80 72.62 95.11 73.25
  Q 95.25 73.54 95.48 73.78
  Q 95.84 74.15 96.37 74.16
  Q 97.21 74.18 97.26 73.50
  Z"
/>
<ellipse fill="#7ac23b" cx="0.00" cy="0.00" transform="translate(103.84,73.85) rotate(-10.9)" rx="1.91" ry="1.36"/>
<path fill="#dffdd2" d="
  M 163.74 72.42
  Q 164.87 72.55 164.75 72.27
  Q 164.12 73.45 164.07 74.51
  Q 163.89 73.19 163.28 73.17
  Q 163.73 72.83 163.74 72.42
  Z"
/>
<path fill="#dffdd2" d="
  M 67.35 78.28
  L 67.84 73.53
  A 0.77 0.77 0.0 0 1 68.58 72.84
  L 69.95 72.79
  A 0.77 0.77 0.0 0 1 70.73 73.75
  L 69.53 78.29
  A 0.77 0.77 0.0 0 1 69.07 78.80
  L 68.40 79.07
  A 0.77 0.77 0.0 0 1 67.35 78.28
  Z"
/>
<rect fill="#eaf3f2" x="-0.97" y="-2.82" transform="translate(168.12,76.32) rotate(9.7)" width="1.94" height="5.64" rx="0.91"/>
<ellipse fill="#d1edf5" cx="0.00" cy="0.00" transform="translate(177.29,76.28) rotate(97.7)" rx="2.83" ry="1.01"/>
<path fill="#2b6919" d="
  M 97.07 75.55
  C 97.65 77.73 96.72 78.70 96.45 80.85
  Q 92.37 81.97 87.73 81.05
  L 87.96 79.61
  Q 88.05 79.06 88.60 79.04
  L 93.81 78.84
  Q 95.18 78.17 93.66 76.53
  Q 93.31 76.15 93.76 75.89
  Q 94.95 75.23 97.07 75.55
  Z"
/>
<ellipse fill="#d1edf5" cx="0.00" cy="0.00" transform="translate(147.49,77.31) rotate(102.5)" rx="1.61" ry="0.84"/>
<rect fill="#dffdd2" x="-3.34" y="-1.01" transform="translate(105.02,78.28) rotate(1.3)" width="6.68" height="2.02" rx="0.95"/>
<path fill="#eaf3f2" d="
  M 0.00 88.92
  Q 1.24 95.13 4.35 101.00
  L 0.00 101.00
  L 0.00 88.92
  Z"
/>
<path fill="#a4f769" d="
  M 19.97 94.05
  L 22.97 92.64
  Q 25.19 91.80 28.63 90.72
  Q 41.79 86.59 53.74 91.78
  Q 59.07 94.10 67.06 99.04
  Q 67.77 99.48 66.95 99.65
  Q 65.45 99.96 63.97 99.20
  C 53.91 94.04 44.99 90.51 33.29 91.34
  C 29.47 91.62 26.27 93.02 22.75 94.37
  Q 20.40 95.26 19.97 94.05
  Z"
/>
<path fill="#2c6a96" d="
  M 231.00 95.63
  L 231.00 101.00
  L 218.88 101.00
  L 217.52 100.57
  A 0.23 0.23 0.0 0 1 217.43 100.19
  Q 222.94 94.91 230.20 93.88
  Q 230.68 93.81 230.70 94.30
  Q 230.74 95.03 231.00 95.63
  Z"
/>
<path fill="#7ac23b" d="
  M 115.04 98.47
  C 114.78 99.53 114.24 100.66 112.96 100.65
  Q 112.05 100.65 112.61 99.93
  Q 113.43 98.86 114.57 98.14
  Q 115.22 97.72 115.04 98.47
  Z"
/>
<path fill="#eaf3f2" d="
  M 71.28 101.00
  L 64.89 101.00
  Q 68.08 100.01 71.28 101.00
  Z"
/>
</svg>
