<?xml version="1.0" encoding="UTF-8" standalone="no"?>
<!DOCTYPE svg PUBLIC "-//W3C//DTD SVG 1.1//EN" "http://www.w3.org/Graphics/SVG/1.1/DTD/svg11.dtd">
<svg xmlns="http://www.w3.org/2000/svg" version="1.1" viewBox="0.00 0.00 200.00 78.00">
<g stroke-width="2.00" fill="none" stroke-linecap="butt">
<path stroke="#a9feff" vector-effect="non-scaling-stroke" d="
  M 113.76 0.00
  Q 107.79 0.62 101.99 3.49
  Q 87.09 10.88 82.40 25.76
  Q 80.81 30.82 80.81 38.46
  Q 80.80 56.94 80.87 76.94
  A 0.90 0.89 1.0 0 0 81.74 77.83
  L 88.89 78.00"
/>
<path stroke="#a9feff" vector-effect="non-scaling-stroke" d="
  M 70.99 78.00
  L 73.12 77.80
  A 0.89 0.88 -2.9 0 0 73.92 76.92
  Q 74.17 54.41 73.83 38.43
  Q 73.71 33.24 71.11 27.20
  C 65.45 14.07 53.38 5.54 39.20 4.52
  C 21.53 3.24 6.25 14.75 0.99 31.76
  Q 0.66 32.82 0.00 36.89"
/>
<path stroke="#a9feff" vector-effect="non-scaling-stroke" d="
  M 118.94 0.00
  L 119.25 15.09
  A 0.85 0.84 -1.0 0 1 118.41 15.95
  C 109.40 16.09 101.65 21.13 98.56 29.46
  Q 97.38 32.64 97.30 40.75
  Q 97.12 59.38 97.17 78.00"
/>
<path stroke="#a9feff" vector-effect="non-scaling-stroke" d="
  M 126.05 0.00
  Q 126.00 16.93 126.00 33.86
  Q 126.00 45.61 127.49 50.98
  Q 131.36 64.97 144.18 72.84
  Q 150.77 76.89 159.87 78.00"
/>
<path stroke="#a9feff" vector-effect="non-scaling-stroke" d="
  M 142.10 0.00
  L 142.54 9.67
  Q 142.57 10.32 143.16 10.02
  C 146.43 8.34 150.10 6.46 153.60 5.66
  Q 174.40 0.92 189.29 15.21
  Q 198.18 23.73 200.00 36.82"
/>
<path stroke="#a9feff" vector-effect="non-scaling-stroke" d="
  M 200.00 46.49
  Q 198.02 55.44 194.21 61.22
  Q 190.61 66.69 185.28 70.56
  Q 176.19 77.18 164.85 78.00"
/>
<path stroke="#a9feff" vector-effect="non-scaling-stroke" d="
  M 183.71 41.16
  A 20.61 20.61 0.0 0 0 163.10 20.55
  A 20.61 20.61 0.0 0 0 142.49 41.16
  A 20.61 20.61 0.0 0 0 163.10 61.77
  A 20.61 20.61 0.0 0 0 183.71 41.16"
/>
<path stroke="#a9feff" vector-effect="non-scaling-stroke" d="
  M 70.38 78.00
  L 58.79 77.87
  A 1.07 1.06 1.1 0 1 57.74 76.79
  L 57.80 72.77
  A 0.82 0.82 0.0 0 0 56.50 72.10
  C 50.84 76.25 45.13 77.06 38.36 78.00"
/>
<path stroke="#a9feff" vector-effect="non-scaling-stroke" d="
  M 33.91 78.00
  C 15.95 75.99 2.79 63.41 0.00 45.31"
/>
<path stroke="#a9feff" vector-effect="non-scaling-stroke" d="
  M 56.5291 34.3957
  A 20.69 20.42 -19.2 0 0 30.2745 21.9158
  A 20.69 20.42 -19.2 0 0 17.4509 48.0043
  A 20.69 20.42 -19.2 0 0 43.7055 60.4842
  A 20.69 20.42 -19.2 0 0 56.5291 34.3957"
/>
</g>
<path fill="#ffffff" d="
  M 0.00 0.00
  L 113.76 0.00
  Q 107.79 0.62 101.99 3.49
  Q 87.09 10.88 82.40 25.76
  Q 80.81 30.82 80.81 38.46
  Q 80.80 56.94 80.87 76.94
  A 0.90 0.89 1.0 0 0 81.74 77.83
  L 88.89 78.00
  L 70.99 78.00
  L 73.12 77.80
  A 0.89 0.88 -2.9 0 0 73.92 76.92
  Q 74.17 54.41 73.83 38.43
  Q 73.71 33.24 71.11 27.20
  C 65.45 14.07 53.38 5.54 39.20 4.52
  C 21.53 3.24 6.25 14.75 0.99 31.76
  Q 0.66 32.82 0.00 36.89
  L 0.00 0.00
  Z"
/>
<path fill="#53fdff" d="
  M 113.76 0.00
  L 118.94 0.00
  L 119.25 15.09
  A 0.85 0.84 -1.0 0 1 118.41 15.95
  C 109.40 16.09 101.65 21.13 98.56 29.46
  Q 97.38 32.64 97.30 40.75
  Q 97.12 59.38 97.17 78.00
  L 88.89 78.00
  L 81.74 77.83
  A 0.90 0.89 1.0 0 1 80.87 76.94
  Q 80.80 56.94 80.81 38.46
  Q 80.81 30.82 82.40 25.76
  Q 87.09 10.88 101.99 3.49
  Q 107.79 0.62 113.76 0.00
  Z"
/>
<path fill="#ffffff" d="
  M 118.94 0.00
  L 126.05 0.00
  Q 126.00 16.93 126.00 33.86
  Q 126.00 45.61 127.49 50.98
  Q 131.36 64.97 144.18 72.84
  Q 150.77 76.89 159.87 78.00
  L 97.17 78.00
  Q 97.12 59.38 97.30 40.75
  Q 97.38 32.64 98.56 29.46
  C 101.65 21.13 109.40 16.09 118.41 15.95
  A 0.85 0.84 -1.0 0 0 119.25 15.09
  L 118.94 0.00
  Z"
/>
<path fill="#53fdff" d="
  M 126.05 0.00
  L 142.10 0.00
  L 142.54 9.67
  Q 142.57 10.32 143.16 10.02
  C 146.43 8.34 150.10 6.46 153.60 5.66
  Q 174.40 0.92 189.29 15.21
  Q 198.18 23.73 200.00 36.82
  L 200.00 46.49
  Q 198.02 55.44 194.21 61.22
  Q 190.61 66.69 185.28 70.56
  Q 176.19 77.18 164.85 78.00
  L 159.87 78.00
  Q 150.77 76.89 144.18 72.84
  Q 131.36 64.97 127.49 50.98
  Q 126.00 45.61 126.00 33.86
  Q 126.00 16.93 126.05 0.00
  Z
  M 183.71 41.16
  A 20.61 20.61 0.0 0 0 163.10 20.55
  A 20.61 20.61 0.0 0 0 142.49 41.16
  A 20.61 20.61 0.0 0 0 163.10 61.77
  A 20.61 20.61 0.0 0 0 183.71 41.16
  Z"
/>
<path fill="#ffffff" d="
  M 142.10 0.00
  L 200.00 0.00
  L 200.00 36.82
  Q 198.18 23.73 189.29 15.21
  Q 174.40 0.92 153.60 5.66
  C 150.10 6.46 146.43 8.34 143.16 10.02
  Q 142.57 10.32 142.54 9.67
  L 142.10 0.00
  Z"
/>
<path fill="#53fdff" d="
  M 70.99 78.00
  L 70.38 78.00
  L 58.79 77.87
  A 1.07 1.06 1.1 0 1 57.74 76.79
  L 57.80 72.77
  A 0.82 0.82 0.0 0 0 56.50 72.10
  C 50.84 76.25 45.13 77.06 38.36 78.00
  L 33.91 78.00
  C 15.95 75.99 2.79 63.41 0.00 45.31
  L 0.00 36.89
  Q 0.66 32.82 0.99 31.76
  C 6.25 14.75 21.53 3.24 39.20 4.52
  C 53.38 5.54 65.45 14.07 71.11 27.20
  Q 73.71 33.24 73.83 38.43
  Q 74.17 54.41 73.92 76.92
  A 0.89 0.88 -2.9 0 1 73.12 77.80
  L 70.99 78.00
  Z
  M 56.5291 34.3957
  A 20.69 20.42 -19.2 0 0 30.2745 21.9158
  A 20.69 20.42 -19.2 0 0 17.4509 48.0043
  A 20.69 20.42 -19.2 0 0 43.7055 60.4842
  A 20.69 20.42 -19.2 0 0 56.5291 34.3957
  Z"
/>
<ellipse fill="#ffffff" cx="0.00" cy="0.00" transform="translate(36.99,41.20) rotate(-19.2)" rx="20.69" ry="20.42"/>
<circle fill="#ffffff" cx="163.10" cy="41.16" r="20.61"/>
<path fill="#ffffff" d="
  M 0.00 45.31
  C 2.79 63.41 15.95 75.99 33.91 78.00
  L 0.00 78.00
  L 0.00 45.31
  Z"
/>
<path fill="#ffffff" d="
  M 200.00 46.49
  L 200.00 78.00
  L 164.85 78.00
  Q 176.19 77.18 185.28 70.56
  Q 190.61 66.69 194.21 61.22
  Q 198.02 55.44 200.00 46.49
  Z"
/>
<path fill="#ffffff" d="
  M 70.38 78.00
  L 38.36 78.00
  C 45.13 77.06 50.84 76.25 56.50 72.10
  A 0.82 0.82 0.0 0 1 57.80 72.77
  L 57.74 76.79
  A 1.07 1.06 1.1 0 0 58.79 77.87
  L 70.38 78.00
  Z"
/>
</svg>
