<?xml version="1.0" encoding="UTF-8" standalone="no"?>
<!DOCTYPE svg PUBLIC "-//W3C//DTD SVG 1.1//EN" "http://www.w3.org/Graphics/SVG/1.1/DTD/svg11.dtd">
<svg xmlns="http://www.w3.org/2000/svg" version="1.1" viewBox="0.00 0.00 225.00 151.00">
<g stroke-width="2.00" fill="none" stroke-linecap="butt">
<path stroke="#d49498" vector-effect="non-scaling-stroke" d="
  M 107.68 37.52
  L 110.10 47.52"
/>
<path stroke="#b9dfac" vector-effect="non-scaling-stroke" d="
  M 110.10 47.52
  Q 110.02 57.97 106.74 66.45
  A 0.49 0.49 0.0 0 1 105.84 66.47
  Q 104.90 64.37 102.73 63.64
  Q 102.23 63.47 101.92 63.04
  L 101.06 61.84
  A 0.47 0.47 0.0 0 0 100.27 61.88
  L 99.80 62.69
  Q 99.46 63.29 98.89 63.67
  Q 95.04 66.21 92.65 69.88
  Q 92.32 70.38 91.78 70.12
  Q 89.67 69.10 86.80 69.11
  Q 86.20 69.11 86.36 69.69
  C 87.04 72.12 85.29 73.46 86.73 76.11
  A 0.57 0.57 0.0 0 1 86.47 76.90
  L 85.73 77.26
  Q 85.09 77.57 85.56 78.11
  Q 88.06 80.97 91.85 80.30
  A 0.32 0.31 85.7 0 1 92.22 80.63
  L 92.20 81.16
  A 0.32 0.32 0.0 0 1 91.81 81.47
  Q 88.82 80.84 86.55 83.34
  Q 85.47 84.54 87.03 84.94
  L 88.66 85.37
  Q 89.99 85.72 88.74 86.30
  Q 80.77 90.01 72.29 90.76
  C 66.66 91.26 60.46 90.17 55.09 89.30
  Q 45.23 87.71 36.85 81.40
  C 30.43 76.57 23.65 65.52 29.64 57.86
  Q 33.34 53.14 39.51 53.87
  Q 43.34 54.33 46.54 58.32
  Q 46.79 58.64 47.12 58.41
  L 47.36 58.24
  Q 47.53 58.12 47.42 57.95
  C 41.81 49.24 30.50 50.61 25.80 59.16
  C 23.66 63.07 24.23 68.26 25.86 72.39
  C 32.05 88.03 48.49 93.55 64.29 95.04
  Q 76.31 96.17 87.94 91.79
  Q 90.88 90.68 93.35 88.73
  Q 93.99 88.22 94.11 89.03
  L 94.31 90.37
  A 0.54 0.54 0.0 0 0 95.25 90.64
  Q 96.60 89.09 98.59 89.29
  Q 99.21 89.35 99.22 88.72
  L 99.24 86.26
  A 1.04 1.04 0.0 0 1 100.47 85.25
  Q 102.15 85.56 101.49 87.04
  Q 101.17 87.75 101.40 88.37
  Q 101.62 88.97 102.07 88.52
  Q 103.77 86.82 105.84 87.47
  A 1.76 1.76 0.0 0 0 107.14 87.37
  Q 108.33 86.79 109.64 86.61
  A 1.67 1.66 -71.1 0 0 110.63 86.12
  Q 111.69 85.03 113.19 84.95
  Q 114.61 84.88 113.44 84.06
  L 110.38 81.93
  Q 109.91 81.60 109.89 81.03
  Q 109.85 80.14 109.43 79.37
  Q 109.07 78.72 109.79 78.56
  C 112.58 77.92 111.79 73.26 113.57 71.27
  Q 114.24 70.52 113.23 70.50
  L 110.73 70.46
  Q 109.90 70.44 110.23 69.69
  Q 113.80 61.35 114.06 52.47"
/>
<path stroke="#d49498" vector-effect="non-scaling-stroke" d="
  M 114.06 52.47
  Q 121.90 59.85 132.30 58.20
  Q 132.89 58.10 133.13 57.55
  C 134.14 55.31 136.00 56.81 137.01 55.12
  Q 137.32 54.60 137.88 54.40
  C 142.05 52.95 143.99 58.99 147.82 56.09
  C 151.12 53.58 156.41 48.47 159.35 54.95
  Q 163.71 64.53 156.57 71.47
  Q 156.08 71.95 156.72 72.18
  Q 159.62 73.21 163.03 72.85
  Q 175.85 71.51 180.84 59.87
  C 183.53 53.59 182.61 45.49 178.60 39.86
  Q 172.44 31.23 160.91 31.00
  A 1.01 1.01 0.0 0 1 159.92 30.03
  Q 159.84 27.98 160.56 26.20
  Q 160.86 25.43 160.09 25.71
  Q 159.25 26.00 158.83 26.83
  Q 158.49 27.51 158.07 26.87
  L 157.64 26.21
  Q 156.92 25.11 156.33 26.29
  Q 156.13 26.67 156.21 27.12
  Q 156.36 27.94 155.65 27.50
  Q 155.21 27.22 154.98 26.69
  Q 154.90 26.50 154.74 26.37
  Q 154.16 25.91 154.01 26.64
  L 153.78 27.70
  Q 153.65 28.33 153.05 28.10
  Q 152.60 27.93 152.18 28.07
  Q 151.62 28.25 152.03 28.67
  Q 153.32 30.02 153.67 31.84
  A 0.76 0.76 0.0 0 1 153.36 32.60
  L 149.69 35.14
  Q 149.26 35.43 149.18 34.92
  Q 148.39 29.72 145.34 25.13
  A 1.29 1.29 0.0 0 1 145.88 23.24
  L 149.02 21.79
  Q 149.72 21.47 149.03 21.15
  Q 148.31 20.82 147.52 20.79
  Q 146.92 20.78 147.00 20.18
  Q 147.08 19.65 147.52 19.33
  Q 148.01 18.98 147.50 18.67
  Q 147.00 18.36 146.46 18.69
  Q 146.04 18.95 145.59 18.81
  Q 144.96 18.63 145.26 18.04
  Q 145.51 17.54 145.52 17.02
  Q 145.53 16.32 144.94 16.69
  L 143.95 17.31
  Q 143.40 17.66 143.10 17.08
  Q 142.92 16.73 142.88 16.32
  A 0.36 0.35 74.8 0 0 142.38 16.03
  Q 142.06 16.18 142.04 16.53
  Q 141.88 18.74 140.03 19.53
  Q 139.57 19.73 139.11 19.51
  Q 124.99 12.64 113.56 23.33
  Q 111.19 25.56 109.03 31.39"
/>
<path stroke="#b9dfac" vector-effect="non-scaling-stroke" d="
  M 109.03 31.39
  Q 106.22 26.12 102.02 22.69
  A 1.33 1.33 0.0 0 1 101.91 20.73
  Q 105.74 16.77 106.45 12.51
  A 0.67 0.67 0.0 0 0 105.64 11.75
  L 102.85 12.39
  A 1.91 1.90 -11.7 0 1 100.54 10.88
  C 99.88 7.25 99.31 3.11 94.01 5.25
  A 1.69 1.68 74.5 0 0 92.97 7.09
  L 93.21 8.54
  Q 93.35 9.37 92.83 8.71
  C 91.28 6.71 91.01 4.24 87.69 4.71
  Q 85.46 5.03 83.23 5.01
  Q 82.68 5.00 82.61 5.55
  Q 82.01 9.93 82.21 13.67
  Q 82.24 14.24 81.68 14.19
  C 65.34 12.72 52.49 18.63 48.10 35.50
  C 45.72 44.63 47.09 53.79 54.10 60.08
  C 58.63 64.13 65.75 65.63 71.57 65.73
  Q 83.72 65.96 89.63 55.94
  Q 92.91 50.38 90.25 43.83
  C 89.70 42.47 88.86 41.69 88.47 40.21
  Q 87.64 37.05 87.27 33.99
  Q 87.21 33.47 86.91 33.04
  L 85.62 31.22
  A 0.82 0.80 -50.5 0 1 85.55 30.41
  L 86.08 29.30
  Q 86.39 28.62 85.64 28.65
  Q 83.35 28.72 81.84 27.19
  A 0.50 0.49 31.1 0 0 81.01 27.39
  Q 80.27 29.82 77.85 29.59
  A 0.82 0.81 21.8 0 1 77.28 28.27
  L 78.62 26.59
  A 0.68 0.67 -71.4 0 0 78.08 25.49
  Q 76.61 25.53 75.66 24.53
  C 73.58 22.33 69.24 21.31 66.40 20.95
  A 0.30 0.30 0.0 0 0 66.08 21.34
  L 67.46 25.59
  A 0.61 0.59 49.9 0 1 67.43 26.05
  L 66.33 28.35
  Q 66.03 28.97 65.50 28.54
  Q 65.00 28.12 64.35 28.00
  Q 63.72 27.88 63.25 28.31
  Q 60.67 30.71 57.28 32.17
  A 0.35 0.35 0.0 0 0 57.19 32.75
  L 61.19 36.24
  Q 61.59 36.59 62.12 36.55
  L 64.96 36.35
  Q 65.76 36.29 65.02 36.61
  Q 60.43 38.60 60.49 42.44
  C 60.52 44.74 62.14 46.06 61.72 48.48
  Q 61.61 49.16 62.21 48.82
  Q 63.44 48.12 65.00 48.15
  Q 68.74 48.23 72.54 48.00
  Q 73.05 47.97 73.34 47.54
  Q 73.58 47.17 74.02 47.24
  Q 74.35 47.30 74.57 47.56
  Q 76.40 49.64 77.96 51.80
  Q 78.25 52.20 78.62 51.89
  Q 81.54 49.46 82.78 46.78
  Q 83.01 46.28 83.53 46.11
  Q 83.76 46.03 83.99 46.10
  Q 84.54 46.27 84.61 45.70
  Q 85.09 42.15 83.12 40.25
  Q 82.54 39.69 83.32 39.90
  Q 90.42 41.78 89.97 49.51
  C 89.61 55.80 85.57 59.93 79.86 62.34
  Q 77.70 63.25 75.39 63.37
  C 61.31 64.11 49.07 58.15 50.32 41.95
  C 51.22 30.32 58.38 20.42 70.22 18.36
  Q 74.47 17.63 79.34 17.91
  Q 80.20 17.96 79.52 18.48
  L 78.07 19.61
  Q 77.72 19.88 77.92 20.26
  Q 79.50 23.28 82.02 24.25
  Q 82.52 24.45 82.75 24.93
  Q 83.00 25.46 82.82 26.03
  Q 82.65 26.58 83.23 26.68
  Q 86.68 27.24 88.85 24.27
  Q 89.02 24.05 89.23 24.23
  L 89.50 24.46
  A 0.33 0.33 0.0 0 1 89.47 24.98
  Q 86.86 26.72 87.64 30.23
  Q 87.76 30.74 88.24 30.55
  L 89.26 30.14
  Q 89.75 29.94 90.29 29.96
  Q 93.18 30.09 95.49 28.99
  Q 95.96 28.76 96.45 28.90
  L 97.49 29.19
  Q 98.10 29.36 98.21 28.75
  L 98.60 26.56
  A 0.71 0.71 0.0 0 1 99.78 26.17
  Q 104.96 31.01 107.68 37.52"
/>
<path stroke="#8e7444" vector-effect="non-scaling-stroke" d="
  M 109.03 31.39
  L 107.68 37.52"
/>
<path stroke="#8e7444" vector-effect="non-scaling-stroke" d="
  M 114.06 52.47
  L 110.10 47.52"
/>
<path stroke="#cd9697" vector-effect="non-scaling-stroke" d="
  M 92.0109 41.0957
  A 3.17 3.04 106.1 0 0 95.8108 38.8930
  A 3.17 3.04 106.1 0 0 93.7691 35.0043
  A 3.17 3.04 106.1 0 0 89.9692 37.2070
  A 3.17 3.04 106.1 0 0 92.0109 41.0957"
/>
<path stroke="#d49498" vector-effect="non-scaling-stroke" d="
  M 103.81 40.78
  A 3.11 3.11 0.0 0 0 100.70 37.67
  A 3.11 3.11 0.0 0 0 97.59 40.78
  A 3.11 3.11 0.0 0 0 100.70 43.89
  A 3.11 3.11 0.0 0 0 103.81 40.78"
/>
<path stroke="#cd9697" vector-effect="non-scaling-stroke" d="
  M 98.22 45.23
  A 3.07 3.07 0.0 0 0 95.15 42.16
  A 3.07 3.07 0.0 0 0 92.08 45.23
  A 3.07 3.07 0.0 0 0 95.15 48.30
  A 3.07 3.07 0.0 0 0 98.22 45.23"
/>
<path stroke="#d49498" vector-effect="non-scaling-stroke" d="
  M 104.77 49.35
  A 3.09 3.09 0.0 0 0 101.68 46.26
  A 3.09 3.09 0.0 0 0 98.59 49.35
  A 3.09 3.09 0.0 0 0 101.68 52.44
  A 3.09 3.09 0.0 0 0 104.77 49.35"
/>
<path stroke="#cd9697" vector-effect="non-scaling-stroke" d="
  M 59.17 52.23
  A 3.10 3.10 0.0 0 0 56.07 49.13
  A 3.10 3.10 0.0 0 0 52.97 52.23
  A 3.10 3.10 0.0 0 0 56.07 55.33
  A 3.10 3.10 0.0 0 0 59.17 52.23"
/>
<path stroke="#cd9697" vector-effect="non-scaling-stroke" d="
  M 69.43 52.29
  A 3.06 3.06 0.0 0 0 66.37 49.23
  A 3.06 3.06 0.0 0 0 63.31 52.29
  A 3.06 3.06 0.0 0 0 66.37 55.35
  A 3.06 3.06 0.0 0 0 69.43 52.29"
/>
<path stroke="#d49498" vector-effect="non-scaling-stroke" d="
  M 76.91 53.01
  A 3.10 3.10 0.0 0 0 73.81 49.91
  A 3.10 3.10 0.0 0 0 70.71 53.01
  A 3.10 3.10 0.0 0 0 73.81 56.11
  A 3.10 3.10 0.0 0 0 76.91 53.01"
/>
<path stroke="#cd9697" vector-effect="non-scaling-stroke" d="
  M 97.92 53.00
  A 3.07 3.07 0.0 0 0 94.85 49.93
  A 3.07 3.07 0.0 0 0 91.78 53.00
  A 3.07 3.07 0.0 0 0 94.85 56.07
  A 3.07 3.07 0.0 0 0 97.92 53.00"
/>
<path stroke="#cd9697" vector-effect="non-scaling-stroke" d="
  M 85.78 55.74
  A 3.05 3.05 0.0 0 0 82.73 52.69
  A 3.05 3.05 0.0 0 0 79.68 55.74
  A 3.05 3.05 0.0 0 0 82.73 58.79
  A 3.05 3.05 0.0 0 0 85.78 55.74"
/>
<path stroke="#cd9697" vector-effect="non-scaling-stroke" d="
  M 64.47 57.04
  A 3.06 3.06 0.0 0 0 61.41 53.98
  A 3.06 3.06 0.0 0 0 58.35 57.04
  A 3.06 3.06 0.0 0 0 61.41 60.10
  A 3.06 3.06 0.0 0 0 64.47 57.04"
/>
<path stroke="#cd9697" vector-effect="non-scaling-stroke" d="
  M 157.22 57.64
  C 158.79 64.29 153.91 70.76 147.99 73.25
  Q 131.69 80.13 122.64 64.72
  Q 122.50 64.49 122.26 64.60
  L 121.95 64.72
  A 0.42 0.42 0.0 0 0 121.73 65.25
  Q 124.04 71.24 129.59 74.93
  C 140.05 81.87 159.15 74.59 159.25 60.89
  Q 159.28 57.16 157.75 54.75
  Q 156.76 53.19 156.85 55.03
  Q 156.91 56.33 157.22 57.64"
/>
<path stroke="#cd9697" vector-effect="non-scaling-stroke" d="
  M 154.2776 55.3361
  A 1.34 1.20 -32.7 0 0 152.5017 55.0502
  A 1.34 1.20 -32.7 0 0 152.0224 56.7839
  A 1.34 1.20 -32.7 0 0 153.7983 57.0698
  A 1.34 1.20 -32.7 0 0 154.2776 55.3361"
/>
<path stroke="#cd9697" vector-effect="non-scaling-stroke" d="
  M 139.57 56.88
  A 1.31 1.31 0.0 0 0 138.26 55.57
  A 1.31 1.31 0.0 0 0 136.95 56.88
  A 1.31 1.31 0.0 0 0 138.26 58.19
  A 1.31 1.31 0.0 0 0 139.57 56.88"
/>
<path stroke="#cd9697" vector-effect="non-scaling-stroke" d="
  M 71.57 59.45
  A 3.05 3.05 0.0 0 0 68.52 56.40
  A 3.05 3.05 0.0 0 0 65.47 59.45
  A 3.05 3.05 0.0 0 0 68.52 62.50
  A 3.05 3.05 0.0 0 0 71.57 59.45"
/>
<path stroke="#cd9697" vector-effect="non-scaling-stroke" d="
  M 79.26 59.42
  A 3.05 3.05 0.0 0 0 76.21 56.37
  A 3.05 3.05 0.0 0 0 73.16 59.42
  A 3.05 3.05 0.0 0 0 76.21 62.47
  A 3.05 3.05 0.0 0 0 79.26 59.42"
/>
<path stroke="#cd9697" vector-effect="non-scaling-stroke" d="
  M 144.62 60.45
  Q 145.22 60.00 145.56 59.33
  A 0.91 0.90 -77.9 0 0 144.71 58.01
  L 143.47 58.08
  Q 142.98 58.10 142.72 57.69
  Q 142.35 57.11 141.74 56.77
  Q 141.05 56.39 140.50 56.90
  Q 139.93 57.43 140.11 58.29
  Q 140.23 58.80 140.72 59.00
  Q 141.53 59.33 142.32 58.90
  Q 142.84 58.61 142.98 59.19
  Q 143.18 59.99 143.90 60.41
  A 0.52 0.52 0.0 0 1 144.09 61.10
  Q 144.01 61.25 143.86 61.32
  Q 143.32 61.59 143.16 62.17
  Q 142.91 63.09 143.69 63.73
  A 0.82 0.82 0.0 0 0 144.46 63.89
  Q 145.38 63.61 145.57 62.68
  Q 145.66 62.25 145.41 61.87
  Q 145.10 61.39 144.63 61.08
  Q 144.19 60.77 144.62 60.45"
/>
<path stroke="#cd9697" vector-effect="non-scaling-stroke" d="
  M 148.75 61.18
  Q 149.49 61.70 150.06 62.56
  Q 150.35 63.01 150.86 62.83
  Q 151.56 62.58 151.89 61.96
  Q 152.21 61.36 151.74 60.86
  L 151.04 60.11
  Q 150.62 59.66 151.08 59.25
  L 151.31 59.05
  Q 151.73 58.67 151.69 58.11
  Q 151.60 56.97 150.09 56.86
  A 1.07 1.06 -84.7 0 0 148.95 57.81
  Q 148.85 58.84 149.83 59.30
  A 0.64 0.63 34.6 0 1 150.02 60.32
  L 149.76 60.58
  Q 149.46 60.88 149.14 60.59
  L 147.63 59.18
  Q 147.23 58.80 146.77 59.09
  Q 146.25 59.40 146.07 59.99
  A 1.16 1.15 35.5 0 0 146.24 60.99
  L 147.11 62.22
  A 0.49 0.47 50.5 0 1 147.06 62.84
  L 146.85 63.05
  Q 146.48 63.41 146.61 63.92
  Q 146.80 64.61 147.39 64.93
  A 0.96 0.94 -55.3 0 0 148.55 64.71
  Q 149.02 64.17 148.96 63.46
  Q 148.92 62.94 148.52 62.60
  Q 148.04 62.18 148.08 61.50
  Q 148.12 60.74 148.75 61.18"
/>
<path stroke="#cd9697" vector-effect="non-scaling-stroke" d="
  M 136.78 58.51
  A 1.39 1.39 0.0 0 0 135.39 57.12
  A 1.39 1.39 0.0 0 0 134.00 58.51
  A 1.39 1.39 0.0 0 0 135.39 59.90
  A 1.39 1.39 0.0 0 0 136.78 58.51"
/>
<path stroke="#cd9697" vector-effect="non-scaling-stroke" d="
  M 95.36 60.57
  A 3.10 3.10 0.0 0 0 92.26 57.47
  A 3.10 3.10 0.0 0 0 89.16 60.57
  A 3.10 3.10 0.0 0 0 92.26 63.67
  A 3.10 3.10 0.0 0 0 95.36 60.57"
/>
<path stroke="#cd9697" vector-effect="non-scaling-stroke" d="
  M 154.83 59.59
  A 1.34 1.34 0.0 0 0 153.49 58.25
  A 1.34 1.34 0.0 0 0 152.15 59.59
  A 1.34 1.34 0.0 0 0 153.49 60.93
  A 1.34 1.34 0.0 0 0 154.83 59.59"
/>
<path stroke="#cd9697" vector-effect="non-scaling-stroke" d="
  M 139.35 59.98
  A 1.23 1.23 0.0 0 0 138.12 58.75
  A 1.23 1.23 0.0 0 0 136.89 59.98
  A 1.23 1.23 0.0 0 0 138.12 61.21
  A 1.23 1.23 0.0 0 0 139.35 59.98"
/>
<path stroke="#cd9697" vector-effect="non-scaling-stroke" d="
  M 132.60 59.06
  L 131.06 59.58
  A 0.42 0.42 0.0 0 0 130.80 60.11
  L 130.86 60.31
  A 2.09 1.12 71.5 0 0 132.59 61.93
  L 132.80 61.86
  A 2.09 1.12 71.5 0 0 133.19 59.53
  L 133.13 59.33
  A 0.42 0.42 0.0 0 0 132.60 59.06"
/>
<path stroke="#cd9697" vector-effect="non-scaling-stroke" d="
  M 142.20 61.38
  A 1.25 1.25 0.0 0 0 140.95 60.13
  A 1.25 1.25 0.0 0 0 139.70 61.38
  A 1.25 1.25 0.0 0 0 140.95 62.63
  A 1.25 1.25 0.0 0 0 142.20 61.38"
/>
<path stroke="#cd9697" vector-effect="non-scaling-stroke" d="
  M 130.16 62.07
  A 1.25 1.25 0.0 0 0 128.91 60.82
  A 1.25 1.25 0.0 0 0 127.66 62.07
  A 1.25 1.25 0.0 0 0 128.91 63.32
  A 1.25 1.25 0.0 0 0 130.16 62.07"
/>
<path stroke="#cd9697" vector-effect="non-scaling-stroke" d="
  M 136.65 62.00
  A 1.30 1.30 0.0 0 0 135.35 60.70
  A 1.30 1.30 0.0 0 0 134.05 62.00
  A 1.30 1.30 0.0 0 0 135.35 63.30
  A 1.30 1.30 0.0 0 0 136.65 62.00"
/>
<path stroke="#cd9697" vector-effect="non-scaling-stroke" d="
  M 155.04 63.25
  A 1.33 1.33 0.0 0 0 153.71 61.92
  A 1.33 1.33 0.0 0 0 152.38 63.25
  A 1.33 1.33 0.0 0 0 153.71 64.58
  A 1.33 1.33 0.0 0 0 155.04 63.25"
/>
<path stroke="#cd9697" vector-effect="non-scaling-stroke" d="
  M 137.6409 65.0051
  A 1.51 1.17 109.3 0 0 139.2442 63.9667
  A 1.51 1.17 109.3 0 0 138.6391 62.1549
  A 1.51 1.17 109.3 0 0 137.0358 63.1933
  A 1.51 1.17 109.3 0 0 137.6409 65.0051"
/>
<path stroke="#cd9697" vector-effect="non-scaling-stroke" d="
  M 133.58 63.86
  A 1.34 1.34 0.0 0 0 132.24 62.52
  A 1.34 1.34 0.0 0 0 130.90 63.86
  A 1.34 1.34 0.0 0 0 132.24 65.20
  A 1.34 1.34 0.0 0 0 133.58 63.86"
/>
<path stroke="#cd9697" vector-effect="non-scaling-stroke" d="
  M 127.03 64.29
  A 1.34 1.34 0.0 0 0 125.69 62.95
  A 1.34 1.34 0.0 0 0 124.35 64.29
  A 1.34 1.34 0.0 0 0 125.69 65.63
  A 1.34 1.34 0.0 0 0 127.03 64.29"
/>
<path stroke="#cd9697" vector-effect="non-scaling-stroke" d="
  M 142.65 65.03
  A 1.26 1.26 0.0 0 0 141.39 63.77
  A 1.26 1.26 0.0 0 0 140.13 65.03
  A 1.26 1.26 0.0 0 0 141.39 66.29
  A 1.26 1.26 0.0 0 0 142.65 65.03"
/>
<path stroke="#cd9697" vector-effect="non-scaling-stroke" d="
  M 136.44 65.50
  A 1.28 1.28 0.0 0 0 135.16 64.22
  A 1.28 1.28 0.0 0 0 133.88 65.50
  A 1.28 1.28 0.0 0 0 135.16 66.78
  A 1.28 1.28 0.0 0 0 136.44 65.50"
/>
<path stroke="#cd9697" vector-effect="non-scaling-stroke" d="
  M 151.54 66.72
  Q 152.39 65.96 152.23 64.82
  A 0.76 0.75 8.0 0 0 151.79 64.24
  Q 150.92 63.88 150.26 64.40
  Q 149.70 64.86 149.90 65.64
  Q 150.09 66.38 150.64 66.89
  Q 151.02 67.26 150.56 67.50
  Q 149.87 67.87 149.96 68.63
  Q 150.11 69.95 151.43 70.06
  A 0.79 0.78 11.9 0 0 152.24 69.54
  Q 152.78 68.08 151.58 67.27
  Q 151.21 67.02 151.54 66.72"
/>
<path stroke="#cd9697" vector-effect="non-scaling-stroke" d="
  M 128.85 67.83
  L 128.48 68.13
  Q 128.00 68.51 128.03 69.12
  Q 128.10 70.18 129.37 70.45
  A 1.05 1.05 0.0 0 0 130.56 69.80
  Q 130.96 68.76 129.97 67.97
  Q 129.51 67.62 129.79 67.11
  Q 130.37 66.09 130.04 64.89
  Q 129.93 64.47 129.49 64.43
  C 127.85 64.32 127.36 66.35 128.76 67.02
  Q 129.46 67.35 128.85 67.83"
/>
<path stroke="#cd9697" vector-effect="non-scaling-stroke" d="
  M 146.16 66.06
  A 1.29 1.29 0.0 0 0 144.87 64.77
  A 1.29 1.29 0.0 0 0 143.58 66.06
  A 1.29 1.29 0.0 0 0 144.87 67.35
  A 1.29 1.29 0.0 0 0 146.16 66.06"
/>
<path stroke="#cd9697" vector-effect="non-scaling-stroke" d="
  M 60.80 68.45
  A 3.08 3.08 0.0 0 0 57.72 65.37
  A 3.08 3.08 0.0 0 0 54.64 68.45
  A 3.08 3.08 0.0 0 0 57.72 71.53
  A 3.08 3.08 0.0 0 0 60.80 68.45"
/>
<path stroke="#cd9697" vector-effect="non-scaling-stroke" d="
  M 139.82 66.94
  A 1.30 1.30 0.0 0 0 138.52 65.64
  A 1.30 1.30 0.0 0 0 137.22 66.94
  A 1.30 1.30 0.0 0 0 138.52 68.24
  A 1.30 1.30 0.0 0 0 139.82 66.94"
/>
<path stroke="#cd9697" vector-effect="non-scaling-stroke" d="
  M 133.50 66.97
  A 1.28 1.28 0.0 0 0 132.22 65.69
  A 1.28 1.28 0.0 0 0 130.94 66.97
  A 1.28 1.28 0.0 0 0 132.22 68.25
  A 1.28 1.28 0.0 0 0 133.50 66.97"
/>
<path stroke="#cd9697" vector-effect="non-scaling-stroke" d="
  M 147.75 69.75
  L 147.33 70.10
  A 0.94 0.93 64.0 0 0 147.01 71.05
  Q 147.30 72.24 148.69 72.01
  A 1.07 1.06 88.0 0 0 149.58 71.04
  Q 149.66 70.09 149.03 69.76
  Q 148.67 69.58 148.84 69.21
  Q 149.29 68.22 149.24 67.05
  A 1.01 1.01 0.0 0 0 147.71 66.22
  C 146.76 66.80 146.72 68.21 147.70 68.82
  Q 148.38 69.25 147.75 69.75"
/>
<path stroke="#cd9697" vector-effect="non-scaling-stroke" d="
  M 68.15 69.59
  A 3.05 3.05 0.0 0 0 65.10 66.54
  A 3.05 3.05 0.0 0 0 62.05 69.59
  A 3.05 3.05 0.0 0 0 65.10 72.64
  A 3.05 3.05 0.0 0 0 68.15 69.59"
/>
<path stroke="#cd9697" vector-effect="non-scaling-stroke" d="
  M 84.40 69.73
  A 3.05 3.05 0.0 0 0 81.35 66.68
  A 3.05 3.05 0.0 0 0 78.30 69.73
  A 3.05 3.05 0.0 0 0 81.35 72.78
  A 3.05 3.05 0.0 0 0 84.40 69.73"
/>
<path stroke="#cd9697" vector-effect="non-scaling-stroke" d="
  M 76.51 70.13
  A 3.06 3.06 0.0 0 0 73.45 67.07
  A 3.06 3.06 0.0 0 0 70.39 70.13
  A 3.06 3.06 0.0 0 0 73.45 73.19
  A 3.06 3.06 0.0 0 0 76.51 70.13"
/>
<path stroke="#cd9697" vector-effect="non-scaling-stroke" d="
  M 143.0662 68.2222
  A 0.87 0.87 0.0 0 0 142.2461 67.3050
  L 141.7868 67.2793
  A 0.87 0.87 0.0 0 0 140.8696 68.0994
  L 140.8138 69.0978
  A 0.87 0.87 0.0 0 0 141.6339 70.0150
  L 142.0932 70.0407
  A 0.87 0.87 0.0 0 0 143.0104 69.2206
  L 143.0662 68.2222"
/>
<path stroke="#cd9697" vector-effect="non-scaling-stroke" d="
  M 136.60 68.95
  A 1.31 1.31 0.0 0 0 135.29 67.64
  A 1.31 1.31 0.0 0 0 133.98 68.95
  A 1.31 1.31 0.0 0 0 135.29 70.26
  A 1.31 1.31 0.0 0 0 136.60 68.95"
/>
<path stroke="#cd9697" vector-effect="non-scaling-stroke" d="
  M 146.42 69.82
  A 1.29 1.29 0.0 0 0 145.13 68.53
  A 1.29 1.29 0.0 0 0 143.84 69.82
  A 1.29 1.29 0.0 0 0 145.13 71.11
  A 1.29 1.29 0.0 0 0 146.42 69.82"
/>
<path stroke="#cd9697" vector-effect="non-scaling-stroke" d="
  M 140.07 70.56
  A 1.30 1.30 0.0 0 0 138.77 69.26
  A 1.30 1.30 0.0 0 0 137.47 70.56
  A 1.30 1.30 0.0 0 0 138.77 71.86
  A 1.30 1.30 0.0 0 0 140.07 70.56"
/>
<path stroke="#cd9697" vector-effect="non-scaling-stroke" d="
  M 133.66 70.93
  A 1.34 1.34 0.0 0 0 132.32 69.59
  A 1.34 1.34 0.0 0 0 130.98 70.93
  A 1.34 1.34 0.0 0 0 132.32 72.27
  A 1.34 1.34 0.0 0 0 133.66 70.93"
/>
<path stroke="#cd9697" vector-effect="non-scaling-stroke" d="
  M 143.4012 71.4600
  A 1.41 1.28 -33.1 0 0 141.5210 71.1577
  A 1.41 1.28 -33.1 0 0 141.0388 73.0000
  A 1.41 1.28 -33.1 0 0 142.9190 73.3023
  A 1.41 1.28 -33.1 0 0 143.4012 71.4600"
/>
<path stroke="#cd9697" vector-effect="non-scaling-stroke" d="
  M 63.91 75.59
  A 3.06 3.06 0.0 0 0 60.85 72.53
  A 3.06 3.06 0.0 0 0 57.79 75.59
  A 3.06 3.06 0.0 0 0 60.85 78.65
  A 3.06 3.06 0.0 0 0 63.91 75.59"
/>
<path stroke="#cd9697" vector-effect="non-scaling-stroke" d="
  M 72.18 75.88
  A 3.05 3.05 0.0 0 0 69.13 72.83
  A 3.05 3.05 0.0 0 0 66.08 75.88
  A 3.05 3.05 0.0 0 0 69.13 78.93
  A 3.05 3.05 0.0 0 0 72.18 75.88"
/>
<path stroke="#cd9697" vector-effect="non-scaling-stroke" d="
  M 80.91 76.17
  A 3.10 3.10 0.0 0 0 77.81 73.07
  A 3.10 3.10 0.0 0 0 74.71 76.17
  A 3.10 3.10 0.0 0 0 77.81 79.27
  A 3.10 3.10 0.0 0 0 80.91 76.17"
/>
<path stroke="#cd9697" vector-effect="non-scaling-stroke" d="
  M 67.63 81.74
  A 3.02 3.02 0.0 0 0 64.61 78.72
  A 3.02 3.02 0.0 0 0 61.59 81.74
  A 3.02 3.02 0.0 0 0 64.61 84.76
  A 3.02 3.02 0.0 0 0 67.63 81.74"
/>
<path stroke="#cd9697" vector-effect="non-scaling-stroke" d="
  M 76.52 82.20
  A 3.06 3.06 0.0 0 0 73.46 79.14
  A 3.06 3.06 0.0 0 0 70.40 82.20
  A 3.06 3.06 0.0 0 0 73.46 85.26
  A 3.06 3.06 0.0 0 0 76.52 82.20"
/>
<path stroke="#cd9697" vector-effect="non-scaling-stroke" d="
  M 218.10 96.07
  L 218.47 95.76
  Q 218.73 95.55 218.43 95.39
  Q 204.29 88.20 189.18 84.75
  C 174.45 81.39 158.64 81.85 143.92 85.08
  C 122.53 89.78 102.46 98.97 81.28 103.78
  Q 51.94 110.44 23.71 101.53
  Q 15.70 99.00 8.13 95.82
  Q 7.95 95.75 7.86 95.93
  L 7.71 96.24
  A 0.27 0.26 26.6 0 0 7.83 96.59
  Q 25.52 106.21 44.54 109.22
  Q 58.36 111.41 73.46 109.40
  C 99.96 105.86 124.00 93.30 150.32 88.11
  Q 183.89 81.48 217.71 96.13
  A 0.38 0.37 -52.9 0 0 218.10 96.07"
/>
<path stroke="#cd9697" vector-effect="non-scaling-stroke" d="
  M 71.80 87.16
  A 3.05 3.05 0.0 0 0 68.75 84.11
  A 3.05 3.05 0.0 0 0 65.70 87.16
  A 3.05 3.05 0.0 0 0 68.75 90.21
  A 3.05 3.05 0.0 0 0 71.80 87.16"
/>
<path stroke="#888886" vector-effect="non-scaling-stroke" d="
  M 173.77 95.72
  Q 177.30 95.27 177.60 98.44
  Q 177.66 99.04 178.26 99.19
  A 0.33 0.33 0.0 0 0 178.67 98.90
  L 179.22 93.22
  A 0.40 0.40 0.0 0 0 178.57 92.88
  L 177.63 93.69
  Q 177.23 94.03 176.71 94.01
  L 166.36 93.55
  Q 165.60 93.52 164.99 93.07
  L 164.51 92.71
  Q 163.90 92.25 163.79 93.00
  Q 163.45 95.52 163.33 97.60
  Q 163.21 99.73 164.36 97.94
  Q 164.86 97.16 165.21 96.31
  Q 165.45 95.73 166.08 95.61
  Q 167.51 95.34 168.70 95.75
  Q 169.33 95.97 169.26 96.64
  Q 168.67 102.48 168.75 108.46
  Q 168.76 109.03 168.32 109.40
  Q 167.53 110.05 166.52 110.56
  Q 165.96 110.84 165.84 111.38
  A 0.56 0.55 7.4 0 0 166.36 112.05
  L 174.28 112.30
  A 0.37 0.35 27.4 0 0 174.48 112.24
  Q 174.93 111.93 174.83 111.56
  Q 174.69 111.04 174.19 110.86
  C 172.14 110.13 172.52 108.41 172.53 106.58
  Q 172.56 101.58 173.16 96.34
  Q 173.22 95.79 173.77 95.72"
/>
<path stroke="#888886" vector-effect="non-scaling-stroke" d="
  M 150.97 110.58
  Q 150.92 109.25 151.32 108.01
  A 0.82 0.81 -83.2 0 1 152.01 107.46
  L 155.20 107.20
  A 1.21 1.20 67.7 0 1 156.22 107.63
  Q 157.76 109.51 156.48 111.20
  Q 155.00 113.15 157.39 112.61
  Q 160.21 111.98 163.14 112.15
  Q 163.57 112.17 163.73 111.77
  Q 164.01 111.07 163.31 110.75
  Q 161.38 109.86 160.40 107.63
  Q 157.33 100.66 154.72 94.41
  A 0.57 0.57 0.0 0 0 153.94 94.12
  Q 152.08 95.03 151.75 97.00
  Q 150.66 103.44 149.25 109.62
  Q 148.83 111.47 147.26 112.51
  Q 146.85 112.78 146.90 113.18
  A 0.65 0.65 0.0 0 0 147.62 113.73
  L 152.68 113.02
  Q 152.97 112.98 153.04 112.70
  Q 153.11 112.46 152.98 112.15
  A 0.65 0.62 89.4 0 0 152.65 111.81
  L 151.52 111.36
  Q 150.99 111.15 150.97 110.58"
/>
<path stroke="#888886" vector-effect="non-scaling-stroke" d="
  M 183.61 107.72
  L 186.64 108.35
  Q 187.32 108.49 187.58 109.13
  Q 188.52 111.43 186.49 112.81
  Q 185.06 113.77 186.76 114.07
  L 193.00 115.15
  Q 194.76 115.45 193.53 114.15
  Q 191.98 112.52 191.75 110.98
  Q 190.67 103.56 189.78 95.83
  Q 189.66 94.84 188.78 95.30
  C 187.57 95.93 186.49 96.83 185.88 98.08
  Q 183.58 102.88 180.71 108.27
  Q 179.69 110.18 178.10 110.93
  Q 175.68 112.08 178.31 112.55
  Q 180.23 112.89 182.17 113.12
  Q 184.22 113.36 182.70 111.97
  Q 180.97 110.39 182.71 108.07
  Q 183.05 107.61 183.61 107.72"
/>
<path stroke="#888886" vector-effect="non-scaling-stroke" d="
  M 131.45 105.38
  Q 131.20 104.20 132.11 104.99
  Q 137.92 109.96 143.42 114.71
  Q 144.13 115.33 144.78 114.66
  A 0.84 0.81 62.2 0 0 145.00 113.91
  L 141.68 98.76
  Q 141.54 98.13 142.14 97.90
  Q 142.70 97.69 142.90 97.05
  Q 143.44 95.31 141.76 96.04
  Q 139.76 96.91 137.85 97.03
  A 0.71 0.69 -76.5 0 0 137.28 97.39
  Q 137.12 97.69 137.25 98.00
  Q 137.43 98.42 137.88 98.48
  Q 140.01 98.72 140.59 100.94
  C 141.09 102.91 141.74 105.06 141.87 107.02
  Q 141.92 107.81 141.29 107.33
  Q 136.98 103.98 132.34 99.84
  C 130.70 98.36 128.09 99.34 126.25 99.87
  Q 125.65 100.04 125.93 100.59
  Q 126.17 101.08 126.73 101.10
  C 128.07 101.14 129.24 101.77 129.55 103.13
  Q 130.91 109.11 131.85 114.48
  A 1.57 1.56 71.2 0 1 131.04 116.14
  Q 130.50 116.43 130.24 116.99
  Q 129.83 117.85 130.76 117.66
  Q 133.02 117.21 135.02 116.70
  Q 137.89 115.97 135.09 115.01
  Q 133.88 114.60 133.54 113.33
  C 132.81 110.66 132.01 108.04 131.45 105.38"
/>
<path stroke="#888886" vector-effect="non-scaling-stroke" d="
  M 100.79 121.43
  Q 99.43 117.82 102.28 120.42
  C 105.32 123.20 108.50 127.44 112.72 123.45
  Q 113.07 123.13 113.54 123.21
  Q 114.30 123.35 114.97 122.97
  C 116.10 122.33 117.06 122.30 118.29 122.09
  Q 118.97 121.97 119.02 121.28
  Q 119.05 120.69 118.47 120.60
  Q 116.09 120.20 116.53 117.18
  Q 116.63 116.45 117.34 116.24
  L 120.25 115.37
  Q 120.96 115.16 121.50 115.68
  Q 123.21 117.33 122.33 118.96
  Q 121.32 120.82 123.34 120.19
  L 129.11 118.38
  Q 129.30 118.32 129.40 118.13
  Q 129.48 117.98 129.43 117.81
  Q 129.25 117.21 128.64 117.10
  Q 127.09 116.82 126.07 115.45
  Q 121.19 108.90 116.98 102.72
  A 0.48 0.48 0.0 0 0 116.19 102.71
  Q 114.61 104.87 114.69 107.28
  Q 114.90 113.22 114.85 119.14
  C 114.83 120.65 113.95 121.84 112.92 122.83
  Q 112.48 123.26 111.92 123.02
  Q 107.79 121.27 104.85 117.29
  Q 104.50 116.81 104.80 116.31
  C 107.21 112.11 103.95 107.01 99.01 108.86
  Q 95.78 110.07 92.73 111.21
  Q 90.81 111.93 92.74 112.61
  Q 93.25 112.78 93.72 112.96
  Q 94.28 113.18 94.48 113.74
  Q 96.48 119.17 98.24 125.03
  C 98.56 126.09 98.05 126.96 97.44 127.80
  Q 97.20 128.12 97.26 128.50
  Q 97.34 129.05 97.86 128.87
  L 104.03 126.76
  A 0.58 0.58 0.0 0 0 104.13 125.71
  L 102.67 124.87
  Q 102.23 124.62 102.00 124.17
  Q 101.31 122.80 100.79 121.43"
/>
<path stroke="#888886" vector-effect="non-scaling-stroke" d="
  M 91.76 122.95
  Q 92.08 122.62 92.28 122.18
  Q 92.85 120.92 91.51 121.27
  L 85.90 122.75
  Q 84.26 123.18 85.75 124.00
  Q 86.21 124.26 86.77 124.32
  A 1.28 1.27 -7.5 0 1 87.83 125.13
  Q 88.64 127.26 88.81 129.12
  A 1.53 1.52 -3.1 0 1 87.31 130.79
  C 80.83 130.86 76.45 115.38 84.47 114.76
  C 86.00 114.64 87.35 115.88 88.25 116.98
  Q 90.64 119.88 89.60 116.28
  Q 89.21 114.94 88.54 113.79
  Q 88.23 113.26 87.62 113.20
  Q 78.62 112.31 76.42 120.19
  C 75.19 124.61 78.10 131.27 82.83 132.38
  C 86.14 133.16 89.50 132.31 91.97 129.97
  Q 92.88 129.10 92.44 127.89
  Q 91.76 126.02 91.42 124.10
  Q 91.30 123.44 91.76 122.95"
/>
<path stroke="#888886" vector-effect="non-scaling-stroke" d="
  M 38.70 133.22
  Q 37.95 133.56 37.45 134.18
  A 0.56 0.56 0.0 0 0 37.84 135.09
  Q 41.00 135.33 44.00 136.04
  Q 46.62 136.67 44.67 134.81
  Q 43.55 133.75 43.33 132.30
  Q 42.14 124.54 41.24 116.62
  A 0.49 0.48 77.2 0 0 40.60 116.21
  C 39.58 116.57 38.41 117.05 37.91 118.09
  Q 34.75 124.61 31.41 130.42
  C 30.95 131.24 30.37 131.32 29.62 131.69
  Q 26.93 133.01 29.89 133.47
  Q 31.72 133.76 33.75 134.19
  Q 34.21 134.29 34.49 133.94
  Q 34.84 133.48 34.39 133.12
  Q 32.39 131.53 34.08 129.17
  Q 34.41 128.71 34.96 128.81
  L 38.38 129.43
  A 0.95 0.95 0.0 0 1 39.16 130.29
  L 39.32 132.17
  Q 39.38 132.91 38.70 133.22"
/>
<path stroke="#888886" vector-effect="non-scaling-stroke" d="
  M 55.95 119.97
  Q 56.90 119.99 56.52 120.86
  Q 53.40 128.17 49.22 135.54
  A 0.64 0.64 0.0 0 0 49.78 136.49
  L 61.01 136.47
  Q 61.68 136.47 62.06 135.92
  Q 63.04 134.49 63.37 132.76
  Q 64.09 129.02 61.94 132.17
  Q 61.30 133.11 60.67 134.01
  Q 60.27 134.56 59.59 134.56
  L 55.47 134.56
  A 0.63 0.63 0.0 0 1 54.90 133.67
  L 61.85 118.83
  A 0.57 0.56 -77.3 0 0 61.35 118.03
  L 50.39 117.89
  Q 49.91 117.88 49.80 118.35
  L 48.83 122.50
  Q 48.68 123.17 49.36 123.19
  Q 49.89 123.20 50.14 122.71
  Q 50.79 121.42 51.69 120.34
  Q 52.05 119.91 52.62 119.92
  L 55.95 119.97"
/>
<path stroke="#cd9697" vector-effect="non-scaling-stroke" d="
  M 208.25 128.21
  Q 174.83 113.14 138.35 122.13
  C 121.15 126.36 104.72 132.80 88.10 137.77
  Q 50.11 149.13 14.12 135.45
  Q 9.74 133.79 5.24 131.96
  Q 4.96 131.84 4.85 132.13
  L 4.75 132.43
  Q 4.70 132.57 4.83 132.65
  Q 23.85 142.90 43.43 145.76
  C 69.86 149.63 95.22 140.83 119.79 132.22
  C 140.43 124.99 161.99 120.20 183.55 123.39
  Q 199.86 125.81 215.36 132.53
  Q 215.67 132.67 215.76 132.34
  L 215.89 131.86
  A 0.35 0.34 19.1 0 0 215.69 131.46
  Q 211.83 129.83 208.25 128.21"
/>
<path stroke="#888886" vector-effect="non-scaling-stroke" d="
  M 67.46 128.10
  A 0.62 0.62 0.0 0 0 67.01 128.68
  L 66.98 130.13
  A 0.62 0.62 0.0 0 0 67.75 130.75
  L 72.51 129.62
  A 0.62 0.62 0.0 0 0 72.99 129.07
  L 73.13 127.37
  A 0.62 0.62 0.0 0 0 72.35 126.72
  L 67.46 128.10"
/>
<path stroke="#888886" vector-effect="non-scaling-stroke" d="
  M 151.72 105.23
  A 0.39 0.39 0.0 0 0 152.15 105.67
  L 154.86 105.35
  A 0.39 0.39 0.0 0 0 155.18 104.81
  L 153.22 99.91
  A 0.39 0.39 0.0 0 0 152.47 100.00
  L 151.72 105.23"
/>
<path stroke="#888886" vector-effect="non-scaling-stroke" d="
  M 183.91 105.17
  A 0.49 0.49 0.0 0 0 184.26 105.87
  L 186.73 106.32
  A 0.49 0.49 0.0 0 0 187.31 105.79
  L 186.87 101.20
  A 0.49 0.49 0.0 0 0 185.94 101.03
  L 183.91 105.17"
/>
<path stroke="#888886" vector-effect="non-scaling-stroke" d="
  M 116.23 114.24
  A 0.34 0.34 0.0 0 0 116.68 114.57
  L 119.59 113.63
  A 0.34 0.34 0.0 0 0 119.76 113.11
  L 116.81 108.91
  A 0.34 0.34 0.0 0 0 116.19 109.11
  L 116.23 114.24"
/>
<path stroke="#888886" vector-effect="non-scaling-stroke" d="
  M 97.70 111.81
  L 99.75 117.49
  A 0.70 0.70 0.0 0 0 100.65 117.91
  L 100.81 117.85
  A 3.26 2.72 70.2 0 0 102.27 113.86
  L 101.96 113.00
  A 3.26 2.72 70.2 0 0 98.29 110.85
  L 98.12 110.91
  A 0.70 0.70 0.0 0 0 97.70 111.81"
/>
<path stroke="#888886" vector-effect="non-scaling-stroke" d="
  M 35.26 126.41
  A 0.34 0.34 0.0 0 0 35.51 126.89
  L 38.31 127.41
  A 0.34 0.34 0.0 0 0 38.71 127.04
  L 38.25 121.74
  A 0.34 0.34 0.0 0 0 37.60 121.62
  L 35.26 126.41"
/>
</g>
<path fill="#ffffff" d="
  M 0.00 0.00
  L 225.00 0.00
  L 225.00 151.00
  L 0.00 151.00
  L 0.00 0.00
  Z
  M 107.68 37.52
  L 110.10 47.52
  Q 110.02 57.97 106.74 66.45
  A 0.49 0.49 0.0 0 1 105.84 66.47
  Q 104.90 64.37 102.73 63.64
  Q 102.23 63.47 101.92 63.04
  L 101.06 61.84
  A 0.47 0.47 0.0 0 0 100.27 61.88
  L 99.80 62.69
  Q 99.46 63.29 98.89 63.67
  Q 95.04 66.21 92.65 69.88
  Q 92.32 70.38 91.78 70.12
  Q 89.67 69.10 86.80 69.11
  Q 86.20 69.11 86.36 69.69
  C 87.04 72.12 85.29 73.46 86.73 76.11
  A 0.57 0.57 0.0 0 1 86.47 76.90
  L 85.73 77.26
  Q 85.09 77.57 85.56 78.11
  Q 88.06 80.97 91.85 80.30
  A 0.32 0.31 85.7 0 1 92.22 80.63
  L 92.20 81.16
  A 0.32 0.32 0.0 0 1 91.81 81.47
  Q 88.82 80.84 86.55 83.34
  Q 85.47 84.54 87.03 84.94
  L 88.66 85.37
  Q 89.99 85.72 88.74 86.30
  Q 80.77 90.01 72.29 90.76
  C 66.66 91.26 60.46 90.17 55.09 89.30
  Q 45.23 87.71 36.85 81.40
  C 30.43 76.57 23.65 65.52 29.64 57.86
  Q 33.34 53.14 39.51 53.87
  Q 43.34 54.33 46.54 58.32
  Q 46.79 58.64 47.12 58.41
  L 47.36 58.24
  Q 47.53 58.12 47.42 57.95
  C 41.81 49.24 30.50 50.61 25.80 59.16
  C 23.66 63.07 24.23 68.26 25.86 72.39
  C 32.05 88.03 48.49 93.55 64.29 95.04
  Q 76.31 96.17 87.94 91.79
  Q 90.88 90.68 93.35 88.73
  Q 93.99 88.22 94.11 89.03
  L 94.31 90.37
  A 0.54 0.54 0.0 0 0 95.25 90.64
  Q 96.60 89.09 98.59 89.29
  Q 99.21 89.35 99.22 88.72
  L 99.24 86.26
  A 1.04 1.04 0.0 0 1 100.47 85.25
  Q 102.15 85.56 101.49 87.04
  Q 101.17 87.75 101.40 88.37
  Q 101.62 88.97 102.07 88.52
  Q 103.77 86.82 105.84 87.47
  A 1.76 1.76 0.0 0 0 107.14 87.37
  Q 108.33 86.79 109.64 86.61
  A 1.67 1.66 -71.1 0 0 110.63 86.12
  Q 111.69 85.03 113.19 84.95
  Q 114.61 84.88 113.44 84.06
  L 110.38 81.93
  Q 109.91 81.60 109.89 81.03
  Q 109.85 80.14 109.43 79.37
  Q 109.07 78.72 109.79 78.56
  C 112.58 77.92 111.79 73.26 113.57 71.27
  Q 114.24 70.52 113.23 70.50
  L 110.73 70.46
  Q 109.90 70.44 110.23 69.69
  Q 113.80 61.35 114.06 52.47
  Q 121.90 59.85 132.30 58.20
  Q 132.89 58.10 133.13 57.55
  C 134.14 55.31 136.00 56.81 137.01 55.12
  Q 137.32 54.60 137.88 54.40
  C 142.05 52.95 143.99 58.99 147.82 56.09
  C 151.12 53.58 156.41 48.47 159.35 54.95
  Q 163.71 64.53 156.57 71.47
  Q 156.08 71.95 156.72 72.18
  Q 159.62 73.21 163.03 72.85
  Q 175.85 71.51 180.84 59.87
  C 183.53 53.59 182.61 45.49 178.60 39.86
  Q 172.44 31.23 160.91 31.00
  A 1.01 1.01 0.0 0 1 159.92 30.03
  Q 159.84 27.98 160.56 26.20
  Q 160.86 25.43 160.09 25.71
  Q 159.25 26.00 158.83 26.83
  Q 158.49 27.51 158.07 26.87
  L 157.64 26.21
  Q 156.92 25.11 156.33 26.29
  Q 156.13 26.67 156.21 27.12
  Q 156.36 27.94 155.65 27.50
  Q 155.21 27.22 154.98 26.69
  Q 154.90 26.50 154.74 26.37
  Q 154.16 25.91 154.01 26.64
  L 153.78 27.70
  Q 153.65 28.33 153.05 28.10
  Q 152.60 27.93 152.18 28.07
  Q 151.62 28.25 152.03 28.67
  Q 153.32 30.02 153.67 31.84
  A 0.76 0.76 0.0 0 1 153.36 32.60
  L 149.69 35.14
  Q 149.26 35.43 149.18 34.92
  Q 148.39 29.72 145.34 25.13
  A 1.29 1.29 0.0 0 1 145.88 23.24
  L 149.02 21.79
  Q 149.72 21.47 149.03 21.15
  Q 148.31 20.82 147.52 20.79
  Q 146.92 20.78 147.00 20.18
  Q 147.08 19.65 147.52 19.33
  Q 148.01 18.98 147.50 18.67
  Q 147.00 18.36 146.46 18.69
  Q 146.04 18.95 145.59 18.81
  Q 144.96 18.63 145.26 18.04
  Q 145.51 17.54 145.52 17.02
  Q 145.53 16.32 144.94 16.69
  L 143.95 17.31
  Q 143.40 17.66 143.10 17.08
  Q 142.92 16.73 142.88 16.32
  A 0.36 0.35 74.8 0 0 142.38 16.03
  Q 142.06 16.18 142.04 16.53
  Q 141.88 18.74 140.03 19.53
  Q 139.57 19.73 139.11 19.51
  Q 124.99 12.64 113.56 23.33
  Q 111.19 25.56 109.03 31.39
  Q 106.22 26.12 102.02 22.69
  A 1.33 1.33 0.0 0 1 101.91 20.73
  Q 105.74 16.77 106.45 12.51
  A 0.67 0.67 0.0 0 0 105.64 11.75
  L 102.85 12.39
  A 1.91 1.90 -11.7 0 1 100.54 10.88
  C 99.88 7.25 99.31 3.11 94.01 5.25
  A 1.69 1.68 74.5 0 0 92.97 7.09
  L 93.21 8.54
  Q 93.35 9.37 92.83 8.71
  C 91.28 6.71 91.01 4.24 87.69 4.71
  Q 85.46 5.03 83.23 5.01
  Q 82.68 5.00 82.61 5.55
  Q 82.01 9.93 82.21 13.67
  Q 82.24 14.24 81.68 14.19
  C 65.34 12.72 52.49 18.63 48.10 35.50
  C 45.72 44.63 47.09 53.79 54.10 60.08
  C 58.63 64.13 65.75 65.63 71.57 65.73
  Q 83.72 65.96 89.63 55.94
  Q 92.91 50.38 90.25 43.83
  C 89.70 42.47 88.86 41.69 88.47 40.21
  Q 87.64 37.05 87.27 33.99
  Q 87.21 33.47 86.91 33.04
  L 85.62 31.22
  A 0.82 0.80 -50.5 0 1 85.55 30.41
  L 86.08 29.30
  Q 86.39 28.62 85.64 28.65
  Q 83.35 28.72 81.84 27.19
  A 0.50 0.49 31.1 0 0 81.01 27.39
  Q 80.27 29.82 77.85 29.59
  A 0.82 0.81 21.8 0 1 77.28 28.27
  L 78.62 26.59
  A 0.68 0.67 -71.4 0 0 78.08 25.49
  Q 76.61 25.53 75.66 24.53
  C 73.58 22.33 69.24 21.31 66.40 20.95
  A 0.30 0.30 0.0 0 0 66.08 21.34
  L 67.46 25.59
  A 0.61 0.59 49.9 0 1 67.43 26.05
  L 66.33 28.35
  Q 66.03 28.97 65.50 28.54
  Q 65.00 28.12 64.35 28.00
  Q 63.72 27.88 63.25 28.31
  Q 60.67 30.71 57.28 32.17
  A 0.35 0.35 0.0 0 0 57.19 32.75
  L 61.19 36.24
  Q 61.59 36.59 62.12 36.55
  L 64.96 36.35
  Q 65.76 36.29 65.02 36.61
  Q 60.43 38.60 60.49 42.44
  C 60.52 44.74 62.14 46.06 61.72 48.48
  Q 61.61 49.16 62.21 48.82
  Q 63.44 48.12 65.00 48.15
  Q 68.74 48.23 72.54 48.00
  Q 73.05 47.97 73.34 47.54
  Q 73.58 47.17 74.02 47.24
  Q 74.35 47.30 74.57 47.56
  Q 76.40 49.64 77.96 51.80
  Q 78.25 52.20 78.62 51.89
  Q 81.54 49.46 82.78 46.78
  Q 83.01 46.28 83.53 46.11
  Q 83.76 46.03 83.99 46.10
  Q 84.54 46.27 84.61 45.70
  Q 85.09 42.15 83.12 40.25
  Q 82.54 39.69 83.32 39.90
  Q 90.42 41.78 89.97 49.51
  C 89.61 55.80 85.57 59.93 79.86 62.34
  Q 77.70 63.25 75.39 63.37
  C 61.31 64.11 49.07 58.15 50.32 41.95
  C 51.22 30.32 58.38 20.42 70.22 18.36
  Q 74.47 17.63 79.34 17.91
  Q 80.20 17.96 79.52 18.48
  L 78.07 19.61
  Q 77.72 19.88 77.92 20.26
  Q 79.50 23.28 82.02 24.25
  Q 82.52 24.45 82.75 24.93
  Q 83.00 25.46 82.82 26.03
  Q 82.65 26.58 83.23 26.68
  Q 86.68 27.24 88.85 24.27
  Q 89.02 24.05 89.23 24.23
  L 89.50 24.46
  A 0.33 0.33 0.0 0 1 89.47 24.98
  Q 86.86 26.72 87.64 30.23
  Q 87.76 30.74 88.24 30.55
  L 89.26 30.14
  Q 89.75 29.94 90.29 29.96
  Q 93.18 30.09 95.49 28.99
  Q 95.96 28.76 96.45 28.90
  L 97.49 29.19
  Q 98.10 29.36 98.21 28.75
  L 98.60 26.56
  A 0.71 0.71 0.0 0 1 99.78 26.17
  Q 104.96 31.01 107.68 37.52
  Z
  M 92.0109 41.0957
  A 3.17 3.04 106.1 0 0 95.8108 38.8930
  A 3.17 3.04 106.1 0 0 93.7691 35.0043
  A 3.17 3.04 106.1 0 0 89.9692 37.2070
  A 3.17 3.04 106.1 0 0 92.0109 41.0957
  Z
  M 103.81 40.78
  A 3.11 3.11 0.0 0 0 100.70 37.67
  A 3.11 3.11 0.0 0 0 97.59 40.78
  A 3.11 3.11 0.0 0 0 100.70 43.89
  A 3.11 3.11 0.0 0 0 103.81 40.78
  Z
  M 98.22 45.23
  A 3.07 3.07 0.0 0 0 95.15 42.16
  A 3.07 3.07 0.0 0 0 92.08 45.23
  A 3.07 3.07 0.0 0 0 95.15 48.30
  A 3.07 3.07 0.0 0 0 98.22 45.23
  Z
  M 104.77 49.35
  A 3.09 3.09 0.0 0 0 101.68 46.26
  A 3.09 3.09 0.0 0 0 98.59 49.35
  A 3.09 3.09 0.0 0 0 101.68 52.44
  A 3.09 3.09 0.0 0 0 104.77 49.35
  Z
  M 59.17 52.23
  A 3.10 3.10 0.0 0 0 56.07 49.13
  A 3.10 3.10 0.0 0 0 52.97 52.23
  A 3.10 3.10 0.0 0 0 56.07 55.33
  A 3.10 3.10 0.0 0 0 59.17 52.23
  Z
  M 69.43 52.29
  A 3.06 3.06 0.0 0 0 66.37 49.23
  A 3.06 3.06 0.0 0 0 63.31 52.29
  A 3.06 3.06 0.0 0 0 66.37 55.35
  A 3.06 3.06 0.0 0 0 69.43 52.29
  Z
  M 76.91 53.01
  A 3.10 3.10 0.0 0 0 73.81 49.91
  A 3.10 3.10 0.0 0 0 70.71 53.01
  A 3.10 3.10 0.0 0 0 73.81 56.11
  A 3.10 3.10 0.0 0 0 76.91 53.01
  Z
  M 97.92 53.00
  A 3.07 3.07 0.0 0 0 94.85 49.93
  A 3.07 3.07 0.0 0 0 91.78 53.00
  A 3.07 3.07 0.0 0 0 94.85 56.07
  A 3.07 3.07 0.0 0 0 97.92 53.00
  Z
  M 85.78 55.74
  A 3.05 3.05 0.0 0 0 82.73 52.69
  A 3.05 3.05 0.0 0 0 79.68 55.74
  A 3.05 3.05 0.0 0 0 82.73 58.79
  A 3.05 3.05 0.0 0 0 85.78 55.74
  Z
  M 64.47 57.04
  A 3.06 3.06 0.0 0 0 61.41 53.98
  A 3.06 3.06 0.0 0 0 58.35 57.04
  A 3.06 3.06 0.0 0 0 61.41 60.10
  A 3.06 3.06 0.0 0 0 64.47 57.04
  Z
  M 157.22 57.64
  C 158.79 64.29 153.91 70.76 147.99 73.25
  Q 131.69 80.13 122.64 64.72
  Q 122.50 64.49 122.26 64.60
  L 121.95 64.72
  A 0.42 0.42 0.0 0 0 121.73 65.25
  Q 124.04 71.24 129.59 74.93
  C 140.05 81.87 159.15 74.59 159.25 60.89
  Q 159.28 57.16 157.75 54.75
  Q 156.76 53.19 156.85 55.03
  Q 156.91 56.33 157.22 57.64
  Z
  M 154.2776 55.3361
  A 1.34 1.20 -32.7 0 0 152.5017 55.0502
  A 1.34 1.20 -32.7 0 0 152.0224 56.7839
  A 1.34 1.20 -32.7 0 0 153.7983 57.0698
  A 1.34 1.20 -32.7 0 0 154.2776 55.3361
  Z
  M 139.57 56.88
  A 1.31 1.31 0.0 0 0 138.26 55.57
  A 1.31 1.31 0.0 0 0 136.95 56.88
  A 1.31 1.31 0.0 0 0 138.26 58.19
  A 1.31 1.31 0.0 0 0 139.57 56.88
  Z
  M 71.57 59.45
  A 3.05 3.05 0.0 0 0 68.52 56.40
  A 3.05 3.05 0.0 0 0 65.47 59.45
  A 3.05 3.05 0.0 0 0 68.52 62.50
  A 3.05 3.05 0.0 0 0 71.57 59.45
  Z
  M 79.26 59.42
  A 3.05 3.05 0.0 0 0 76.21 56.37
  A 3.05 3.05 0.0 0 0 73.16 59.42
  A 3.05 3.05 0.0 0 0 76.21 62.47
  A 3.05 3.05 0.0 0 0 79.26 59.42
  Z
  M 144.62 60.45
  Q 145.22 60.00 145.56 59.33
  A 0.91 0.90 -77.9 0 0 144.71 58.01
  L 143.47 58.08
  Q 142.98 58.10 142.72 57.69
  Q 142.35 57.11 141.74 56.77
  Q 141.05 56.39 140.50 56.90
  Q 139.93 57.43 140.11 58.29
  Q 140.23 58.80 140.72 59.00
  Q 141.53 59.33 142.32 58.90
  Q 142.84 58.61 142.98 59.19
  Q 143.18 59.99 143.90 60.41
  A 0.52 0.52 0.0 0 1 144.09 61.10
  Q 144.01 61.25 143.86 61.32
  Q 143.32 61.59 143.16 62.17
  Q 142.91 63.09 143.69 63.73
  A 0.82 0.82 0.0 0 0 144.46 63.89
  Q 145.38 63.61 145.57 62.68
  Q 145.66 62.25 145.41 61.87
  Q 145.10 61.39 144.63 61.08
  Q 144.19 60.77 144.62 60.45
  Z
  M 148.75 61.18
  Q 149.49 61.70 150.06 62.56
  Q 150.35 63.01 150.86 62.83
  Q 151.56 62.58 151.89 61.96
  Q 152.21 61.36 151.74 60.86
  L 151.04 60.11
  Q 150.62 59.66 151.08 59.25
  L 151.31 59.05
  Q 151.73 58.67 151.69 58.11
  Q 151.60 56.97 150.09 56.86
  A 1.07 1.06 -84.7 0 0 148.95 57.81
  Q 148.85 58.84 149.83 59.30
  A 0.64 0.63 34.6 0 1 150.02 60.32
  L 149.76 60.58
  Q 149.46 60.88 149.14 60.59
  L 147.63 59.18
  Q 147.23 58.80 146.77 59.09
  Q 146.25 59.40 146.07 59.99
  A 1.16 1.15 35.5 0 0 146.24 60.99
  L 147.11 62.22
  A 0.49 0.47 50.5 0 1 147.06 62.84
  L 146.85 63.05
  Q 146.48 63.41 146.61 63.92
  Q 146.80 64.61 147.39 64.93
  A 0.96 0.94 -55.3 0 0 148.55 64.71
  Q 149.02 64.17 148.96 63.46
  Q 148.92 62.94 148.52 62.60
  Q 148.04 62.18 148.08 61.50
  Q 148.12 60.74 148.75 61.18
  Z
  M 136.78 58.51
  A 1.39 1.39 0.0 0 0 135.39 57.12
  A 1.39 1.39 0.0 0 0 134.00 58.51
  A 1.39 1.39 0.0 0 0 135.39 59.90
  A 1.39 1.39 0.0 0 0 136.78 58.51
  Z
  M 95.36 60.57
  A 3.10 3.10 0.0 0 0 92.26 57.47
  A 3.10 3.10 0.0 0 0 89.16 60.57
  A 3.10 3.10 0.0 0 0 92.26 63.67
  A 3.10 3.10 0.0 0 0 95.36 60.57
  Z
  M 154.83 59.59
  A 1.34 1.34 0.0 0 0 153.49 58.25
  A 1.34 1.34 0.0 0 0 152.15 59.59
  A 1.34 1.34 0.0 0 0 153.49 60.93
  A 1.34 1.34 0.0 0 0 154.83 59.59
  Z
  M 139.35 59.98
  A 1.23 1.23 0.0 0 0 138.12 58.75
  A 1.23 1.23 0.0 0 0 136.89 59.98
  A 1.23 1.23 0.0 0 0 138.12 61.21
  A 1.23 1.23 0.0 0 0 139.35 59.98
  Z
  M 132.60 59.06
  L 131.06 59.58
  A 0.42 0.42 0.0 0 0 130.80 60.11
  L 130.86 60.31
  A 2.09 1.12 71.5 0 0 132.59 61.93
  L 132.80 61.86
  A 2.09 1.12 71.5 0 0 133.19 59.53
  L 133.13 59.33
  A 0.42 0.42 0.0 0 0 132.60 59.06
  Z
  M 142.20 61.38
  A 1.25 1.25 0.0 0 0 140.95 60.13
  A 1.25 1.25 0.0 0 0 139.70 61.38
  A 1.25 1.25 0.0 0 0 140.95 62.63
  A 1.25 1.25 0.0 0 0 142.20 61.38
  Z
  M 130.16 62.07
  A 1.25 1.25 0.0 0 0 128.91 60.82
  A 1.25 1.25 0.0 0 0 127.66 62.07
  A 1.25 1.25 0.0 0 0 128.91 63.32
  A 1.25 1.25 0.0 0 0 130.16 62.07
  Z
  M 136.65 62.00
  A 1.30 1.30 0.0 0 0 135.35 60.70
  A 1.30 1.30 0.0 0 0 134.05 62.00
  A 1.30 1.30 0.0 0 0 135.35 63.30
  A 1.30 1.30 0.0 0 0 136.65 62.00
  Z
  M 155.04 63.25
  A 1.33 1.33 0.0 0 0 153.71 61.92
  A 1.33 1.33 0.0 0 0 152.38 63.25
  A 1.33 1.33 0.0 0 0 153.71 64.58
  A 1.33 1.33 0.0 0 0 155.04 63.25
  Z
  M 137.6409 65.0051
  A 1.51 1.17 109.3 0 0 139.2442 63.9667
  A 1.51 1.17 109.3 0 0 138.6391 62.1549
  A 1.51 1.17 109.3 0 0 137.0358 63.1933
  A 1.51 1.17 109.3 0 0 137.6409 65.0051
  Z
  M 133.58 63.86
  A 1.34 1.34 0.0 0 0 132.24 62.52
  A 1.34 1.34 0.0 0 0 130.90 63.86
  A 1.34 1.34 0.0 0 0 132.24 65.20
  A 1.34 1.34 0.0 0 0 133.58 63.86
  Z
  M 127.03 64.29
  A 1.34 1.34 0.0 0 0 125.69 62.95
  A 1.34 1.34 0.0 0 0 124.35 64.29
  A 1.34 1.34 0.0 0 0 125.69 65.63
  A 1.34 1.34 0.0 0 0 127.03 64.29
  Z
  M 142.65 65.03
  A 1.26 1.26 0.0 0 0 141.39 63.77
  A 1.26 1.26 0.0 0 0 140.13 65.03
  A 1.26 1.26 0.0 0 0 141.39 66.29
  A 1.26 1.26 0.0 0 0 142.65 65.03
  Z
  M 136.44 65.50
  A 1.28 1.28 0.0 0 0 135.16 64.22
  A 1.28 1.28 0.0 0 0 133.88 65.50
  A 1.28 1.28 0.0 0 0 135.16 66.78
  A 1.28 1.28 0.0 0 0 136.44 65.50
  Z
  M 151.54 66.72
  Q 152.39 65.96 152.23 64.82
  A 0.76 0.75 8.0 0 0 151.79 64.24
  Q 150.92 63.88 150.26 64.40
  Q 149.70 64.86 149.90 65.64
  Q 150.09 66.38 150.64 66.89
  Q 151.02 67.26 150.56 67.50
  Q 149.87 67.87 149.96 68.63
  Q 150.11 69.95 151.43 70.06
  A 0.79 0.78 11.9 0 0 152.24 69.54
  Q 152.78 68.08 151.58 67.27
  Q 151.21 67.02 151.54 66.72
  Z
  M 128.85 67.83
  L 128.48 68.13
  Q 128.00 68.51 128.03 69.12
  Q 128.10 70.18 129.37 70.45
  A 1.05 1.05 0.0 0 0 130.56 69.80
  Q 130.96 68.76 129.97 67.97
  Q 129.51 67.62 129.79 67.11
  Q 130.37 66.09 130.04 64.89
  Q 129.93 64.47 129.49 64.43
  C 127.85 64.32 127.36 66.35 128.76 67.02
  Q 129.46 67.35 128.85 67.83
  Z
  M 146.16 66.06
  A 1.29 1.29 0.0 0 0 144.87 64.77
  A 1.29 1.29 0.0 0 0 143.58 66.06
  A 1.29 1.29 0.0 0 0 144.87 67.35
  A 1.29 1.29 0.0 0 0 146.16 66.06
  Z
  M 60.80 68.45
  A 3.08 3.08 0.0 0 0 57.72 65.37
  A 3.08 3.08 0.0 0 0 54.64 68.45
  A 3.08 3.08 0.0 0 0 57.72 71.53
  A 3.08 3.08 0.0 0 0 60.80 68.45
  Z
  M 139.82 66.94
  A 1.30 1.30 0.0 0 0 138.52 65.64
  A 1.30 1.30 0.0 0 0 137.22 66.94
  A 1.30 1.30 0.0 0 0 138.52 68.24
  A 1.30 1.30 0.0 0 0 139.82 66.94
  Z
  M 133.50 66.97
  A 1.28 1.28 0.0 0 0 132.22 65.69
  A 1.28 1.28 0.0 0 0 130.94 66.97
  A 1.28 1.28 0.0 0 0 132.22 68.25
  A 1.28 1.28 0.0 0 0 133.50 66.97
  Z
  M 147.75 69.75
  L 147.33 70.10
  A 0.94 0.93 64.0 0 0 147.01 71.05
  Q 147.30 72.24 148.69 72.01
  A 1.07 1.06 88.0 0 0 149.58 71.04
  Q 149.66 70.09 149.03 69.76
  Q 148.67 69.58 148.84 69.21
  Q 149.29 68.22 149.24 67.05
  A 1.01 1.01 0.0 0 0 147.71 66.22
  C 146.76 66.80 146.72 68.21 147.70 68.82
  Q 148.38 69.25 147.75 69.75
  Z
  M 68.15 69.59
  A 3.05 3.05 0.0 0 0 65.10 66.54
  A 3.05 3.05 0.0 0 0 62.05 69.59
  A 3.05 3.05 0.0 0 0 65.10 72.64
  A 3.05 3.05 0.0 0 0 68.15 69.59
  Z
  M 84.40 69.73
  A 3.05 3.05 0.0 0 0 81.35 66.68
  A 3.05 3.05 0.0 0 0 78.30 69.73
  A 3.05 3.05 0.0 0 0 81.35 72.78
  A 3.05 3.05 0.0 0 0 84.40 69.73
  Z
  M 76.51 70.13
  A 3.06 3.06 0.0 0 0 73.45 67.07
  A 3.06 3.06 0.0 0 0 70.39 70.13
  A 3.06 3.06 0.0 0 0 73.45 73.19
  A 3.06 3.06 0.0 0 0 76.51 70.13
  Z
  M 143.0662 68.2222
  A 0.87 0.87 0.0 0 0 142.2461 67.3050
  L 141.7868 67.2793
  A 0.87 0.87 0.0 0 0 140.8696 68.0994
  L 140.8138 69.0978
  A 0.87 0.87 0.0 0 0 141.6339 70.0150
  L 142.0932 70.0407
  A 0.87 0.87 0.0 0 0 143.0104 69.2206
  L 143.0662 68.2222
  Z
  M 136.60 68.95
  A 1.31 1.31 0.0 0 0 135.29 67.64
  A 1.31 1.31 0.0 0 0 133.98 68.95
  A 1.31 1.31 0.0 0 0 135.29 70.26
  A 1.31 1.31 0.0 0 0 136.60 68.95
  Z
  M 146.42 69.82
  A 1.29 1.29 0.0 0 0 145.13 68.53
  A 1.29 1.29 0.0 0 0 143.84 69.82
  A 1.29 1.29 0.0 0 0 145.13 71.11
  A 1.29 1.29 0.0 0 0 146.42 69.82
  Z
  M 140.07 70.56
  A 1.30 1.30 0.0 0 0 138.77 69.26
  A 1.30 1.30 0.0 0 0 137.47 70.56
  A 1.30 1.30 0.0 0 0 138.77 71.86
  A 1.30 1.30 0.0 0 0 140.07 70.56
  Z
  M 133.66 70.93
  A 1.34 1.34 0.0 0 0 132.32 69.59
  A 1.34 1.34 0.0 0 0 130.98 70.93
  A 1.34 1.34 0.0 0 0 132.32 72.27
  A 1.34 1.34 0.0 0 0 133.66 70.93
  Z
  M 143.4012 71.4600
  A 1.41 1.28 -33.1 0 0 141.5210 71.1577
  A 1.41 1.28 -33.1 0 0 141.0388 73.0000
  A 1.41 1.28 -33.1 0 0 142.9190 73.3023
  A 1.41 1.28 -33.1 0 0 143.4012 71.4600
  Z
  M 63.91 75.59
  A 3.06 3.06 0.0 0 0 60.85 72.53
  A 3.06 3.06 0.0 0 0 57.79 75.59
  A 3.06 3.06 0.0 0 0 60.85 78.65
  A 3.06 3.06 0.0 0 0 63.91 75.59
  Z
  M 72.18 75.88
  A 3.05 3.05 0.0 0 0 69.13 72.83
  A 3.05 3.05 0.0 0 0 66.08 75.88
  A 3.05 3.05 0.0 0 0 69.13 78.93
  A 3.05 3.05 0.0 0 0 72.18 75.88
  Z
  M 80.91 76.17
  A 3.10 3.10 0.0 0 0 77.81 73.07
  A 3.10 3.10 0.0 0 0 74.71 76.17
  A 3.10 3.10 0.0 0 0 77.81 79.27
  A 3.10 3.10 0.0 0 0 80.91 76.17
  Z
  M 67.63 81.74
  A 3.02 3.02 0.0 0 0 64.61 78.72
  A 3.02 3.02 0.0 0 0 61.59 81.74
  A 3.02 3.02 0.0 0 0 64.61 84.76
  A 3.02 3.02 0.0 0 0 67.63 81.74
  Z
  M 76.52 82.20
  A 3.06 3.06 0.0 0 0 73.46 79.14
  A 3.06 3.06 0.0 0 0 70.40 82.20
  A 3.06 3.06 0.0 0 0 73.46 85.26
  A 3.06 3.06 0.0 0 0 76.52 82.20
  Z
  M 218.10 96.07
  L 218.47 95.76
  Q 218.73 95.55 218.43 95.39
  Q 204.29 88.20 189.18 84.75
  C 174.45 81.39 158.64 81.85 143.92 85.08
  C 122.53 89.78 102.46 98.97 81.28 103.78
  Q 51.94 110.44 23.71 101.53
  Q 15.70 99.00 8.13 95.82
  Q 7.95 95.75 7.86 95.93
  L 7.71 96.24
  A 0.27 0.26 26.6 0 0 7.83 96.59
  Q 25.52 106.21 44.54 109.22
  Q 58.36 111.41 73.46 109.40
  C 99.96 105.86 124.00 93.30 150.32 88.11
  Q 183.89 81.48 217.71 96.13
  A 0.38 0.37 -52.9 0 0 218.10 96.07
  Z
  M 71.80 87.16
  A 3.05 3.05 0.0 0 0 68.75 84.11
  A 3.05 3.05 0.0 0 0 65.70 87.16
  A 3.05 3.05 0.0 0 0 68.75 90.21
  A 3.05 3.05 0.0 0 0 71.80 87.16
  Z
  M 173.77 95.72
  Q 177.30 95.27 177.60 98.44
  Q 177.66 99.04 178.26 99.19
  A 0.33 0.33 0.0 0 0 178.67 98.90
  L 179.22 93.22
  A 0.40 0.40 0.0 0 0 178.57 92.88
  L 177.63 93.69
  Q 177.23 94.03 176.71 94.01
  L 166.36 93.55
  Q 165.60 93.52 164.99 93.07
  L 164.51 92.71
  Q 163.90 92.25 163.79 93.00
  Q 163.45 95.52 163.33 97.60
  Q 163.21 99.73 164.36 97.94
  Q 164.86 97.16 165.21 96.31
  Q 165.45 95.73 166.08 95.61
  Q 167.51 95.34 168.70 95.75
  Q 169.33 95.97 169.26 96.64
  Q 168.67 102.48 168.75 108.46
  Q 168.76 109.03 168.32 109.40
  Q 167.53 110.05 166.52 110.56
  Q 165.96 110.84 165.84 111.38
  A 0.56 0.55 7.4 0 0 166.36 112.05
  L 174.28 112.30
  A 0.37 0.35 27.4 0 0 174.48 112.24
  Q 174.93 111.93 174.83 111.56
  Q 174.69 111.04 174.19 110.86
  C 172.14 110.13 172.52 108.41 172.53 106.58
  Q 172.56 101.58 173.16 96.34
  Q 173.22 95.79 173.77 95.72
  Z
  M 150.97 110.58
  Q 150.92 109.25 151.32 108.01
  A 0.82 0.81 -83.2 0 1 152.01 107.46
  L 155.20 107.20
  A 1.21 1.20 67.7 0 1 156.22 107.63
  Q 157.76 109.51 156.48 111.20
  Q 155.00 113.15 157.39 112.61
  Q 160.21 111.98 163.14 112.15
  Q 163.57 112.17 163.73 111.77
  Q 164.01 111.07 163.31 110.75
  Q 161.38 109.86 160.40 107.63
  Q 157.33 100.66 154.72 94.41
  A 0.57 0.57 0.0 0 0 153.94 94.12
  Q 152.08 95.03 151.75 97.00
  Q 150.66 103.44 149.25 109.62
  Q 148.83 111.47 147.26 112.51
  Q 146.85 112.78 146.90 113.18
  A 0.65 0.65 0.0 0 0 147.62 113.73
  L 152.68 113.02
  Q 152.97 112.98 153.04 112.70
  Q 153.11 112.46 152.98 112.15
  A 0.65 0.62 89.4 0 0 152.65 111.81
  L 151.52 111.36
  Q 150.99 111.15 150.97 110.58
  Z
  M 183.61 107.72
  L 186.64 108.35
  Q 187.32 108.49 187.58 109.13
  Q 188.52 111.43 186.49 112.81
  Q 185.06 113.77 186.76 114.07
  L 193.00 115.15
  Q 194.76 115.45 193.53 114.15
  Q 191.98 112.52 191.75 110.98
  Q 190.67 103.56 189.78 95.83
  Q 189.66 94.84 188.78 95.30
  C 187.57 95.93 186.49 96.83 185.88 98.08
  Q 183.58 102.88 180.71 108.27
  Q 179.69 110.18 178.10 110.93
  Q 175.68 112.08 178.31 112.55
  Q 180.23 112.89 182.17 113.12
  Q 184.22 113.36 182.70 111.97
  Q 180.97 110.39 182.71 108.07
  Q 183.05 107.61 183.61 107.72
  Z
  M 131.45 105.38
  Q 131.20 104.20 132.11 104.99
  Q 137.92 109.96 143.42 114.71
  Q 144.13 115.33 144.78 114.66
  A 0.84 0.81 62.2 0 0 145.00 113.91
  L 141.68 98.76
  Q 141.54 98.13 142.14 97.90
  Q 142.70 97.69 142.90 97.05
  Q 143.44 95.31 141.76 96.04
  Q 139.76 96.91 137.85 97.03
  A 0.71 0.69 -76.5 0 0 137.28 97.39
  Q 137.12 97.69 137.25 98.00
  Q 137.43 98.42 137.88 98.48
  Q 140.01 98.72 140.59 100.94
  C 141.09 102.91 141.74 105.06 141.87 107.02
  Q 141.92 107.81 141.29 107.33
  Q 136.98 103.98 132.34 99.84
  C 130.70 98.36 128.09 99.34 126.25 99.87
  Q 125.65 100.04 125.93 100.59
  Q 126.17 101.08 126.73 101.10
  C 128.07 101.14 129.24 101.77 129.55 103.13
  Q 130.91 109.11 131.85 114.48
  A 1.57 1.56 71.2 0 1 131.04 116.14
  Q 130.50 116.43 130.24 116.99
  Q 129.83 117.85 130.76 117.66
  Q 133.02 117.21 135.02 116.70
  Q 137.89 115.97 135.09 115.01
  Q 133.88 114.60 133.54 113.33
  C 132.81 110.66 132.01 108.04 131.45 105.38
  Z
  M 100.79 121.43
  Q 99.43 117.82 102.28 120.42
  C 105.32 123.20 108.50 127.44 112.72 123.45
  Q 113.07 123.13 113.54 123.21
  Q 114.30 123.35 114.97 122.97
  C 116.10 122.33 117.06 122.30 118.29 122.09
  Q 118.97 121.97 119.02 121.28
  Q 119.05 120.69 118.47 120.60
  Q 116.09 120.20 116.53 117.18
  Q 116.63 116.45 117.34 116.24
  L 120.25 115.37
  Q 120.96 115.16 121.50 115.68
  Q 123.21 117.33 122.33 118.96
  Q 121.32 120.82 123.34 120.19
  L 129.11 118.38
  Q 129.30 118.32 129.40 118.13
  Q 129.48 117.98 129.43 117.81
  Q 129.25 117.21 128.64 117.10
  Q 127.09 116.82 126.07 115.45
  Q 121.19 108.90 116.98 102.72
  A 0.48 0.48 0.0 0 0 116.19 102.71
  Q 114.61 104.87 114.69 107.28
  Q 114.90 113.22 114.85 119.14
  C 114.83 120.65 113.95 121.84 112.92 122.83
  Q 112.48 123.26 111.92 123.02
  Q 107.79 121.27 104.85 117.29
  Q 104.50 116.81 104.80 116.31
  C 107.21 112.11 103.95 107.01 99.01 108.86
  Q 95.78 110.07 92.73 111.21
  Q 90.81 111.93 92.74 112.61
  Q 93.25 112.78 93.72 112.96
  Q 94.28 113.18 94.48 113.74
  Q 96.48 119.17 98.24 125.03
  C 98.56 126.09 98.05 126.96 97.44 127.80
  Q 97.20 128.12 97.26 128.50
  Q 97.34 129.05 97.86 128.87
  L 104.03 126.76
  A 0.58 0.58 0.0 0 0 104.13 125.71
  L 102.67 124.87
  Q 102.23 124.62 102.00 124.17
  Q 101.31 122.80 100.79 121.43
  Z
  M 91.76 122.95
  Q 92.08 122.62 92.28 122.18
  Q 92.85 120.92 91.51 121.27
  L 85.90 122.75
  Q 84.26 123.18 85.75 124.00
  Q 86.21 124.26 86.77 124.32
  A 1.28 1.27 -7.5 0 1 87.83 125.13
  Q 88.64 127.26 88.81 129.12
  A 1.53 1.52 -3.1 0 1 87.31 130.79
  C 80.83 130.86 76.45 115.38 84.47 114.76
  C 86.00 114.64 87.35 115.88 88.25 116.98
  Q 90.64 119.88 89.60 116.28
  Q 89.21 114.94 88.54 113.79
  Q 88.23 113.26 87.62 113.20
  Q 78.62 112.31 76.42 120.19
  C 75.19 124.61 78.10 131.27 82.83 132.38
  C 86.14 133.16 89.50 132.31 91.97 129.97
  Q 92.88 129.10 92.44 127.89
  Q 91.76 126.02 91.42 124.10
  Q 91.30 123.44 91.76 122.95
  Z
  M 38.70 133.22
  Q 37.95 133.56 37.45 134.18
  A 0.56 0.56 0.0 0 0 37.84 135.09
  Q 41.00 135.33 44.00 136.04
  Q 46.62 136.67 44.67 134.81
  Q 43.55 133.75 43.33 132.30
  Q 42.14 124.54 41.24 116.62
  A 0.49 0.48 77.2 0 0 40.60 116.21
  C 39.58 116.57 38.41 117.05 37.91 118.09
  Q 34.75 124.61 31.41 130.42
  C 30.95 131.24 30.37 131.32 29.62 131.69
  Q 26.93 133.01 29.89 133.47
  Q 31.72 133.76 33.75 134.19
  Q 34.21 134.29 34.49 133.94
  Q 34.84 133.48 34.39 133.12
  Q 32.39 131.53 34.08 129.17
  Q 34.41 128.71 34.96 128.81
  L 38.38 129.43
  A 0.95 0.95 0.0 0 1 39.16 130.29
  L 39.32 132.17
  Q 39.38 132.91 38.70 133.22
  Z
  M 55.95 119.97
  Q 56.90 119.99 56.52 120.86
  Q 53.40 128.17 49.22 135.54
  A 0.64 0.64 0.0 0 0 49.78 136.49
  L 61.01 136.47
  Q 61.68 136.47 62.06 135.92
  Q 63.04 134.49 63.37 132.76
  Q 64.09 129.02 61.94 132.17
  Q 61.30 133.11 60.67 134.01
  Q 60.27 134.56 59.59 134.56
  L 55.47 134.56
  A 0.63 0.63 0.0 0 1 54.90 133.67
  L 61.85 118.83
  A 0.57 0.56 -77.3 0 0 61.35 118.03
  L 50.39 117.89
  Q 49.91 117.88 49.80 118.35
  L 48.83 122.50
  Q 48.68 123.17 49.36 123.19
  Q 49.89 123.20 50.14 122.71
  Q 50.79 121.42 51.69 120.34
  Q 52.05 119.91 52.62 119.92
  L 55.95 119.97
  Z
  M 208.25 128.21
  Q 174.83 113.14 138.35 122.13
  C 121.15 126.36 104.72 132.80 88.10 137.77
  Q 50.11 149.13 14.12 135.45
  Q 9.74 133.79 5.24 131.96
  Q 4.96 131.84 4.85 132.13
  L 4.75 132.43
  Q 4.70 132.57 4.83 132.65
  Q 23.85 142.90 43.43 145.76
  C 69.86 149.63 95.22 140.83 119.79 132.22
  C 140.43 124.99 161.99 120.20 183.55 123.39
  Q 199.86 125.81 215.36 132.53
  Q 215.67 132.67 215.76 132.34
  L 215.89 131.86
  A 0.35 0.34 19.1 0 0 215.69 131.46
  Q 211.83 129.83 208.25 128.21
  Z
  M 67.46 128.10
  A 0.62 0.62 0.0 0 0 67.01 128.68
  L 66.98 130.13
  A 0.62 0.62 0.0 0 0 67.75 130.75
  L 72.51 129.62
  A 0.62 0.62 0.0 0 0 72.99 129.07
  L 73.13 127.37
  A 0.62 0.62 0.0 0 0 72.35 126.72
  L 67.46 128.10
  Z"
/>
<path fill="#72bf58" d="
  M 109.03 31.39
  L 107.68 37.52
  Q 104.96 31.01 99.78 26.17
  A 0.71 0.71 0.0 0 0 98.60 26.56
  L 98.21 28.75
  Q 98.10 29.36 97.49 29.19
  L 96.45 28.90
  Q 95.96 28.76 95.49 28.99
  Q 93.18 30.09 90.29 29.96
  Q 89.75 29.94 89.26 30.14
  L 88.24 30.55
  Q 87.76 30.74 87.64 30.23
  Q 86.86 26.72 89.47 24.98
  A 0.33 0.33 0.0 0 0 89.50 24.46
  L 89.23 24.23
  Q 89.02 24.05 88.85 24.27
  Q 86.68 27.24 83.23 26.68
  Q 82.65 26.58 82.82 26.03
  Q 83.00 25.46 82.75 24.93
  Q 82.52 24.45 82.02 24.25
  Q 79.50 23.28 77.92 20.26
  Q 77.72 19.88 78.07 19.61
  L 79.52 18.48
  Q 80.20 17.96 79.34 17.91
  Q 74.47 17.63 70.22 18.36
  C 58.38 20.42 51.22 30.32 50.32 41.95
  C 49.07 58.15 61.31 64.11 75.39 63.37
  Q 77.70 63.25 79.86 62.34
  C 85.57 59.93 89.61 55.80 89.97 49.51
  Q 90.42 41.78 83.32 39.90
  Q 82.54 39.69 83.12 40.25
  Q 85.09 42.15 84.61 45.70
  Q 84.54 46.27 83.99 46.10
  Q 83.76 46.03 83.53 46.11
  Q 83.01 46.28 82.78 46.78
  Q 81.54 49.46 78.62 51.89
  Q 78.25 52.20 77.96 51.80
  Q 76.40 49.64 74.57 47.56
  Q 74.35 47.30 74.02 47.24
  Q 73.58 47.17 73.34 47.54
  Q 73.05 47.97 72.54 48.00
  Q 68.74 48.23 65.00 48.15
  Q 63.44 48.12 62.21 48.82
  Q 61.61 49.16 61.72 48.48
  C 62.14 46.06 60.52 44.74 60.49 42.44
  Q 60.43 38.60 65.02 36.61
  Q 65.76 36.29 64.96 36.35
  L 62.12 36.55
  Q 61.59 36.59 61.19 36.24
  L 57.19 32.75
  A 0.35 0.35 0.0 0 1 57.28 32.17
  Q 60.67 30.71 63.25 28.31
  Q 63.72 27.88 64.35 28.00
  Q 65.00 28.12 65.50 28.54
  Q 66.03 28.97 66.33 28.35
  L 67.43 26.05
  A 0.61 0.59 49.9 0 0 67.46 25.59
  L 66.08 21.34
  A 0.30 0.30 0.0 0 1 66.40 20.95
  C 69.24 21.31 73.58 22.33 75.66 24.53
  Q 76.61 25.53 78.08 25.49
  A 0.68 0.67 -71.4 0 1 78.62 26.59
  L 77.28 28.27
  A 0.82 0.81 21.8 0 0 77.85 29.59
  Q 80.27 29.82 81.01 27.39
  A 0.50 0.49 31.1 0 1 81.84 27.19
  Q 83.35 28.72 85.64 28.65
  Q 86.39 28.62 86.08 29.30
  L 85.55 30.41
  A 0.82 0.80 -50.5 0 0 85.62 31.22
  L 86.91 33.04
  Q 87.21 33.47 87.27 33.99
  Q 87.64 37.05 88.47 40.21
  C 88.86 41.69 89.70 42.47 90.25 43.83
  Q 92.91 50.38 89.63 55.94
  Q 83.72 65.96 71.57 65.73
  C 65.75 65.63 58.63 64.13 54.10 60.08
  C 47.09 53.79 45.72 44.63 48.10 35.50
  C 52.49 18.63 65.34 12.72 81.68 14.19
  Q 82.24 14.24 82.21 13.67
  Q 82.01 9.93 82.61 5.55
  Q 82.68 5.00 83.23 5.01
  Q 85.46 5.03 87.69 4.71
  C 91.01 4.24 91.28 6.71 92.83 8.71
  Q 93.35 9.37 93.21 8.54
  L 92.97 7.09
  A 1.69 1.68 74.5 0 1 94.01 5.25
  C 99.31 3.11 99.88 7.25 100.54 10.88
  A 1.91 1.90 -11.7 0 0 102.85 12.39
  L 105.64 11.75
  A 0.67 0.67 0.0 0 1 106.45 12.51
  Q 105.74 16.77 101.91 20.73
  A 1.33 1.33 0.0 0 0 102.02 22.69
  Q 106.22 26.12 109.03 31.39
  Z"
/>
<path fill="#a92930" d="
  M 114.06 52.47
  L 110.10 47.52
  L 107.68 37.52
  L 109.03 31.39
  Q 111.19 25.56 113.56 23.33
  Q 124.99 12.64 139.11 19.51
  Q 139.57 19.73 140.03 19.53
  Q 141.88 18.74 142.04 16.53
  Q 142.06 16.18 142.38 16.03
  A 0.36 0.35 74.8 0 1 142.88 16.32
  Q 142.92 16.73 143.10 17.08
  Q 143.40 17.66 143.95 17.31
  L 144.94 16.69
  Q 145.53 16.32 145.52 17.02
  Q 145.51 17.54 145.26 18.04
  Q 144.96 18.63 145.59 18.81
  Q 146.04 18.95 146.46 18.69
  Q 147.00 18.36 147.50 18.67
  Q 148.01 18.98 147.52 19.33
  Q 147.08 19.65 147.00 20.18
  Q 146.92 20.78 147.52 20.79
  Q 148.31 20.82 149.03 21.15
  Q 149.72 21.47 149.02 21.79
  L 145.88 23.24
  A 1.29 1.29 0.0 0 0 145.34 25.13
  Q 148.39 29.72 149.18 34.92
  Q 149.26 35.43 149.69 35.14
  L 153.36 32.60
  A 0.76 0.76 0.0 0 0 153.67 31.84
  Q 153.32 30.02 152.03 28.67
  Q 151.62 28.25 152.18 28.07
  Q 152.60 27.93 153.05 28.10
  Q 153.65 28.33 153.78 27.70
  L 154.01 26.64
  Q 154.16 25.91 154.74 26.37
  Q 154.90 26.50 154.98 26.69
  Q 155.21 27.22 155.65 27.50
  Q 156.36 27.94 156.21 27.12
  Q 156.13 26.67 156.33 26.29
  Q 156.92 25.11 157.64 26.21
  L 158.07 26.87
  Q 158.49 27.51 158.83 26.83
  Q 159.25 26.00 160.09 25.71
  Q 160.86 25.43 160.56 26.20
  Q 159.84 27.98 159.92 30.03
  A 1.01 1.01 0.0 0 0 160.91 31.00
  Q 172.44 31.23 178.60 39.86
  C 182.61 45.49 183.53 53.59 180.84 59.87
  Q 175.85 71.51 163.03 72.85
  Q 159.62 73.21 156.72 72.18
  Q 156.08 71.95 156.57 71.47
  Q 163.71 64.53 159.35 54.95
  C 156.41 48.47 151.12 53.58 147.82 56.09
  C 143.99 58.99 142.05 52.95 137.88 54.40
  Q 137.32 54.60 137.01 55.12
  C 136.00 56.81 134.14 55.31 133.13 57.55
  Q 132.89 58.10 132.30 58.20
  Q 121.90 59.85 114.06 52.47
  Z"
/>
<ellipse fill="#9a2c2e" cx="0.00" cy="0.00" transform="translate(92.89,38.05) rotate(106.1)" rx="3.17" ry="3.04"/>
<circle fill="#a92930" cx="100.70" cy="40.78" r="3.11"/>
<circle fill="#9a2c2e" cx="95.15" cy="45.23" r="3.07"/>
<circle fill="#a92930" cx="101.68" cy="49.35" r="3.09"/>
<path fill="#72bf58" d="
  M 114.06 52.47
  Q 113.80 61.35 110.23 69.69
  Q 109.90 70.44 110.73 70.46
  L 113.23 70.50
  Q 114.24 70.52 113.57 71.27
  C 111.79 73.26 112.58 77.92 109.79 78.56
  Q 109.07 78.72 109.43 79.37
  Q 109.85 80.14 109.89 81.03
  Q 109.91 81.60 110.38 81.93
  L 113.44 84.06
  Q 114.61 84.88 113.19 84.95
  Q 111.69 85.03 110.63 86.12
  A 1.67 1.66 -71.1 0 1 109.64 86.61
  Q 108.33 86.79 107.14 87.37
  A 1.76 1.76 0.0 0 1 105.84 87.47
  Q 103.77 86.82 102.07 88.52
  Q 101.62 88.97 101.40 88.37
  Q 101.17 87.75 101.49 87.04
  Q 102.15 85.56 100.47 85.25
  A 1.04 1.04 0.0 0 0 99.24 86.26
  L 99.22 88.72
  Q 99.21 89.35 98.59 89.29
  Q 96.60 89.09 95.25 90.64
  A 0.54 0.54 0.0 0 1 94.31 90.37
  L 94.11 89.03
  Q 93.99 88.22 93.35 88.73
  Q 90.88 90.68 87.94 91.79
  Q 76.31 96.17 64.29 95.04
  C 48.49 93.55 32.05 88.03 25.86 72.39
  C 24.23 68.26 23.66 63.07 25.80 59.16
  C 30.50 50.61 41.81 49.24 47.42 57.95
  Q 47.53 58.12 47.36 58.24
  L 47.12 58.41
  Q 46.79 58.64 46.54 58.32
  Q 43.34 54.33 39.51 53.87
  Q 33.34 53.14 29.64 57.86
  C 23.65 65.52 30.43 76.57 36.85 81.40
  Q 45.23 87.71 55.09 89.30
  C 60.46 90.17 66.66 91.26 72.29 90.76
  Q 80.77 90.01 88.74 86.30
  Q 89.99 85.72 88.66 85.37
  L 87.03 84.94
  Q 85.47 84.54 86.55 83.34
  Q 88.82 80.84 91.81 81.47
  A 0.32 0.32 0.0 0 0 92.20 81.16
  L 92.22 80.63
  A 0.32 0.31 85.7 0 0 91.85 80.30
  Q 88.06 80.97 85.56 78.11
  Q 85.09 77.57 85.73 77.26
  L 86.47 76.90
  A 0.57 0.57 0.0 0 0 86.73 76.11
  C 85.29 73.46 87.04 72.12 86.36 69.69
  Q 86.20 69.11 86.80 69.11
  Q 89.67 69.10 91.78 70.12
  Q 92.32 70.38 92.65 69.88
  Q 95.04 66.21 98.89 63.67
  Q 99.46 63.29 99.80 62.69
  L 100.27 61.88
  A 0.47 0.47 0.0 0 1 101.06 61.84
  L 101.92 63.04
  Q 102.23 63.47 102.73 63.64
  Q 104.90 64.37 105.84 66.47
  A 0.49 0.49 0.0 0 0 106.74 66.45
  Q 110.02 57.97 110.10 47.52
  L 114.06 52.47
  Z"
/>
<circle fill="#9a2c2e" cx="56.07" cy="52.23" r="3.10"/>
<circle fill="#9a2c2e" cx="66.37" cy="52.29" r="3.06"/>
<circle fill="#a92930" cx="73.81" cy="53.01" r="3.10"/>
<circle fill="#9a2c2e" cx="94.85" cy="53.00" r="3.07"/>
<circle fill="#9a2c2e" cx="82.73" cy="55.74" r="3.05"/>
<circle fill="#9a2c2e" cx="61.41" cy="57.04" r="3.06"/>
<path fill="#9a2c2e" d="
  M 147.99 73.25
  C 153.91 70.76 158.79 64.29 157.22 57.64
  Q 156.91 56.33 156.85 55.03
  Q 156.76 53.19 157.75 54.75
  Q 159.28 57.16 159.25 60.89
  C 159.15 74.59 140.05 81.87 129.59 74.93
  Q 124.04 71.24 121.73 65.25
  A 0.42 0.42 0.0 0 1 121.95 64.72
  L 122.26 64.60
  Q 122.50 64.49 122.64 64.72
  Q 131.69 80.13 147.99 73.25
  Z"
/>
<ellipse fill="#9a2c2e" cx="0.00" cy="0.00" transform="translate(153.15,56.06) rotate(-32.7)" rx="1.34" ry="1.20"/>
<circle fill="#9a2c2e" cx="138.26" cy="56.88" r="1.31"/>
<circle fill="#9a2c2e" cx="68.52" cy="59.45" r="3.05"/>
<circle fill="#9a2c2e" cx="76.21" cy="59.42" r="3.05"/>
<path fill="#9a2c2e" d="
  M 144.63 61.08
  Q 145.10 61.39 145.41 61.87
  Q 145.66 62.25 145.57 62.68
  Q 145.38 63.61 144.46 63.89
  A 0.82 0.82 0.0 0 1 143.69 63.73
  Q 142.91 63.09 143.16 62.17
  Q 143.32 61.59 143.86 61.32
  Q 144.01 61.25 144.09 61.10
  A 0.52 0.52 0.0 0 0 143.90 60.41
  Q 143.18 59.99 142.98 59.19
  Q 142.84 58.61 142.32 58.90
  Q 141.53 59.33 140.72 59.00
  Q 140.23 58.80 140.11 58.29
  Q 139.93 57.43 140.50 56.90
  Q 141.05 56.39 141.74 56.77
  Q 142.35 57.11 142.72 57.69
  Q 142.98 58.10 143.47 58.08
  L 144.71 58.01
  A 0.91 0.90 -77.9 0 1 145.56 59.33
  Q 145.22 60.00 144.62 60.45
  Q 144.19 60.77 144.63 61.08
  Z"
/>
<path fill="#9a2c2e" d="
  M 148.08 61.50
  Q 148.04 62.18 148.52 62.60
  Q 148.92 62.94 148.96 63.46
  Q 149.02 64.17 148.55 64.71
  A 0.96 0.94 -55.3 0 1 147.39 64.93
  Q 146.80 64.61 146.61 63.92
  Q 146.48 63.41 146.85 63.05
  L 147.06 62.84
  A 0.49 0.47 50.5 0 0 147.11 62.22
  L 146.24 60.99
  A 1.16 1.15 35.5 0 1 146.07 59.99
  Q 146.25 59.40 146.77 59.09
  Q 147.23 58.80 147.63 59.18
  L 149.14 60.59
  Q 149.46 60.88 149.76 60.58
  L 150.02 60.32
  A 0.64 0.63 34.6 0 0 149.83 59.30
  Q 148.85 58.84 148.95 57.81
  A 1.07 1.06 -84.7 0 1 150.09 56.86
  Q 151.60 56.97 151.69 58.11
  Q 151.73 58.67 151.31 59.05
  L 151.08 59.25
  Q 150.62 59.66 151.04 60.11
  L 151.74 60.86
  Q 152.21 61.36 151.89 61.96
  Q 151.56 62.58 150.86 62.83
  Q 150.35 63.01 150.06 62.56
  Q 149.49 61.70 148.75 61.18
  Q 148.12 60.74 148.08 61.50
  Z"
/>
<circle fill="#9a2c2e" cx="135.39" cy="58.51" r="1.39"/>
<circle fill="#9a2c2e" cx="92.26" cy="60.57" r="3.10"/>
<circle fill="#9a2c2e" cx="153.49" cy="59.59" r="1.34"/>
<circle fill="#9a2c2e" cx="138.12" cy="59.98" r="1.23"/>
<path fill="#9a2c2e" d="
  M 132.60 59.06
  A 0.42 0.42 0.0 0 1 133.13 59.33
  L 133.19 59.53
  A 2.09 1.12 71.5 0 1 132.80 61.86
  L 132.59 61.93
  A 2.09 1.12 71.5 0 1 130.86 60.31
  L 130.80 60.11
  A 0.42 0.42 0.0 0 1 131.06 59.58
  L 132.60 59.06
  Z"
/>
<circle fill="#9a2c2e" cx="140.95" cy="61.38" r="1.25"/>
<circle fill="#9a2c2e" cx="128.91" cy="62.07" r="1.25"/>
<circle fill="#9a2c2e" cx="135.35" cy="62.00" r="1.30"/>
<circle fill="#9a2c2e" cx="153.71" cy="63.25" r="1.33"/>
<ellipse fill="#9a2c2e" cx="0.00" cy="0.00" transform="translate(138.14,63.58) rotate(109.3)" rx="1.51" ry="1.17"/>
<circle fill="#9a2c2e" cx="132.24" cy="63.86" r="1.34"/>
<circle fill="#9a2c2e" cx="125.69" cy="64.29" r="1.34"/>
<circle fill="#9a2c2e" cx="141.39" cy="65.03" r="1.26"/>
<circle fill="#9a2c2e" cx="135.16" cy="65.50" r="1.28"/>
<path fill="#9a2c2e" d="
  M 151.58 67.27
  Q 152.78 68.08 152.24 69.54
  A 0.79 0.78 11.9 0 1 151.43 70.06
  Q 150.11 69.95 149.96 68.63
  Q 149.87 67.87 150.56 67.50
  Q 151.02 67.26 150.64 66.89
  Q 150.09 66.38 149.90 65.64
  Q 149.70 64.86 150.26 64.40
  Q 150.92 63.88 151.79 64.24
  A 0.76 0.75 8.0 0 1 152.23 64.82
  Q 152.39 65.96 151.54 66.72
  Q 151.21 67.02 151.58 67.27
  Z"
/>
<path fill="#9a2c2e" d="
  M 128.76 67.02
  C 127.36 66.35 127.85 64.32 129.49 64.43
  Q 129.93 64.47 130.04 64.89
  Q 130.37 66.09 129.79 67.11
  Q 129.51 67.62 129.97 67.97
  Q 130.96 68.76 130.56 69.80
  A 1.05 1.05 0.0 0 1 129.37 70.45
  Q 128.10 70.18 128.03 69.12
  Q 128.00 68.51 128.48 68.13
  L 128.85 67.83
  Q 129.46 67.35 128.76 67.02
  Z"
/>
<circle fill="#9a2c2e" cx="144.87" cy="66.06" r="1.29"/>
<circle fill="#9a2c2e" cx="57.72" cy="68.45" r="3.08"/>
<circle fill="#9a2c2e" cx="138.52" cy="66.94" r="1.30"/>
<circle fill="#9a2c2e" cx="132.22" cy="66.97" r="1.28"/>
<path fill="#9a2c2e" d="
  M 147.70 68.82
  C 146.72 68.21 146.76 66.80 147.71 66.22
  A 1.01 1.01 0.0 0 1 149.24 67.05
  Q 149.29 68.22 148.84 69.21
  Q 148.67 69.58 149.03 69.76
  Q 149.66 70.09 149.58 71.04
  A 1.07 1.06 88.0 0 1 148.69 72.01
  Q 147.30 72.24 147.01 71.05
  A 0.94 0.93 64.0 0 1 147.33 70.10
  L 147.75 69.75
  Q 148.38 69.25 147.70 68.82
  Z"
/>
<circle fill="#9a2c2e" cx="65.10" cy="69.59" r="3.05"/>
<circle fill="#9a2c2e" cx="81.35" cy="69.73" r="3.05"/>
<circle fill="#9a2c2e" cx="73.45" cy="70.13" r="3.06"/>
<rect fill="#9a2c2e" x="-1.10" y="-1.37" transform="translate(141.94,68.66) rotate(3.2)" width="2.20" height="2.74" rx="0.87"/>
<circle fill="#9a2c2e" cx="135.29" cy="68.95" r="1.31"/>
<circle fill="#9a2c2e" cx="145.13" cy="69.82" r="1.29"/>
<circle fill="#9a2c2e" cx="138.77" cy="70.56" r="1.30"/>
<circle fill="#9a2c2e" cx="132.32" cy="70.93" r="1.34"/>
<ellipse fill="#9a2c2e" cx="0.00" cy="0.00" transform="translate(142.22,72.23) rotate(-33.1)" rx="1.41" ry="1.28"/>
<circle fill="#9a2c2e" cx="60.85" cy="75.59" r="3.06"/>
<circle fill="#9a2c2e" cx="69.13" cy="75.88" r="3.05"/>
<circle fill="#9a2c2e" cx="77.81" cy="76.17" r="3.10"/>
<circle fill="#9a2c2e" cx="64.61" cy="81.74" r="3.02"/>
<circle fill="#9a2c2e" cx="73.46" cy="82.20" r="3.06"/>
<path fill="#9a2c2e" d="
  M 217.71 96.13
  Q 183.89 81.48 150.32 88.11
  C 124.00 93.30 99.96 105.86 73.46 109.40
  Q 58.36 111.41 44.54 109.22
  Q 25.52 106.21 7.83 96.59
  A 0.27 0.26 26.6 0 1 7.71 96.24
  L 7.86 95.93
  Q 7.95 95.75 8.13 95.82
  Q 15.70 99.00 23.71 101.53
  Q 51.94 110.44 81.28 103.78
  C 102.46 98.97 122.53 89.78 143.92 85.08
  C 158.64 81.85 174.45 81.39 189.18 84.75
  Q 204.29 88.20 218.43 95.39
  Q 218.73 95.55 218.47 95.76
  L 218.10 96.07
  A 0.38 0.37 -52.9 0 1 217.71 96.13
  Z"
/>
<circle fill="#9a2c2e" cx="68.75" cy="87.16" r="3.05"/>
<path fill="#11110d" d="
  M 173.16 96.34
  Q 172.56 101.58 172.53 106.58
  C 172.52 108.41 172.14 110.13 174.19 110.86
  Q 174.69 111.04 174.83 111.56
  Q 174.93 111.93 174.48 112.24
  A 0.37 0.35 27.4 0 1 174.28 112.30
  L 166.36 112.05
  A 0.56 0.55 7.4 0 1 165.84 111.38
  Q 165.96 110.84 166.52 110.56
  Q 167.53 110.05 168.32 109.40
  Q 168.76 109.03 168.75 108.46
  Q 168.67 102.48 169.26 96.64
  Q 169.33 95.97 168.70 95.75
  Q 167.51 95.34 166.08 95.61
  Q 165.45 95.73 165.21 96.31
  Q 164.86 97.16 164.36 97.94
  Q 163.21 99.73 163.33 97.60
  Q 163.45 95.52 163.79 93.00
  Q 163.90 92.25 164.51 92.71
  L 164.99 93.07
  Q 165.60 93.52 166.36 93.55
  L 176.71 94.01
  Q 177.23 94.03 177.63 93.69
  L 178.57 92.88
  A 0.40 0.40 0.0 0 1 179.22 93.22
  L 178.67 98.90
  A 0.33 0.33 0.0 0 1 178.26 99.19
  Q 177.66 99.04 177.60 98.44
  Q 177.30 95.27 173.77 95.72
  Q 173.22 95.79 173.16 96.34
  Z"
/>
<path fill="#11110d" d="
  M 151.52 111.36
  L 152.65 111.81
  A 0.65 0.62 89.4 0 1 152.98 112.15
  Q 153.11 112.46 153.04 112.70
  Q 152.97 112.98 152.68 113.02
  L 147.62 113.73
  A 0.65 0.65 0.0 0 1 146.90 113.18
  Q 146.85 112.78 147.26 112.51
  Q 148.83 111.47 149.25 109.62
  Q 150.66 103.44 151.75 97.00
  Q 152.08 95.03 153.94 94.12
  A 0.57 0.57 0.0 0 1 154.72 94.41
  Q 157.33 100.66 160.40 107.63
  Q 161.38 109.86 163.31 110.75
  Q 164.01 111.07 163.73 111.77
  Q 163.57 112.17 163.14 112.15
  Q 160.21 111.98 157.39 112.61
  Q 155.00 113.15 156.48 111.20
  Q 157.76 109.51 156.22 107.63
  A 1.21 1.20 67.7 0 0 155.20 107.20
  L 152.01 107.46
  A 0.82 0.81 -83.2 0 0 151.32 108.01
  Q 150.92 109.25 150.97 110.58
  Q 150.99 111.15 151.52 111.36
  Z
  M 151.72 105.23
  A 0.39 0.39 0.0 0 0 152.15 105.67
  L 154.86 105.35
  A 0.39 0.39 0.0 0 0 155.18 104.81
  L 153.22 99.91
  A 0.39 0.39 0.0 0 0 152.47 100.00
  L 151.72 105.23
  Z"
/>
<path fill="#11110d" d="
  M 182.71 108.07
  Q 180.97 110.39 182.70 111.97
  Q 184.22 113.36 182.17 113.12
  Q 180.23 112.89 178.31 112.55
  Q 175.68 112.08 178.10 110.93
  Q 179.69 110.18 180.71 108.27
  Q 183.58 102.88 185.88 98.08
  C 186.49 96.83 187.57 95.93 188.78 95.30
  Q 189.66 94.84 189.78 95.83
  Q 190.67 103.56 191.75 110.98
  Q 191.98 112.52 193.53 114.15
  Q 194.76 115.45 193.00 115.15
  L 186.76 114.07
  Q 185.06 113.77 186.49 112.81
  Q 188.52 111.43 187.58 109.13
  Q 187.32 108.49 186.64 108.35
  L 183.61 107.72
  Q 183.05 107.61 182.71 108.07
  Z
  M 183.91 105.17
  A 0.49 0.49 0.0 0 0 184.26 105.87
  L 186.73 106.32
  A 0.49 0.49 0.0 0 0 187.31 105.79
  L 186.87 101.20
  A 0.49 0.49 0.0 0 0 185.94 101.03
  L 183.91 105.17
  Z"
/>
<path fill="#11110d" d="
  M 131.45 105.38
  C 132.01 108.04 132.81 110.66 133.54 113.33
  Q 133.88 114.60 135.09 115.01
  Q 137.89 115.97 135.02 116.70
  Q 133.02 117.21 130.76 117.66
  Q 129.83 117.85 130.24 116.99
  Q 130.50 116.43 131.04 116.14
  A 1.57 1.56 71.2 0 0 131.85 114.48
  Q 130.91 109.11 129.55 103.13
  C 129.24 101.77 128.07 101.14 126.73 101.10
  Q 126.17 101.08 125.93 100.59
  Q 125.65 100.04 126.25 99.87
  C 128.09 99.34 130.70 98.36 132.34 99.84
  Q 136.98 103.98 141.29 107.33
  Q 141.92 107.81 141.87 107.02
  C 141.74 105.06 141.09 102.91 140.59 100.94
  Q 140.01 98.72 137.88 98.48
  Q 137.43 98.42 137.25 98.00
  Q 137.12 97.69 137.28 97.39
  A 0.71 0.69 -76.5 0 1 137.85 97.03
  Q 139.76 96.91 141.76 96.04
  Q 143.44 95.31 142.90 97.05
  Q 142.70 97.69 142.14 97.90
  Q 141.54 98.13 141.68 98.76
  L 145.00 113.91
  A 0.84 0.81 62.2 0 1 144.78 114.66
  Q 144.13 115.33 143.42 114.71
  Q 137.92 109.96 132.11 104.99
  Q 131.20 104.20 131.45 105.38
  Z"
/>
<path fill="#ffffff" d="
  M 151.72 105.23
  L 152.47 100.00
  A 0.39 0.39 0.0 0 1 153.22 99.91
  L 155.18 104.81
  A 0.39 0.39 0.0 0 1 154.86 105.35
  L 152.15 105.67
  A 0.39 0.39 0.0 0 1 151.72 105.23
  Z"
/>
<path fill="#ffffff" d="
  M 183.91 105.17
  L 185.94 101.03
  A 0.49 0.49 0.0 0 1 186.87 101.20
  L 187.31 105.79
  A 0.49 0.49 0.0 0 1 186.73 106.32
  L 184.26 105.87
  A 0.49 0.49 0.0 0 1 183.91 105.17
  Z"
/>
<path fill="#11110d" d="
  M 100.79 121.43
  Q 101.31 122.80 102.00 124.17
  Q 102.23 124.62 102.67 124.87
  L 104.13 125.71
  A 0.58 0.58 0.0 0 1 104.03 126.76
  L 97.86 128.87
  Q 97.34 129.05 97.26 128.50
  Q 97.20 128.12 97.44 127.80
  C 98.05 126.96 98.56 126.09 98.24 125.03
  Q 96.48 119.17 94.48 113.74
  Q 94.28 113.18 93.72 112.96
  Q 93.25 112.78 92.74 112.61
  Q 90.81 111.93 92.73 111.21
  Q 95.78 110.07 99.01 108.86
  C 103.95 107.01 107.21 112.11 104.80 116.31
  Q 104.50 116.81 104.85 117.29
  Q 107.79 121.27 111.92 123.02
  Q 112.48 123.26 112.92 122.83
  C 113.95 121.84 114.83 120.65 114.85 119.14
  Q 114.90 113.22 114.69 107.28
  Q 114.61 104.87 116.19 102.71
  A 0.48 0.48 0.0 0 1 116.98 102.72
  Q 121.19 108.90 126.07 115.45
  Q 127.09 116.82 128.64 117.10
  Q 129.25 117.21 129.43 117.81
  Q 129.48 117.98 129.40 118.13
  Q 129.30 118.32 129.11 118.38
  L 123.34 120.19
  Q 121.32 120.82 122.33 118.96
  Q 123.21 117.33 121.50 115.68
  Q 120.96 115.16 120.25 115.37
  L 117.34 116.24
  Q 116.63 116.45 116.53 117.18
  Q 116.09 120.20 118.47 120.60
  Q 119.05 120.69 119.02 121.28
  Q 118.97 121.97 118.29 122.09
  C 117.06 122.30 116.10 122.33 114.97 122.97
  Q 114.30 123.35 113.54 123.21
  Q 113.07 123.13 112.72 123.45
  C 108.50 127.44 105.32 123.20 102.28 120.42
  Q 99.43 117.82 100.79 121.43
  Z
  M 116.23 114.24
  A 0.34 0.34 0.0 0 0 116.68 114.57
  L 119.59 113.63
  A 0.34 0.34 0.0 0 0 119.76 113.11
  L 116.81 108.91
  A 0.34 0.34 0.0 0 0 116.19 109.11
  L 116.23 114.24
  Z
  M 97.70 111.81
  L 99.75 117.49
  A 0.70 0.70 0.0 0 0 100.65 117.91
  L 100.81 117.85
  A 3.26 2.72 70.2 0 0 102.27 113.86
  L 101.96 113.00
  A 3.26 2.72 70.2 0 0 98.29 110.85
  L 98.12 110.91
  A 0.70 0.70 0.0 0 0 97.70 111.81
  Z"
/>
<path fill="#ffffff" d="
  M 116.23 114.24
  L 116.19 109.11
  A 0.34 0.34 0.0 0 1 116.81 108.91
  L 119.76 113.11
  A 0.34 0.34 0.0 0 1 119.59 113.63
  L 116.68 114.57
  A 0.34 0.34 0.0 0 1 116.23 114.24
  Z"
/>
<path fill="#ffffff" d="
  M 97.70 111.81
  A 0.70 0.70 0.0 0 1 98.12 110.91
  L 98.29 110.85
  A 3.26 2.72 70.2 0 1 101.96 113.00
  L 102.27 113.86
  A 3.26 2.72 70.2 0 1 100.81 117.85
  L 100.65 117.91
  A 0.70 0.70 0.0 0 1 99.75 117.49
  L 97.70 111.81
  Z"
/>
<path fill="#11110d" d="
  M 91.42 124.10
  Q 91.76 126.02 92.44 127.89
  Q 92.88 129.10 91.97 129.97
  C 89.50 132.31 86.14 133.16 82.83 132.38
  C 78.10 131.27 75.19 124.61 76.42 120.19
  Q 78.62 112.31 87.62 113.20
  Q 88.23 113.26 88.54 113.79
  Q 89.21 114.94 89.60 116.28
  Q 90.64 119.88 88.25 116.98
  C 87.35 115.88 86.00 114.64 84.47 114.76
  C 76.45 115.38 80.83 130.86 87.31 130.79
  A 1.53 1.52 -3.1 0 0 88.81 129.12
  Q 88.64 127.26 87.83 125.13
  A 1.28 1.27 -7.5 0 0 86.77 124.32
  Q 86.21 124.26 85.75 124.00
  Q 84.26 123.18 85.90 122.75
  L 91.51 121.27
  Q 92.85 120.92 92.28 122.18
  Q 92.08 122.62 91.76 122.95
  Q 91.30 123.44 91.42 124.10
  Z"
/>
<path fill="#11110d" d="
  M 39.32 132.17
  L 39.16 130.29
  A 0.95 0.95 0.0 0 0 38.38 129.43
  L 34.96 128.81
  Q 34.41 128.71 34.08 129.17
  Q 32.39 131.53 34.39 133.12
  Q 34.84 133.48 34.49 133.94
  Q 34.21 134.29 33.75 134.19
  Q 31.72 133.76 29.89 133.47
  Q 26.93 133.01 29.62 131.69
  C 30.37 131.32 30.95 131.24 31.41 130.42
  Q 34.75 124.61 37.91 118.09
  C 38.41 117.05 39.58 116.57 40.60 116.21
  A 0.49 0.48 77.2 0 1 41.24 116.62
  Q 42.14 124.54 43.33 132.30
  Q 43.55 133.75 44.67 134.81
  Q 46.62 136.67 44.00 136.04
  Q 41.00 135.33 37.84 135.09
  A 0.56 0.56 0.0 0 1 37.45 134.18
  Q 37.95 133.56 38.70 133.22
  Q 39.38 132.91 39.32 132.17
  Z
  M 35.26 126.41
  A 0.34 0.34 0.0 0 0 35.51 126.89
  L 38.31 127.41
  A 0.34 0.34 0.0 0 0 38.71 127.04
  L 38.25 121.74
  A 0.34 0.34 0.0 0 0 37.60 121.62
  L 35.26 126.41
  Z"
/>
<path fill="#11110d" d="
  M 55.95 119.97
  L 52.62 119.92
  Q 52.05 119.91 51.69 120.34
  Q 50.79 121.42 50.14 122.71
  Q 49.89 123.20 49.36 123.19
  Q 48.68 123.17 48.83 122.50
  L 49.80 118.35
  Q 49.91 117.88 50.39 117.89
  L 61.35 118.03
  A 0.57 0.56 -77.3 0 1 61.85 118.83
  L 54.90 133.67
  A 0.63 0.63 0.0 0 0 55.47 134.56
  L 59.59 134.56
  Q 60.27 134.56 60.67 134.01
  Q 61.30 133.11 61.94 132.17
  Q 64.09 129.02 63.37 132.76
  Q 63.04 134.49 62.06 135.92
  Q 61.68 136.47 61.01 136.47
  L 49.78 136.49
  A 0.64 0.64 0.0 0 1 49.22 135.54
  Q 53.40 128.17 56.52 120.86
  Q 56.90 119.99 55.95 119.97
  Z"
/>
<path fill="#9a2c2e" d="
  M 208.25 128.21
  Q 211.83 129.83 215.69 131.46
  A 0.35 0.34 19.1 0 1 215.89 131.86
  L 215.76 132.34
  Q 215.67 132.67 215.36 132.53
  Q 199.86 125.81 183.55 123.39
  C 161.99 120.20 140.43 124.99 119.79 132.22
  C 95.22 140.83 69.86 149.63 43.43 145.76
  Q 23.85 142.90 4.83 132.65
  Q 4.70 132.57 4.75 132.43
  L 4.85 132.13
  Q 4.96 131.84 5.24 131.96
  Q 9.74 133.79 14.12 135.45
  Q 50.11 149.13 88.10 137.77
  C 104.72 132.80 121.15 126.36 138.35 122.13
  Q 174.83 113.14 208.25 128.21
  Z"
/>
<path fill="#ffffff" d="
  M 35.26 126.41
  L 37.60 121.62
  A 0.34 0.34 0.0 0 1 38.25 121.74
  L 38.71 127.04
  A 0.34 0.34 0.0 0 1 38.31 127.41
  L 35.51 126.89
  A 0.34 0.34 0.0 0 1 35.26 126.41
  Z"
/>
<path fill="#11110d" d="
  M 67.46 128.10
  L 72.35 126.72
  A 0.62 0.62 0.0 0 1 73.13 127.37
  L 72.99 129.07
  A 0.62 0.62 0.0 0 1 72.51 129.62
  L 67.75 130.75
  A 0.62 0.62 0.0 0 1 66.98 130.13
  L 67.01 128.68
  A 0.62 0.62 0.0 0 1 67.46 128.10
  Z"
/>
</svg>
