<?xml version="1.0" encoding="UTF-8" standalone="no"?>
<!DOCTYPE svg PUBLIC "-//W3C//DTD SVG 1.1//EN" "http://www.w3.org/Graphics/SVG/1.1/DTD/svg11.dtd">
<svg xmlns="http://www.w3.org/2000/svg" version="1.1" viewBox="0.00 0.00 275.00 183.00">
<g stroke-width="2.00" fill="none" stroke-linecap="butt">
<path stroke="#f68e91" vector-effect="non-scaling-stroke" d="
  M 180.69 148.53
  A 0.52 0.52 0.0 0 0 181.12 148.76
  L 242.64 148.74
  A 0.52 0.52 0.0 0 0 243.07 147.92
  L 140.41 1.39
  A 0.52 0.52 0.0 0 0 139.56 1.38
  L 109.89 42.14
  A 0.52 0.52 0.0 0 0 109.88 42.73
  L 180.69 148.53"
/>
<path stroke="#cfd0ce" vector-effect="non-scaling-stroke" d="
  M 119.50 110.19
  A 0.25 0.25 0.0 0 1 119.30 109.79
  L 133.74 89.29
  A 1.33 1.32 45.3 0 0 133.74 87.76
  L 106.59 48.72
  A 0.64 0.64 0.0 0 0 105.54 48.71
  Q 71.65 97.03 35.60 147.98
  Q 35.48 148.14 35.53 148.33
  Q 35.69 148.96 36.34 148.93
  Q 40.71 148.75 45.01 148.76
  Q 46.32 148.76 170.85 148.86
  A 0.64 0.63 73.6 0 0 171.38 147.88
  L 147.82 111.38
  A 2.79 2.77 73.3 0 0 145.47 110.11
  L 119.50 110.19"
/>
<path stroke="#f68e91" vector-effect="non-scaling-stroke" d="
  M 43.07 177.72
  L 44.60 181.62
  Q 44.86 182.30 45.59 182.23
  L 47.78 182.04
  A 0.59 0.58 76.6 0 0 48.27 181.24
  L 40.89 162.55
  Q 40.56 161.72 39.68 161.89
  Q 38.94 162.03 38.16 161.84
  Q 37.32 161.64 36.99 162.45
  L 29.51 181.26
  Q 29.07 182.34 30.24 182.27
  L 32.29 182.16
  Q 33.46 182.10 33.78 180.98
  L 34.63 177.98
  A 1.15 1.15 0.0 0 1 35.71 177.14
  L 42.00 177.01
  Q 42.78 176.99 43.07 177.72"
/>
<path stroke="#cfd0ce" vector-effect="non-scaling-stroke" d="
  M 128.8685 162.3743
  A 0.35 0.35 0.0 0 0 128.5235 162.0194
  L 125.7637 161.9809
  A 0.35 0.35 0.0 0 0 125.4089 162.3260
  L 125.3715 165.0057
  A 0.35 0.35 0.0 0 0 125.7165 165.3606
  L 128.4763 165.3991
  A 0.35 0.35 0.0 0 0 128.8311 165.0540
  L 128.8685 162.3743"
/>
<path stroke="#cfd0ce" vector-effect="non-scaling-stroke" d="
  M 134.7606 162.6446
  A 0.69 0.69 0.0 0 0 134.0840 161.9414
  L 131.8844 161.8992
  A 0.69 0.69 0.0 0 0 131.1813 162.5758
  L 131.1394 164.7554
  A 0.69 0.69 0.0 0 0 131.8160 165.4586
  L 134.0156 165.5008
  A 0.69 0.69 0.0 0 0 134.7187 164.8242
  L 134.7606 162.6446"
/>
<path stroke="#cfd0ce" vector-effect="non-scaling-stroke" d="
  M 118.5323 163.0169
  A 0.71 0.71 0.0 0 0 117.8248 162.3044
  L 115.3448 162.2957
  A 0.71 0.71 0.0 0 0 114.6323 163.0032
  L 114.5677 181.5031
  A 0.71 0.71 0.0 0 0 115.2752 182.2156
  L 117.7552 182.2243
  A 0.71 0.71 0.0 0 0 118.4677 181.5168
  L 118.5323 163.0169"
/>
<path stroke="#cfd0ce" vector-effect="non-scaling-stroke" d="
  M 171.6257 163.0601
  A 0.71 0.71 0.0 0 0 170.9195 162.3464
  L 168.4995 162.3337
  A 0.71 0.71 0.0 0 0 167.7858 163.0400
  L 167.7743 165.2399
  A 0.71 0.71 0.0 0 0 168.4805 165.9536
  L 170.9005 165.9663
  A 0.71 0.71 0.0 0 0 171.6142 165.2600
  L 171.6257 163.0601"
/>
<path stroke="#cfd0ce" vector-effect="non-scaling-stroke" d="
  M 198.9754 163.3043
  A 0.90 0.90 0.0 0 0 198.0913 162.3888
  L 195.9716 162.3518
  A 0.90 0.90 0.0 0 0 195.0560 163.2359
  L 195.0246 165.0357
  A 0.90 0.90 0.0 0 0 195.9087 165.9512
  L 198.0284 165.9882
  A 0.90 0.90 0.0 0 0 198.9440 165.1041
  L 198.9754 163.3043"
/>
<path stroke="#cfd0ce" vector-effect="non-scaling-stroke" d="
  M 145.35 168.22
  Q 143.92 167.24 142.01 167.50
  Q 141.46 167.58 141.45 168.13
  L 141.29 181.09
  Q 141.27 182.67 142.84 182.48
  L 144.52 182.28
  Q 145.66 182.14 145.66 180.99
  L 145.68 173.38
  A 2.61 2.60 88.4 0 1 148.12 170.79
  L 148.49 170.76
  A 1.45 1.45 0.0 0 1 150.03 172.24
  L 149.85 180.74
  Q 149.81 182.42 151.50 182.45
  L 152.67 182.47
  Q 154.34 182.50 154.33 180.83
  L 154.28 173.08
  Q 154.27 170.92 156.42 170.79
  L 156.94 170.76
  A 1.46 1.45 87.6 0 1 158.49 172.19
  L 158.69 181.58
  A 0.85 0.85 0.0 0 0 159.58 182.41
  L 162.19 182.31
  Q 163.01 182.27 163.01 181.45
  Q 162.99 177.05 162.99 172.49
  C 162.99 167.04 157.81 166.09 154.19 168.84
  Q 153.74 169.18 153.23 168.93
  Q 152.81 168.72 152.52 168.36
  Q 152.22 168.00 151.77 167.85
  C 150.44 167.39 148.35 167.19 147.11 168.04
  Q 146.51 168.44 145.83 168.39
  Q 145.56 168.37 145.35 168.22"
/>
<path stroke="#f68e91" vector-effect="non-scaling-stroke" d="
  M 89.57 168.92
  Q 88.50 167.25 86.02 167.90
  Q 85.54 168.02 85.54 168.53
  L 85.62 181.43
  Q 85.62 182.24 86.43 182.23
  L 88.97 182.19
  A 0.58 0.57 -3.2 0 0 89.54 181.56
  Q 89.14 177.10 89.64 173.49
  Q 90.09 170.23 93.21 171.28
  A 0.71 0.71 0.0 0 0 94.12 170.81
  L 94.68 168.93
  Q 94.90 168.15 94.16 167.85
  Q 91.37 166.74 89.82 168.93
  Q 89.69 169.11 89.57 168.92"
/>
<path stroke="#cfd0ce" vector-effect="non-scaling-stroke" d="
  M 106.28 181.53
  Q 107.79 182.34 109.47 182.29
  Q 110.08 182.27 109.98 181.67
  Q 109.24 177.39 109.51 172.58
  C 109.77 167.87 105.91 167.15 102.17 167.54
  Q 98.70 167.89 97.32 170.77
  A 0.90 0.89 18.3 0 0 97.96 172.04
  C 100.72 172.56 101.98 170.19 104.65 170.78
  Q 105.54 170.97 105.77 171.74
  A 0.90 0.89 72.2 0 1 105.21 172.84
  C 102.21 173.90 96.53 173.77 96.79 178.50
  C 97.04 183.03 102.16 182.95 105.15 181.50
  A 1.26 1.25 46.3 0 1 106.28 181.53"
/>
<path stroke="#cfd0ce" vector-effect="non-scaling-stroke" d="
  M 133.06 181.24
  L 133.13 181.68
  Q 133.23 182.32 133.87 182.40
  Q 135.10 182.56 136.20 182.06
  A 1.09 1.07 78.4 0 0 136.84 181.07
  L 136.84 168.72
  A 0.93 0.92 -88.4 0 0 135.97 167.79
  L 133.57 167.65
  A 0.79 0.78 1.0 0 0 132.74 168.44
  L 132.76 176.25
  Q 132.76 178.54 130.34 179.48
  Q 129.97 179.63 129.57 179.58
  Q 127.48 179.35 127.48 177.25
  L 127.50 168.40
  Q 127.50 167.79 126.90 167.78
  L 124.05 167.74
  A 0.55 0.55 0.0 0 0 123.49 168.28
  Q 123.41 173.23 123.59 178.18
  C 123.77 183.23 129.52 183.39 132.30 180.96
  Q 132.94 180.40 133.06 181.24"
/>
<path stroke="#cfd0ce" vector-effect="non-scaling-stroke" d="
  M 180.37 169.06
  Q 180.17 167.36 177.77 167.63
  A 1.15 1.14 -3.4 0 0 176.76 168.76
  L 176.73 181.37
  Q 176.73 182.21 177.57 182.23
  L 179.70 182.28
  Q 180.72 182.31 180.72 181.30
  L 180.73 173.65
  Q 180.73 171.17 183.11 170.49
  Q 183.49 170.39 183.87 170.43
  Q 185.99 170.68 185.99 172.81
  L 186.01 181.47
  A 0.70 0.70 0.0 0 0 186.72 182.17
  L 189.20 182.15
  A 0.64 0.63 -2.1 0 0 189.83 181.48
  Q 189.64 177.64 189.83 172.87
  C 190.05 167.29 184.51 166.15 180.89 169.26
  Q 180.44 169.65 180.37 169.06"
/>
<path stroke="#c1c2c1" vector-effect="non-scaling-stroke" d="
  M 210.38 179.65
  L 210.04 179.68
  Q 207.87 179.89 207.75 177.70
  Q 207.52 173.70 207.90 168.94
  Q 208.00 167.71 206.76 167.74
  L 204.93 167.80
  A 0.97 0.97 0.0 0 0 203.98 168.73
  Q 203.80 173.67 204.41 179.13
  C 204.87 183.14 209.90 182.65 212.36 181.30
  Q 213.33 180.76 213.93 181.73
  Q 214.23 182.21 214.79 182.20
  L 216.28 182.20
  Q 217.01 182.20 217.02 181.47
  L 217.12 168.55
  A 1.01 1.00 -1.6 0 0 216.05 167.54
  L 214.04 167.67
  Q 213.06 167.73 213.07 168.71
  L 213.12 176.62
  Q 213.13 179.39 210.38 179.65"
/>
<path stroke="#f68e91" vector-effect="non-scaling-stroke" d="
  M 75.86 170.65
  Q 77.47 171.49 77.72 173.33
  Q 77.79 173.86 77.26 173.86
  L 68.84 173.80
  Q 68.16 173.79 68.16 174.48
  Q 68.19 182.77 75.89 182.34
  C 81.35 182.03 82.37 175.10 80.74 171.10
  C 78.70 166.10 70.32 166.51 68.44 171.29
  Q 68.24 171.79 68.76 171.93
  Q 71.78 172.75 73.30 171.10
  A 2.15 2.14 -54.9 0 1 75.86 170.65"
/>
<path stroke="#cfd0ce" vector-effect="non-scaling-stroke" d="
  M 171.6985 168.4065
  A 0.64 0.64 0.0 0 0 171.0574 167.7677
  L 168.3574 167.7724
  A 0.64 0.64 0.0 0 0 167.7185 168.4135
  L 167.7415 181.6135
  A 0.64 0.64 0.0 0 0 168.3826 182.2523
  L 171.0826 182.2476
  A 0.64 0.64 0.0 0 0 171.7215 181.6065
  L 171.6985 168.4065"
/>
<path stroke="#cfd0ce" vector-effect="non-scaling-stroke" d="
  M 233.24 169.02
  C 229.75 165.68 226.88 170.10 224.47 167.93
  A 1.58 1.58 0.0 0 0 221.84 169.11
  L 221.93 181.11
  Q 221.94 182.29 223.11 182.27
  L 224.83 182.23
  Q 225.86 182.21 225.86 181.17
  L 225.84 173.34
  Q 225.83 171.08 228.04 170.63
  L 228.73 170.49
  Q 230.85 170.07 230.80 172.23
  L 230.57 180.85
  Q 230.54 182.17 231.85 182.21
  L 232.96 182.25
  Q 234.48 182.30 234.48 180.79
  L 234.52 172.59
  Q 234.52 172.00 234.94 171.59
  Q 235.93 170.64 237.45 170.43
  Q 239.25 170.17 239.33 171.90
  Q 239.52 175.77 239.20 181.01
  Q 239.13 182.09 240.21 182.14
  L 241.99 182.23
  Q 243.05 182.28 243.04 181.22
  Q 243.04 176.21 242.92 171.41
  C 242.82 166.89 237.39 167.00 234.70 169.10
  Q 233.94 169.69 233.24 169.02"
/>
<path stroke="#f68e91" vector-effect="non-scaling-stroke" d="
  M 58.52 170.84
  Q 59.67 170.79 58.94 171.68
  Q 56.10 175.13 53.19 178.19
  C 52.33 179.08 51.90 180.24 52.26 181.46
  A 1.04 1.03 -8.3 0 0 53.25 182.19
  L 64.79 182.17
  Q 65.24 182.17 65.23 181.71
  L 65.15 179.45
  A 0.49 0.49 0.0 0 0 64.73 178.98
  Q 61.99 178.54 59.15 178.87
  Q 56.85 179.14 58.50 177.51
  C 60.30 175.73 65.14 171.10 64.98 168.61
  A 0.75 0.75 0.0 0 0 64.23 167.91
  L 53.56 167.89
  Q 52.76 167.89 52.79 168.69
  L 52.85 170.12
  Q 52.89 171.09 53.87 171.05
  L 58.52 170.84"
/>
<path stroke="#c1c2c1" vector-effect="non-scaling-stroke" d="
  M 198.78 168.54
  A 0.55 0.55 0.0 0 0 198.23 167.99
  L 195.69 167.99
  A 0.55 0.55 0.0 0 0 195.14 168.54
  L 195.14 181.52
  A 0.55 0.55 0.0 0 0 195.69 182.07
  L 198.23 182.07
  A 0.55 0.55 0.0 0 0 198.78 181.52
  L 198.78 168.54"
/>
<path stroke="#f68e91" vector-effect="non-scaling-stroke" d="
  M 36.58 173.46
  A 0.33 0.33 0.0 0 0 36.89 173.90
  L 41.10 173.90
  A 0.33 0.33 0.0 0 0 41.41 173.45
  L 39.29 167.59
  A 0.33 0.33 0.0 0 0 38.67 167.60
  L 36.58 173.46"
/>
<path stroke="#cfd0ce" vector-effect="non-scaling-stroke" d="
  M 105.33 175.43
  Q 103.77 175.96 102.20 176.28
  Q 101.04 176.51 100.76 177.85
  A 1.47 1.47 0.0 0 0 101.60 179.49
  C 104.22 180.64 106.17 178.27 105.82 175.73
  A 0.37 0.37 0.0 0 0 105.33 175.43"
/>
<path stroke="#f68e91" vector-effect="non-scaling-stroke" d="
  M 77.05 176.22
  L 72.63 176.16
  A 0.51 0.51 0.0 0 0 72.12 176.67
  L 72.11 176.85
  A 2.77 2.58 -89.3 0 0 74.66 179.65
  L 74.94 179.65
  A 2.77 2.58 -89.3 0 0 77.55 176.91
  L 77.55 176.73
  A 0.51 0.51 0.0 0 0 77.05 176.22"
/>
</g>
<path fill="#ffffff" d="
  M 0.00 0.00
  L 275.00 0.00
  L 275.00 183.00
  L 0.00 183.00
  L 0.00 0.00
  Z
  M 180.69 148.53
  A 0.52 0.52 0.0 0 0 181.12 148.76
  L 242.64 148.74
  A 0.52 0.52 0.0 0 0 243.07 147.92
  L 140.41 1.39
  A 0.52 0.52 0.0 0 0 139.56 1.38
  L 109.89 42.14
  A 0.52 0.52 0.0 0 0 109.88 42.73
  L 180.69 148.53
  Z
  M 119.50 110.19
  A 0.25 0.25 0.0 0 1 119.30 109.79
  L 133.74 89.29
  A 1.33 1.32 45.3 0 0 133.74 87.76
  L 106.59 48.72
  A 0.64 0.64 0.0 0 0 105.54 48.71
  Q 71.65 97.03 35.60 147.98
  Q 35.48 148.14 35.53 148.33
  Q 35.69 148.96 36.34 148.93
  Q 40.71 148.75 45.01 148.76
  Q 46.32 148.76 170.85 148.86
  A 0.64 0.63 73.6 0 0 171.38 147.88
  L 147.82 111.38
  A 2.79 2.77 73.3 0 0 145.47 110.11
  L 119.50 110.19
  Z
  M 43.07 177.72
  L 44.60 181.62
  Q 44.86 182.30 45.59 182.23
  L 47.78 182.04
  A 0.59 0.58 76.6 0 0 48.27 181.24
  L 40.89 162.55
  Q 40.56 161.72 39.68 161.89
  Q 38.94 162.03 38.16 161.84
  Q 37.32 161.64 36.99 162.45
  L 29.51 181.26
  Q 29.07 182.34 30.24 182.27
  L 32.29 182.16
  Q 33.46 182.10 33.78 180.98
  L 34.63 177.98
  A 1.15 1.15 0.0 0 1 35.71 177.14
  L 42.00 177.01
  Q 42.78 176.99 43.07 177.72
  Z
  M 128.8685 162.3743
  A 0.35 0.35 0.0 0 0 128.5235 162.0194
  L 125.7637 161.9809
  A 0.35 0.35 0.0 0 0 125.4089 162.3260
  L 125.3715 165.0057
  A 0.35 0.35 0.0 0 0 125.7165 165.3606
  L 128.4763 165.3991
  A 0.35 0.35 0.0 0 0 128.8311 165.0540
  L 128.8685 162.3743
  Z
  M 134.7606 162.6446
  A 0.69 0.69 0.0 0 0 134.0840 161.9414
  L 131.8844 161.8992
  A 0.69 0.69 0.0 0 0 131.1813 162.5758
  L 131.1394 164.7554
  A 0.69 0.69 0.0 0 0 131.8160 165.4586
  L 134.0156 165.5008
  A 0.69 0.69 0.0 0 0 134.7187 164.8242
  L 134.7606 162.6446
  Z
  M 118.5323 163.0169
  A 0.71 0.71 0.0 0 0 117.8248 162.3044
  L 115.3448 162.2957
  A 0.71 0.71 0.0 0 0 114.6323 163.0032
  L 114.5677 181.5031
  A 0.71 0.71 0.0 0 0 115.2752 182.2156
  L 117.7552 182.2243
  A 0.71 0.71 0.0 0 0 118.4677 181.5168
  L 118.5323 163.0169
  Z
  M 171.6257 163.0601
  A 0.71 0.71 0.0 0 0 170.9195 162.3464
  L 168.4995 162.3337
  A 0.71 0.71 0.0 0 0 167.7858 163.0400
  L 167.7743 165.2399
  A 0.71 0.71 0.0 0 0 168.4805 165.9536
  L 170.9005 165.9663
  A 0.71 0.71 0.0 0 0 171.6142 165.2600
  L 171.6257 163.0601
  Z
  M 198.9754 163.3043
  A 0.90 0.90 0.0 0 0 198.0913 162.3888
  L 195.9716 162.3518
  A 0.90 0.90 0.0 0 0 195.0560 163.2359
  L 195.0246 165.0357
  A 0.90 0.90 0.0 0 0 195.9087 165.9512
  L 198.0284 165.9882
  A 0.90 0.90 0.0 0 0 198.9440 165.1041
  L 198.9754 163.3043
  Z
  M 145.35 168.22
  Q 143.92 167.24 142.01 167.50
  Q 141.46 167.58 141.45 168.13
  L 141.29 181.09
  Q 141.27 182.67 142.84 182.48
  L 144.52 182.28
  Q 145.66 182.14 145.66 180.99
  L 145.68 173.38
  A 2.61 2.60 88.4 0 1 148.12 170.79
  L 148.49 170.76
  A 1.45 1.45 0.0 0 1 150.03 172.24
  L 149.85 180.74
  Q 149.81 182.42 151.50 182.45
  L 152.67 182.47
  Q 154.34 182.50 154.33 180.83
  L 154.28 173.08
  Q 154.27 170.92 156.42 170.79
  L 156.94 170.76
  A 1.46 1.45 87.6 0 1 158.49 172.19
  L 158.69 181.58
  A 0.85 0.85 0.0 0 0 159.58 182.41
  L 162.19 182.31
  Q 163.01 182.27 163.01 181.45
  Q 162.99 177.05 162.99 172.49
  C 162.99 167.04 157.81 166.09 154.19 168.84
  Q 153.74 169.18 153.23 168.93
  Q 152.81 168.72 152.52 168.36
  Q 152.22 168.00 151.77 167.85
  C 150.44 167.39 148.35 167.19 147.11 168.04
  Q 146.51 168.44 145.83 168.39
  Q 145.56 168.37 145.35 168.22
  Z
  M 89.57 168.92
  Q 88.50 167.25 86.02 167.90
  Q 85.54 168.02 85.54 168.53
  L 85.62 181.43
  Q 85.62 182.24 86.43 182.23
  L 88.97 182.19
  A 0.58 0.57 -3.2 0 0 89.54 181.56
  Q 89.14 177.10 89.64 173.49
  Q 90.09 170.23 93.21 171.28
  A 0.71 0.71 0.0 0 0 94.12 170.81
  L 94.68 168.93
  Q 94.90 168.15 94.16 167.85
  Q 91.37 166.74 89.82 168.93
  Q 89.69 169.11 89.57 168.92
  Z
  M 106.28 181.53
  Q 107.79 182.34 109.47 182.29
  Q 110.08 182.27 109.98 181.67
  Q 109.24 177.39 109.51 172.58
  C 109.77 167.87 105.91 167.15 102.17 167.54
  Q 98.70 167.89 97.32 170.77
  A 0.90 0.89 18.3 0 0 97.96 172.04
  C 100.72 172.56 101.98 170.19 104.65 170.78
  Q 105.54 170.97 105.77 171.74
  A 0.90 0.89 72.2 0 1 105.21 172.84
  C 102.21 173.90 96.53 173.77 96.79 178.50
  C 97.04 183.03 102.16 182.95 105.15 181.50
  A 1.26 1.25 46.3 0 1 106.28 181.53
  Z
  M 133.06 181.24
  L 133.13 181.68
  Q 133.23 182.32 133.87 182.40
  Q 135.10 182.56 136.20 182.06
  A 1.09 1.07 78.4 0 0 136.84 181.07
  L 136.84 168.72
  A 0.93 0.92 -88.4 0 0 135.97 167.79
  L 133.57 167.65
  A 0.79 0.78 1.0 0 0 132.74 168.44
  L 132.76 176.25
  Q 132.76 178.54 130.34 179.48
  Q 129.97 179.63 129.57 179.58
  Q 127.48 179.35 127.48 177.25
  L 127.50 168.40
  Q 127.50 167.79 126.90 167.78
  L 124.05 167.74
  A 0.55 0.55 0.0 0 0 123.49 168.28
  Q 123.41 173.23 123.59 178.18
  C 123.77 183.23 129.52 183.39 132.30 180.96
  Q 132.94 180.40 133.06 181.24
  Z
  M 180.37 169.06
  Q 180.17 167.36 177.77 167.63
  A 1.15 1.14 -3.4 0 0 176.76 168.76
  L 176.73 181.37
  Q 176.73 182.21 177.57 182.23
  L 179.70 182.28
  Q 180.72 182.31 180.72 181.30
  L 180.73 173.65
  Q 180.73 171.17 183.11 170.49
  Q 183.49 170.39 183.87 170.43
  Q 185.99 170.68 185.99 172.81
  L 186.01 181.47
  A 0.70 0.70 0.0 0 0 186.72 182.17
  L 189.20 182.15
  A 0.64 0.63 -2.1 0 0 189.83 181.48
  Q 189.64 177.64 189.83 172.87
  C 190.05 167.29 184.51 166.15 180.89 169.26
  Q 180.44 169.65 180.37 169.06
  Z
  M 210.38 179.65
  L 210.04 179.68
  Q 207.87 179.89 207.75 177.70
  Q 207.52 173.70 207.90 168.94
  Q 208.00 167.71 206.76 167.74
  L 204.93 167.80
  A 0.97 0.97 0.0 0 0 203.98 168.73
  Q 203.80 173.67 204.41 179.13
  C 204.87 183.14 209.90 182.65 212.36 181.30
  Q 213.33 180.76 213.93 181.73
  Q 214.23 182.21 214.79 182.20
  L 216.28 182.20
  Q 217.01 182.20 217.02 181.47
  L 217.12 168.55
  A 1.01 1.00 -1.6 0 0 216.05 167.54
  L 214.04 167.67
  Q 213.06 167.73 213.07 168.71
  L 213.12 176.62
  Q 213.13 179.39 210.38 179.65
  Z
  M 75.86 170.65
  Q 77.47 171.49 77.72 173.33
  Q 77.79 173.86 77.26 173.86
  L 68.84 173.80
  Q 68.16 173.79 68.16 174.48
  Q 68.19 182.77 75.89 182.34
  C 81.35 182.03 82.37 175.10 80.74 171.10
  C 78.70 166.10 70.32 166.51 68.44 171.29
  Q 68.24 171.79 68.76 171.93
  Q 71.78 172.75 73.30 171.10
  A 2.15 2.14 -54.9 0 1 75.86 170.65
  Z
  M 171.6985 168.4065
  A 0.64 0.64 0.0 0 0 171.0574 167.7677
  L 168.3574 167.7724
  A 0.64 0.64 0.0 0 0 167.7185 168.4135
  L 167.7415 181.6135
  A 0.64 0.64 0.0 0 0 168.3826 182.2523
  L 171.0826 182.2476
  A 0.64 0.64 0.0 0 0 171.7215 181.6065
  L 171.6985 168.4065
  Z
  M 233.24 169.02
  C 229.75 165.68 226.88 170.10 224.47 167.93
  A 1.58 1.58 0.0 0 0 221.84 169.11
  L 221.93 181.11
  Q 221.94 182.29 223.11 182.27
  L 224.83 182.23
  Q 225.86 182.21 225.86 181.17
  L 225.84 173.34
  Q 225.83 171.08 228.04 170.63
  L 228.73 170.49
  Q 230.85 170.07 230.80 172.23
  L 230.57 180.85
  Q 230.54 182.17 231.85 182.21
  L 232.96 182.25
  Q 234.48 182.30 234.48 180.79
  L 234.52 172.59
  Q 234.52 172.00 234.94 171.59
  Q 235.93 170.64 237.45 170.43
  Q 239.25 170.17 239.33 171.90
  Q 239.52 175.77 239.20 181.01
  Q 239.13 182.09 240.21 182.14
  L 241.99 182.23
  Q 243.05 182.28 243.04 181.22
  Q 243.04 176.21 242.92 171.41
  C 242.82 166.89 237.39 167.00 234.70 169.10
  Q 233.94 169.69 233.24 169.02
  Z
  M 58.52 170.84
  Q 59.67 170.79 58.94 171.68
  Q 56.10 175.13 53.19 178.19
  C 52.33 179.08 51.90 180.24 52.26 181.46
  A 1.04 1.03 -8.3 0 0 53.25 182.19
  L 64.79 182.17
  Q 65.24 182.17 65.23 181.71
  L 65.15 179.45
  A 0.49 0.49 0.0 0 0 64.73 178.98
  Q 61.99 178.54 59.15 178.87
  Q 56.85 179.14 58.50 177.51
  C 60.30 175.73 65.14 171.10 64.98 168.61
  A 0.75 0.75 0.0 0 0 64.23 167.91
  L 53.56 167.89
  Q 52.76 167.89 52.79 168.69
  L 52.85 170.12
  Q 52.89 171.09 53.87 171.05
  L 58.52 170.84
  Z
  M 198.78 168.54
  A 0.55 0.55 0.0 0 0 198.23 167.99
  L 195.69 167.99
  A 0.55 0.55 0.0 0 0 195.14 168.54
  L 195.14 181.52
  A 0.55 0.55 0.0 0 0 195.69 182.07
  L 198.23 182.07
  A 0.55 0.55 0.0 0 0 198.78 181.52
  L 198.78 168.54
  Z"
/>
<path fill="#ec1c23" d="
  M 180.69 148.53
  L 109.88 42.73
  A 0.52 0.52 0.0 0 1 109.89 42.14
  L 139.56 1.38
  A 0.52 0.52 0.0 0 1 140.41 1.39
  L 243.07 147.92
  A 0.52 0.52 0.0 0 1 242.64 148.74
  L 181.12 148.76
  A 0.52 0.52 0.0 0 1 180.69 148.53
  Z"
/>
<path fill="#9ea09d" d="
  M 119.50 110.19
  L 145.47 110.11
  A 2.79 2.77 73.3 0 1 147.82 111.38
  L 171.38 147.88
  A 0.64 0.63 73.6 0 1 170.85 148.86
  Q 46.32 148.76 45.01 148.76
  Q 40.71 148.75 36.34 148.93
  Q 35.69 148.96 35.53 148.33
  Q 35.48 148.14 35.60 147.98
  Q 71.65 97.03 105.54 48.71
  A 0.64 0.64 0.0 0 1 106.59 48.72
  L 133.74 87.76
  A 1.33 1.32 45.3 0 1 133.74 89.29
  L 119.30 109.79
  A 0.25 0.25 0.0 0 0 119.50 110.19
  Z"
/>
<path fill="#ec1c23" d="
  M 42.00 177.01
  L 35.71 177.14
  A 1.15 1.15 0.0 0 0 34.63 177.98
  L 33.78 180.98
  Q 33.46 182.10 32.29 182.16
  L 30.24 182.27
  Q 29.07 182.34 29.51 181.26
  L 36.99 162.45
  Q 37.32 161.64 38.16 161.84
  Q 38.94 162.03 39.68 161.89
  Q 40.56 161.72 40.89 162.55
  L 48.27 181.24
  A 0.59 0.58 76.6 0 1 47.78 182.04
  L 45.59 182.23
  Q 44.86 182.30 44.60 181.62
  L 43.07 177.72
  Q 42.78 176.99 42.00 177.01
  Z
  M 36.58 173.46
  A 0.33 0.33 0.0 0 0 36.89 173.90
  L 41.10 173.90
  A 0.33 0.33 0.0 0 0 41.41 173.45
  L 39.29 167.59
  A 0.33 0.33 0.0 0 0 38.67 167.60
  L 36.58 173.46
  Z"
/>
<rect fill="#9ea09d" x="-1.73" y="-1.69" transform="translate(127.12,163.69) rotate(0.8)" width="3.46" height="3.38" rx="0.35"/>
<rect fill="#9ea09d" x="-1.79" y="-1.78" transform="translate(132.95,163.70) rotate(1.1)" width="3.58" height="3.56" rx="0.69"/>
<rect fill="#9ea09d" x="-1.95" y="-9.96" transform="translate(116.55,172.26) rotate(0.2)" width="3.90" height="19.92" rx="0.71"/>
<rect fill="#9ea09d" x="-1.92" y="-1.81" transform="translate(169.70,164.15) rotate(0.3)" width="3.84" height="3.62" rx="0.71"/>
<rect fill="#9ea09d" x="-1.96" y="-1.80" transform="translate(197.00,164.17) rotate(1.0)" width="3.92" height="3.60" rx="0.90"/>
<path fill="#ffffff" d="
  M 36.58 173.46
  L 38.67 167.60
  A 0.33 0.33 0.0 0 1 39.29 167.59
  L 41.41 173.45
  A 0.33 0.33 0.0 0 1 41.10 173.90
  L 36.89 173.90
  A 0.33 0.33 0.0 0 1 36.58 173.46
  Z"
/>
<path fill="#9ea09d" d="
  M 145.83 168.39
  Q 146.51 168.44 147.11 168.04
  C 148.35 167.19 150.44 167.39 151.77 167.85
  Q 152.22 168.00 152.52 168.36
  Q 152.81 168.72 153.23 168.93
  Q 153.74 169.18 154.19 168.84
  C 157.81 166.09 162.99 167.04 162.99 172.49
  Q 162.99 177.05 163.01 181.45
  Q 163.01 182.27 162.19 182.31
  L 159.58 182.41
  A 0.85 0.85 0.0 0 1 158.69 181.58
  L 158.49 172.19
  A 1.46 1.45 87.6 0 0 156.94 170.76
  L 156.42 170.79
  Q 154.27 170.92 154.28 173.08
  L 154.33 180.83
  Q 154.34 182.50 152.67 182.47
  L 151.50 182.45
  Q 149.81 182.42 149.85 180.74
  L 150.03 172.24
  A 1.45 1.45 0.0 0 0 148.49 170.76
  L 148.12 170.79
  A 2.61 2.60 88.4 0 0 145.68 173.38
  L 145.66 180.99
  Q 145.66 182.14 144.52 182.28
  L 142.84 182.48
  Q 141.27 182.67 141.29 181.09
  L 141.45 168.13
  Q 141.46 167.58 142.01 167.50
  Q 143.92 167.24 145.35 168.22
  Q 145.56 168.37 145.83 168.39
  Z"
/>
<path fill="#ec1c23" d="
  M 89.82 168.93
  Q 91.37 166.74 94.16 167.85
  Q 94.90 168.15 94.68 168.93
  L 94.12 170.81
  A 0.71 0.71 0.0 0 1 93.21 171.28
  Q 90.09 170.23 89.64 173.49
  Q 89.14 177.10 89.54 181.56
  A 0.58 0.57 -3.2 0 1 88.97 182.19
  L 86.43 182.23
  Q 85.62 182.24 85.62 181.43
  L 85.54 168.53
  Q 85.54 168.02 86.02 167.90
  Q 88.50 167.25 89.57 168.92
  Q 89.69 169.11 89.82 168.93
  Z"
/>
<path fill="#9ea09d" d="
  M 105.15 181.50
  C 102.16 182.95 97.04 183.03 96.79 178.50
  C 96.53 173.77 102.21 173.90 105.21 172.84
  A 0.90 0.89 72.2 0 0 105.77 171.74
  Q 105.54 170.97 104.65 170.78
  C 101.98 170.19 100.72 172.56 97.96 172.04
  A 0.90 0.89 18.3 0 1 97.32 170.77
  Q 98.70 167.89 102.17 167.54
  C 105.91 167.15 109.77 167.87 109.51 172.58
  Q 109.24 177.39 109.98 181.67
  Q 110.08 182.27 109.47 182.29
  Q 107.79 182.34 106.28 181.53
  A 1.26 1.25 46.3 0 0 105.15 181.50
  Z
  M 105.33 175.43
  Q 103.77 175.96 102.20 176.28
  Q 101.04 176.51 100.76 177.85
  A 1.47 1.47 0.0 0 0 101.60 179.49
  C 104.22 180.64 106.17 178.27 105.82 175.73
  A 0.37 0.37 0.0 0 0 105.33 175.43
  Z"
/>
<path fill="#9ea09d" d="
  M 132.30 180.96
  C 129.52 183.39 123.77 183.23 123.59 178.18
  Q 123.41 173.23 123.49 168.28
  A 0.55 0.55 0.0 0 1 124.05 167.74
  L 126.90 167.78
  Q 127.50 167.79 127.50 168.40
  L 127.48 177.25
  Q 127.48 179.35 129.57 179.58
  Q 129.97 179.63 130.34 179.48
  Q 132.76 178.54 132.76 176.25
  L 132.74 168.44
  A 0.79 0.78 1.0 0 1 133.57 167.65
  L 135.97 167.79
  A 0.93 0.92 -88.4 0 1 136.84 168.72
  L 136.84 181.07
  A 1.09 1.07 78.4 0 1 136.20 182.06
  Q 135.10 182.56 133.87 182.40
  Q 133.23 182.32 133.13 181.68
  L 133.06 181.24
  Q 132.94 180.40 132.30 180.96
  Z"
/>
<path fill="#9ea09d" d="
  M 180.89 169.26
  C 184.51 166.15 190.05 167.29 189.83 172.87
  Q 189.64 177.64 189.83 181.48
  A 0.64 0.63 -2.1 0 1 189.20 182.15
  L 186.72 182.17
  A 0.70 0.70 0.0 0 1 186.01 181.47
  L 185.99 172.81
  Q 185.99 170.68 183.87 170.43
  Q 183.49 170.39 183.11 170.49
  Q 180.73 171.17 180.73 173.65
  L 180.72 181.30
  Q 180.72 182.31 179.70 182.28
  L 177.57 182.23
  Q 176.73 182.21 176.73 181.37
  L 176.76 168.76
  A 1.15 1.14 -3.4 0 1 177.77 167.63
  Q 180.17 167.36 180.37 169.06
  Q 180.44 169.65 180.89 169.26
  Z"
/>
<path fill="#838482" d="
  M 210.38 179.65
  Q 213.13 179.39 213.12 176.62
  L 213.07 168.71
  Q 213.06 167.73 214.04 167.67
  L 216.05 167.54
  A 1.01 1.00 -1.6 0 1 217.12 168.55
  L 217.02 181.47
  Q 217.01 182.20 216.28 182.20
  L 214.79 182.20
  Q 214.23 182.21 213.93 181.73
  Q 213.33 180.76 212.36 181.30
  C 209.90 182.65 204.87 183.14 204.41 179.13
  Q 203.80 173.67 203.98 168.73
  A 0.97 0.97 0.0 0 1 204.93 167.80
  L 206.76 167.74
  Q 208.00 167.71 207.90 168.94
  Q 207.52 173.70 207.75 177.70
  Q 207.87 179.89 210.04 179.68
  L 210.38 179.65
  Z"
/>
<path fill="#ec1c23" d="
  M 75.86 170.65
  A 2.15 2.14 -54.9 0 0 73.30 171.10
  Q 71.78 172.75 68.76 171.93
  Q 68.24 171.79 68.44 171.29
  C 70.32 166.51 78.70 166.10 80.74 171.10
  C 82.37 175.10 81.35 182.03 75.89 182.34
  Q 68.19 182.77 68.16 174.48
  Q 68.16 173.79 68.84 173.80
  L 77.26 173.86
  Q 77.79 173.86 77.72 173.33
  Q 77.47 171.49 75.86 170.65
  Z
  M 77.05 176.22
  L 72.63 176.16
  A 0.51 0.51 0.0 0 0 72.12 176.67
  L 72.11 176.85
  A 2.77 2.58 -89.3 0 0 74.66 179.65
  L 74.94 179.65
  A 2.77 2.58 -89.3 0 0 77.55 176.91
  L 77.55 176.73
  A 0.51 0.51 0.0 0 0 77.05 176.22
  Z"
/>
<rect fill="#9ea09d" x="-1.99" y="-7.24" transform="translate(169.72,175.01) rotate(-0.1)" width="3.98" height="14.48" rx="0.64"/>
<path fill="#9ea09d" d="
  M 233.24 169.02
  Q 233.94 169.69 234.70 169.10
  C 237.39 167.00 242.82 166.89 242.92 171.41
  Q 243.04 176.21 243.04 181.22
  Q 243.05 182.28 241.99 182.23
  L 240.21 182.14
  Q 239.13 182.09 239.20 181.01
  Q 239.52 175.77 239.33 171.90
  Q 239.25 170.17 237.45 170.43
  Q 235.93 170.64 234.94 171.59
  Q 234.52 172.00 234.52 172.59
  L 234.48 180.79
  Q 234.48 182.30 232.96 182.25
  L 231.85 182.21
  Q 230.54 182.17 230.57 180.85
  L 230.80 172.23
  Q 230.85 170.07 228.73 170.49
  L 228.04 170.63
  Q 225.83 171.08 225.84 173.34
  L 225.86 181.17
  Q 225.86 182.21 224.83 182.23
  L 223.11 182.27
  Q 221.94 182.29 221.93 181.11
  L 221.84 169.11
  A 1.58 1.58 0.0 0 1 224.47 167.93
  C 226.88 170.10 229.75 165.68 233.24 169.02
  Z"
/>
<path fill="#ec1c23" d="
  M 58.52 170.84
  L 53.87 171.05
  Q 52.89 171.09 52.85 170.12
  L 52.79 168.69
  Q 52.76 167.89 53.56 167.89
  L 64.23 167.91
  A 0.75 0.75 0.0 0 1 64.98 168.61
  C 65.14 171.10 60.30 175.73 58.50 177.51
  Q 56.85 179.14 59.15 178.87
  Q 61.99 178.54 64.73 178.98
  A 0.49 0.49 0.0 0 1 65.15 179.45
  L 65.23 181.71
  Q 65.24 182.17 64.79 182.17
  L 53.25 182.19
  A 1.04 1.03 -8.3 0 1 52.26 181.46
  C 51.90 180.24 52.33 179.08 53.19 178.19
  Q 56.10 175.13 58.94 171.68
  Q 59.67 170.79 58.52 170.84
  Z"
/>
<rect fill="#838482" x="195.14" y="167.99" width="3.64" height="14.08" rx="0.55"/>
<path fill="#ffffff" d="
  M 105.33 175.43
  A 0.37 0.37 0.0 0 1 105.82 175.73
  C 106.17 178.27 104.22 180.64 101.60 179.49
  A 1.47 1.47 0.0 0 1 100.76 177.85
  Q 101.04 176.51 102.20 176.28
  Q 103.77 175.96 105.33 175.43
  Z"
/>
<path fill="#ffffff" d="
  M 77.05 176.22
  A 0.51 0.51 0.0 0 1 77.55 176.73
  L 77.55 176.91
  A 2.77 2.58 -89.3 0 1 74.94 179.65
  L 74.66 179.65
  A 2.77 2.58 -89.3 0 1 72.11 176.85
  L 72.12 176.67
  A 0.51 0.51 0.0 0 1 72.63 176.16
  L 77.05 176.22
  Z"
/>
</svg>
