<?xml version="1.0" encoding="UTF-8" standalone="no"?>
<!DOCTYPE svg PUBLIC "-//W3C//DTD SVG 1.1//EN" "http://www.w3.org/Graphics/SVG/1.1/DTD/svg11.dtd">
<svg xmlns="http://www.w3.org/2000/svg" version="1.1" viewBox="0.00 0.00 300.00 168.00">
<g stroke-width="2.00" fill="none" stroke-linecap="butt">
<path stroke="#fa8080" vector-effect="non-scaling-stroke" d="
  M 90.79 0.00
  Q 77.53 7.10 67.47 20.71
  Q 65.82 22.95 65.83 26.86
  Q 65.93 83.14 65.87 139.22
  C 65.86 143.77 65.51 147.57 68.35 151.41
  Q 76.20 162.07 86.74 168.00"
/>
<path stroke="#fa8080" vector-effect="non-scaling-stroke" d="
  M 208.16 0.00
  Q 219.26 6.35 229.27 18.24
  C 232.41 21.97 234.18 24.53 234.19 29.61
  Q 234.19 32.82 234.17 36.50
  Q 233.99 64.62 234.08 92.70"
/>
<path stroke="#e30302" vector-effect="non-scaling-stroke" d="
  M 234.08 92.70
  Q 233.17 92.30 232.45 91.85
  Q 231.75 91.40 231.33 90.48
  C 230.72 89.16 230.23 87.83 229.09 86.88
  C 225.80 84.16 223.14 80.90 219.95 78.06
  Q 214.95 73.61 209.30 68.64"
/>
<path stroke="#fa8080" vector-effect="non-scaling-stroke" d="
  M 209.30 68.64
  L 196.24 58.63
  A 0.36 0.35 37.4 0 0 195.75 58.69
  L 191.44 64.16
  A 0.89 0.89 0.0 0 1 190.22 64.33
  L 182.40 58.77
  A 0.54 0.54 0.0 0 0 181.66 58.88
  L 175.46 66.82"
/>
<path stroke="#e30302" vector-effect="non-scaling-stroke" d="
  M 175.46 66.82
  Q 175.48 67.32 175.12 67.95
  Q 174.88 68.40 174.37 68.43
  Q 172.29 68.53 172.01 67.44"
/>
<path stroke="#fa8080" vector-effect="non-scaling-stroke" d="
  M 172.01 67.44
  Q 172.20 67.28 172.30 67.08
  Q 172.53 66.60 172.05 66.37
  L 153.68 57.71"
/>
<path stroke="#e30302" vector-effect="non-scaling-stroke" d="
  M 153.68 57.71
  Q 150.51 57.92 149.63 56.01"
/>
<path stroke="#fa8080" vector-effect="non-scaling-stroke" d="
  M 149.63 56.01
  L 136.00 48.35
  A 0.65 0.65 0.0 0 0 135.21 48.47
  L 117.75 67.48
  Q 117.38 67.89 117.13 67.38
  L 109.29 51.00
  A 0.89 0.89 0.0 0 0 108.10 50.58
  Q 99.78 54.59 92.72 61.01
  Q 91.92 61.74 93.01 61.75
  C 97.48 61.75 99.54 63.36 101.82 67.30
  Q 104.89 72.60 108.00 78.15
  A 1.12 1.11 49.4 0 1 107.91 79.35
  C 99.53 90.43 91.87 101.10 86.86 114.17
  Q 86.68 114.65 87.19 114.72
  Q 87.63 114.78 88.37 114.41"
/>
<path stroke="#e30302" vector-effect="non-scaling-stroke" d="
  M 88.37 114.41
  Q 89.16 115.51 89.93 116.64
  Q 90.74 117.85 91.77 118.72
  C 97.37 123.46 102.26 128.90 107.64 133.87
  Q 117.72 143.20 127.37 152.28
  C 132.14 156.75 136.73 163.57 143.27 165.10
  Q 144.60 165.41 144.11 168.00"
/>
<path stroke="#e88282" vector-effect="non-scaling-stroke" d="
  M 211.55 168.00
  Q 222.10 162.19 230.44 151.31
  Q 232.72 148.33 233.39 146.22
  Q 234.22 143.61 234.21 140.25
  Q 234.13 116.49 234.08 92.70"
/>
<path stroke="#e88282" vector-effect="non-scaling-stroke" d="
  M 149.63 56.01
  L 134.47 67.65
  A 0.82 0.81 -47.1 0 1 133.53 67.69
  L 128.93 64.75
  A 1.95 1.94 38.2 0 0 126.49 65.04
  L 120.16 71.59
  A 0.95 0.94 53.4 0 0 120.00 72.69
  Q 124.23 80.72 128.76 88.74
  C 134.16 98.33 138.36 104.72 149.58 107.31
  A 0.51 0.50 -63.5 0 1 149.85 108.13
  Q 149.30 108.77 148.50 109.09
  Q 148.01 109.28 147.61 109.64
  C 141.29 115.21 132.80 116.72 125.95 110.70
  C 119.37 104.92 117.20 97.00 113.59 89.46
  Q 112.30 86.75 111.06 84.05
  A 0.41 0.41 0.0 0 0 110.36 83.98
  Q 104.07 92.16 103.82 101.58
  Q 103.71 105.52 103.82 109.38
  A 0.57 0.57 0.0 0 1 103.36 109.95
  Q 95.49 111.52 88.37 114.41"
/>
<path stroke="#e88282" vector-effect="non-scaling-stroke" d="
  M 115.51 79.01
  C 119.25 86.20 122.85 93.69 127.45 100.10
  C 131.34 105.53 136.44 109.56 143.45 110.00
  Q 145.00 110.10 146.38 109.53
  Q 147.25 109.17 146.32 109.03
  Q 138.28 107.74 132.08 100.18
  C 126.21 93.03 122.09 83.89 117.90 75.74
  Q 117.36 74.70 116.68 75.66
  L 115.63 77.16
  A 1.79 1.79 0.0 0 0 115.51 79.01"
/>
<path stroke="#e88282" vector-effect="non-scaling-stroke" d="
  M 153.68 57.71
  L 137.79 70.86
  Q 137.36 71.22 137.62 71.72
  Q 138.75 73.84 138.83 75.92
  Q 139.04 80.89 139.16 86.56
  Q 139.27 91.47 137.60 95.06
  Q 137.36 95.58 137.79 95.97
  Q 142.61 100.39 148.44 102.70
  A 1.26 1.25 -54.7 0 0 149.73 102.47
  L 156.61 96.38
  Q 156.97 96.06 156.98 95.58
  L 157.04 92.26
  Q 157.06 91.24 156.06 91.42
  Q 149.82 92.50 149.59 86.62
  Q 149.36 81.07 149.55 73.87
  C 149.71 67.74 158.42 67.13 158.35 72.94
  Q 158.20 83.87 158.24 95.25
  A 1.99 1.97 -66.9 0 0 158.78 96.61
  L 164.43 102.54
  A 0.56 0.55 44.7 0 0 165.24 102.54
  L 173.04 94.32
  A 0.65 0.65 0.0 0 0 172.98 93.37
  C 170.11 91.09 168.91 88.84 169.07 84.91
  Q 169.31 78.82 169.29 72.51
  Q 169.28 69.78 172.01 67.44"
/>
<path stroke="#e88282" vector-effect="non-scaling-stroke" d="
  M 175.46 66.82
  Q 178.54 68.71 178.52 70.50
  Q 178.44 80.43 178.25 90.37
  C 178.21 92.51 177.49 94.30 176.34 96.01
  Q 175.94 96.62 176.50 97.08
  L 184.57 103.72
  A 0.43 0.43 0.0 0 0 185.18 103.65
  L 192.94 93.87
  Q 193.34 93.38 192.77 93.10
  Q 189.04 91.28 189.25 86.92
  Q 189.59 79.35 190.05 71.30
  Q 190.25 67.77 193.16 69.78
  Q 193.91 70.30 194.60 70.90
  A 7.40 7.40 0.0 0 1 197.17 76.88
  Q 196.71 85.90 196.79 93.41
  C 196.84 98.58 199.03 100.43 202.58 103.57
  A 0.81 0.80 39.7 0 0 203.74 103.47
  L 211.38 93.89
  Q 211.70 93.49 211.31 93.18
  Q 210.73 92.72 209.70 92.07
  Q 208.05 91.05 207.91 88.75
  Q 207.31 78.70 209.30 68.64"
/>
<path stroke="#e88282" vector-effect="non-scaling-stroke" d="
  M 157.74 109.50
  L 157.67 122.48
  A 0.97 0.97 0.0 0 1 156.52 123.42
  Q 155.51 123.21 154.98 123.49
  Q 152.58 124.73 155.29 124.75
  Q 159.53 124.78 164.52 124.80
  Q 164.85 124.80 164.84 124.47
  L 164.83 124.11
  Q 164.82 123.65 164.36 123.59
  L 162.26 123.32
  Q 161.56 123.23 161.57 122.53
  L 161.70 106.30
  A 0.49 0.49 0.0 0 0 161.06 105.83
  L 153.77 108.29
  Q 152.86 108.60 152.78 109.56
  Q 152.75 109.88 153.01 110.14
  A 0.67 0.67 0.0 0 0 153.73 110.29
  L 157.00 109.00
  Q 157.74 108.71 157.74 109.50"
/>
<path stroke="#e88282" vector-effect="non-scaling-stroke" d="
  M 176.74 113.48
  C 178.38 112.26 179.48 110.05 178.13 108.17
  C 173.92 102.30 162.97 108.84 169.52 115.21
  Q 170.03 115.71 169.41 116.07
  Q 166.48 117.76 167.26 121.41
  C 168.73 128.26 181.05 125.73 179.22 117.63
  C 178.91 116.25 177.96 115.28 176.79 114.54
  Q 175.99 114.04 176.74 113.48"
/>
<path stroke="#e88282" vector-effect="non-scaling-stroke" d="
  M 186.52 110.44
  Q 187.29 108.80 188.91 108.00
  Q 190.35 107.30 192.14 107.43
  A 0.33 0.33 0.0 0 0 192.49 107.07
  L 192.45 106.71
  Q 192.38 106.15 191.81 106.12
  C 184.91 105.80 181.05 112.08 181.39 118.53
  C 181.94 128.87 195.46 126.77 193.65 117.10
  C 192.90 113.09 189.07 111.91 186.03 114.49
  Q 185.04 115.34 185.29 114.06
  Q 185.64 112.33 186.52 110.44"
/>
<path stroke="#e88282" vector-effect="non-scaling-stroke" d="
  M 207.8260 111.9502
  A 5.64 5.64 0.0 0 0 202.3457 106.1549
  L 201.5460 106.1325
  A 5.64 5.64 0.0 0 0 195.7507 111.6129
  L 195.5340 119.3698
  A 5.64 5.64 0.0 0 0 201.0143 125.1651
  L 201.8140 125.1875
  A 5.64 5.64 0.0 0 0 207.6093 119.7071
  L 207.8260 111.9502"
/>
<path stroke="#e88282" vector-effect="non-scaling-stroke" d="
  M 175.6586 112.4380
  A 3.06 2.64 43.8 0 0 175.2773 108.4146
  A 3.06 2.64 43.8 0 0 171.2414 108.2020
  A 3.06 2.64 43.8 0 0 171.6227 112.2254
  A 3.06 2.64 43.8 0 0 175.6586 112.4380"
/>
<path stroke="#e88282" vector-effect="non-scaling-stroke" d="
  M 174.6158 123.5522
  A 3.74 3.18 62.0 0 0 175.6678 118.7571
  A 3.74 3.18 62.0 0 0 171.1042 116.9478
  A 3.74 3.18 62.0 0 0 170.0522 121.7429
  A 3.74 3.18 62.0 0 0 174.6158 123.5522"
/>
<path stroke="#e88282" vector-effect="non-scaling-stroke" d="
  M 188.0670 123.9347
  A 4.18 2.63 85.1 0 0 190.3304 119.5454
  A 4.18 2.63 85.1 0 0 187.3530 115.6053
  A 4.18 2.63 85.1 0 0 185.0896 119.9946
  A 4.18 2.63 85.1 0 0 188.0670 123.9347"
/>
<path stroke="#e88282" vector-effect="non-scaling-stroke" d="
  M 201.9495 124.1563
  A 8.41 2.92 88.3 0 0 204.6187 115.6634
  A 8.41 2.92 88.3 0 0 201.4505 107.3437
  A 8.41 2.92 88.3 0 0 198.7813 115.8366
  A 8.41 2.92 88.3 0 0 201.9495 124.1563"
/>
</g>
<path fill="#ffffff" d="
  M 0.00 0.00
  L 90.79 0.00
  Q 77.53 7.10 67.47 20.71
  Q 65.82 22.95 65.83 26.86
  Q 65.93 83.14 65.87 139.22
  C 65.86 143.77 65.51 147.57 68.35 151.41
  Q 76.20 162.07 86.74 168.00
  L 0.00 168.00
  L 0.00 0.00
  Z"
/>
<path fill="#f50000" d="
  M 90.79 0.00
  L 208.16 0.00
  Q 219.26 6.35 229.27 18.24
  C 232.41 21.97 234.18 24.53 234.19 29.61
  Q 234.19 32.82 234.17 36.50
  Q 233.99 64.62 234.08 92.70
  Q 233.17 92.30 232.45 91.85
  Q 231.75 91.40 231.33 90.48
  C 230.72 89.16 230.23 87.83 229.09 86.88
  C 225.80 84.16 223.14 80.90 219.95 78.06
  Q 214.95 73.61 209.30 68.64
  L 196.24 58.63
  A 0.36 0.35 37.4 0 0 195.75 58.69
  L 191.44 64.16
  A 0.89 0.89 0.0 0 1 190.22 64.33
  L 182.40 58.77
  A 0.54 0.54 0.0 0 0 181.66 58.88
  L 175.46 66.82
  Q 175.48 67.32 175.12 67.95
  Q 174.88 68.40 174.37 68.43
  Q 172.29 68.53 172.01 67.44
  Q 172.20 67.28 172.30 67.08
  Q 172.53 66.60 172.05 66.37
  L 153.68 57.71
  Q 150.51 57.92 149.63 56.01
  L 136.00 48.35
  A 0.65 0.65 0.0 0 0 135.21 48.47
  L 117.75 67.48
  Q 117.38 67.89 117.13 67.38
  L 109.29 51.00
  A 0.89 0.89 0.0 0 0 108.10 50.58
  Q 99.78 54.59 92.72 61.01
  Q 91.92 61.74 93.01 61.75
  C 97.48 61.75 99.54 63.36 101.82 67.30
  Q 104.89 72.60 108.00 78.15
  A 1.12 1.11 49.4 0 1 107.91 79.35
  C 99.53 90.43 91.87 101.10 86.86 114.17
  Q 86.68 114.65 87.19 114.72
  Q 87.63 114.78 88.37 114.41
  Q 89.16 115.51 89.93 116.64
  Q 90.74 117.85 91.77 118.72
  C 97.37 123.46 102.26 128.90 107.64 133.87
  Q 117.72 143.20 127.37 152.28
  C 132.14 156.75 136.73 163.57 143.27 165.10
  Q 144.60 165.41 144.11 168.00
  L 86.74 168.00
  Q 76.20 162.07 68.35 151.41
  C 65.51 147.57 65.86 143.77 65.87 139.22
  Q 65.93 83.14 65.83 26.86
  Q 65.82 22.95 67.47 20.71
  Q 77.53 7.10 90.79 0.00
  Z"
/>
<path fill="#ffffff" d="
  M 208.16 0.00
  L 300.00 0.00
  L 300.00 168.00
  L 211.55 168.00
  Q 222.10 162.19 230.44 151.31
  Q 232.72 148.33 233.39 146.22
  Q 234.22 143.61 234.21 140.25
  Q 234.13 116.49 234.08 92.70
  Q 233.99 64.62 234.17 36.50
  Q 234.19 32.82 234.19 29.61
  C 234.18 24.53 232.41 21.97 229.27 18.24
  Q 219.26 6.35 208.16 0.00
  Z"
/>
<path fill="#ffffff" d="
  M 149.63 56.01
  L 134.47 67.65
  A 0.82 0.81 -47.1 0 1 133.53 67.69
  L 128.93 64.75
  A 1.95 1.94 38.2 0 0 126.49 65.04
  L 120.16 71.59
  A 0.95 0.94 53.4 0 0 120.00 72.69
  Q 124.23 80.72 128.76 88.74
  C 134.16 98.33 138.36 104.72 149.58 107.31
  A 0.51 0.50 -63.5 0 1 149.85 108.13
  Q 149.30 108.77 148.50 109.09
  Q 148.01 109.28 147.61 109.64
  C 141.29 115.21 132.80 116.72 125.95 110.70
  C 119.37 104.92 117.20 97.00 113.59 89.46
  Q 112.30 86.75 111.06 84.05
  A 0.41 0.41 0.0 0 0 110.36 83.98
  Q 104.07 92.16 103.82 101.58
  Q 103.71 105.52 103.82 109.38
  A 0.57 0.57 0.0 0 1 103.36 109.95
  Q 95.49 111.52 88.37 114.41
  Q 87.63 114.78 87.19 114.72
  Q 86.68 114.65 86.86 114.17
  C 91.87 101.10 99.53 90.43 107.91 79.35
  A 1.12 1.11 49.4 0 0 108.00 78.15
  Q 104.89 72.60 101.82 67.30
  C 99.54 63.36 97.48 61.75 93.01 61.75
  Q 91.92 61.74 92.72 61.01
  Q 99.78 54.59 108.10 50.58
  A 0.89 0.89 0.0 0 1 109.29 51.00
  L 117.13 67.38
  Q 117.38 67.89 117.75 67.48
  L 135.21 48.47
  A 0.65 0.65 0.0 0 1 136.00 48.35
  L 149.63 56.01
  Z
  M 115.51 79.01
  C 119.25 86.20 122.85 93.69 127.45 100.10
  C 131.34 105.53 136.44 109.56 143.45 110.00
  Q 145.00 110.10 146.38 109.53
  Q 147.25 109.17 146.32 109.03
  Q 138.28 107.74 132.08 100.18
  C 126.21 93.03 122.09 83.89 117.90 75.74
  Q 117.36 74.70 116.68 75.66
  L 115.63 77.16
  A 1.79 1.79 0.0 0 0 115.51 79.01
  Z"
/>
<path fill="#d10504" d="
  M 149.63 56.01
  Q 150.51 57.92 153.68 57.71
  L 137.79 70.86
  Q 137.36 71.22 137.62 71.72
  Q 138.75 73.84 138.83 75.92
  Q 139.04 80.89 139.16 86.56
  Q 139.27 91.47 137.60 95.06
  Q 137.36 95.58 137.79 95.97
  Q 142.61 100.39 148.44 102.70
  A 1.26 1.25 -54.7 0 0 149.73 102.47
  L 156.61 96.38
  Q 156.97 96.06 156.98 95.58
  L 157.04 92.26
  Q 157.06 91.24 156.06 91.42
  Q 149.82 92.50 149.59 86.62
  Q 149.36 81.07 149.55 73.87
  C 149.71 67.74 158.42 67.13 158.35 72.94
  Q 158.20 83.87 158.24 95.25
  A 1.99 1.97 -66.9 0 0 158.78 96.61
  L 164.43 102.54
  A 0.56 0.55 44.7 0 0 165.24 102.54
  L 173.04 94.32
  A 0.65 0.65 0.0 0 0 172.98 93.37
  C 170.11 91.09 168.91 88.84 169.07 84.91
  Q 169.31 78.82 169.29 72.51
  Q 169.28 69.78 172.01 67.44
  Q 172.29 68.53 174.37 68.43
  Q 174.88 68.40 175.12 67.95
  Q 175.48 67.32 175.46 66.82
  Q 178.54 68.71 178.52 70.50
  Q 178.44 80.43 178.25 90.37
  C 178.21 92.51 177.49 94.30 176.34 96.01
  Q 175.94 96.62 176.50 97.08
  L 184.57 103.72
  A 0.43 0.43 0.0 0 0 185.18 103.65
  L 192.94 93.87
  Q 193.34 93.38 192.77 93.10
  Q 189.04 91.28 189.25 86.92
  Q 189.59 79.35 190.05 71.30
  Q 190.25 67.77 193.16 69.78
  Q 193.91 70.30 194.60 70.90
  A 7.40 7.40 0.0 0 1 197.17 76.88
  Q 196.71 85.90 196.79 93.41
  C 196.84 98.58 199.03 100.43 202.58 103.57
  A 0.81 0.80 39.7 0 0 203.74 103.47
  L 211.38 93.89
  Q 211.70 93.49 211.31 93.18
  Q 210.73 92.72 209.70 92.07
  Q 208.05 91.05 207.91 88.75
  Q 207.31 78.70 209.30 68.64
  Q 214.95 73.61 219.95 78.06
  C 223.14 80.90 225.80 84.16 229.09 86.88
  C 230.23 87.83 230.72 89.16 231.33 90.48
  Q 231.75 91.40 232.45 91.85
  Q 233.17 92.30 234.08 92.70
  Q 234.13 116.49 234.21 140.25
  Q 234.22 143.61 233.39 146.22
  Q 232.72 148.33 230.44 151.31
  Q 222.10 162.19 211.55 168.00
  L 144.11 168.00
  Q 144.60 165.41 143.27 165.10
  C 136.73 163.57 132.14 156.75 127.37 152.28
  Q 117.72 143.20 107.64 133.87
  C 102.26 128.90 97.37 123.46 91.77 118.72
  Q 90.74 117.85 89.93 116.64
  Q 89.16 115.51 88.37 114.41
  Q 95.49 111.52 103.36 109.95
  A 0.57 0.57 0.0 0 0 103.82 109.38
  Q 103.71 105.52 103.82 101.58
  Q 104.07 92.16 110.36 83.98
  A 0.41 0.41 0.0 0 1 111.06 84.05
  Q 112.30 86.75 113.59 89.46
  C 117.20 97.00 119.37 104.92 125.95 110.70
  C 132.80 116.72 141.29 115.21 147.61 109.64
  Q 148.01 109.28 148.50 109.09
  Q 149.30 108.77 149.85 108.13
  A 0.51 0.50 -63.5 0 0 149.58 107.31
  C 138.36 104.72 134.16 98.33 128.76 88.74
  Q 124.23 80.72 120.00 72.69
  A 0.95 0.94 53.4 0 1 120.16 71.59
  L 126.49 65.04
  A 1.95 1.94 38.2 0 1 128.93 64.75
  L 133.53 67.69
  A 0.82 0.81 -47.1 0 0 134.47 67.65
  L 149.63 56.01
  Z
  M 157.74 109.50
  L 157.67 122.48
  A 0.97 0.97 0.0 0 1 156.52 123.42
  Q 155.51 123.21 154.98 123.49
  Q 152.58 124.73 155.29 124.75
  Q 159.53 124.78 164.52 124.80
  Q 164.85 124.80 164.84 124.47
  L 164.83 124.11
  Q 164.82 123.65 164.36 123.59
  L 162.26 123.32
  Q 161.56 123.23 161.57 122.53
  L 161.70 106.30
  A 0.49 0.49 0.0 0 0 161.06 105.83
  L 153.77 108.29
  Q 152.86 108.60 152.78 109.56
  Q 152.75 109.88 153.01 110.14
  A 0.67 0.67 0.0 0 0 153.73 110.29
  L 157.00 109.00
  Q 157.74 108.71 157.74 109.50
  Z
  M 176.74 113.48
  C 178.38 112.26 179.48 110.05 178.13 108.17
  C 173.92 102.30 162.97 108.84 169.52 115.21
  Q 170.03 115.71 169.41 116.07
  Q 166.48 117.76 167.26 121.41
  C 168.73 128.26 181.05 125.73 179.22 117.63
  C 178.91 116.25 177.96 115.28 176.79 114.54
  Q 175.99 114.04 176.74 113.48
  Z
  M 186.52 110.44
  Q 187.29 108.80 188.91 108.00
  Q 190.35 107.30 192.14 107.43
  A 0.33 0.33 0.0 0 0 192.49 107.07
  L 192.45 106.71
  Q 192.38 106.15 191.81 106.12
  C 184.91 105.80 181.05 112.08 181.39 118.53
  C 181.94 128.87 195.46 126.77 193.65 117.10
  C 192.90 113.09 189.07 111.91 186.03 114.49
  Q 185.04 115.34 185.29 114.06
  Q 185.64 112.33 186.52 110.44
  Z
  M 207.8260 111.9502
  A 5.64 5.64 0.0 0 0 202.3457 106.1549
  L 201.5460 106.1325
  A 5.64 5.64 0.0 0 0 195.7507 111.6129
  L 195.5340 119.3698
  A 5.64 5.64 0.0 0 0 201.0143 125.1651
  L 201.8140 125.1875
  A 5.64 5.64 0.0 0 0 207.6093 119.7071
  L 207.8260 111.9502
  Z"
/>
<path fill="#ffffff" d="
  M 172.01 67.44
  Q 169.28 69.78 169.29 72.51
  Q 169.31 78.82 169.07 84.91
  C 168.91 88.84 170.11 91.09 172.98 93.37
  A 0.65 0.65 0.0 0 1 173.04 94.32
  L 165.24 102.54
  A 0.56 0.55 44.7 0 1 164.43 102.54
  L 158.78 96.61
  A 1.99 1.97 -66.9 0 1 158.24 95.25
  Q 158.20 83.87 158.35 72.94
  C 158.42 67.13 149.71 67.74 149.55 73.87
  Q 149.36 81.07 149.59 86.62
  Q 149.82 92.50 156.06 91.42
  Q 157.06 91.24 157.04 92.26
  L 156.98 95.58
  Q 156.97 96.06 156.61 96.38
  L 149.73 102.47
  A 1.26 1.25 -54.7 0 1 148.44 102.70
  Q 142.61 100.39 137.79 95.97
  Q 137.36 95.58 137.60 95.06
  Q 139.27 91.47 139.16 86.56
  Q 139.04 80.89 138.83 75.92
  Q 138.75 73.84 137.62 71.72
  Q 137.36 71.22 137.79 70.86
  L 153.68 57.71
  L 172.05 66.37
  Q 172.53 66.60 172.30 67.08
  Q 172.20 67.28 172.01 67.44
  Z"
/>
<path fill="#ffffff" d="
  M 209.30 68.64
  Q 207.31 78.70 207.91 88.75
  Q 208.05 91.05 209.70 92.07
  Q 210.73 92.72 211.31 93.18
  Q 211.70 93.49 211.38 93.89
  L 203.74 103.47
  A 0.81 0.80 39.7 0 1 202.58 103.57
  C 199.03 100.43 196.84 98.58 196.79 93.41
  Q 196.71 85.90 197.17 76.88
  A 7.40 7.40 0.0 0 0 194.60 70.90
  Q 193.91 70.30 193.16 69.78
  Q 190.25 67.77 190.05 71.30
  Q 189.59 79.35 189.25 86.92
  Q 189.04 91.28 192.77 93.10
  Q 193.34 93.38 192.94 93.87
  L 185.18 103.65
  A 0.43 0.43 0.0 0 1 184.57 103.72
  L 176.50 97.08
  Q 175.94 96.62 176.34 96.01
  C 177.49 94.30 178.21 92.51 178.25 90.37
  Q 178.44 80.43 178.52 70.50
  Q 178.54 68.71 175.46 66.82
  L 181.66 58.88
  A 0.54 0.54 0.0 0 1 182.40 58.77
  L 190.22 64.33
  A 0.89 0.89 0.0 0 0 191.44 64.16
  L 195.75 58.69
  A 0.36 0.35 37.4 0 1 196.24 58.63
  L 209.30 68.64
  Z"
/>
<path fill="#d10504" d="
  M 127.45 100.10
  C 122.85 93.69 119.25 86.20 115.51 79.01
  A 1.79 1.79 0.0 0 1 115.63 77.16
  L 116.68 75.66
  Q 117.36 74.70 117.90 75.74
  C 122.09 83.89 126.21 93.03 132.08 100.18
  Q 138.28 107.74 146.32 109.03
  Q 147.25 109.17 146.38 109.53
  Q 145.00 110.10 143.45 110.00
  C 136.44 109.56 131.34 105.53 127.45 100.10
  Z"
/>
<path fill="#ffffff" d="
  M 157.00 109.00
  L 153.73 110.29
  A 0.67 0.67 0.0 0 1 153.01 110.14
  Q 152.75 109.88 152.78 109.56
  Q 152.86 108.60 153.77 108.29
  L 161.06 105.83
  A 0.49 0.49 0.0 0 1 161.70 106.30
  L 161.57 122.53
  Q 161.56 123.23 162.26 123.32
  L 164.36 123.59
  Q 164.82 123.65 164.83 124.11
  L 164.84 124.47
  Q 164.85 124.80 164.52 124.80
  Q 159.53 124.78 155.29 124.75
  Q 152.58 124.73 154.98 123.49
  Q 155.51 123.21 156.52 123.42
  A 0.97 0.97 0.0 0 0 157.67 122.48
  L 157.74 109.50
  Q 157.74 108.71 157.00 109.00
  Z"
/>
<path fill="#ffffff" d="
  M 176.79 114.54
  C 177.96 115.28 178.91 116.25 179.22 117.63
  C 181.05 125.73 168.73 128.26 167.26 121.41
  Q 166.48 117.76 169.41 116.07
  Q 170.03 115.71 169.52 115.21
  C 162.97 108.84 173.92 102.30 178.13 108.17
  C 179.48 110.05 178.38 112.26 176.74 113.48
  Q 175.99 114.04 176.79 114.54
  Z
  M 175.6586 112.4380
  A 3.06 2.64 43.8 0 0 175.2773 108.4146
  A 3.06 2.64 43.8 0 0 171.2414 108.2020
  A 3.06 2.64 43.8 0 0 171.6227 112.2254
  A 3.06 2.64 43.8 0 0 175.6586 112.4380
  Z
  M 174.6158 123.5522
  A 3.74 3.18 62.0 0 0 175.6678 118.7571
  A 3.74 3.18 62.0 0 0 171.1042 116.9478
  A 3.74 3.18 62.0 0 0 170.0522 121.7429
  A 3.74 3.18 62.0 0 0 174.6158 123.5522
  Z"
/>
<path fill="#ffffff" d="
  M 186.52 110.44
  Q 185.64 112.33 185.29 114.06
  Q 185.04 115.34 186.03 114.49
  C 189.07 111.91 192.90 113.09 193.65 117.10
  C 195.46 126.77 181.94 128.87 181.39 118.53
  C 181.05 112.08 184.91 105.80 191.81 106.12
  Q 192.38 106.15 192.45 106.71
  L 192.49 107.07
  A 0.33 0.33 0.0 0 1 192.14 107.43
  Q 190.35 107.30 188.91 108.00
  Q 187.29 108.80 186.52 110.44
  Z
  M 188.0670 123.9347
  A 4.18 2.63 85.1 0 0 190.3304 119.5454
  A 4.18 2.63 85.1 0 0 187.3530 115.6053
  A 4.18 2.63 85.1 0 0 185.0896 119.9946
  A 4.18 2.63 85.1 0 0 188.0670 123.9347
  Z"
/>
<path fill="#ffffff" d="
  M 207.6093 119.7071
  A 5.64 5.64 0.0 0 1 201.8140 125.1875
  L 201.0143 125.1651
  A 5.64 5.64 0.0 0 1 195.5340 119.3698
  L 195.7507 111.6129
  A 5.64 5.64 0.0 0 1 201.5460 106.1325
  L 202.3457 106.1549
  A 5.64 5.64 0.0 0 1 207.8260 111.9502
  L 207.6093 119.7071
  Z
  M 201.9495 124.1563
  A 8.41 2.92 88.3 0 0 204.6187 115.6634
  A 8.41 2.92 88.3 0 0 201.4505 107.3437
  A 8.41 2.92 88.3 0 0 198.7813 115.8366
  A 8.41 2.92 88.3 0 0 201.9495 124.1563
  Z"
/>
<ellipse fill="#d10504" cx="0.00" cy="0.00" transform="translate(173.45,110.32) rotate(43.8)" rx="3.06" ry="2.64"/>
<ellipse fill="#d10504" cx="0.00" cy="0.00" transform="translate(201.70,115.75) rotate(88.3)" rx="8.41" ry="2.92"/>
<ellipse fill="#d10504" cx="0.00" cy="0.00" transform="translate(187.71,119.77) rotate(85.1)" rx="4.18" ry="2.63"/>
<ellipse fill="#d10504" cx="0.00" cy="0.00" transform="translate(172.86,120.25) rotate(62.0)" rx="3.74" ry="3.18"/>
</svg>
