<?xml version="1.0" encoding="UTF-8" standalone="no"?>
<!DOCTYPE svg PUBLIC "-//W3C//DTD SVG 1.1//EN" "http://www.w3.org/Graphics/SVG/1.1/DTD/svg11.dtd">
<svg xmlns="http://www.w3.org/2000/svg" version="1.1" viewBox="0.00 0.00 264.00 191.00">
<g stroke-width="2.00" fill="none" stroke-linecap="butt">
<path stroke="#c1e5f5" vector-effect="non-scaling-stroke" d="
  M 199.74 48.65
  Q 201.78 49.14 204.83 48.01"
/>
<path stroke="#80bad9" vector-effect="non-scaling-stroke" d="
  M 204.83 48.01
  Q 223.86 81.32 213.10 116.99
  C 210.10 126.92 204.74 137.23 198.29 145.03
  Q 174.74 173.56 138.47 176.71
  C 114.37 178.80 90.70 170.00 73.26 153.45
  Q 65.49 146.07 58.34 134.58
  Q 58.05 134.12 58.57 133.96
  Q 62.24 132.88 66.05 131.84
  Q 79.11 128.28 91.77 123.70"
/>
<path stroke="#90cae7" vector-effect="non-scaling-stroke" d="
  M 91.77 123.70
  Q 101.37 120.29 109.37 114.29
  Q 110.18 113.68 110.79 113.77
  Q 111.45 113.87 112.30 114.35"
/>
<path stroke="#8099ae" vector-effect="non-scaling-stroke" d="
  M 112.30 114.35
  Q 106.35 120.07 98.30 123.33
  Q 86.14 128.24 75.88 131.16"
/>
<path stroke="#85a2b9" vector-effect="non-scaling-stroke" d="
  M 75.88 131.16
  L 64.88 134.21
  A 0.55 0.54 66.2 0 0 64.57 135.03
  L 67.09 139.01
  Q 67.51 139.66 68.07 139.13
  Q 69.06 138.20 70.24 137.95
  Q 71.09 137.77 70.54 138.45
  Q 69.71 139.48 68.55 140.12
  Q 68.01 140.41 68.40 140.88
  L 72.18 145.49
  A 0.73 0.73 0.0 0 0 73.20 145.59
  L 74.88 144.21
  A 0.38 0.37 46.9 0 1 75.37 144.23
  Q 76.30 145.06 74.30 146.16
  A 0.87 0.85 -36.6 0 0 74.09 147.51
  L 78.11 151.64
  Q 78.50 152.05 78.91 151.66
  L 80.51 150.12
  Q 80.60 150.03 80.73 150.06
  L 81.19 150.17
  Q 81.71 150.28 81.37 150.69
  L 79.83 152.54
  A 0.55 0.55 0.0 0 0 79.91 153.32
  L 84.73 157.15
  A 0.59 0.59 0.0 0 0 85.65 156.91
  Q 86.00 155.99 86.52 155.45
  A 0.61 0.61 0.0 0 1 87.46 156.21
  L 86.49 157.65
  Q 86.10 158.23 86.68 158.61
  L 91.35 161.61
  Q 91.79 161.89 92.06 161.46
  L 96.51 154.52"
/>
<path stroke="#8cb3ce" vector-effect="non-scaling-stroke" d="
  M 96.51 154.52
  Q 97.01 154.30 97.21 154.53
  A 1.26 1.19 -52.7 0 1 97.36 155.93
  Q 95.59 159.38 93.76 162.20
  Q 93.37 162.78 93.99 163.11
  L 98.98 165.76
  Q 99.67 166.13 99.82 165.36
  Q 100.07 164.15 101.02 163.43
  Q 101.67 162.95 101.68 163.76
  Q 101.70 164.68 101.10 165.35
  A 0.89 0.88 32.1 0 0 101.43 166.77
  L 106.69 168.88
  A 0.71 0.71 0.0 0 0 107.62 168.45
  L 108.33 166.38
  A 0.31 0.31 0.0 0 1 108.75 166.20
  L 109.03 166.32
  Q 109.46 166.52 109.26 166.94
  Q 108.75 168.03 108.85 169.09
  Q 108.89 169.55 109.34 169.67
  L 114.99 171.18
  A 0.55 0.55 0.0 0 0 115.68 170.60
  Q 115.56 169.38 116.29 168.40
  Q 116.50 168.12 116.77 168.33
  L 116.98 168.50
  A 0.60 0.60 0.0 0 1 117.17 169.20
  Q 116.79 170.14 116.83 171.05
  Q 116.85 171.65 117.44 171.73
  L 123.46 172.54
  Q 124.00 172.61 123.96 172.07
  Q 123.87 171.00 124.18 169.92
  Q 124.29 169.52 124.67 169.68
  L 125.09 169.86
  Q 125.15 169.89 125.15 169.96
  L 125.02 172.14
  A 0.67 0.66 -86.9 0 0 125.64 172.84
  L 130.98 173.16
  Q 131.66 173.20 131.66 172.52
  L 131.66 160.52
  Q 131.66 159.67 132.48 159.47
  L 132.92 159.37
  Q 133.46 159.24 133.46 159.79
  L 133.60 172.21
  Q 133.61 173.06 134.46 173.02
  L 139.75 172.78
  Q 140.63 172.74 140.27 171.94
  Q 139.93 171.21 140.37 169.90
  Q 140.46 169.64 140.69 169.48
  Q 140.87 169.37 141.02 169.42
  Q 141.45 169.55 141.46 170.00
  L 141.55 172.00
  A 0.62 0.62 0.0 0 0 142.27 172.58
  L 148.47 171.59
  Q 149.15 171.48 148.77 170.91
  Q 148.18 170.02 148.18 168.82
  A 0.55 0.55 0.0 0 1 148.82 168.28
  Q 149.42 168.39 149.58 169.02
  Q 149.81 169.94 150.02 170.73
  Q 150.17 171.30 150.74 171.13
  L 156.41 169.43
  A 0.67 0.66 53.7 0 0 156.59 168.24
  Q 155.77 167.70 156.29 166.72
  Q 156.84 165.70 157.31 166.75
  Q 157.69 167.59 157.93 168.49
  Q 158.11 169.17 158.73 168.85
  Q 161.19 167.58 163.96 166.87
  A 0.71 0.70 74.0 0 0 164.46 165.96
  L 163.72 163.77
  A 0.31 0.30 -36.1 0 1 163.77 163.49
  L 163.93 163.27
  Q 164.22 162.87 164.50 163.27
  Q 165.20 164.28 165.50 165.39
  Q 165.67 166.03 166.25 165.72
  L 171.28 163.08
  A 0.76 0.76 0.0 0 0 171.60 162.05
  L 167.90 155.07"
/>
<path stroke="#85a2b9" vector-effect="non-scaling-stroke" d="
  M 167.90 155.07
  Q 168.39 154.65 168.75 154.52
  Q 169.15 154.36 169.37 154.74
  L 173.31 161.47
  A 0.34 0.34 0.0 0 0 173.79 161.58
  L 178.66 158.39
  A 0.73 0.73 0.0 0 0 178.69 157.19
  Q 177.71 156.47 177.73 155.40
  A 0.41 0.41 0.0 0 1 178.42 155.11
  L 180.07 156.67
  Q 180.51 157.08 180.98 156.70
  L 185.26 153.20
  A 0.67 0.67 0.0 0 0 185.34 152.24
  Q 184.89 151.73 184.44 151.18
  Q 183.36 149.85 185.00 150.35
  Q 185.73 150.58 186.01 151.44
  A 0.60 0.60 0.0 0 0 187.01 151.67
  L 191.27 147.30
  Q 191.79 146.77 191.18 146.35
  Q 190.41 145.82 189.90 145.02
  Q 189.58 144.51 190.08 144.19
  L 190.37 144.00
  Q 190.42 143.97 190.46 144.01
  Q 191.24 145.01 192.22 145.58
  Q 192.62 145.82 192.92 145.46
  L 196.55 141.03
  Q 197.00 140.48 196.46 140.01
  L 195.03 138.77
  Q 194.67 138.45 195.06 138.18
  L 195.47 137.88
  Q 195.52 137.85 195.57 137.88
  L 197.17 139.02
  Q 197.67 139.38 198.01 138.87
  L 200.87 134.56
  Q 201.45 133.67 200.52 133.15
  L 196.30 130.80"
/>
<path stroke="#8099ae" vector-effect="non-scaling-stroke" d="
  M 196.30 130.80
  L 194.31 129.43
  A 0.42 0.42 0.0 0 1 194.29 128.76
  L 194.67 128.46
  Q 195.30 127.97 195.99 128.37
  L 201.66 131.67
  Q 202.34 132.08 202.71 131.37
  L 205.08 126.80
  Q 205.53 125.92 204.59 125.63
  Q 203.59 125.31 202.99 124.23
  Q 202.66 123.64 203.33 123.74
  Q 204.51 123.91 205.35 124.67
  Q 205.82 125.10 206.06 124.51
  L 208.35 118.83
  A 0.65 0.64 13.5 0 0 207.80 117.94
  Q 206.75 117.86 206.11 117.03
  Q 205.58 116.34 206.44 116.22
  Q 207.54 116.06 208.26 116.75
  A 0.47 0.47 0.0 0 0 209.04 116.53
  L 210.65 110.49
  A 0.57 0.56 -89.0 0 0 209.98 109.79
  Q 208.84 110.04 208.24 109.15
  Q 207.90 108.65 208.47 108.45
  Q 209.29 108.18 210.07 108.73
  A 0.69 0.69 0.0 0 0 211.15 108.27
  L 212.09 102.31
  Q 212.23 101.40 211.37 101.69
  Q 210.03 102.14 209.52 101.14
  Q 209.17 100.45 209.93 100.32
  Q 210.73 100.18 211.51 100.40
  Q 212.34 100.64 212.38 99.77
  L 212.58 94.50
  Q 212.61 93.77 211.88 93.81
  Q 205.68 94.14 199.07 93.03"
/>
<path stroke="#80adc7" vector-effect="non-scaling-stroke" d="
  M 199.07 93.03
  Q 205.55 91.25 212.22 91.97
  A 0.48 0.47 -89.0 0 0 212.74 91.46
  L 212.33 85.49
  Q 212.28 84.86 211.66 84.95
  Q 210.72 85.09 209.77 84.96
  Q 208.89 84.85 209.62 84.34
  Q 210.45 83.77 211.54 83.98
  A 0.51 0.50 -88.0 0 0 212.13 83.42
  L 211.44 77.50
  Q 211.33 76.58 210.43 76.78
  Q 209.49 76.98 208.14 76.74"
/>
<path stroke="#80bad9" vector-effect="non-scaling-stroke" d="
  M 208.14 76.74
  Q 208.97 75.60 210.17 75.58
  Q 211.02 75.57 210.82 74.74
  L 209.42 69.08
  A 0.80 0.79 65.9 0 0 208.20 68.61
  Q 207.41 69.14 206.57 68.84
  Q 205.44 68.45 206.54 67.97
  Q 207.21 67.69 207.90 67.57
  A 0.81 0.81 0.0 0 0 208.53 66.51
  L 206.69 61.17
  Q 206.49 60.59 205.91 60.79
  L 203.53 61.60
  A 0.43 0.43 0.0 0 1 203.04 60.93
  Q 203.83 59.88 205.46 59.71
  Q 205.89 59.66 205.71 59.27
  L 203.12 53.72
  Q 202.86 53.17 202.33 53.47
  L 195.38 57.41
  A 0.60 0.60 0.0 0 1 194.56 57.16
  L 194.40 56.85
  Q 194.03 56.11 194.74 55.70
  L 201.50 51.85
  Q 202.74 51.14 201.31 51.01
  Q 200.33 50.92 199.40 51.09
  C 181.76 54.19 165.61 59.34 151.19 69.91
  Q 150.23 70.61 147.96 69.72"
/>
<path stroke="#c1e5f5" vector-effect="non-scaling-stroke" d="
  M 147.96 69.72
  Q 152.12 67.07 155.64 64.14
  Q 158.55 61.71 170.58 56.53
  Q 170.77 56.45 170.69 56.27
  L 170.58 56.02
  Q 170.53 55.89 170.40 55.94
  Q 165.38 57.79 160.82 60.44
  C 159.04 61.48 156.76 62.03 154.75 61.92
  Q 144.21 61.29 133.93 62.27"
/>
<path stroke="#80bad9" vector-effect="non-scaling-stroke" d="
  M 133.93 62.27
  Q 133.82 61.86 132.94 61.61
  Q 132.44 61.47 132.01 61.76
  L 130.79 62.59"
/>
<path stroke="#c1e5f5" vector-effect="non-scaling-stroke" d="
  M 130.79 62.59
  L 129.93 61.98
  Q 129.51 61.69 129.00 61.69
  L 98.21 61.74
  A 0.97 0.95 -81.9 0 0 97.29 62.44
  C 94.79 71.35 92.66 79.58 92.21 88.91
  A 0.98 0.98 0.0 0 0 93.19 89.94
  L 101.72 89.98
  Q 102.28 89.98 102.37 90.54
  Q 102.42 90.90 102.26 91.13"
/>
<path stroke="#a8a9ad" vector-effect="non-scaling-stroke" d="
  M 102.26 91.13
  Q 101.85 91.69 101.88 92.23
  Q 101.90 92.65 102.40 93.11
  Q 102.99 93.65 103.55 94.19"
/>
<path stroke="#90cae7" vector-effect="non-scaling-stroke" d="
  M 103.55 94.19
  Q 103.27 94.64 102.75 94.66
  Q 98.01 94.84 92.96 94.56
  A 0.61 0.61 0.0 0 0 92.31 95.19
  Q 92.66 108.26 96.97 120.41
  A 0.44 0.44 0.0 0 1 96.73 120.96
  L 91.55 123.15"
/>
<path stroke="#80bad9" vector-effect="non-scaling-stroke" d="
  M 91.55 123.15
  C 88.31 124.77 84.93 125.31 81.53 126.66
  C 79.84 127.32 78.22 127.66 76.49 128.13
  Q 74.83 128.59 72.95 128.58
  Q 67.14 128.56 61.88 128.48
  Q 61.38 128.48 61.56 128.95
  Q 62.05 130.21 62.97 131.25
  Q 63.52 131.87 62.73 132.09
  L 57.86 133.48
  A 0.84 0.83 -23.5 0 0 57.37 134.71
  C 69.35 154.83 88.59 169.88 111.32 175.31
  Q 137.96 181.67 162.98 172.04
  Q 172.17 168.50 180.60 162.65
  Q 205.30 145.50 214.17 116.82
  C 221.25 93.97 218.10 70.06 206.38 49.14
  Q 205.62 47.79 204.46 47.95"
/>
<path stroke="#c1e5f5" vector-effect="non-scaling-stroke" d="
  M 204.46 47.95
  L 199.80 48.30"
/>
<path stroke="#89bfdf" vector-effect="non-scaling-stroke" d="
  M 199.80 48.30
  Q 199.31 47.99 199.10 47.67
  C 184.91 26.63 163.89 14.54 138.66 11.95
  A 0.25 0.25 0.0 0 0 138.39 12.27
  Q 138.51 12.71 138.82 12.96
  Q 160.38 30.33 171.22 55.54
  Q 171.43 56.02 171.92 55.84
  Q 185.60 50.88 199.74 48.65"
/>
<path stroke="#4ba4d5" vector-effect="non-scaling-stroke" d="
  M 199.80 48.30
  Q 199.98 48.62 199.74 48.65"
/>
<path stroke="#429fcf" vector-effect="non-scaling-stroke" d="
  M 204.46 47.95
  Q 204.65 47.98 204.83 48.01"
/>
<path stroke="#1184c1" vector-effect="non-scaling-stroke" d="
  M 91.55 123.15
  Q 92.04 123.31 91.77 123.70"
/>
<path stroke="#1177ae" vector-effect="non-scaling-stroke" d="
  M 154.00 74.76
  L 154.08 82.96
  Q 154.08 83.47 154.40 83.85
  Q 156.25 86.08 160.38 89.62
  Q 162.87 91.77 161.57 93.24"
/>
<path stroke="#116396" vector-effect="non-scaling-stroke" d="
  M 161.57 93.24
  L 154.75 100.16
  A 2.44 2.41 -23.2 0 0 154.06 101.85
  L 154.08 113.05
  Q 154.08 113.68 153.45 113.68
  L 142.87 113.71
  A 3.27 3.27 0.0 0 0 140.57 114.68
  L 133.13 122.19
  Q 132.45 122.88 131.78 122.17
  L 124.42 114.36
  A 2.31 2.29 -19.0 0 0 122.91 113.63
  Q 117.25 113.18 112.30 114.35"
/>
<path stroke="#116396" vector-effect="non-scaling-stroke" d="
  M 116.80 112.55
  L 123.38 112.60
  Q 123.93 112.61 124.31 112.99
  L 131.48 120.20
  A 1.64 1.63 44.4 0 0 133.83 120.18
  L 140.82 112.82
  Q 141.16 112.46 141.65 112.47
  L 152.15 112.60
  A 1.02 1.01 -89.1 0 0 153.17 111.60
  L 153.35 101.03
  A 1.41 1.38 -22.8 0 1 153.75 100.08
  L 160.02 93.82
  A 2.38 2.38 0.0 0 0 159.88 90.32
  Q 157.10 87.95 154.27 84.98
  Q 153.07 83.71 153.10 81.25
  Q 153.13 77.75 153.07 74.31"
/>
<path stroke="#0167a1" vector-effect="non-scaling-stroke" d="
  M 208.14 76.74
  Q 204.37 76.74 200.51 76.92
  Q 198.69 77.00 197.07 76.51
  Q 195.15 75.93 193.76 75.99
  Q 188.97 76.21 184.25 76.21
  Q 174.69 76.19 165.08 76.26
  Q 164.97 76.26 164.94 76.37
  Q 164.91 76.52 164.91 76.68
  A 0.33 0.32 7.6 0 1 164.50 76.99
  Q 163.00 76.60 161.53 76.79
  C 159.74 77.02 157.43 75.94 155.79 75.27
  Q 154.87 74.89 154.65 73.93
  Q 154.42 72.92 154.19 73.93
  L 154.00 74.76"
/>
<path stroke="#1184c1" vector-effect="non-scaling-stroke" d="
  M 154.00 74.76
  Q 154.31 71.54 153.01 71.99"
/>
<path stroke="#296487" vector-effect="non-scaling-stroke" d="
  M 153.01 71.99
  L 142.43 71.61
  A 2.36 2.35 65.1 0 1 141.07 71.11
  Q 138.60 69.16 136.97 66.31
  Q 136.65 65.75 136.02 65.69
  Q 135.58 65.64 135.30 65.30
  Q 134.44 64.27 133.19 63.73
  Q 132.76 63.54 132.32 63.70
  Q 130.87 64.21 129.91 65.30
  Q 129.58 65.67 129.11 65.82
  L 128.06 66.16
  Q 127.74 66.26 127.62 66.57
  C 127.12 67.82 126.04 68.01 125.27 69.00
  Q 124.48 70.02 123.94 71.20
  Q 123.71 71.69 123.17 71.70
  L 112.44 71.82
  A 0.82 0.82 0.0 0 0 111.63 72.64
  Q 111.63 77.78 111.68 83.13
  Q 111.69 84.92 109.96 85.27
  A 1.62 1.53 -70.0 0 0 109.18 85.66
  L 105.65 88.89
  Q 105.36 89.16 105.26 89.55
  Q 105.16 89.99 104.72 90.14
  A 0.82 0.81 1.5 0 0 104.22 90.61
  Q 104.09 90.94 104.06 91.43"
/>
<path stroke="#429fcf" vector-effect="non-scaling-stroke" d="
  M 104.06 91.43
  C 103.86 90.82 103.78 90.20 104.20 89.69
  Q 106.47 86.91 109.17 84.51
  Q 110.44 83.39 110.35 81.66
  Q 110.04 75.99 110.89 71.16
  A 1.23 1.22 -85.1 0 1 112.08 70.15
  L 122.62 70.01
  A 3.03 3.03 0.0 0 0 124.82 69.04
  L 130.79 62.59"
/>
<path stroke="#429fcf" vector-effect="non-scaling-stroke" d="
  M 133.93 62.27
  L 140.83 69.51
  Q 141.18 69.88 141.68 69.94
  Q 145.14 70.37 147.96 69.72"
/>
<path stroke="#397495" vector-effect="non-scaling-stroke" d="
  M 153.01 71.99
  Q 153.23 73.16 153.07 74.31"
/>
<path stroke="#29435c" vector-effect="non-scaling-stroke" d="
  M 153.07 74.31
  Q 152.41 74.28 152.16 74.42
  Q 152.05 74.48 152.03 74.59
  Q 151.40 78.76 151.46 82.58
  Q 151.50 84.94 153.31 86.41
  Q 155.55 88.24 157.54 90.58
  Q 158.23 91.40 158.39 92.47
  Q 158.66 94.22 157.18 94.42"
/>
<path stroke="#6c6a60" vector-effect="non-scaling-stroke" d="
  M 157.18 94.42
  Q 157.48 94.51 157.35 94.19
  A 0.47 0.47 0.0 0 0 157.04 93.92
  Q 156.71 93.83 156.25 93.87"
/>
<path stroke="#29435c" vector-effect="non-scaling-stroke" d="
  M 156.25 93.87
  Q 157.85 91.91 155.83 90.16
  Q 154.37 88.90 150.93 85.47
  Q 150.55 85.09 150.48 84.56
  Q 149.90 80.33 150.40 75.51
  A 0.89 0.88 2.3 0 0 149.50 74.54
  L 141.42 74.77
  A 3.57 3.54 67.1 0 1 138.74 73.67
  L 133.42 68.11
  A 1.41 1.40 -45.4 0 0 131.37 68.13
  C 129.36 70.31 126.75 74.48 123.59 74.57
  Q 119.74 74.68 115.70 74.56
  Q 114.92 74.53 114.91 75.31
  L 114.75 83.57
  A 3.33 3.29 68.1 0 1 113.81 85.81
  L 108.25 91.51
  A 0.92 0.91 -47.5 0 0 108.30 92.84
  Q 109.92 94.23 110.43 95.77"
/>
<path stroke="#6c6a60" vector-effect="non-scaling-stroke" d="
  M 110.43 95.77
  Q 113.66 99.53 113.63 101.74
  Q 113.57 105.81 113.63 109.88
  Q 113.66 111.24 116.65 111.16"
/>
<path stroke="#29435c" vector-effect="non-scaling-stroke" d="
  M 116.65 111.16
  L 115.82 111.69
  Q 115.09 112.14 115.95 112.17
  Q 116.74 112.19 116.80 112.55"
/>
<path stroke="#397495" vector-effect="non-scaling-stroke" d="
  M 116.80 112.55
  L 113.25 112.63
  A 1.34 1.34 0.0 0 1 111.88 111.34
  Q 111.72 106.41 111.73 102.12
  C 111.73 101.10 111.17 100.20 110.30 99.68
  C 108.42 98.55 106.68 96.44 105.10 94.89
  Q 104.47 94.27 103.55 94.19"
/>
<path stroke="#014676" vector-effect="non-scaling-stroke" d="
  M 199.07 93.03
  Q 195.36 93.69 193.77 92.97
  Q 191.91 92.14 189.66 92.12
  Q 182.48 92.07 175.41 92.19
  Q 172.75 92.24 170.13 92.54
  Q 168.53 92.72 165.86 92.77
  Q 163.68 92.80 161.57 93.24"
/>
<path stroke="#063b68" vector-effect="non-scaling-stroke" d="
  M 196.30 130.80
  Q 197.33 131.65 195.78 132.71
  Q 195.39 132.98 195.00 132.70
  Q 194.81 132.56 194.86 132.32
  Q 194.96 131.79 194.43 131.78
  C 189.49 131.69 184.48 131.17 179.54 131.15
  Q 170.99 131.12 162.53 131.07
  Q 155.19 131.03 145.59 131.27
  Q 133.78 131.56 122.68 131.33
  Q 122.54 131.33 122.46 131.19
  Q 122.37 131.03 122.18 131.05
  C 117.25 131.56 112.28 130.87 107.31 131.55
  A 2.44 2.41 -40.2 0 1 106.29 131.47
  Q 105.78 131.31 105.24 131.34
  Q 101.53 131.50 97.70 131.16
  Q 94.91 130.92 92.30 131.32
  Q 91.82 131.40 91.40 131.65
  Q 90.78 132.01 90.07 131.90
  Q 87.94 131.56 85.98 132.11
  Q 85.43 132.27 84.86 132.16
  Q 84.09 132.01 83.45 132.40
  Q 82.96 132.70 82.39 132.76
  L 78.90 133.11
  Q 78.30 133.17 78.59 132.64
  Q 78.74 132.37 79.08 132.39
  A 0.22 0.22 0.0 0 0 79.22 131.98
  Q 78.91 131.78 78.49 131.81
  A 0.68 0.68 0.0 0 0 77.97 132.13
  Q 77.66 132.63 77.01 132.33
  Q 76.27 131.99 75.88 131.16"
/>
<path stroke="#445961" vector-effect="non-scaling-stroke" d="
  M 116.65 111.16
  L 123.42 111.08
  A 3.40 3.38 -21.8 0 1 125.94 112.15
  L 132.11 118.70
  Q 132.30 118.89 132.56 118.89
  Q 132.71 118.89 132.85 118.88
  Q 133.34 118.84 133.37 118.35
  Q 133.39 117.90 133.85 117.83
  A 0.68 0.66 15.7 0 0 134.22 117.63
  L 139.05 112.29
  Q 140.07 111.16 141.59 111.15
  L 151.41 111.06
  A 0.43 0.42 86.4 0 0 151.83 110.58
  Q 151.00 104.08 151.73 99.74
  Q 151.81 99.23 152.20 98.88
  L 157.18 94.42"
/>
<path stroke="#6a8fa3" vector-effect="non-scaling-stroke" d="
  M 104.06 91.43
  Q 103.51 91.93 102.26 91.13"
/>
<path stroke="#445961" vector-effect="non-scaling-stroke" d="
  M 156.25 93.87
  Q 153.95 96.15 151.62 98.45
  Q 150.70 99.36 150.49 100.42
  C 150.02 102.87 150.29 105.87 150.53 108.37
  Q 150.69 110.00 149.06 110.00
  Q 144.96 110.01 141.25 110.04
  Q 139.71 110.05 138.58 111.23
  Q 135.96 113.96 133.19 116.66
  A 1.12 1.11 -44.1 0 1 131.62 116.64
  L 126.14 111.00
  Q 125.33 110.17 124.17 110.15
  L 115.51 110.01
  A 0.94 0.94 0.0 0 1 114.58 108.99
  Q 114.99 104.40 114.55 100.00
  Q 114.49 99.38 114.02 98.97
  L 110.43 95.77"
/>
<path stroke="#125588" vector-effect="non-scaling-stroke" d="
  M 167.90 155.07
  Q 163.36 154.31 158.32 154.35
  Q 156.20 154.36 154.27 154.06
  Q 152.21 153.73 150.05 153.91
  C 145.58 154.29 141.23 153.92 137.13 153.81
  A 61.01 13.82 12.4 0 0 130.08 153.85
  Q 118.86 154.35 106.66 153.94
  Q 105.28 153.89 101.86 154.26
  Q 99.39 154.53 96.90 154.13
  A 0.39 0.36 -62.8 0 0 96.57 154.25
  Q 96.46 154.38 96.51 154.52"
/>
<path stroke="#90cae7" vector-effect="non-scaling-stroke" d="
  M 66.00 47.75
  L 61.79 55.21
  A 0.50 0.49 -75.2 0 0 62.22 55.95
  L 93.47 55.95
  A 0.59 0.58 -77.2 0 0 94.00 55.61
  L 97.18 48.55"
/>
<path stroke="#89bfdf" vector-effect="non-scaling-stroke" d="
  M 97.18 48.55
  Q 108.20 27.41 126.14 13.05
  Q 127.70 11.81 125.72 12.02
  Q 90.59 15.77 68.94 43.67
  Q 67.64 45.34 66.00 47.75"
/>
<path stroke="#1a89c7" vector-effect="non-scaling-stroke" d="
  M 97.18 48.55
  Q 96.34 47.87 95.32 48.39
  Q 94.88 48.61 94.40 48.59
  L 66.00 47.75"
/>
<path stroke="#91c4e2" vector-effect="non-scaling-stroke" d="
  M 164.68 55.26
  C 158.06 40.42 148.04 27.66 135.72 17.03
  A 0.30 0.30 0.0 0 0 135.23 17.26
  L 135.29 55.49
  Q 135.30 55.93 135.74 55.94
  L 164.24 55.95
  A 0.49 0.49 0.0 0 0 164.68 55.26"
/>
<path stroke="#91c4e2" vector-effect="non-scaling-stroke" d="
  M 129.31 17.24
  C 117.44 27.29 106.79 40.58 100.55 54.96
  Q 100.12 55.95 101.19 55.95
  L 128.94 55.98
  Q 129.85 55.98 129.85 55.07
  L 129.95 17.54
  A 0.39 0.39 0.0 0 0 129.31 17.24"
/>
<path stroke="#c1e5f5" vector-effect="non-scaling-stroke" d="
  M 91.31 63.02
  A 1.05 1.05 0.0 0 0 90.31 61.65
  L 59.51 61.74
  A 1.75 1.75 0.0 0 0 57.83 62.99
  Q 55.97 69.33 54.31 76.44
  Q 52.86 82.63 52.82 89.44
  A 0.47 0.47 0.0 0 0 53.29 89.91
  L 85.72 89.87
  A 1.07 1.07 0.0 0 0 86.79 88.82
  Q 87.03 76.25 91.31 63.02"
/>
<path stroke="#90cae7" vector-effect="non-scaling-stroke" d="
  M 91.32 122.02
  Q 86.97 108.26 86.54 95.29
  Q 86.52 94.74 85.97 94.74
  L 53.23 94.68
  A 0.29 0.28 -1.0 0 0 52.94 94.97
  Q 53.15 108.83 58.38 122.36
  A 0.68 0.66 78.9 0 0 59.00 122.79
  L 90.78 122.75
  A 0.56 0.56 0.0 0 0 91.32 122.02"
/>
<path stroke="#8099ae" vector-effect="non-scaling-stroke" d="
  M 120.21 88.94
  L 124.24 89.00
  Q 124.74 89.01 124.82 88.51
  L 125.05 86.89
  Q 125.12 86.41 124.64 86.41
  L 118.30 86.36
  Q 116.71 86.35 116.66 87.94
  L 116.57 91.24
  A 2.08 2.07 3.1 0 0 118.48 93.36
  L 122.19 93.68
  A 0.92 0.92 0.0 0 1 123.01 94.42
  L 123.09 94.82
  A 0.40 0.40 0.0 0 1 122.71 95.30
  L 117.97 95.52
  Q 117.24 95.55 117.19 96.28
  L 117.13 97.17
  Q 117.08 98.00 117.92 98.00
  L 124.28 97.97
  A 1.44 1.43 -0.8 0 0 125.71 96.51
  L 125.66 92.27
  Q 125.64 91.41 124.79 91.32
  L 120.35 90.85
  A 0.92 0.91 -2.1 0 1 119.54 90.10
  L 119.48 89.79
  Q 119.32 88.92 120.21 88.94"
/>
<path stroke="#8099ae" vector-effect="non-scaling-stroke" d="
  M 130.00 94.70
  Q 130.09 93.01 130.88 94.50
  L 132.14 96.87
  A 0.37 0.37 0.0 0 0 132.81 96.83
  Q 133.37 95.44 134.18 94.05
  Q 134.91 92.79 134.93 94.25
  Q 134.95 95.49 134.64 96.86
  Q 134.39 97.96 135.52 97.99
  L 136.82 98.03
  Q 137.71 98.05 137.71 97.17
  L 137.76 86.94
  Q 137.77 86.36 137.19 86.33
  L 135.54 86.25
  Q 134.66 86.21 134.30 87.02
  L 132.84 90.34
  A 0.39 0.39 0.0 0 1 132.14 90.36
  L 130.37 87.00
  A 1.24 1.23 -14.1 0 0 129.26 86.34
  L 127.00 86.38
  Q 126.37 86.39 126.49 87.01
  Q 127.50 92.19 127.08 97.46
  Q 127.04 97.99 127.56 97.99
  L 129.52 98.00
  A 0.52 0.52 0.0 0 0 130.04 97.45
  Q 129.94 96.01 130.00 94.70"
/>
<path stroke="#8099ae" vector-effect="non-scaling-stroke" d="
  M 143.06 94.00
  L 146.47 94.13
  Q 148.52 94.22 148.50 92.16
  L 148.44 88.04
  Q 148.42 86.44 146.82 86.43
  L 139.68 86.38
  Q 139.09 86.38 139.11 86.97
  L 139.57 97.33
  Q 139.61 98.05 140.33 98.04
  L 141.71 98.02
  Q 142.59 98.00 142.39 97.15
  Q 142.07 95.76 142.35 94.54
  Q 142.49 93.98 143.06 94.00"
/>
<path stroke="#8099ae" vector-effect="non-scaling-stroke" d="
  M 145.5181 89.3311
  A 0.34 0.34 0.0 0 0 145.1847 88.9846
  L 142.6452 88.9359
  A 0.34 0.34 0.0 0 0 142.2987 89.2693
  L 142.2619 91.1889
  A 0.34 0.34 0.0 0 0 142.5953 91.5354
  L 145.1348 91.5841
  A 0.34 0.34 0.0 0 0 145.4813 91.2507
  L 145.5181 89.3311"
/>
</g>
<path fill="#ffffff" d="
  M 0.00 0.00
  L 264.00 0.00
  L 264.00 191.00
  L 0.00 191.00
  L 0.00 0.00
  Z
  M 199.74 48.65
  Q 201.78 49.14 204.83 48.01
  Q 223.86 81.32 213.10 116.99
  C 210.10 126.92 204.74 137.23 198.29 145.03
  Q 174.74 173.56 138.47 176.71
  C 114.37 178.80 90.70 170.00 73.26 153.45
  Q 65.49 146.07 58.34 134.58
  Q 58.05 134.12 58.57 133.96
  Q 62.24 132.88 66.05 131.84
  Q 79.11 128.28 91.77 123.70
  Q 101.37 120.29 109.37 114.29
  Q 110.18 113.68 110.79 113.77
  Q 111.45 113.87 112.30 114.35
  Q 106.35 120.07 98.30 123.33
  Q 86.14 128.24 75.88 131.16
  L 64.88 134.21
  A 0.55 0.54 66.2 0 0 64.57 135.03
  L 67.09 139.01
  Q 67.51 139.66 68.07 139.13
  Q 69.06 138.20 70.24 137.95
  Q 71.09 137.77 70.54 138.45
  Q 69.71 139.48 68.55 140.12
  Q 68.01 140.41 68.40 140.88
  L 72.18 145.49
  A 0.73 0.73 0.0 0 0 73.20 145.59
  L 74.88 144.21
  A 0.38 0.37 46.9 0 1 75.37 144.23
  Q 76.30 145.06 74.30 146.16
  A 0.87 0.85 -36.6 0 0 74.09 147.51
  L 78.11 151.64
  Q 78.50 152.05 78.91 151.66
  L 80.51 150.12
  Q 80.60 150.03 80.73 150.06
  L 81.19 150.17
  Q 81.71 150.28 81.37 150.69
  L 79.83 152.54
  A 0.55 0.55 0.0 0 0 79.91 153.32
  L 84.73 157.15
  A 0.59 0.59 0.0 0 0 85.65 156.91
  Q 86.00 155.99 86.52 155.45
  A 0.61 0.61 0.0 0 1 87.46 156.21
  L 86.49 157.65
  Q 86.10 158.23 86.68 158.61
  L 91.35 161.61
  Q 91.79 161.89 92.06 161.46
  L 96.51 154.52
  Q 97.01 154.30 97.21 154.53
  A 1.26 1.19 -52.7 0 1 97.36 155.93
  Q 95.59 159.38 93.76 162.20
  Q 93.37 162.78 93.99 163.11
  L 98.98 165.76
  Q 99.67 166.13 99.82 165.36
  Q 100.07 164.15 101.02 163.43
  Q 101.67 162.95 101.68 163.76
  Q 101.70 164.68 101.10 165.35
  A 0.89 0.88 32.1 0 0 101.43 166.77
  L 106.69 168.88
  A 0.71 0.71 0.0 0 0 107.62 168.45
  L 108.33 166.38
  A 0.31 0.31 0.0 0 1 108.75 166.20
  L 109.03 166.32
  Q 109.46 166.52 109.26 166.94
  Q 108.75 168.03 108.85 169.09
  Q 108.89 169.55 109.34 169.67
  L 114.99 171.18
  A 0.55 0.55 0.0 0 0 115.68 170.60
  Q 115.56 169.38 116.29 168.40
  Q 116.50 168.12 116.77 168.33
  L 116.98 168.50
  A 0.60 0.60 0.0 0 1 117.17 169.20
  Q 116.79 170.14 116.83 171.05
  Q 116.85 171.65 117.44 171.73
  L 123.46 172.54
  Q 124.00 172.61 123.96 172.07
  Q 123.87 171.00 124.18 169.92
  Q 124.29 169.52 124.67 169.68
  L 125.09 169.86
  Q 125.15 169.89 125.15 169.96
  L 125.02 172.14
  A 0.67 0.66 -86.9 0 0 125.64 172.84
  L 130.98 173.16
  Q 131.66 173.20 131.66 172.52
  L 131.66 160.52
  Q 131.66 159.67 132.48 159.47
  L 132.92 159.37
  Q 133.46 159.24 133.46 159.79
  L 133.60 172.21
  Q 133.61 173.06 134.46 173.02
  L 139.75 172.78
  Q 140.63 172.74 140.27 171.94
  Q 139.93 171.21 140.37 169.90
  Q 140.46 169.64 140.69 169.48
  Q 140.87 169.37 141.02 169.42
  Q 141.45 169.55 141.46 170.00
  L 141.55 172.00
  A 0.62 0.62 0.0 0 0 142.27 172.58
  L 148.47 171.59
  Q 149.15 171.48 148.77 170.91
  Q 148.18 170.02 148.18 168.82
  A 0.55 0.55 0.0 0 1 148.82 168.28
  Q 149.42 168.39 149.58 169.02
  Q 149.81 169.94 150.02 170.73
  Q 150.17 171.30 150.74 171.13
  L 156.41 169.43
  A 0.67 0.66 53.7 0 0 156.59 168.24
  Q 155.77 167.70 156.29 166.72
  Q 156.84 165.70 157.31 166.75
  Q 157.69 167.59 157.93 168.49
  Q 158.11 169.17 158.73 168.85
  Q 161.19 167.58 163.96 166.87
  A 0.71 0.70 74.0 0 0 164.46 165.96
  L 163.72 163.77
  A 0.31 0.30 -36.1 0 1 163.77 163.49
  L 163.93 163.27
  Q 164.22 162.87 164.50 163.27
  Q 165.20 164.28 165.50 165.39
  Q 165.67 166.03 166.25 165.72
  L 171.28 163.08
  A 0.76 0.76 0.0 0 0 171.60 162.05
  L 167.90 155.07
  Q 168.39 154.65 168.75 154.52
  Q 169.15 154.36 169.37 154.74
  L 173.31 161.47
  A 0.34 0.34 0.0 0 0 173.79 161.58
  L 178.66 158.39
  A 0.73 0.73 0.0 0 0 178.69 157.19
  Q 177.71 156.47 177.73 155.40
  A 0.41 0.41 0.0 0 1 178.42 155.11
  L 180.07 156.67
  Q 180.51 157.08 180.98 156.70
  L 185.26 153.20
  A 0.67 0.67 0.0 0 0 185.34 152.24
  Q 184.89 151.73 184.44 151.18
  Q 183.36 149.85 185.00 150.35
  Q 185.73 150.58 186.01 151.44
  A 0.60 0.60 0.0 0 0 187.01 151.67
  L 191.27 147.30
  Q 191.79 146.77 191.18 146.35
  Q 190.41 145.82 189.90 145.02
  Q 189.58 144.51 190.08 144.19
  L 190.37 144.00
  Q 190.42 143.97 190.46 144.01
  Q 191.24 145.01 192.22 145.58
  Q 192.62 145.82 192.92 145.46
  L 196.55 141.03
  Q 197.00 140.48 196.46 140.01
  L 195.03 138.77
  Q 194.67 138.45 195.06 138.18
  L 195.47 137.88
  Q 195.52 137.85 195.57 137.88
  L 197.17 139.02
  Q 197.67 139.38 198.01 138.87
  L 200.87 134.56
  Q 201.45 133.67 200.52 133.15
  L 196.30 130.80
  L 194.31 129.43
  A 0.42 0.42 0.0 0 1 194.29 128.76
  L 194.67 128.46
  Q 195.30 127.97 195.99 128.37
  L 201.66 131.67
  Q 202.34 132.08 202.71 131.37
  L 205.08 126.80
  Q 205.53 125.92 204.59 125.63
  Q 203.59 125.31 202.99 124.23
  Q 202.66 123.64 203.33 123.74
  Q 204.51 123.91 205.35 124.67
  Q 205.82 125.10 206.06 124.51
  L 208.35 118.83
  A 0.65 0.64 13.5 0 0 207.80 117.94
  Q 206.75 117.86 206.11 117.03
  Q 205.58 116.34 206.44 116.22
  Q 207.54 116.06 208.26 116.75
  A 0.47 0.47 0.0 0 0 209.04 116.53
  L 210.65 110.49
  A 0.57 0.56 -89.0 0 0 209.98 109.79
  Q 208.84 110.04 208.24 109.15
  Q 207.90 108.65 208.47 108.45
  Q 209.29 108.18 210.07 108.73
  A 0.69 0.69 0.0 0 0 211.15 108.27
  L 212.09 102.31
  Q 212.23 101.40 211.37 101.69
  Q 210.03 102.14 209.52 101.14
  Q 209.17 100.45 209.93 100.32
  Q 210.73 100.18 211.51 100.40
  Q 212.34 100.64 212.38 99.77
  L 212.58 94.50
  Q 212.61 93.77 211.88 93.81
  Q 205.68 94.14 199.07 93.03
  Q 205.55 91.25 212.22 91.97
  A 0.48 0.47 -89.0 0 0 212.74 91.46
  L 212.33 85.49
  Q 212.28 84.86 211.66 84.95
  Q 210.72 85.09 209.77 84.96
  Q 208.89 84.85 209.62 84.34
  Q 210.45 83.77 211.54 83.98
  A 0.51 0.50 -88.0 0 0 212.13 83.42
  L 211.44 77.50
  Q 211.33 76.58 210.43 76.78
  Q 209.49 76.98 208.14 76.74
  Q 208.97 75.60 210.17 75.58
  Q 211.02 75.57 210.82 74.74
  L 209.42 69.08
  A 0.80 0.79 65.9 0 0 208.20 68.61
  Q 207.41 69.14 206.57 68.84
  Q 205.44 68.45 206.54 67.97
  Q 207.21 67.69 207.90 67.57
  A 0.81 0.81 0.0 0 0 208.53 66.51
  L 206.69 61.17
  Q 206.49 60.59 205.91 60.79
  L 203.53 61.60
  A 0.43 0.43 0.0 0 1 203.04 60.93
  Q 203.83 59.88 205.46 59.71
  Q 205.89 59.66 205.71 59.27
  L 203.12 53.72
  Q 202.86 53.17 202.33 53.47
  L 195.38 57.41
  A 0.60 0.60 0.0 0 1 194.56 57.16
  L 194.40 56.85
  Q 194.03 56.11 194.74 55.70
  L 201.50 51.85
  Q 202.74 51.14 201.31 51.01
  Q 200.33 50.92 199.40 51.09
  C 181.76 54.19 165.61 59.34 151.19 69.91
  Q 150.23 70.61 147.96 69.72
  Q 152.12 67.07 155.64 64.14
  Q 158.55 61.71 170.58 56.53
  Q 170.77 56.45 170.69 56.27
  L 170.58 56.02
  Q 170.53 55.89 170.40 55.94
  Q 165.38 57.79 160.82 60.44
  C 159.04 61.48 156.76 62.03 154.75 61.92
  Q 144.21 61.29 133.93 62.27
  Q 133.82 61.86 132.94 61.61
  Q 132.44 61.47 132.01 61.76
  L 130.79 62.59
  L 129.93 61.98
  Q 129.51 61.69 129.00 61.69
  L 98.21 61.74
  A 0.97 0.95 -81.9 0 0 97.29 62.44
  C 94.79 71.35 92.66 79.58 92.21 88.91
  A 0.98 0.98 0.0 0 0 93.19 89.94
  L 101.72 89.98
  Q 102.28 89.98 102.37 90.54
  Q 102.42 90.90 102.26 91.13
  Q 101.85 91.69 101.88 92.23
  Q 101.90 92.65 102.40 93.11
  Q 102.99 93.65 103.55 94.19
  Q 103.27 94.64 102.75 94.66
  Q 98.01 94.84 92.96 94.56
  A 0.61 0.61 0.0 0 0 92.31 95.19
  Q 92.66 108.26 96.97 120.41
  A 0.44 0.44 0.0 0 1 96.73 120.96
  L 91.55 123.15
  C 88.31 124.77 84.93 125.31 81.53 126.66
  C 79.84 127.32 78.22 127.66 76.49 128.13
  Q 74.83 128.59 72.95 128.58
  Q 67.14 128.56 61.88 128.48
  Q 61.38 128.48 61.56 128.95
  Q 62.05 130.21 62.97 131.25
  Q 63.52 131.87 62.73 132.09
  L 57.86 133.48
  A 0.84 0.83 -23.5 0 0 57.37 134.71
  C 69.35 154.83 88.59 169.88 111.32 175.31
  Q 137.96 181.67 162.98 172.04
  Q 172.17 168.50 180.60 162.65
  Q 205.30 145.50 214.17 116.82
  C 221.25 93.97 218.10 70.06 206.38 49.14
  Q 205.62 47.79 204.46 47.95
  L 199.80 48.30
  Q 199.31 47.99 199.10 47.67
  C 184.91 26.63 163.89 14.54 138.66 11.95
  A 0.25 0.25 0.0 0 0 138.39 12.27
  Q 138.51 12.71 138.82 12.96
  Q 160.38 30.33 171.22 55.54
  Q 171.43 56.02 171.92 55.84
  Q 185.60 50.88 199.74 48.65
  Z
  M 66.00 47.75
  L 61.79 55.21
  A 0.50 0.49 -75.2 0 0 62.22 55.95
  L 93.47 55.95
  A 0.59 0.58 -77.2 0 0 94.00 55.61
  L 97.18 48.55
  Q 108.20 27.41 126.14 13.05
  Q 127.70 11.81 125.72 12.02
  Q 90.59 15.77 68.94 43.67
  Q 67.64 45.34 66.00 47.75
  Z
  M 164.68 55.26
  C 158.06 40.42 148.04 27.66 135.72 17.03
  A 0.30 0.30 0.0 0 0 135.23 17.26
  L 135.29 55.49
  Q 135.30 55.93 135.74 55.94
  L 164.24 55.95
  A 0.49 0.49 0.0 0 0 164.68 55.26
  Z
  M 129.31 17.24
  C 117.44 27.29 106.79 40.58 100.55 54.96
  Q 100.12 55.95 101.19 55.95
  L 128.94 55.98
  Q 129.85 55.98 129.85 55.07
  L 129.95 17.54
  A 0.39 0.39 0.0 0 0 129.31 17.24
  Z
  M 91.31 63.02
  A 1.05 1.05 0.0 0 0 90.31 61.65
  L 59.51 61.74
  A 1.75 1.75 0.0 0 0 57.83 62.99
  Q 55.97 69.33 54.31 76.44
  Q 52.86 82.63 52.82 89.44
  A 0.47 0.47 0.0 0 0 53.29 89.91
  L 85.72 89.87
  A 1.07 1.07 0.0 0 0 86.79 88.82
  Q 87.03 76.25 91.31 63.02
  Z
  M 91.32 122.02
  Q 86.97 108.26 86.54 95.29
  Q 86.52 94.74 85.97 94.74
  L 53.23 94.68
  A 0.29 0.28 -1.0 0 0 52.94 94.97
  Q 53.15 108.83 58.38 122.36
  A 0.68 0.66 78.9 0 0 59.00 122.79
  L 90.78 122.75
  A 0.56 0.56 0.0 0 0 91.32 122.02
  Z"
/>
<path fill="#127ebf" d="
  M 199.80 48.30
  Q 199.98 48.62 199.74 48.65
  Q 185.60 50.88 171.92 55.84
  Q 171.43 56.02 171.22 55.54
  Q 160.38 30.33 138.82 12.96
  Q 138.51 12.71 138.39 12.27
  A 0.25 0.25 0.0 0 1 138.66 11.95
  C 163.89 14.54 184.91 26.63 199.10 47.67
  Q 199.31 47.99 199.80 48.30
  Z"
/>
<path fill="#127ebf" d="
  M 97.18 48.55
  Q 96.34 47.87 95.32 48.39
  Q 94.88 48.61 94.40 48.59
  L 66.00 47.75
  Q 67.64 45.34 68.94 43.67
  Q 90.59 15.77 125.72 12.02
  Q 127.70 11.81 126.14 13.05
  Q 108.20 27.41 97.18 48.55
  Z"
/>
<path fill="#2388c5" d="
  M 135.72 17.03
  C 148.04 27.66 158.06 40.42 164.68 55.26
  A 0.49 0.49 0.0 0 1 164.24 55.95
  L 135.74 55.94
  Q 135.30 55.93 135.29 55.49
  L 135.23 17.26
  A 0.30 0.30 0.0 0 1 135.72 17.03
  Z"
/>
<path fill="#2388c5" d="
  M 100.55 54.96
  C 106.79 40.58 117.44 27.29 129.31 17.24
  A 0.39 0.39 0.0 0 1 129.95 17.54
  L 129.85 55.07
  Q 129.85 55.98 128.94 55.98
  L 101.19 55.95
  Q 100.12 55.95 100.55 54.96
  Z"
/>
<path fill="#2194ce" d="
  M 66.00 47.75
  L 94.40 48.59
  Q 94.88 48.61 95.32 48.39
  Q 96.34 47.87 97.18 48.55
  L 94.00 55.61
  A 0.59 0.58 -77.2 0 1 93.47 55.95
  L 62.22 55.95
  A 0.50 0.49 -75.2 0 1 61.79 55.21
  L 66.00 47.75
  Z"
/>
<path fill="#83caea" d="
  M 204.46 47.95
  Q 204.65 47.98 204.83 48.01
  Q 201.78 49.14 199.74 48.65
  Q 199.98 48.62 199.80 48.30
  L 204.46 47.95
  Z"
/>
<path fill="#0174b3" d="
  M 204.46 47.95
  Q 205.62 47.79 206.38 49.14
  C 218.10 70.06 221.25 93.97 214.17 116.82
  Q 205.30 145.50 180.60 162.65
  Q 172.17 168.50 162.98 172.04
  Q 137.96 181.67 111.32 175.31
  C 88.59 169.88 69.35 154.83 57.37 134.71
  A 0.84 0.83 -23.5 0 1 57.86 133.48
  L 62.73 132.09
  Q 63.52 131.87 62.97 131.25
  Q 62.05 130.21 61.56 128.95
  Q 61.38 128.48 61.88 128.48
  Q 67.14 128.56 72.95 128.58
  Q 74.83 128.59 76.49 128.13
  C 78.22 127.66 79.84 127.32 81.53 126.66
  C 84.93 125.31 88.31 124.77 91.55 123.15
  Q 92.04 123.31 91.77 123.70
  Q 79.11 128.28 66.05 131.84
  Q 62.24 132.88 58.57 133.96
  Q 58.05 134.12 58.34 134.58
  Q 65.49 146.07 73.26 153.45
  C 90.70 170.00 114.37 178.80 138.47 176.71
  Q 174.74 173.56 198.29 145.03
  C 204.74 137.23 210.10 126.92 213.10 116.99
  Q 223.86 81.32 204.83 48.01
  Q 204.65 47.98 204.46 47.95
  Z"
/>
<path fill="#0174b3" d="
  M 208.14 76.74
  Q 204.37 76.74 200.51 76.92
  Q 198.69 77.00 197.07 76.51
  Q 195.15 75.93 193.76 75.99
  Q 188.97 76.21 184.25 76.21
  Q 174.69 76.19 165.08 76.26
  Q 164.97 76.26 164.94 76.37
  Q 164.91 76.52 164.91 76.68
  A 0.33 0.32 7.6 0 1 164.50 76.99
  Q 163.00 76.60 161.53 76.79
  C 159.74 77.02 157.43 75.94 155.79 75.27
  Q 154.87 74.89 154.65 73.93
  Q 154.42 72.92 154.19 73.93
  L 154.00 74.76
  Q 154.31 71.54 153.01 71.99
  L 142.43 71.61
  A 2.36 2.35 65.1 0 1 141.07 71.11
  Q 138.60 69.16 136.97 66.31
  Q 136.65 65.75 136.02 65.69
  Q 135.58 65.64 135.30 65.30
  Q 134.44 64.27 133.19 63.73
  Q 132.76 63.54 132.32 63.70
  Q 130.87 64.21 129.91 65.30
  Q 129.58 65.67 129.11 65.82
  L 128.06 66.16
  Q 127.74 66.26 127.62 66.57
  C 127.12 67.82 126.04 68.01 125.27 69.00
  Q 124.48 70.02 123.94 71.20
  Q 123.71 71.69 123.17 71.70
  L 112.44 71.82
  A 0.82 0.82 0.0 0 0 111.63 72.64
  Q 111.63 77.78 111.68 83.13
  Q 111.69 84.92 109.96 85.27
  A 1.62 1.53 -70.0 0 0 109.18 85.66
  L 105.65 88.89
  Q 105.36 89.16 105.26 89.55
  Q 105.16 89.99 104.72 90.14
  A 0.82 0.81 1.5 0 0 104.22 90.61
  Q 104.09 90.94 104.06 91.43
  C 103.86 90.82 103.78 90.20 104.20 89.69
  Q 106.47 86.91 109.17 84.51
  Q 110.44 83.39 110.35 81.66
  Q 110.04 75.99 110.89 71.16
  A 1.23 1.22 -85.1 0 1 112.08 70.15
  L 122.62 70.01
  A 3.03 3.03 0.0 0 0 124.82 69.04
  L 130.79 62.59
  L 132.01 61.76
  Q 132.44 61.47 132.94 61.61
  Q 133.82 61.86 133.93 62.27
  L 140.83 69.51
  Q 141.18 69.88 141.68 69.94
  Q 145.14 70.37 147.96 69.72
  Q 150.23 70.61 151.19 69.91
  C 165.61 59.34 181.76 54.19 199.40 51.09
  Q 200.33 50.92 201.31 51.01
  Q 202.74 51.14 201.50 51.85
  L 194.74 55.70
  Q 194.03 56.11 194.40 56.85
  L 194.56 57.16
  A 0.60 0.60 0.0 0 0 195.38 57.41
  L 202.33 53.47
  Q 202.86 53.17 203.12 53.72
  L 205.71 59.27
  Q 205.89 59.66 205.46 59.71
  Q 203.83 59.88 203.04 60.93
  A 0.43 0.43 0.0 0 0 203.53 61.60
  L 205.91 60.79
  Q 206.49 60.59 206.69 61.17
  L 208.53 66.51
  A 0.81 0.81 0.0 0 1 207.90 67.57
  Q 207.21 67.69 206.54 67.97
  Q 205.44 68.45 206.57 68.84
  Q 207.41 69.14 208.20 68.61
  A 0.80 0.79 65.9 0 1 209.42 69.08
  L 210.82 74.74
  Q 211.02 75.57 210.17 75.58
  Q 208.97 75.60 208.14 76.74
  Z"
/>
<path fill="#83caea" d="
  M 147.96 69.72
  Q 145.14 70.37 141.68 69.94
  Q 141.18 69.88 140.83 69.51
  L 133.93 62.27
  Q 144.21 61.29 154.75 61.92
  C 156.76 62.03 159.04 61.48 160.82 60.44
  Q 165.38 57.79 170.40 55.94
  Q 170.53 55.89 170.58 56.02
  L 170.69 56.27
  Q 170.77 56.45 170.58 56.53
  Q 158.55 61.71 155.64 64.14
  Q 152.12 67.07 147.96 69.72
  Z"
/>
<path fill="#83caea" d="
  M 91.31 63.02
  Q 87.03 76.25 86.79 88.82
  A 1.07 1.07 0.0 0 1 85.72 89.87
  L 53.29 89.91
  A 0.47 0.47 0.0 0 1 52.82 89.44
  Q 52.86 82.63 54.31 76.44
  Q 55.97 69.33 57.83 62.99
  A 1.75 1.75 0.0 0 1 59.51 61.74
  L 90.31 61.65
  A 1.05 1.05 0.0 0 1 91.31 63.02
  Z"
/>
<path fill="#83caea" d="
  M 130.79 62.59
  L 124.82 69.04
  A 3.03 3.03 0.0 0 1 122.62 70.01
  L 112.08 70.15
  A 1.23 1.22 -85.1 0 0 110.89 71.16
  Q 110.04 75.99 110.35 81.66
  Q 110.44 83.39 109.17 84.51
  Q 106.47 86.91 104.20 89.69
  C 103.78 90.20 103.86 90.82 104.06 91.43
  Q 103.51 91.93 102.26 91.13
  Q 102.42 90.90 102.37 90.54
  Q 102.28 89.98 101.72 89.98
  L 93.19 89.94
  A 0.98 0.98 0.0 0 1 92.21 88.91
  C 92.66 79.58 94.79 71.35 97.29 62.44
  A 0.97 0.95 -81.9 0 1 98.21 61.74
  L 129.00 61.69
  Q 129.51 61.69 129.93 61.98
  L 130.79 62.59
  Z"
/>
<path fill="#50535b" d="
  M 153.01 71.99
  Q 153.23 73.16 153.07 74.31
  Q 152.41 74.28 152.16 74.42
  Q 152.05 74.48 152.03 74.59
  Q 151.40 78.76 151.46 82.58
  Q 151.50 84.94 153.31 86.41
  Q 155.55 88.24 157.54 90.58
  Q 158.23 91.40 158.39 92.47
  Q 158.66 94.22 157.18 94.42
  Q 157.48 94.51 157.35 94.19
  A 0.47 0.47 0.0 0 0 157.04 93.92
  Q 156.71 93.83 156.25 93.87
  Q 157.85 91.91 155.83 90.16
  Q 154.37 88.90 150.93 85.47
  Q 150.55 85.09 150.48 84.56
  Q 149.90 80.33 150.40 75.51
  A 0.89 0.88 2.3 0 0 149.50 74.54
  L 141.42 74.77
  A 3.57 3.54 67.1 0 1 138.74 73.67
  L 133.42 68.11
  A 1.41 1.40 -45.4 0 0 131.37 68.13
  C 129.36 70.31 126.75 74.48 123.59 74.57
  Q 119.74 74.68 115.70 74.56
  Q 114.92 74.53 114.91 75.31
  L 114.75 83.57
  A 3.33 3.29 68.1 0 1 113.81 85.81
  L 108.25 91.51
  A 0.92 0.91 -47.5 0 0 108.30 92.84
  Q 109.92 94.23 110.43 95.77
  Q 113.66 99.53 113.63 101.74
  Q 113.57 105.81 113.63 109.88
  Q 113.66 111.24 116.65 111.16
  L 115.82 111.69
  Q 115.09 112.14 115.95 112.17
  Q 116.74 112.19 116.80 112.55
  L 113.25 112.63
  A 1.34 1.34 0.0 0 1 111.88 111.34
  Q 111.72 106.41 111.73 102.12
  C 111.73 101.10 111.17 100.20 110.30 99.68
  C 108.42 98.55 106.68 96.44 105.10 94.89
  Q 104.47 94.27 103.55 94.19
  Q 102.99 93.65 102.40 93.11
  Q 101.90 92.65 101.88 92.23
  Q 101.85 91.69 102.26 91.13
  Q 103.51 91.93 104.06 91.43
  Q 104.09 90.94 104.22 90.61
  A 0.82 0.81 1.5 0 1 104.72 90.14
  Q 105.16 89.99 105.26 89.55
  Q 105.36 89.16 105.65 88.89
  L 109.18 85.66
  A 1.62 1.53 -70.0 0 1 109.96 85.27
  Q 111.69 84.92 111.68 83.13
  Q 111.63 77.78 111.63 72.64
  A 0.82 0.82 0.0 0 1 112.44 71.82
  L 123.17 71.70
  Q 123.71 71.69 123.94 71.20
  Q 124.48 70.02 125.27 69.00
  C 126.04 68.01 127.12 67.82 127.62 66.57
  Q 127.74 66.26 128.06 66.16
  L 129.11 65.82
  Q 129.58 65.67 129.91 65.30
  Q 130.87 64.21 132.32 63.70
  Q 132.76 63.54 133.19 63.73
  Q 134.44 64.27 135.30 65.30
  Q 135.58 65.64 136.02 65.69
  Q 136.65 65.75 136.97 66.31
  Q 138.60 69.16 141.07 71.11
  A 2.36 2.35 65.1 0 0 142.43 71.61
  L 153.01 71.99
  Z"
/>
<path fill="#01325d" d="
  M 156.25 93.87
  Q 153.95 96.15 151.62 98.45
  Q 150.70 99.36 150.49 100.42
  C 150.02 102.87 150.29 105.87 150.53 108.37
  Q 150.69 110.00 149.06 110.00
  Q 144.96 110.01 141.25 110.04
  Q 139.71 110.05 138.58 111.23
  Q 135.96 113.96 133.19 116.66
  A 1.12 1.11 -44.1 0 1 131.62 116.64
  L 126.14 111.00
  Q 125.33 110.17 124.17 110.15
  L 115.51 110.01
  A 0.94 0.94 0.0 0 1 114.58 108.99
  Q 114.99 104.40 114.55 100.00
  Q 114.49 99.38 114.02 98.97
  L 110.43 95.77
  Q 109.92 94.23 108.30 92.84
  A 0.92 0.91 -47.5 0 1 108.25 91.51
  L 113.81 85.81
  A 3.33 3.29 68.1 0 0 114.75 83.57
  L 114.91 75.31
  Q 114.92 74.53 115.70 74.56
  Q 119.74 74.68 123.59 74.57
  C 126.75 74.48 129.36 70.31 131.37 68.13
  A 1.41 1.40 -45.4 0 1 133.42 68.11
  L 138.74 73.67
  A 3.57 3.54 67.1 0 0 141.42 74.77
  L 149.50 74.54
  A 0.89 0.88 2.3 0 1 150.40 75.51
  Q 149.90 80.33 150.48 84.56
  Q 150.55 85.09 150.93 85.47
  Q 154.37 88.90 155.83 90.16
  Q 157.85 91.91 156.25 93.87
  Z
  M 120.21 88.94
  L 124.24 89.00
  Q 124.74 89.01 124.82 88.51
  L 125.05 86.89
  Q 125.12 86.41 124.64 86.41
  L 118.30 86.36
  Q 116.71 86.35 116.66 87.94
  L 116.57 91.24
  A 2.08 2.07 3.1 0 0 118.48 93.36
  L 122.19 93.68
  A 0.92 0.92 0.0 0 1 123.01 94.42
  L 123.09 94.82
  A 0.40 0.40 0.0 0 1 122.71 95.30
  L 117.97 95.52
  Q 117.24 95.55 117.19 96.28
  L 117.13 97.17
  Q 117.08 98.00 117.92 98.00
  L 124.28 97.97
  A 1.44 1.43 -0.8 0 0 125.71 96.51
  L 125.66 92.27
  Q 125.64 91.41 124.79 91.32
  L 120.35 90.85
  A 0.92 0.91 -2.1 0 1 119.54 90.10
  L 119.48 89.79
  Q 119.32 88.92 120.21 88.94
  Z
  M 130.00 94.70
  Q 130.09 93.01 130.88 94.50
  L 132.14 96.87
  A 0.37 0.37 0.0 0 0 132.81 96.83
  Q 133.37 95.44 134.18 94.05
  Q 134.91 92.79 134.93 94.25
  Q 134.95 95.49 134.64 96.86
  Q 134.39 97.96 135.52 97.99
  L 136.82 98.03
  Q 137.71 98.05 137.71 97.17
  L 137.76 86.94
  Q 137.77 86.36 137.19 86.33
  L 135.54 86.25
  Q 134.66 86.21 134.30 87.02
  L 132.84 90.34
  A 0.39 0.39 0.0 0 1 132.14 90.36
  L 130.37 87.00
  A 1.24 1.23 -14.1 0 0 129.26 86.34
  L 127.00 86.38
  Q 126.37 86.39 126.49 87.01
  Q 127.50 92.19 127.08 97.46
  Q 127.04 97.99 127.56 97.99
  L 129.52 98.00
  A 0.52 0.52 0.0 0 0 130.04 97.45
  Q 129.94 96.01 130.00 94.70
  Z
  M 143.06 94.00
  L 146.47 94.13
  Q 148.52 94.22 148.50 92.16
  L 148.44 88.04
  Q 148.42 86.44 146.82 86.43
  L 139.68 86.38
  Q 139.09 86.38 139.11 86.97
  L 139.57 97.33
  Q 139.61 98.05 140.33 98.04
  L 141.71 98.02
  Q 142.59 98.00 142.39 97.15
  Q 142.07 95.76 142.35 94.54
  Q 142.49 93.98 143.06 94.00
  Z"
/>
<path fill="#2194ce" d="
  M 153.01 71.99
  Q 154.31 71.54 154.00 74.76
  L 154.08 82.96
  Q 154.08 83.47 154.40 83.85
  Q 156.25 86.08 160.38 89.62
  Q 162.87 91.77 161.57 93.24
  L 154.75 100.16
  A 2.44 2.41 -23.2 0 0 154.06 101.85
  L 154.08 113.05
  Q 154.08 113.68 153.45 113.68
  L 142.87 113.71
  A 3.27 3.27 0.0 0 0 140.57 114.68
  L 133.13 122.19
  Q 132.45 122.88 131.78 122.17
  L 124.42 114.36
  A 2.31 2.29 -19.0 0 0 122.91 113.63
  Q 117.25 113.18 112.30 114.35
  Q 111.45 113.87 110.79 113.77
  Q 110.18 113.68 109.37 114.29
  Q 101.37 120.29 91.77 123.70
  Q 92.04 123.31 91.55 123.15
  L 96.73 120.96
  A 0.44 0.44 0.0 0 0 96.97 120.41
  Q 92.66 108.26 92.31 95.19
  A 0.61 0.61 0.0 0 1 92.96 94.56
  Q 98.01 94.84 102.75 94.66
  Q 103.27 94.64 103.55 94.19
  Q 104.47 94.27 105.10 94.89
  C 106.68 96.44 108.42 98.55 110.30 99.68
  C 111.17 100.20 111.73 101.10 111.73 102.12
  Q 111.72 106.41 111.88 111.34
  A 1.34 1.34 0.0 0 0 113.25 112.63
  L 116.80 112.55
  L 123.38 112.60
  Q 123.93 112.61 124.31 112.99
  L 131.48 120.20
  A 1.64 1.63 44.4 0 0 133.83 120.18
  L 140.82 112.82
  Q 141.16 112.46 141.65 112.47
  L 152.15 112.60
  A 1.02 1.01 -89.1 0 0 153.17 111.60
  L 153.35 101.03
  A 1.41 1.38 -22.8 0 1 153.75 100.08
  L 160.02 93.82
  A 2.38 2.38 0.0 0 0 159.88 90.32
  Q 157.10 87.95 154.27 84.98
  Q 153.07 83.71 153.10 81.25
  Q 153.13 77.75 153.07 74.31
  Q 153.23 73.16 153.01 71.99
  Z"
/>
<path fill="#005a8e" d="
  M 208.14 76.74
  Q 209.49 76.98 210.43 76.78
  Q 211.33 76.58 211.44 77.50
  L 212.13 83.42
  A 0.51 0.50 -88.0 0 1 211.54 83.98
  Q 210.45 83.77 209.62 84.34
  Q 208.89 84.85 209.77 84.96
  Q 210.72 85.09 211.66 84.95
  Q 212.28 84.86 212.33 85.49
  L 212.74 91.46
  A 0.48 0.47 -89.0 0 1 212.22 91.97
  Q 205.55 91.25 199.07 93.03
  Q 195.36 93.69 193.77 92.97
  Q 191.91 92.14 189.66 92.12
  Q 182.48 92.07 175.41 92.19
  Q 172.75 92.24 170.13 92.54
  Q 168.53 92.72 165.86 92.77
  Q 163.68 92.80 161.57 93.24
  Q 162.87 91.77 160.38 89.62
  Q 156.25 86.08 154.40 83.85
  Q 154.08 83.47 154.08 82.96
  L 154.00 74.76
  L 154.19 73.93
  Q 154.42 72.92 154.65 73.93
  Q 154.87 74.89 155.79 75.27
  C 157.43 75.94 159.74 77.02 161.53 76.79
  Q 163.00 76.60 164.50 76.99
  A 0.33 0.32 7.6 0 0 164.91 76.68
  Q 164.91 76.52 164.94 76.37
  Q 164.97 76.26 165.08 76.26
  Q 174.69 76.19 184.25 76.21
  Q 188.97 76.21 193.76 75.99
  Q 195.15 75.93 197.07 76.51
  Q 198.69 77.00 200.51 76.92
  Q 204.37 76.74 208.14 76.74
  Z"
/>
<path fill="#01325d" d="
  M 153.07 74.31
  Q 153.13 77.75 153.10 81.25
  Q 153.07 83.71 154.27 84.98
  Q 157.10 87.95 159.88 90.32
  A 2.38 2.38 0.0 0 1 160.02 93.82
  L 153.75 100.08
  A 1.41 1.38 -22.8 0 0 153.35 101.03
  L 153.17 111.60
  A 1.02 1.01 -89.1 0 1 152.15 112.60
  L 141.65 112.47
  Q 141.16 112.46 140.82 112.82
  L 133.83 120.18
  A 1.64 1.63 44.4 0 1 131.48 120.20
  L 124.31 112.99
  Q 123.93 112.61 123.38 112.60
  L 116.80 112.55
  Q 116.74 112.19 115.95 112.17
  Q 115.09 112.14 115.82 111.69
  L 116.65 111.16
  L 123.42 111.08
  A 3.40 3.38 -21.8 0 1 125.94 112.15
  L 132.11 118.70
  Q 132.30 118.89 132.56 118.89
  Q 132.71 118.89 132.85 118.88
  Q 133.34 118.84 133.37 118.35
  Q 133.39 117.90 133.85 117.83
  A 0.68 0.66 15.7 0 0 134.22 117.63
  L 139.05 112.29
  Q 140.07 111.16 141.59 111.15
  L 151.41 111.06
  A 0.43 0.42 86.4 0 0 151.83 110.58
  Q 151.00 104.08 151.73 99.74
  Q 151.81 99.23 152.20 98.88
  L 157.18 94.42
  Q 158.66 94.22 158.39 92.47
  Q 158.23 91.40 157.54 90.58
  Q 155.55 88.24 153.31 86.41
  Q 151.50 84.94 151.46 82.58
  Q 151.40 78.76 152.03 74.59
  Q 152.05 74.48 152.16 74.42
  Q 152.41 74.28 153.07 74.31
  Z"
/>
<path fill="#ffffff" d="
  M 120.21 88.94
  Q 119.32 88.92 119.48 89.79
  L 119.54 90.10
  A 0.92 0.91 -2.1 0 0 120.35 90.85
  L 124.79 91.32
  Q 125.64 91.41 125.66 92.27
  L 125.71 96.51
  A 1.44 1.43 -0.8 0 1 124.28 97.97
  L 117.92 98.00
  Q 117.08 98.00 117.13 97.17
  L 117.19 96.28
  Q 117.24 95.55 117.97 95.52
  L 122.71 95.30
  A 0.40 0.40 0.0 0 0 123.09 94.82
  L 123.01 94.42
  A 0.92 0.92 0.0 0 0 122.19 93.68
  L 118.48 93.36
  A 2.08 2.07 3.1 0 1 116.57 91.24
  L 116.66 87.94
  Q 116.71 86.35 118.30 86.36
  L 124.64 86.41
  Q 125.12 86.41 125.05 86.89
  L 124.82 88.51
  Q 124.74 89.01 124.24 89.00
  L 120.21 88.94
  Z"
/>
<path fill="#ffffff" d="
  M 130.00 94.70
  Q 129.94 96.01 130.04 97.45
  A 0.52 0.52 0.0 0 1 129.52 98.00
  L 127.56 97.99
  Q 127.04 97.99 127.08 97.46
  Q 127.50 92.19 126.49 87.01
  Q 126.37 86.39 127.00 86.38
  L 129.26 86.34
  A 1.24 1.23 -14.1 0 1 130.37 87.00
  L 132.14 90.36
  A 0.39 0.39 0.0 0 0 132.84 90.34
  L 134.30 87.02
  Q 134.66 86.21 135.54 86.25
  L 137.19 86.33
  Q 137.77 86.36 137.76 86.94
  L 137.71 97.17
  Q 137.71 98.05 136.82 98.03
  L 135.52 97.99
  Q 134.39 97.96 134.64 96.86
  Q 134.95 95.49 134.93 94.25
  Q 134.91 92.79 134.18 94.05
  Q 133.37 95.44 132.81 96.83
  A 0.37 0.37 0.0 0 1 132.14 96.87
  L 130.88 94.50
  Q 130.09 93.01 130.00 94.70
  Z"
/>
<path fill="#ffffff" d="
  M 142.35 94.54
  Q 142.07 95.76 142.39 97.15
  Q 142.59 98.00 141.71 98.02
  L 140.33 98.04
  Q 139.61 98.05 139.57 97.33
  L 139.11 86.97
  Q 139.09 86.38 139.68 86.38
  L 146.82 86.43
  Q 148.42 86.44 148.44 88.04
  L 148.50 92.16
  Q 148.52 94.22 146.47 94.13
  L 143.06 94.00
  Q 142.49 93.98 142.35 94.54
  Z
  M 145.5181 89.3311
  A 0.34 0.34 0.0 0 0 145.1847 88.9846
  L 142.6452 88.9359
  A 0.34 0.34 0.0 0 0 142.2987 89.2693
  L 142.2619 91.1889
  A 0.34 0.34 0.0 0 0 142.5953 91.5354
  L 145.1348 91.5841
  A 0.34 0.34 0.0 0 0 145.4813 91.2507
  L 145.5181 89.3311
  Z"
/>
<rect fill="#01325d" x="-1.61" y="-1.30" transform="translate(143.89,90.26) rotate(1.1)" width="3.22" height="2.60" rx="0.34"/>
<path fill="#01325d" d="
  M 199.07 93.03
  Q 205.68 94.14 211.88 93.81
  Q 212.61 93.77 212.58 94.50
  L 212.38 99.77
  Q 212.34 100.64 211.51 100.40
  Q 210.73 100.18 209.93 100.32
  Q 209.17 100.45 209.52 101.14
  Q 210.03 102.14 211.37 101.69
  Q 212.23 101.40 212.09 102.31
  L 211.15 108.27
  A 0.69 0.69 0.0 0 1 210.07 108.73
  Q 209.29 108.18 208.47 108.45
  Q 207.90 108.65 208.24 109.15
  Q 208.84 110.04 209.98 109.79
  A 0.57 0.56 -89.0 0 1 210.65 110.49
  L 209.04 116.53
  A 0.47 0.47 0.0 0 1 208.26 116.75
  Q 207.54 116.06 206.44 116.22
  Q 205.58 116.34 206.11 117.03
  Q 206.75 117.86 207.80 117.94
  A 0.65 0.64 13.5 0 1 208.35 118.83
  L 206.06 124.51
  Q 205.82 125.10 205.35 124.67
  Q 204.51 123.91 203.33 123.74
  Q 202.66 123.64 202.99 124.23
  Q 203.59 125.31 204.59 125.63
  Q 205.53 125.92 205.08 126.80
  L 202.71 131.37
  Q 202.34 132.08 201.66 131.67
  L 195.99 128.37
  Q 195.30 127.97 194.67 128.46
  L 194.29 128.76
  A 0.42 0.42 0.0 0 0 194.31 129.43
  L 196.30 130.80
  Q 197.33 131.65 195.78 132.71
  Q 195.39 132.98 195.00 132.70
  Q 194.81 132.56 194.86 132.32
  Q 194.96 131.79 194.43 131.78
  C 189.49 131.69 184.48 131.17 179.54 131.15
  Q 170.99 131.12 162.53 131.07
  Q 155.19 131.03 145.59 131.27
  Q 133.78 131.56 122.68 131.33
  Q 122.54 131.33 122.46 131.19
  Q 122.37 131.03 122.18 131.05
  C 117.25 131.56 112.28 130.87 107.31 131.55
  A 2.44 2.41 -40.2 0 1 106.29 131.47
  Q 105.78 131.31 105.24 131.34
  Q 101.53 131.50 97.70 131.16
  Q 94.91 130.92 92.30 131.32
  Q 91.82 131.40 91.40 131.65
  Q 90.78 132.01 90.07 131.90
  Q 87.94 131.56 85.98 132.11
  Q 85.43 132.27 84.86 132.16
  Q 84.09 132.01 83.45 132.40
  Q 82.96 132.70 82.39 132.76
  L 78.90 133.11
  Q 78.30 133.17 78.59 132.64
  Q 78.74 132.37 79.08 132.39
  A 0.22 0.22 0.0 0 0 79.22 131.98
  Q 78.91 131.78 78.49 131.81
  A 0.68 0.68 0.0 0 0 77.97 132.13
  Q 77.66 132.63 77.01 132.33
  Q 76.27 131.99 75.88 131.16
  Q 86.14 128.24 98.30 123.33
  Q 106.35 120.07 112.30 114.35
  Q 117.25 113.18 122.91 113.63
  A 2.31 2.29 -19.0 0 1 124.42 114.36
  L 131.78 122.17
  Q 132.45 122.88 133.13 122.19
  L 140.57 114.68
  A 3.27 3.27 0.0 0 1 142.87 113.71
  L 153.45 113.68
  Q 154.08 113.68 154.08 113.05
  L 154.06 101.85
  A 2.44 2.41 -23.2 0 1 154.75 100.16
  L 161.57 93.24
  Q 163.68 92.80 165.86 92.77
  Q 168.53 92.72 170.13 92.54
  Q 172.75 92.24 175.41 92.19
  Q 182.48 92.07 189.66 92.12
  Q 191.91 92.14 193.77 92.97
  Q 195.36 93.69 199.07 93.03
  Z"
/>
<path fill="#878065" d="
  M 156.25 93.87
  Q 156.71 93.83 157.04 93.92
  A 0.47 0.47 0.0 0 1 157.35 94.19
  Q 157.48 94.51 157.18 94.42
  L 152.20 98.88
  Q 151.81 99.23 151.73 99.74
  Q 151.00 104.08 151.83 110.58
  A 0.43 0.42 86.4 0 1 151.41 111.06
  L 141.59 111.15
  Q 140.07 111.16 139.05 112.29
  L 134.22 117.63
  A 0.68 0.66 15.7 0 1 133.85 117.83
  Q 133.39 117.90 133.37 118.35
  Q 133.34 118.84 132.85 118.88
  Q 132.71 118.89 132.56 118.89
  Q 132.30 118.89 132.11 118.70
  L 125.94 112.15
  A 3.40 3.38 -21.8 0 0 123.42 111.08
  L 116.65 111.16
  Q 113.66 111.24 113.63 109.88
  Q 113.57 105.81 113.63 101.74
  Q 113.66 99.53 110.43 95.77
  L 114.02 98.97
  Q 114.49 99.38 114.55 100.00
  Q 114.99 104.40 114.58 108.99
  A 0.94 0.94 0.0 0 0 115.51 110.01
  L 124.17 110.15
  Q 125.33 110.17 126.14 111.00
  L 131.62 116.64
  A 1.12 1.11 -44.1 0 0 133.19 116.66
  Q 135.96 113.96 138.58 111.23
  Q 139.71 110.05 141.25 110.04
  Q 144.96 110.01 149.06 110.00
  Q 150.69 110.00 150.53 108.37
  C 150.29 105.87 150.02 102.87 150.49 100.42
  Q 150.70 99.36 151.62 98.45
  Q 153.95 96.15 156.25 93.87
  Z"
/>
<path fill="#2194ce" d="
  M 91.32 122.02
  A 0.56 0.56 0.0 0 1 90.78 122.75
  L 59.00 122.79
  A 0.68 0.66 78.9 0 1 58.38 122.36
  Q 53.15 108.83 52.94 94.97
  A 0.29 0.28 -1.0 0 1 53.23 94.68
  L 85.97 94.74
  Q 86.52 94.74 86.54 95.29
  Q 86.97 108.26 91.32 122.02
  Z"
/>
<path fill="#0a4473" d="
  M 196.30 130.80
  L 200.52 133.15
  Q 201.45 133.67 200.87 134.56
  L 198.01 138.87
  Q 197.67 139.38 197.17 139.02
  L 195.57 137.88
  Q 195.52 137.85 195.47 137.88
  L 195.06 138.18
  Q 194.67 138.45 195.03 138.77
  L 196.46 140.01
  Q 197.00 140.48 196.55 141.03
  L 192.92 145.46
  Q 192.62 145.82 192.22 145.58
  Q 191.24 145.01 190.46 144.01
  Q 190.42 143.97 190.37 144.00
  L 190.08 144.19
  Q 189.58 144.51 189.90 145.02
  Q 190.41 145.82 191.18 146.35
  Q 191.79 146.77 191.27 147.30
  L 187.01 151.67
  A 0.60 0.60 0.0 0 1 186.01 151.44
  Q 185.73 150.58 185.00 150.35
  Q 183.36 149.85 184.44 151.18
  Q 184.89 151.73 185.34 152.24
  A 0.67 0.67 0.0 0 1 185.26 153.20
  L 180.98 156.70
  Q 180.51 157.08 180.07 156.67
  L 178.42 155.11
  A 0.41 0.41 0.0 0 0 177.73 155.40
  Q 177.71 156.47 178.69 157.19
  A 0.73 0.73 0.0 0 1 178.66 158.39
  L 173.79 161.58
  A 0.34 0.34 0.0 0 1 173.31 161.47
  L 169.37 154.74
  Q 169.15 154.36 168.75 154.52
  Q 168.39 154.65 167.90 155.07
  Q 163.36 154.31 158.32 154.35
  Q 156.20 154.36 154.27 154.06
  Q 152.21 153.73 150.05 153.91
  C 145.58 154.29 141.23 153.92 137.13 153.81
  A 61.01 13.82 12.4 0 0 130.08 153.85
  Q 118.86 154.35 106.66 153.94
  Q 105.28 153.89 101.86 154.26
  Q 99.39 154.53 96.90 154.13
  A 0.39 0.36 -62.8 0 0 96.57 154.25
  Q 96.46 154.38 96.51 154.52
  L 92.06 161.46
  Q 91.79 161.89 91.35 161.61
  L 86.68 158.61
  Q 86.10 158.23 86.49 157.65
  L 87.46 156.21
  A 0.61 0.61 0.0 0 0 86.52 155.45
  Q 86.00 155.99 85.65 156.91
  A 0.59 0.59 0.0 0 1 84.73 157.15
  L 79.91 153.32
  A 0.55 0.55 0.0 0 1 79.83 152.54
  L 81.37 150.69
  Q 81.71 150.28 81.19 150.17
  L 80.73 150.06
  Q 80.60 150.03 80.51 150.12
  L 78.91 151.66
  Q 78.50 152.05 78.11 151.64
  L 74.09 147.51
  A 0.87 0.85 -36.6 0 1 74.30 146.16
  Q 76.30 145.06 75.37 144.23
  A 0.38 0.37 46.9 0 0 74.88 144.21
  L 73.20 145.59
  A 0.73 0.73 0.0 0 1 72.18 145.49
  L 68.40 140.88
  Q 68.01 140.41 68.55 140.12
  Q 69.71 139.48 70.54 138.45
  Q 71.09 137.77 70.24 137.95
  Q 69.06 138.20 68.07 139.13
  Q 67.51 139.66 67.09 139.01
  L 64.57 135.03
  A 0.55 0.54 66.2 0 1 64.88 134.21
  L 75.88 131.16
  Q 76.27 131.99 77.01 132.33
  Q 77.66 132.63 77.97 132.13
  A 0.68 0.68 0.0 0 1 78.49 131.81
  Q 78.91 131.78 79.22 131.98
  A 0.22 0.22 0.0 0 1 79.08 132.39
  Q 78.74 132.37 78.59 132.64
  Q 78.30 133.17 78.90 133.11
  L 82.39 132.76
  Q 82.96 132.70 83.45 132.40
  Q 84.09 132.01 84.86 132.16
  Q 85.43 132.27 85.98 132.11
  Q 87.94 131.56 90.07 131.90
  Q 90.78 132.01 91.40 131.65
  Q 91.82 131.40 92.30 131.32
  Q 94.91 130.92 97.70 131.16
  Q 101.53 131.50 105.24 131.34
  Q 105.78 131.31 106.29 131.47
  A 2.44 2.41 -40.2 0 0 107.31 131.55
  C 112.28 130.87 117.25 131.56 122.18 131.05
  Q 122.37 131.03 122.46 131.19
  Q 122.54 131.33 122.68 131.33
  Q 133.78 131.56 145.59 131.27
  Q 155.19 131.03 162.53 131.07
  Q 170.99 131.12 179.54 131.15
  C 184.48 131.17 189.49 131.69 194.43 131.78
  Q 194.96 131.79 194.86 132.32
  Q 194.81 132.56 195.00 132.70
  Q 195.39 132.98 195.78 132.71
  Q 197.33 131.65 196.30 130.80
  Z"
/>
<path fill="#19669d" d="
  M 167.90 155.07
  L 171.60 162.05
  A 0.76 0.76 0.0 0 1 171.28 163.08
  L 166.25 165.72
  Q 165.67 166.03 165.50 165.39
  Q 165.20 164.28 164.50 163.27
  Q 164.22 162.87 163.93 163.27
  L 163.77 163.49
  A 0.31 0.30 -36.1 0 0 163.72 163.77
  L 164.46 165.96
  A 0.71 0.70 74.0 0 1 163.96 166.87
  Q 161.19 167.58 158.73 168.85
  Q 158.11 169.17 157.93 168.49
  Q 157.69 167.59 157.31 166.75
  Q 156.84 165.70 156.29 166.72
  Q 155.77 167.70 156.59 168.24
  A 0.67 0.66 53.7 0 1 156.41 169.43
  L 150.74 171.13
  Q 150.17 171.30 150.02 170.73
  Q 149.81 169.94 149.58 169.02
  Q 149.42 168.39 148.82 168.28
  A 0.55 0.55 0.0 0 0 148.18 168.82
  Q 148.18 170.02 148.77 170.91
  Q 149.15 171.48 148.47 171.59
  L 142.27 172.58
  A 0.62 0.62 0.0 0 1 141.55 172.00
  L 141.46 170.00
  Q 141.45 169.55 141.02 169.42
  Q 140.87 169.37 140.69 169.48
  Q 140.46 169.64 140.37 169.90
  Q 139.93 171.21 140.27 171.94
  Q 140.63 172.74 139.75 172.78
  L 134.46 173.02
  Q 133.61 173.06 133.60 172.21
  L 133.46 159.79
  Q 133.46 159.24 132.92 159.37
  L 132.48 159.47
  Q 131.66 159.67 131.66 160.52
  L 131.66 172.52
  Q 131.66 173.20 130.98 173.16
  L 125.64 172.84
  A 0.67 0.66 -86.9 0 1 125.02 172.14
  L 125.15 169.96
  Q 125.15 169.89 125.09 169.86
  L 124.67 169.68
  Q 124.29 169.52 124.18 169.92
  Q 123.87 171.00 123.96 172.07
  Q 124.00 172.61 123.46 172.54
  L 117.44 171.73
  Q 116.85 171.65 116.83 171.05
  Q 116.79 170.14 117.17 169.20
  A 0.60 0.60 0.0 0 0 116.98 168.50
  L 116.77 168.33
  Q 116.50 168.12 116.29 168.40
  Q 115.56 169.38 115.68 170.60
  A 0.55 0.55 0.0 0 1 114.99 171.18
  L 109.34 169.67
  Q 108.89 169.55 108.85 169.09
  Q 108.75 168.03 109.26 166.94
  Q 109.46 166.52 109.03 166.32
  L 108.75 166.20
  A 0.31 0.31 0.0 0 0 108.33 166.38
  L 107.62 168.45
  A 0.71 0.71 0.0 0 1 106.69 168.88
  L 101.43 166.77
  A 0.89 0.88 32.1 0 1 101.10 165.35
  Q 101.70 164.68 101.68 163.76
  Q 101.67 162.95 101.02 163.43
  Q 100.07 164.15 99.82 165.36
  Q 99.67 166.13 98.98 165.76
  L 93.99 163.11
  Q 93.37 162.78 93.76 162.20
  Q 95.59 159.38 97.36 155.93
  A 1.26 1.19 -52.7 0 0 97.21 154.53
  Q 97.01 154.30 96.51 154.52
  Q 96.46 154.38 96.57 154.25
  A 0.39 0.36 -62.8 0 1 96.90 154.13
  Q 99.39 154.53 101.86 154.26
  Q 105.28 153.89 106.66 153.94
  Q 118.86 154.35 130.08 153.85
  A 61.01 13.82 12.4 0 1 137.13 153.81
  C 141.23 153.92 145.58 154.29 150.05 153.91
  Q 152.21 153.73 154.27 154.06
  Q 156.20 154.36 158.32 154.35
  Q 163.36 154.31 167.90 155.07
  Z"
/>
</svg>
