<?xml version="1.0" encoding="UTF-8" standalone="no"?>
<!DOCTYPE svg PUBLIC "-//W3C//DTD SVG 1.1//EN" "http://www.w3.org/Graphics/SVG/1.1/DTD/svg11.dtd">
<svg xmlns="http://www.w3.org/2000/svg" version="1.1" viewBox="0.00 0.00 200.00 200.00">
<g stroke-width="2.00" fill="none" stroke-linecap="butt">
<path stroke="#939f97" vector-effect="non-scaling-stroke" d="
  M 14.82 109.80
  A 0.67 0.66 -69.3 0 1 15.25 110.76
  Q 13.69 113.68 11.36 115.69
  A 0.48 0.48 0.0 0 0 11.42 116.46
  L 11.68 116.62
  A 1.15 1.14 -48.3 0 0 12.99 116.54
  Q 16.20 114.03 17.23 110.29
  A 0.74 0.74 0.0 0 1 17.80 109.76
  C 21.39 109.05 23.46 107.06 25.24 104.09
  Q 25.74 103.26 26.66 102.95
  C 34.49 100.31 34.72 88.70 26.22 86.41
  Q 23.84 85.77 21.95 84.15
  C 18.62 81.32 13.49 81.66 10.29 84.50
  Q 8.93 85.71 7.12 86.21
  C -0.34 88.26 -2.29 96.66 3.65 101.68
  C 5.19 102.99 6.96 102.80 8.14 104.77
  Q 10.51 108.75 14.82 109.80"
/>
<path stroke="#b1b1b1" vector-effect="non-scaling-stroke" d="
  M 119.57 100.47
  L 116.40 93.52
  A 1.34 1.33 -11.8 0 0 115.20 92.74
  L 107.10 92.65
  A 0.64 0.64 0.0 0 0 106.45 93.28
  L 106.37 102.93
  A 0.81 0.81 0.0 0 0 107.18 103.74
  L 113.96 103.74
  A 0.66 0.66 0.0 0 0 114.56 103.36
  L 114.71 103.05
  A 0.47 0.46 -76.6 0 0 114.30 102.38
  L 108.41 102.30
  Q 107.78 102.29 107.78 101.66
  L 107.80 99.61
  A 0.61 0.60 -90.0 0 1 108.39 99.01
  L 112.40 98.95
  A 0.56 0.56 0.0 0 0 112.95 98.42
  L 112.98 97.96
  Q 113.00 97.67 112.71 97.65
  L 108.41 97.44
  A 0.72 0.72 0.0 0 1 107.73 96.65
  L 107.91 94.80
  Q 107.97 94.08 108.70 94.07
  L 114.50 93.96
  Q 115.13 93.94 115.39 94.53
  Q 117.16 98.57 118.95 102.65
  Q 119.16 103.13 119.56 103.48
  Q 120.21 104.07 120.59 103.27
  L 125.16 93.43
  A 0.41 0.41 0.0 0 0 125.03 92.92
  L 124.68 92.66
  Q 123.93 92.11 123.56 92.97
  L 120.42 100.46
  A 0.47 0.46 44.2 0 1 119.57 100.47"
/>
<path stroke="#b1b1b1" vector-effect="non-scaling-stroke" d="
  M 127.2870 93.3125
  A 0.68 0.68 0.0 0 0 126.6094 92.6301
  L 126.5694 92.6300
  A 0.68 0.68 0.0 0 0 125.8870 93.3076
  L 125.8530 103.0475
  A 0.68 0.68 0.0 0 0 126.5306 103.7299
  L 126.5706 103.7300
  A 0.68 0.68 0.0 0 0 127.2530 103.0524
  L 127.2870 93.3125"
/>
<path stroke="#b1b1b1" vector-effect="non-scaling-stroke" d="
  M 131.48 98.99
  C 136.28 98.63 135.05 100.92 137.01 103.74
  A 0.33 0.33 0.0 0 0 137.47 103.82
  L 137.78 103.60
  A 0.97 0.96 -31.0 0 0 138.09 102.39
  L 136.49 99.13
  Q 136.27 98.69 136.61 98.33
  C 137.00 97.91 137.42 97.68 137.73 97.15
  C 139.03 94.94 136.84 92.58 134.51 92.61
  Q 132.49 92.64 130.50 92.52
  Q 129.42 92.45 129.41 93.54
  L 129.36 102.80
  A 0.89 0.89 0.0 0 0 130.02 103.67
  L 130.31 103.75
  Q 130.77 103.88 130.78 103.41
  L 130.85 99.66
  Q 130.86 99.04 131.48 98.99"
/>
<path stroke="#b1b1b1" vector-effect="non-scaling-stroke" d="
  M 190.87 94.66
  Q 190.87 93.70 191.82 93.81
  Q 195.63 94.24 199.10 93.06
  Q 199.74 92.85 199.06 92.85
  L 190.21 92.85
  A 0.32 0.31 0.0 0 0 189.89 93.16
  L 189.93 102.72
  Q 189.94 103.67 190.89 103.63
  Q 193.87 103.49 197.68 103.42
  Q 197.83 103.41 197.84 103.26
  L 197.87 102.90
  Q 197.89 102.68 197.67 102.67
  L 191.62 102.53
  Q 190.94 102.51 190.92 101.84
  L 190.87 99.64
  Q 190.85 98.89 191.61 98.84
  L 195.73 98.57
  Q 196.00 98.56 195.96 98.29
  L 195.92 97.97
  Q 195.89 97.77 195.68 97.77
  L 191.72 97.80
  A 0.84 0.84 0.0 0 1 190.88 96.97
  L 190.87 94.66"
/>
<path stroke="#b1b1b1" vector-effect="non-scaling-stroke" d="
  M 40.17 98.59
  Q 39.95 95.72 41.28 98.28
  Q 42.56 100.73 43.56 103.16
  A 0.64 0.64 0.0 0 0 44.73 103.19
  L 47.14 98.08
  Q 48.06 96.15 48.14 98.29
  Q 48.22 100.49 48.02 102.93
  Q 47.98 103.39 48.44 103.44
  L 48.79 103.48
  Q 49.16 103.52 49.18 103.15
  Q 49.39 98.47 49.23 94.15
  Q 49.12 91.21 47.87 93.87
  L 44.57 100.86
  A 0.45 0.44 -44.2 0 1 43.76 100.85
  Q 42.16 97.15 40.27 93.27
  Q 40.08 92.89 39.63 92.82
  A 0.55 0.55 0.0 0 0 38.99 93.36
  L 39.00 103.31
  Q 39.00 103.59 39.29 103.58
  L 39.65 103.57
  A 0.61 0.61 0.0 0 0 40.23 102.98
  Q 40.34 100.74 40.17 98.59"
/>
<path stroke="#b1b1b1" vector-effect="non-scaling-stroke" d="
  M 52.92 93.36
  A 0.59 0.59 0.0 0 0 52.33 92.77
  L 52.27 92.77
  A 0.59 0.59 0.0 0 0 51.68 93.36
  L 51.68 103.04
  A 0.59 0.59 0.0 0 0 52.27 103.63
  L 52.33 103.63
  A 0.59 0.59 0.0 0 0 52.92 103.04
  L 52.92 93.36"
/>
<path stroke="#b1b1b1" vector-effect="non-scaling-stroke" d="
  M 56.25 96.71
  Q 56.25 94.99 57.29 96.37
  Q 59.83 99.74 62.33 103.21
  Q 62.60 103.59 63.10 103.47
  A 0.57 0.57 0.0 0 0 63.53 102.92
  L 63.50 93.12
  Q 63.50 92.74 63.12 92.74
  L 62.75 92.74
  Q 62.25 92.74 62.25 93.25
  L 62.34 100.29
  Q 62.35 101.42 61.69 100.50
  L 56.93 93.95
  Q 55.00 91.29 55.00 94.58
  L 54.99 103.01
  Q 54.99 103.42 55.40 103.44
  L 55.74 103.46
  Q 56.26 103.49 56.26 102.97
  L 56.25 96.71"
/>
<path stroke="#b1b1b1" vector-effect="non-scaling-stroke" d="
  M 73.62 99.56
  C 71.28 105.64 63.67 100.96 67.08 95.66
  C 68.89 92.84 71.25 93.95 73.32 95.53
  Q 75.11 96.90 74.17 94.84
  Q 73.54 93.47 71.87 93.06
  Q 66.38 91.73 65.26 97.16
  C 63.86 104.01 73.09 106.43 75.01 99.34
  Q 75.50 97.52 73.62 97.56
  L 70.24 97.64
  Q 69.58 97.65 69.57 98.31
  L 69.57 98.57
  Q 69.56 99.02 70.00 99.01
  L 73.23 98.99
  A 0.42 0.41 -79.9 0 1 73.62 99.56"
/>
<path stroke="#b1b1b1" vector-effect="non-scaling-stroke" d="
  M 79.92 95.99
  A 0.46 0.46 0.0 0 1 80.76 95.99
  L 84.32 103.83
  A 0.34 0.34 0.0 0 0 84.87 103.94
  L 85.11 103.71
  A 0.92 0.92 0.0 0 0 85.31 102.69
  L 81.12 93.32
  A 0.85 0.85 0.0 0 0 79.57 93.32
  L 75.22 102.99
  A 0.39 0.39 0.0 0 0 75.51 103.53
  L 75.99 103.61
  A 0.54 0.54 0.0 0 0 76.59 103.29
  L 79.92 95.99"
/>
<path stroke="#b1b1b1" vector-effect="non-scaling-stroke" d="
  M 93.61 95.78
  Q 94.11 96.24 94.67 95.89
  A 0.50 0.49 59.4 0 0 94.84 95.22
  C 93.28 92.58 89.68 91.77 87.27 93.74
  C 83.11 97.15 85.36 103.96 90.97 103.65
  Q 93.34 103.52 94.82 101.22
  Q 95.04 100.88 94.72 100.64
  L 94.51 100.48
  Q 94.08 100.14 93.69 100.52
  C 92.61 101.56 91.22 102.68 89.60 102.22
  C 83.70 100.50 87.55 90.14 93.61 95.78"
/>
<path stroke="#b1b1b1" vector-effect="non-scaling-stroke" d="
  M 97.59 97.51
  A 0.30 0.30 0.0 0 1 97.29 97.22
  L 97.16 92.99
  A 0.30 0.30 0.0 0 0 96.86 92.70
  L 96.07 92.69
  A 0.30 0.30 0.0 0 0 95.77 92.99
  L 95.77 103.45
  A 0.30 0.30 0.0 0 0 96.08 103.75
  L 96.97 103.71
  A 0.30 0.30 0.0 0 0 97.26 103.41
  L 97.27 99.32
  A 0.30 0.30 0.0 0 1 97.57 99.02
  L 102.68 98.98
  A 0.30 0.30 0.0 0 1 102.98 99.28
  L 102.98 103.26
  A 0.30 0.30 0.0 0 0 103.21 103.55
  L 104.08 103.77
  A 0.30 0.30 0.0 0 0 104.45 103.47
  L 104.42 93.06
  A 0.30 0.30 0.0 0 0 104.13 92.76
  L 103.31 92.75
  A 0.30 0.30 0.0 0 0 103.00 93.05
  L 102.98 97.20
  A 0.30 0.30 0.0 0 1 102.68 97.50
  L 97.59 97.51"
/>
<path stroke="#b1b1b1" vector-effect="non-scaling-stroke" d="
  M 145.85 94.72
  L 145.83 102.94
  A 0.58 0.58 0.0 0 0 146.15 103.46
  L 146.52 103.66
  Q 146.91 103.87 146.91 103.43
  L 146.95 94.68
  A 0.83 0.82 -86.3 0 1 147.88 93.86
  Q 148.75 93.97 149.14 93.86
  Q 152.26 93.00 149.02 92.81
  Q 146.00 92.64 142.60 92.87
  A 0.52 0.51 -8.2 0 0 142.13 93.49
  L 142.20 93.81
  Q 142.23 93.97 142.39 93.96
  L 144.97 93.87
  Q 145.85 93.84 145.85 94.72"
/>
<path stroke="#b1b1b1" vector-effect="non-scaling-stroke" d="
  M 159.76 102.85
  Q 156.79 102.37 153.96 102.55
  Q 152.83 102.62 152.86 101.49
  L 152.91 99.77
  A 0.97 0.97 0.0 0 1 153.86 98.83
  L 157.33 98.74
  A 0.37 0.37 0.0 0 0 157.69 98.37
  L 157.68 98.08
  Q 157.68 97.85 157.45 97.84
  L 153.72 97.57
  Q 152.92 97.52 152.91 96.72
  L 152.87 94.50
  A 0.64 0.64 0.0 0 1 153.49 93.85
  L 159.71 93.69
  Q 159.75 93.69 159.75 93.65
  L 159.78 93.27
  Q 159.81 92.92 159.45 92.91
  L 152.54 92.72
  A 0.74 0.74 0.0 0 0 151.78 93.46
  L 151.76 102.93
  A 0.64 0.63 3.0 0 0 152.33 103.56
  Q 156.49 104.00 160.80 103.15
  Q 161.32 103.05 161.63 102.62
  L 163.92 99.46
  A 0.70 0.70 0.0 0 1 165.04 99.44
  L 168.06 103.42
  Q 168.14 103.52 168.27 103.47
  L 168.59 103.31
  Q 168.82 103.20 168.67 102.99
  L 165.43 98.61
  A 1.05 1.04 -44.0 0 1 165.46 97.34
  L 168.09 94.04
  Q 168.43 93.62 168.97 93.65
  L 171.99 93.86
  Q 172.58 93.90 172.58 94.48
  L 172.55 103.00
  Q 172.54 103.25 172.79 103.26
  L 173.12 103.26
  Q 173.36 103.27 173.36 103.03
  Q 173.47 98.66 173.27 94.52
  Q 173.23 93.80 173.95 93.80
  L 176.59 93.81
  Q 176.87 93.81 176.88 93.53
  L 176.89 93.23
  Q 176.89 92.82 176.48 92.83
  L 168.47 92.94
  Q 167.87 92.95 167.51 93.42
  L 165.01 96.70
  A 0.56 0.56 0.0 0 1 164.13 96.71
  Q 163.10 95.42 162.02 93.96
  Q 160.53 91.95 160.99 94.41
  Q 161.03 94.62 161.99 95.50
  Q 162.99 96.42 163.62 97.63
  Q 163.88 98.12 163.55 98.56
  L 160.55 102.53
  Q 160.25 102.93 159.76 102.85"
/>
<path stroke="#b1b1b1" vector-effect="non-scaling-stroke" d="
  M 188.57 102.88
  A 0.21 0.21 0.0 0 0 188.35 102.66
  L 183.12 102.67
  A 0.21 0.21 0.0 0 1 182.91 102.46
  L 182.90 93.06
  A 0.21 0.21 0.0 0 0 182.69 92.86
  L 182.25 92.87
  A 0.21 0.21 0.0 0 0 182.05 93.07
  L 181.92 103.36
  A 0.21 0.21 0.0 0 0 182.13 103.57
  L 188.35 103.53
  A 0.21 0.21 0.0 0 0 188.55 103.33
  L 188.57 102.88"
/>
<path stroke="#b1b1b1" vector-effect="non-scaling-stroke" d="
  M 179.4514 93.3449
  A 0.26 0.26 0.0 0 0 179.1941 93.0822
  L 178.8341 93.0784
  A 0.26 0.26 0.0 0 0 178.5714 93.3357
  L 178.4686 103.1551
  A 0.26 0.26 0.0 0 0 178.7259 103.4178
  L 179.0859 103.4216
  A 0.26 0.26 0.0 0 0 179.3486 103.1643
  L 179.4514 93.3449"
/>
<path stroke="#939f97" vector-effect="non-scaling-stroke" d="
  M 7.57 92.50
  C 11.05 93.33 13.92 95.67 16.01 98.59
  Q 16.42 99.17 16.78 98.55
  C 18.16 96.15 22.02 92.77 25.30 92.48
  A 0.84 0.82 78.5 0 1 26.17 93.07
  Q 27.20 96.42 26.63 100.08
  Q 26.40 101.56 27.58 100.62
  Q 31.64 97.39 30.35 92.64
  C 29.55 89.68 27.00 88.32 24.16 87.72
  Q 22.63 87.40 21.58 86.24
  C 18.79 83.15 13.80 83.16 11.09 86.32
  Q 10.04 87.54 8.53 87.73
  C 1.42 88.60 -0.37 97.31 5.74 100.93
  Q 6.41 101.33 6.25 100.57
  Q 5.42 96.73 6.71 92.97
  Q 6.92 92.34 7.57 92.50"
/>
<path stroke="#939f97" vector-effect="non-scaling-stroke" d="
  M 7.90 95.22
  C 7.17 100.43 9.66 106.40 14.92 107.96
  A 0.27 0.26 -75.7 0 0 15.25 107.76
  Q 17.17 98.63 8.72 94.77
  A 0.59 0.58 16.2 0 0 7.90 95.22"
/>
<path stroke="#939f97" vector-effect="non-scaling-stroke" d="
  M 17.98 107.94
  C 22.71 106.16 25.58 101.02 24.84 95.85
  Q 24.64 94.40 23.35 95.10
  Q 15.53 99.38 17.66 107.77
  A 0.25 0.24 72.0 0 0 17.98 107.94"
/>
<path stroke="#b1b1b1" vector-effect="non-scaling-stroke" d="
  M 130.86 94.73
  L 130.84 96.87
  A 0.62 0.62 0.0 0 0 131.46 97.49
  L 133.93 97.50
  A 2.57 1.59 0.3 0 0 136.51 95.92
  L 136.51 95.72
  A 2.57 1.59 0.3 0 0 133.95 94.12
  L 131.48 94.11
  A 0.62 0.62 0.0 0 0 130.86 94.73"
/>
</g>
<path fill="#ffffff" d="
  M 0.00 0.00
  L 200.00 0.00
  L 200.00 200.00
  L 0.00 200.00
  L 0.00 0.00
  Z
  M 14.82 109.80
  A 0.67 0.66 -69.3 0 1 15.25 110.76
  Q 13.69 113.68 11.36 115.69
  A 0.48 0.48 0.0 0 0 11.42 116.46
  L 11.68 116.62
  A 1.15 1.14 -48.3 0 0 12.99 116.54
  Q 16.20 114.03 17.23 110.29
  A 0.74 0.74 0.0 0 1 17.80 109.76
  C 21.39 109.05 23.46 107.06 25.24 104.09
  Q 25.74 103.26 26.66 102.95
  C 34.49 100.31 34.72 88.70 26.22 86.41
  Q 23.84 85.77 21.95 84.15
  C 18.62 81.32 13.49 81.66 10.29 84.50
  Q 8.93 85.71 7.12 86.21
  C -0.34 88.26 -2.29 96.66 3.65 101.68
  C 5.19 102.99 6.96 102.80 8.14 104.77
  Q 10.51 108.75 14.82 109.80
  Z
  M 119.57 100.47
  L 116.40 93.52
  A 1.34 1.33 -11.8 0 0 115.20 92.74
  L 107.10 92.65
  A 0.64 0.64 0.0 0 0 106.45 93.28
  L 106.37 102.93
  A 0.81 0.81 0.0 0 0 107.18 103.74
  L 113.96 103.74
  A 0.66 0.66 0.0 0 0 114.56 103.36
  L 114.71 103.05
  A 0.47 0.46 -76.6 0 0 114.30 102.38
  L 108.41 102.30
  Q 107.78 102.29 107.78 101.66
  L 107.80 99.61
  A 0.61 0.60 -90.0 0 1 108.39 99.01
  L 112.40 98.95
  A 0.56 0.56 0.0 0 0 112.95 98.42
  L 112.98 97.96
  Q 113.00 97.67 112.71 97.65
  L 108.41 97.44
  A 0.72 0.72 0.0 0 1 107.73 96.65
  L 107.91 94.80
  Q 107.97 94.08 108.70 94.07
  L 114.50 93.96
  Q 115.13 93.94 115.39 94.53
  Q 117.16 98.57 118.95 102.65
  Q 119.16 103.13 119.56 103.48
  Q 120.21 104.07 120.59 103.27
  L 125.16 93.43
  A 0.41 0.41 0.0 0 0 125.03 92.92
  L 124.68 92.66
  Q 123.93 92.11 123.56 92.97
  L 120.42 100.46
  A 0.47 0.46 44.2 0 1 119.57 100.47
  Z
  M 127.2870 93.3125
  A 0.68 0.68 0.0 0 0 126.6094 92.6301
  L 126.5694 92.6300
  A 0.68 0.68 0.0 0 0 125.8870 93.3076
  L 125.8530 103.0475
  A 0.68 0.68 0.0 0 0 126.5306 103.7299
  L 126.5706 103.7300
  A 0.68 0.68 0.0 0 0 127.2530 103.0524
  L 127.2870 93.3125
  Z
  M 131.48 98.99
  C 136.28 98.63 135.05 100.92 137.01 103.74
  A 0.33 0.33 0.0 0 0 137.47 103.82
  L 137.78 103.60
  A 0.97 0.96 -31.0 0 0 138.09 102.39
  L 136.49 99.13
  Q 136.27 98.69 136.61 98.33
  C 137.00 97.91 137.42 97.68 137.73 97.15
  C 139.03 94.94 136.84 92.58 134.51 92.61
  Q 132.49 92.64 130.50 92.52
  Q 129.42 92.45 129.41 93.54
  L 129.36 102.80
  A 0.89 0.89 0.0 0 0 130.02 103.67
  L 130.31 103.75
  Q 130.77 103.88 130.78 103.41
  L 130.85 99.66
  Q 130.86 99.04 131.48 98.99
  Z
  M 190.87 94.66
  Q 190.87 93.70 191.82 93.81
  Q 195.63 94.24 199.10 93.06
  Q 199.74 92.85 199.06 92.85
  L 190.21 92.85
  A 0.32 0.31 0.0 0 0 189.89 93.16
  L 189.93 102.72
  Q 189.94 103.67 190.89 103.63
  Q 193.87 103.49 197.68 103.42
  Q 197.83 103.41 197.84 103.26
  L 197.87 102.90
  Q 197.89 102.68 197.67 102.67
  L 191.62 102.53
  Q 190.94 102.51 190.92 101.84
  L 190.87 99.64
  Q 190.85 98.89 191.61 98.84
  L 195.73 98.57
  Q 196.00 98.56 195.96 98.29
  L 195.92 97.97
  Q 195.89 97.77 195.68 97.77
  L 191.72 97.80
  A 0.84 0.84 0.0 0 1 190.88 96.97
  L 190.87 94.66
  Z
  M 40.17 98.59
  Q 39.95 95.72 41.28 98.28
  Q 42.56 100.73 43.56 103.16
  A 0.64 0.64 0.0 0 0 44.73 103.19
  L 47.14 98.08
  Q 48.06 96.15 48.14 98.29
  Q 48.22 100.49 48.02 102.93
  Q 47.98 103.39 48.44 103.44
  L 48.79 103.48
  Q 49.16 103.52 49.18 103.15
  Q 49.39 98.47 49.23 94.15
  Q 49.12 91.21 47.87 93.87
  L 44.57 100.86
  A 0.45 0.44 -44.2 0 1 43.76 100.85
  Q 42.16 97.15 40.27 93.27
  Q 40.08 92.89 39.63 92.82
  A 0.55 0.55 0.0 0 0 38.99 93.36
  L 39.00 103.31
  Q 39.00 103.59 39.29 103.58
  L 39.65 103.57
  A 0.61 0.61 0.0 0 0 40.23 102.98
  Q 40.34 100.74 40.17 98.59
  Z
  M 52.92 93.36
  A 0.59 0.59 0.0 0 0 52.33 92.77
  L 52.27 92.77
  A 0.59 0.59 0.0 0 0 51.68 93.36
  L 51.68 103.04
  A 0.59 0.59 0.0 0 0 52.27 103.63
  L 52.33 103.63
  A 0.59 0.59 0.0 0 0 52.92 103.04
  L 52.92 93.36
  Z
  M 56.25 96.71
  Q 56.25 94.99 57.29 96.37
  Q 59.83 99.74 62.33 103.21
  Q 62.60 103.59 63.10 103.47
  A 0.57 0.57 0.0 0 0 63.53 102.92
  L 63.50 93.12
  Q 63.50 92.74 63.12 92.74
  L 62.75 92.74
  Q 62.25 92.74 62.25 93.25
  L 62.34 100.29
  Q 62.35 101.42 61.69 100.50
  L 56.93 93.95
  Q 55.00 91.29 55.00 94.58
  L 54.99 103.01
  Q 54.99 103.42 55.40 103.44
  L 55.74 103.46
  Q 56.26 103.49 56.26 102.97
  L 56.25 96.71
  Z
  M 73.62 99.56
  C 71.28 105.64 63.67 100.96 67.08 95.66
  C 68.89 92.84 71.25 93.95 73.32 95.53
  Q 75.11 96.90 74.17 94.84
  Q 73.54 93.47 71.87 93.06
  Q 66.38 91.73 65.26 97.16
  C 63.86 104.01 73.09 106.43 75.01 99.34
  Q 75.50 97.52 73.62 97.56
  L 70.24 97.64
  Q 69.58 97.65 69.57 98.31
  L 69.57 98.57
  Q 69.56 99.02 70.00 99.01
  L 73.23 98.99
  A 0.42 0.41 -79.9 0 1 73.62 99.56
  Z
  M 79.92 95.99
  A 0.46 0.46 0.0 0 1 80.76 95.99
  L 84.32 103.83
  A 0.34 0.34 0.0 0 0 84.87 103.94
  L 85.11 103.71
  A 0.92 0.92 0.0 0 0 85.31 102.69
  L 81.12 93.32
  A 0.85 0.85 0.0 0 0 79.57 93.32
  L 75.22 102.99
  A 0.39 0.39 0.0 0 0 75.51 103.53
  L 75.99 103.61
  A 0.54 0.54 0.0 0 0 76.59 103.29
  L 79.92 95.99
  Z
  M 93.61 95.78
  Q 94.11 96.24 94.67 95.89
  A 0.50 0.49 59.4 0 0 94.84 95.22
  C 93.28 92.58 89.68 91.77 87.27 93.74
  C 83.11 97.15 85.36 103.96 90.97 103.65
  Q 93.34 103.52 94.82 101.22
  Q 95.04 100.88 94.72 100.64
  L 94.51 100.48
  Q 94.08 100.14 93.69 100.52
  C 92.61 101.56 91.22 102.68 89.60 102.22
  C 83.70 100.50 87.55 90.14 93.61 95.78
  Z
  M 97.59 97.51
  A 0.30 0.30 0.0 0 1 97.29 97.22
  L 97.16 92.99
  A 0.30 0.30 0.0 0 0 96.86 92.70
  L 96.07 92.69
  A 0.30 0.30 0.0 0 0 95.77 92.99
  L 95.77 103.45
  A 0.30 0.30 0.0 0 0 96.08 103.75
  L 96.97 103.71
  A 0.30 0.30 0.0 0 0 97.26 103.41
  L 97.27 99.32
  A 0.30 0.30 0.0 0 1 97.57 99.02
  L 102.68 98.98
  A 0.30 0.30 0.0 0 1 102.98 99.28
  L 102.98 103.26
  A 0.30 0.30 0.0 0 0 103.21 103.55
  L 104.08 103.77
  A 0.30 0.30 0.0 0 0 104.45 103.47
  L 104.42 93.06
  A 0.30 0.30 0.0 0 0 104.13 92.76
  L 103.31 92.75
  A 0.30 0.30 0.0 0 0 103.00 93.05
  L 102.98 97.20
  A 0.30 0.30 0.0 0 1 102.68 97.50
  L 97.59 97.51
  Z
  M 145.85 94.72
  L 145.83 102.94
  A 0.58 0.58 0.0 0 0 146.15 103.46
  L 146.52 103.66
  Q 146.91 103.87 146.91 103.43
  L 146.95 94.68
  A 0.83 0.82 -86.3 0 1 147.88 93.86
  Q 148.75 93.97 149.14 93.86
  Q 152.26 93.00 149.02 92.81
  Q 146.00 92.64 142.60 92.87
  A 0.52 0.51 -8.2 0 0 142.13 93.49
  L 142.20 93.81
  Q 142.23 93.97 142.39 93.96
  L 144.97 93.87
  Q 145.85 93.84 145.85 94.72
  Z
  M 159.76 102.85
  Q 156.79 102.37 153.96 102.55
  Q 152.83 102.62 152.86 101.49
  L 152.91 99.77
  A 0.97 0.97 0.0 0 1 153.86 98.83
  L 157.33 98.74
  A 0.37 0.37 0.0 0 0 157.69 98.37
  L 157.68 98.08
  Q 157.68 97.85 157.45 97.84
  L 153.72 97.57
  Q 152.92 97.52 152.91 96.72
  L 152.87 94.50
  A 0.64 0.64 0.0 0 1 153.49 93.85
  L 159.71 93.69
  Q 159.75 93.69 159.75 93.65
  L 159.78 93.27
  Q 159.81 92.92 159.45 92.91
  L 152.54 92.72
  A 0.74 0.74 0.0 0 0 151.78 93.46
  L 151.76 102.93
  A 0.64 0.63 3.0 0 0 152.33 103.56
  Q 156.49 104.00 160.80 103.15
  Q 161.32 103.05 161.63 102.62
  L 163.92 99.46
  A 0.70 0.70 0.0 0 1 165.04 99.44
  L 168.06 103.42
  Q 168.14 103.52 168.27 103.47
  L 168.59 103.31
  Q 168.82 103.20 168.67 102.99
  L 165.43 98.61
  A 1.05 1.04 -44.0 0 1 165.46 97.34
  L 168.09 94.04
  Q 168.43 93.62 168.97 93.65
  L 171.99 93.86
  Q 172.58 93.90 172.58 94.48
  L 172.55 103.00
  Q 172.54 103.25 172.79 103.26
  L 173.12 103.26
  Q 173.36 103.27 173.36 103.03
  Q 173.47 98.66 173.27 94.52
  Q 173.23 93.80 173.95 93.80
  L 176.59 93.81
  Q 176.87 93.81 176.88 93.53
  L 176.89 93.23
  Q 176.89 92.82 176.48 92.83
  L 168.47 92.94
  Q 167.87 92.95 167.51 93.42
  L 165.01 96.70
  A 0.56 0.56 0.0 0 1 164.13 96.71
  Q 163.10 95.42 162.02 93.96
  Q 160.53 91.95 160.99 94.41
  Q 161.03 94.62 161.99 95.50
  Q 162.99 96.42 163.62 97.63
  Q 163.88 98.12 163.55 98.56
  L 160.55 102.53
  Q 160.25 102.93 159.76 102.85
  Z
  M 188.57 102.88
  A 0.21 0.21 0.0 0 0 188.35 102.66
  L 183.12 102.67
  A 0.21 0.21 0.0 0 1 182.91 102.46
  L 182.90 93.06
  A 0.21 0.21 0.0 0 0 182.69 92.86
  L 182.25 92.87
  A 0.21 0.21 0.0 0 0 182.05 93.07
  L 181.92 103.36
  A 0.21 0.21 0.0 0 0 182.13 103.57
  L 188.35 103.53
  A 0.21 0.21 0.0 0 0 188.55 103.33
  L 188.57 102.88
  Z
  M 179.4514 93.3449
  A 0.26 0.26 0.0 0 0 179.1941 93.0822
  L 178.8341 93.0784
  A 0.26 0.26 0.0 0 0 178.5714 93.3357
  L 178.4686 103.1551
  A 0.26 0.26 0.0 0 0 178.7259 103.4178
  L 179.0859 103.4216
  A 0.26 0.26 0.0 0 0 179.3486 103.1643
  L 179.4514 93.3449
  Z"
/>
<path fill="#263e2f" d="
  M 14.82 109.80
  Q 10.51 108.75 8.14 104.77
  C 6.96 102.80 5.19 102.99 3.65 101.68
  C -2.29 96.66 -0.34 88.26 7.12 86.21
  Q 8.93 85.71 10.29 84.50
  C 13.49 81.66 18.62 81.32 21.95 84.15
  Q 23.84 85.77 26.22 86.41
  C 34.72 88.70 34.49 100.31 26.66 102.95
  Q 25.74 103.26 25.24 104.09
  C 23.46 107.06 21.39 109.05 17.80 109.76
  A 0.74 0.74 0.0 0 0 17.23 110.29
  Q 16.20 114.03 12.99 116.54
  A 1.15 1.14 -48.3 0 1 11.68 116.62
  L 11.42 116.46
  A 0.48 0.48 0.0 0 1 11.36 115.69
  Q 13.69 113.68 15.25 110.76
  A 0.67 0.66 -69.3 0 0 14.82 109.80
  Z
  M 7.57 92.50
  C 11.05 93.33 13.92 95.67 16.01 98.59
  Q 16.42 99.17 16.78 98.55
  C 18.16 96.15 22.02 92.77 25.30 92.48
  A 0.84 0.82 78.5 0 1 26.17 93.07
  Q 27.20 96.42 26.63 100.08
  Q 26.40 101.56 27.58 100.62
  Q 31.64 97.39 30.35 92.64
  C 29.55 89.68 27.00 88.32 24.16 87.72
  Q 22.63 87.40 21.58 86.24
  C 18.79 83.15 13.80 83.16 11.09 86.32
  Q 10.04 87.54 8.53 87.73
  C 1.42 88.60 -0.37 97.31 5.74 100.93
  Q 6.41 101.33 6.25 100.57
  Q 5.42 96.73 6.71 92.97
  Q 6.92 92.34 7.57 92.50
  Z
  M 7.90 95.22
  C 7.17 100.43 9.66 106.40 14.92 107.96
  A 0.27 0.26 -75.7 0 0 15.25 107.76
  Q 17.17 98.63 8.72 94.77
  A 0.59 0.58 16.2 0 0 7.90 95.22
  Z
  M 17.98 107.94
  C 22.71 106.16 25.58 101.02 24.84 95.85
  Q 24.64 94.40 23.35 95.10
  Q 15.53 99.38 17.66 107.77
  A 0.25 0.24 72.0 0 0 17.98 107.94
  Z"
/>
<path fill="#ffffff" d="
  M 6.71 92.97
  Q 5.42 96.73 6.25 100.57
  Q 6.41 101.33 5.74 100.93
  C -0.37 97.31 1.42 88.60 8.53 87.73
  Q 10.04 87.54 11.09 86.32
  C 13.80 83.16 18.79 83.15 21.58 86.24
  Q 22.63 87.40 24.16 87.72
  C 27.00 88.32 29.55 89.68 30.35 92.64
  Q 31.64 97.39 27.58 100.62
  Q 26.40 101.56 26.63 100.08
  Q 27.20 96.42 26.17 93.07
  A 0.84 0.82 78.5 0 0 25.30 92.48
  C 22.02 92.77 18.16 96.15 16.78 98.55
  Q 16.42 99.17 16.01 98.59
  C 13.92 95.67 11.05 93.33 7.57 92.50
  Q 6.92 92.34 6.71 92.97
  Z"
/>
<path fill="#636362" d="
  M 119.57 100.47
  A 0.47 0.46 44.2 0 0 120.42 100.46
  L 123.56 92.97
  Q 123.93 92.11 124.68 92.66
  L 125.03 92.92
  A 0.41 0.41 0.0 0 1 125.16 93.43
  L 120.59 103.27
  Q 120.21 104.07 119.56 103.48
  Q 119.16 103.13 118.95 102.65
  Q 117.16 98.57 115.39 94.53
  Q 115.13 93.94 114.50 93.96
  L 108.70 94.07
  Q 107.97 94.08 107.91 94.80
  L 107.73 96.65
  A 0.72 0.72 0.0 0 0 108.41 97.44
  L 112.71 97.65
  Q 113.00 97.67 112.98 97.96
  L 112.95 98.42
  A 0.56 0.56 0.0 0 1 112.40 98.95
  L 108.39 99.01
  A 0.61 0.60 -90.0 0 0 107.80 99.61
  L 107.78 101.66
  Q 107.78 102.29 108.41 102.30
  L 114.30 102.38
  A 0.47 0.46 -76.6 0 1 114.71 103.05
  L 114.56 103.36
  A 0.66 0.66 0.0 0 1 113.96 103.74
  L 107.18 103.74
  A 0.81 0.81 0.0 0 1 106.37 102.93
  L 106.45 93.28
  A 0.64 0.64 0.0 0 1 107.10 92.65
  L 115.20 92.74
  A 1.34 1.33 -11.8 0 1 116.40 93.52
  L 119.57 100.47
  Z"
/>
<rect fill="#636362" x="-0.70" y="-5.55" transform="translate(126.57,98.18) rotate(0.2)" width="1.40" height="11.10" rx="0.68"/>
<path fill="#636362" d="
  M 130.85 99.66
  L 130.78 103.41
  Q 130.77 103.88 130.31 103.75
  L 130.02 103.67
  A 0.89 0.89 0.0 0 1 129.36 102.80
  L 129.41 93.54
  Q 129.42 92.45 130.50 92.52
  Q 132.49 92.64 134.51 92.61
  C 136.84 92.58 139.03 94.94 137.73 97.15
  C 137.42 97.68 137.00 97.91 136.61 98.33
  Q 136.27 98.69 136.49 99.13
  L 138.09 102.39
  A 0.97 0.96 -31.0 0 1 137.78 103.60
  L 137.47 103.82
  A 0.33 0.33 0.0 0 1 137.01 103.74
  C 135.05 100.92 136.28 98.63 131.48 98.99
  Q 130.86 99.04 130.85 99.66
  Z
  M 130.86 94.73
  L 130.84 96.87
  A 0.62 0.62 0.0 0 0 131.46 97.49
  L 133.93 97.50
  A 2.57 1.59 0.3 0 0 136.51 95.92
  L 136.51 95.72
  A 2.57 1.59 0.3 0 0 133.95 94.12
  L 131.48 94.11
  A 0.62 0.62 0.0 0 0 130.86 94.73
  Z"
/>
<path fill="#636362" d="
  M 190.87 94.66
  L 190.88 96.97
  A 0.84 0.84 0.0 0 0 191.72 97.80
  L 195.68 97.77
  Q 195.89 97.77 195.92 97.97
  L 195.96 98.29
  Q 196.00 98.56 195.73 98.57
  L 191.61 98.84
  Q 190.85 98.89 190.87 99.64
  L 190.92 101.84
  Q 190.94 102.51 191.62 102.53
  L 197.67 102.67
  Q 197.89 102.68 197.87 102.90
  L 197.84 103.26
  Q 197.83 103.41 197.68 103.42
  Q 193.87 103.49 190.89 103.63
  Q 189.94 103.67 189.93 102.72
  L 189.89 93.16
  A 0.32 0.31 0.0 0 1 190.21 92.85
  L 199.06 92.85
  Q 199.74 92.85 199.10 93.06
  Q 195.63 94.24 191.82 93.81
  Q 190.87 93.70 190.87 94.66
  Z"
/>
<path fill="#636362" d="
  M 40.17 98.59
  Q 40.34 100.74 40.23 102.98
  A 0.61 0.61 0.0 0 1 39.65 103.57
  L 39.29 103.58
  Q 39.00 103.59 39.00 103.31
  L 38.99 93.36
  A 0.55 0.55 0.0 0 1 39.63 92.82
  Q 40.08 92.89 40.27 93.27
  Q 42.16 97.15 43.76 100.85
  A 0.45 0.44 -44.2 0 0 44.57 100.86
  L 47.87 93.87
  Q 49.12 91.21 49.23 94.15
  Q 49.39 98.47 49.18 103.15
  Q 49.16 103.52 48.79 103.48
  L 48.44 103.44
  Q 47.98 103.39 48.02 102.93
  Q 48.22 100.49 48.14 98.29
  Q 48.06 96.15 47.14 98.08
  L 44.73 103.19
  A 0.64 0.64 0.0 0 1 43.56 103.16
  Q 42.56 100.73 41.28 98.28
  Q 39.95 95.72 40.17 98.59
  Z"
/>
<rect fill="#636362" x="51.68" y="92.77" width="1.24" height="10.86" rx="0.59"/>
<path fill="#636362" d="
  M 56.25 96.71
  L 56.26 102.97
  Q 56.26 103.49 55.74 103.46
  L 55.40 103.44
  Q 54.99 103.42 54.99 103.01
  L 55.00 94.58
  Q 55.00 91.29 56.93 93.95
  L 61.69 100.50
  Q 62.35 101.42 62.34 100.29
  L 62.25 93.25
  Q 62.25 92.74 62.75 92.74
  L 63.12 92.74
  Q 63.50 92.74 63.50 93.12
  L 63.53 102.92
  A 0.57 0.57 0.0 0 1 63.10 103.47
  Q 62.60 103.59 62.33 103.21
  Q 59.83 99.74 57.29 96.37
  Q 56.25 94.99 56.25 96.71
  Z"
/>
<path fill="#636362" d="
  M 73.23 98.99
  L 70.00 99.01
  Q 69.56 99.02 69.57 98.57
  L 69.57 98.31
  Q 69.58 97.65 70.24 97.64
  L 73.62 97.56
  Q 75.50 97.52 75.01 99.34
  C 73.09 106.43 63.86 104.01 65.26 97.16
  Q 66.38 91.73 71.87 93.06
  Q 73.54 93.47 74.17 94.84
  Q 75.11 96.90 73.32 95.53
  C 71.25 93.95 68.89 92.84 67.08 95.66
  C 63.67 100.96 71.28 105.64 73.62 99.56
  A 0.42 0.41 -79.9 0 0 73.23 98.99
  Z"
/>
<path fill="#636362" d="
  M 79.92 95.99
  L 76.59 103.29
  A 0.54 0.54 0.0 0 1 75.99 103.61
  L 75.51 103.53
  A 0.39 0.39 0.0 0 1 75.22 102.99
  L 79.57 93.32
  A 0.85 0.85 0.0 0 1 81.12 93.32
  L 85.31 102.69
  A 0.92 0.92 0.0 0 1 85.11 103.71
  L 84.87 103.94
  A 0.34 0.34 0.0 0 1 84.32 103.83
  L 80.76 95.99
  A 0.46 0.46 0.0 0 0 79.92 95.99
  Z"
/>
<path fill="#636362" d="
  M 93.61 95.78
  C 87.55 90.14 83.70 100.50 89.60 102.22
  C 91.22 102.68 92.61 101.56 93.69 100.52
  Q 94.08 100.14 94.51 100.48
  L 94.72 100.64
  Q 95.04 100.88 94.82 101.22
  Q 93.34 103.52 90.97 103.65
  C 85.36 103.96 83.11 97.15 87.27 93.74
  C 89.68 91.77 93.28 92.58 94.84 95.22
  A 0.50 0.49 59.4 0 1 94.67 95.89
  Q 94.11 96.24 93.61 95.78
  Z"
/>
<path fill="#636362" d="
  M 97.59 97.51
  L 102.68 97.50
  A 0.30 0.30 0.0 0 0 102.98 97.20
  L 103.00 93.05
  A 0.30 0.30 0.0 0 1 103.31 92.75
  L 104.13 92.76
  A 0.30 0.30 0.0 0 1 104.42 93.06
  L 104.45 103.47
  A 0.30 0.30 0.0 0 1 104.08 103.77
  L 103.21 103.55
  A 0.30 0.30 0.0 0 1 102.98 103.26
  L 102.98 99.28
  A 0.30 0.30 0.0 0 0 102.68 98.98
  L 97.57 99.02
  A 0.30 0.30 0.0 0 0 97.27 99.32
  L 97.26 103.41
  A 0.30 0.30 0.0 0 1 96.97 103.71
  L 96.08 103.75
  A 0.30 0.30 0.0 0 1 95.77 103.45
  L 95.77 92.99
  A 0.30 0.30 0.0 0 1 96.07 92.69
  L 96.86 92.70
  A 0.30 0.30 0.0 0 1 97.16 92.99
  L 97.29 97.22
  A 0.30 0.30 0.0 0 0 97.59 97.51
  Z"
/>
<path fill="#636362" d="
  M 144.97 93.87
  L 142.39 93.96
  Q 142.23 93.97 142.20 93.81
  L 142.13 93.49
  A 0.52 0.51 -8.2 0 1 142.60 92.87
  Q 146.00 92.64 149.02 92.81
  Q 152.26 93.00 149.14 93.86
  Q 148.75 93.97 147.88 93.86
  A 0.83 0.82 -86.3 0 0 146.95 94.68
  L 146.91 103.43
  Q 146.91 103.87 146.52 103.66
  L 146.15 103.46
  A 0.58 0.58 0.0 0 1 145.83 102.94
  L 145.85 94.72
  Q 145.85 93.84 144.97 93.87
  Z"
/>
<path fill="#636362" d="
  M 160.55 102.53
  L 163.55 98.56
  Q 163.88 98.12 163.62 97.63
  Q 162.99 96.42 161.99 95.50
  Q 161.03 94.62 160.99 94.41
  Q 160.53 91.95 162.02 93.96
  Q 163.10 95.42 164.13 96.71
  A 0.56 0.56 0.0 0 0 165.01 96.70
  L 167.51 93.42
  Q 167.87 92.95 168.47 92.94
  L 176.48 92.83
  Q 176.89 92.82 176.89 93.23
  L 176.88 93.53
  Q 176.87 93.81 176.59 93.81
  L 173.95 93.80
  Q 173.23 93.80 173.27 94.52
  Q 173.47 98.66 173.36 103.03
  Q 173.36 103.27 173.12 103.26
  L 172.79 103.26
  Q 172.54 103.25 172.55 103.00
  L 172.58 94.48
  Q 172.58 93.90 171.99 93.86
  L 168.97 93.65
  Q 168.43 93.62 168.09 94.04
  L 165.46 97.34
  A 1.05 1.04 -44.0 0 0 165.43 98.61
  L 168.67 102.99
  Q 168.82 103.20 168.59 103.31
  L 168.27 103.47
  Q 168.14 103.52 168.06 103.42
  L 165.04 99.44
  A 0.70 0.70 0.0 0 0 163.92 99.46
  L 161.63 102.62
  Q 161.32 103.05 160.80 103.15
  Q 156.49 104.00 152.33 103.56
  A 0.64 0.63 3.0 0 1 151.76 102.93
  L 151.78 93.46
  A 0.74 0.74 0.0 0 1 152.54 92.72
  L 159.45 92.91
  Q 159.81 92.92 159.78 93.27
  L 159.75 93.65
  Q 159.75 93.69 159.71 93.69
  L 153.49 93.85
  A 0.64 0.64 0.0 0 0 152.87 94.50
  L 152.91 96.72
  Q 152.92 97.52 153.72 97.57
  L 157.45 97.84
  Q 157.68 97.85 157.68 98.08
  L 157.69 98.37
  A 0.37 0.37 0.0 0 1 157.33 98.74
  L 153.86 98.83
  A 0.97 0.97 0.0 0 0 152.91 99.77
  L 152.86 101.49
  Q 152.83 102.62 153.96 102.55
  Q 156.79 102.37 159.76 102.85
  Q 160.25 102.93 160.55 102.53
  Z"
/>
<path fill="#636362" d="
  M 188.57 102.88
  L 188.55 103.33
  A 0.21 0.21 0.0 0 1 188.35 103.53
  L 182.13 103.57
  A 0.21 0.21 0.0 0 1 181.92 103.36
  L 182.05 93.07
  A 0.21 0.21 0.0 0 1 182.25 92.87
  L 182.69 92.86
  A 0.21 0.21 0.0 0 1 182.90 93.06
  L 182.91 102.46
  A 0.21 0.21 0.0 0 0 183.12 102.67
  L 188.35 102.66
  A 0.21 0.21 0.0 0 1 188.57 102.88
  Z"
/>
<rect fill="#636362" x="-0.44" y="-5.17" transform="translate(178.96,98.25) rotate(0.6)" width="0.88" height="10.34" rx="0.26"/>
<path fill="#ffffff" d="
  M 130.86 94.73
  A 0.62 0.62 0.0 0 1 131.48 94.11
  L 133.95 94.12
  A 2.57 1.59 0.3 0 1 136.51 95.72
  L 136.51 95.92
  A 2.57 1.59 0.3 0 1 133.93 97.50
  L 131.46 97.49
  A 0.62 0.62 0.0 0 1 130.84 96.87
  L 130.86 94.73
  Z"
/>
<path fill="#ffffff" d="
  M 14.92 107.96
  C 9.66 106.40 7.17 100.43 7.90 95.22
  A 0.59 0.58 16.2 0 1 8.72 94.77
  Q 17.17 98.63 15.25 107.76
  A 0.27 0.26 -75.7 0 1 14.92 107.96
  Z"
/>
<path fill="#ffffff" d="
  M 17.98 107.94
  A 0.25 0.24 72.0 0 1 17.66 107.77
  Q 15.53 99.38 23.35 95.10
  Q 24.64 94.40 24.84 95.85
  C 25.58 101.02 22.71 106.16 17.98 107.94
  Z"
/>
</svg>
