<?xml version="1.0" encoding="UTF-8" standalone="no"?>
<!DOCTYPE svg PUBLIC "-//W3C//DTD SVG 1.1//EN" "http://www.w3.org/Graphics/SVG/1.1/DTD/svg11.dtd">
<svg xmlns="http://www.w3.org/2000/svg" version="1.1" viewBox="0.00 0.00 128.00 75.00">
<g stroke-width="2.00" fill="none" stroke-linecap="butt">
<path stroke="#808080" vector-effect="non-scaling-stroke" d="
  M 90.38 37.78
  C 89.04 37.82 88.21 36.46 87.63 35.46
  Q 87.28 34.86 86.61 35.01
  Q 84.73 35.43 82.96 34.99
  A 0.45 0.45 0.0 0 0 82.40 35.44
  C 82.62 42.54 90.13 45.51 95.68 41.67
  C 98.54 39.69 99.97 34.32 97.64 31.16
  C 95.70 28.54 93.17 28.03 90.36 26.93
  C 84.15 24.51 90.85 17.77 93.17 23.44
  Q 93.46 24.14 94.22 24.13
  L 96.87 24.10
  Q 99.62 24.07 98.57 21.53
  C 95.80 14.86 87.26 13.32 83.41 19.89
  Q 81.83 22.57 82.56 25.89
  C 83.39 29.70 88.29 31.88 91.75 32.80
  A 2.08 2.07 7.9 0 1 93.29 34.83
  Q 93.25 37.69 90.38 37.78"
/>
<path stroke="#808080" vector-effect="non-scaling-stroke" d="
  M 49.72 16.22
  A 0.35 0.35 0.0 0 0 49.38 16.57
  L 49.36 30.06
  A 0.35 0.35 0.0 0 1 48.78 30.32
  L 33.86 16.69
  A 0.35 0.35 0.0 0 0 33.27 16.94
  L 33.27 42.66
  A 0.35 0.35 0.0 0 0 33.62 43.01
  L 38.29 43.02
  A 0.35 0.35 0.0 0 0 38.64 42.67
  L 38.65 29.08
  A 0.35 0.35 0.0 0 1 39.24 28.82
  L 54.03 42.50
  A 0.35 0.35 0.0 0 0 54.62 42.24
  L 54.60 16.44
  A 0.35 0.35 0.0 0 0 54.24 16.09
  L 49.72 16.22"
/>
<path stroke="#808080" vector-effect="non-scaling-stroke" d="
  M 66.54 22.45
  L 57.38 42.84
  A 0.23 0.23 0.0 0 0 57.63 43.16
  Q 60.03 42.75 62.24 43.07
  Q 62.78 43.15 63.01 42.65
  L 69.05 29.26"
/>
<path stroke="#a2ceaf" vector-effect="non-scaling-stroke" d="
  M 69.05 29.26
  Q 69.18 29.23 69.38 29.32
  Q 69.51 29.37 69.57 29.50
  L 75.19 42.23
  A 1.65 1.64 77.0 0 0 76.73 43.20
  L 80.84 43.10
  Q 81.58 43.08 81.27 42.42
  L 69.83 17.16
  A 0.52 0.52 0.0 0 0 68.89 17.17
  L 66.54 22.45"
/>
<path stroke="#224f30" vector-effect="non-scaling-stroke" d="
  M 69.05 29.26
  Q 69.15 28.96 69.15 28.66
  Q 69.16 28.41 68.98 28.12
  Q 67.54 25.78 66.54 22.45"
/>
<path stroke="#808080" vector-effect="non-scaling-stroke" d="
  M 35.70 54.73
  C 42.02 54.65 40.48 46.52 33.86 48.24
  Q 33.24 48.40 33.24 49.05
  L 33.27 56.94
  Q 33.27 57.52 33.85 57.48
  L 34.25 57.44
  A 0.74 0.74 0.0 0 0 34.94 56.77
  L 35.08 55.30
  A 0.62 0.62 0.0 0 1 35.70 54.73"
/>
<path stroke="#808080" vector-effect="non-scaling-stroke" d="
  M 45.47 55.12
  C 46.35 55.99 47.01 57.84 48.65 57.41
  Q 49.55 57.17 48.84 56.57
  Q 46.97 54.98 48.43 53.41
  C 50.05 51.67 49.52 49.11 47.09 48.44
  Q 45.27 47.93 43.41 48.16
  A 0.71 0.70 -3.2 0 0 42.78 48.86
  L 42.75 56.65
  Q 42.74 57.56 43.65 57.52
  L 44.07 57.50
  A 0.37 0.36 10.2 0 0 44.39 57.28
  Q 44.73 56.42 44.69 55.46
  Q 44.65 54.32 45.47 55.12"
/>
<path stroke="#808080" vector-effect="non-scaling-stroke" d="
  M 66.47 54.93
  Q 65.77 55.47 65.10 56.05
  Q 63.72 57.24 65.55 57.26
  C 69.72 57.29 69.10 51.18 68.71 48.40
  Q 68.63 47.83 68.06 47.94
  L 67.77 47.99
  Q 67.20 48.10 67.19 48.67
  L 67.03 53.82
  Q 67.01 54.51 66.47 54.93"
/>
<path stroke="#808080" vector-effect="non-scaling-stroke" d="
  M 61.90 52.82
  A 4.64 4.64 0.0 0 0 57.26 48.18
  A 4.64 4.64 0.0 0 0 52.62 52.82
  A 4.64 4.64 0.0 0 0 57.26 57.46
  A 4.64 4.64 0.0 0 0 61.90 52.82"
/>
<path stroke="#808080" vector-effect="non-scaling-stroke" d="
  M 74.26 50.34
  Q 74.94 49.79 76.75 50.03
  A 1.10 1.09 -75.1 0 0 77.92 49.35
  L 78.07 48.98
  A 0.52 0.52 0.0 0 0 77.60 48.27
  L 73.02 48.19
  A 0.68 0.68 0.0 0 0 72.33 48.86
  L 72.21 56.49
  Q 72.19 57.38 73.08 57.42
  Q 74.99 57.52 77.03 57.43
  Q 77.52 57.41 77.79 57.01
  Q 78.00 56.70 77.91 56.32
  Q 77.78 55.74 77.19 55.72
  L 74.92 55.61
  A 0.94 0.94 0.0 0 1 74.03 54.68
  L 74.03 54.29
  Q 74.03 53.86 74.46 53.79
  L 76.29 53.52
  Q 76.94 53.42 77.01 52.76
  Q 77.03 52.56 76.98 52.36
  Q 76.86 51.83 76.31 51.81
  L 74.75 51.78
  A 0.81 0.81 0.0 0 1 74.26 50.34"
/>
<path stroke="#808080" vector-effect="non-scaling-stroke" d="
  M 87.81 55.12
  C 81.20 57.82 81.51 47.89 87.39 50.50
  A 0.91 0.91 0.0 0 0 88.61 49.99
  L 88.70 49.74
  A 0.64 0.64 0.0 0 0 88.37 48.93
  Q 84.35 47.01 81.93 50.18
  Q 80.52 52.03 81.21 53.96
  Q 82.74 58.26 87.67 57.17
  A 1.13 1.12 -10.2 0 0 88.54 55.93
  L 88.48 55.52
  A 0.49 0.49 0.0 0 0 87.81 55.12"
/>
<path stroke="#808080" vector-effect="non-scaling-stroke" d="
  M 94.45 50.94
  L 94.38 56.48
  Q 94.37 57.33 95.20 57.47
  L 95.62 57.54
  A 0.55 0.55 0.0 0 0 96.26 57.00
  L 96.26 50.68
  Q 96.26 50.11 96.82 50.04
  L 97.90 49.91
  Q 98.60 49.83 98.72 49.13
  L 98.78 48.83
  A 0.48 0.48 0.0 0 0 98.31 48.27
  L 92.51 48.18
  A 0.67 0.67 0.0 0 0 91.93 49.21
  Q 92.50 50.10 93.57 50.07
  A 0.86 0.86 0.0 0 1 94.45 50.94"
/>
<path stroke="#808080" vector-effect="non-scaling-stroke" d="
  M 37.81 51.40
  A 1.47 1.47 0.0 0 0 36.34 49.93
  A 1.47 1.47 0.0 0 0 34.87 51.40
  A 1.47 1.47 0.0 0 0 36.34 52.87
  A 1.47 1.47 0.0 0 0 37.81 51.40"
/>
<path stroke="#808080" vector-effect="non-scaling-stroke" d="
  M 47.46 51.37
  A 1.48 1.48 0.0 0 0 45.98 49.89
  A 1.48 1.48 0.0 0 0 44.50 51.37
  A 1.48 1.48 0.0 0 0 45.98 52.85
  A 1.48 1.48 0.0 0 0 47.46 51.37"
/>
<path stroke="#808080" vector-effect="non-scaling-stroke" d="
  M 60.06 52.81
  A 2.83 2.83 0.0 0 0 57.23 49.98
  A 2.83 2.83 0.0 0 0 54.40 52.81
  A 2.83 2.83 0.0 0 0 57.23 55.64
  A 2.83 2.83 0.0 0 0 60.06 52.81"
/>
</g>
<path fill="#ffffff" d="
  M 0.00 0.00
  L 128.00 0.00
  L 128.00 75.00
  L 0.00 75.00
  L 0.00 0.00
  Z
  M 90.38 37.78
  C 89.04 37.82 88.21 36.46 87.63 35.46
  Q 87.28 34.86 86.61 35.01
  Q 84.73 35.43 82.96 34.99
  A 0.45 0.45 0.0 0 0 82.40 35.44
  C 82.62 42.54 90.13 45.51 95.68 41.67
  C 98.54 39.69 99.97 34.32 97.64 31.16
  C 95.70 28.54 93.17 28.03 90.36 26.93
  C 84.15 24.51 90.85 17.77 93.17 23.44
  Q 93.46 24.14 94.22 24.13
  L 96.87 24.10
  Q 99.62 24.07 98.57 21.53
  C 95.80 14.86 87.26 13.32 83.41 19.89
  Q 81.83 22.57 82.56 25.89
  C 83.39 29.70 88.29 31.88 91.75 32.80
  A 2.08 2.07 7.9 0 1 93.29 34.83
  Q 93.25 37.69 90.38 37.78
  Z
  M 49.72 16.22
  A 0.35 0.35 0.0 0 0 49.38 16.57
  L 49.36 30.06
  A 0.35 0.35 0.0 0 1 48.78 30.32
  L 33.86 16.69
  A 0.35 0.35 0.0 0 0 33.27 16.94
  L 33.27 42.66
  A 0.35 0.35 0.0 0 0 33.62 43.01
  L 38.29 43.02
  A 0.35 0.35 0.0 0 0 38.64 42.67
  L 38.65 29.08
  A 0.35 0.35 0.0 0 1 39.24 28.82
  L 54.03 42.50
  A 0.35 0.35 0.0 0 0 54.62 42.24
  L 54.60 16.44
  A 0.35 0.35 0.0 0 0 54.24 16.09
  L 49.72 16.22
  Z
  M 66.54 22.45
  L 57.38 42.84
  A 0.23 0.23 0.0 0 0 57.63 43.16
  Q 60.03 42.75 62.24 43.07
  Q 62.78 43.15 63.01 42.65
  L 69.05 29.26
  Q 69.18 29.23 69.38 29.32
  Q 69.51 29.37 69.57 29.50
  L 75.19 42.23
  A 1.65 1.64 77.0 0 0 76.73 43.20
  L 80.84 43.10
  Q 81.58 43.08 81.27 42.42
  L 69.83 17.16
  A 0.52 0.52 0.0 0 0 68.89 17.17
  L 66.54 22.45
  Z
  M 35.70 54.73
  C 42.02 54.65 40.48 46.52 33.86 48.24
  Q 33.24 48.40 33.24 49.05
  L 33.27 56.94
  Q 33.27 57.52 33.85 57.48
  L 34.25 57.44
  A 0.74 0.74 0.0 0 0 34.94 56.77
  L 35.08 55.30
  A 0.62 0.62 0.0 0 1 35.70 54.73
  Z
  M 45.47 55.12
  C 46.35 55.99 47.01 57.84 48.65 57.41
  Q 49.55 57.17 48.84 56.57
  Q 46.97 54.98 48.43 53.41
  C 50.05 51.67 49.52 49.11 47.09 48.44
  Q 45.27 47.93 43.41 48.16
  A 0.71 0.70 -3.2 0 0 42.78 48.86
  L 42.75 56.65
  Q 42.74 57.56 43.65 57.52
  L 44.07 57.50
  A 0.37 0.36 10.2 0 0 44.39 57.28
  Q 44.73 56.42 44.69 55.46
  Q 44.65 54.32 45.47 55.12
  Z
  M 66.47 54.93
  Q 65.77 55.47 65.10 56.05
  Q 63.72 57.24 65.55 57.26
  C 69.72 57.29 69.10 51.18 68.71 48.40
  Q 68.63 47.83 68.06 47.94
  L 67.77 47.99
  Q 67.20 48.10 67.19 48.67
  L 67.03 53.82
  Q 67.01 54.51 66.47 54.93
  Z
  M 61.90 52.82
  A 4.64 4.64 0.0 0 0 57.26 48.18
  A 4.64 4.64 0.0 0 0 52.62 52.82
  A 4.64 4.64 0.0 0 0 57.26 57.46
  A 4.64 4.64 0.0 0 0 61.90 52.82
  Z
  M 74.26 50.34
  Q 74.94 49.79 76.75 50.03
  A 1.10 1.09 -75.1 0 0 77.92 49.35
  L 78.07 48.98
  A 0.52 0.52 0.0 0 0 77.60 48.27
  L 73.02 48.19
  A 0.68 0.68 0.0 0 0 72.33 48.86
  L 72.21 56.49
  Q 72.19 57.38 73.08 57.42
  Q 74.99 57.52 77.03 57.43
  Q 77.52 57.41 77.79 57.01
  Q 78.00 56.70 77.91 56.32
  Q 77.78 55.74 77.19 55.72
  L 74.92 55.61
  A 0.94 0.94 0.0 0 1 74.03 54.68
  L 74.03 54.29
  Q 74.03 53.86 74.46 53.79
  L 76.29 53.52
  Q 76.94 53.42 77.01 52.76
  Q 77.03 52.56 76.98 52.36
  Q 76.86 51.83 76.31 51.81
  L 74.75 51.78
  A 0.81 0.81 0.0 0 1 74.26 50.34
  Z
  M 87.81 55.12
  C 81.20 57.82 81.51 47.89 87.39 50.50
  A 0.91 0.91 0.0 0 0 88.61 49.99
  L 88.70 49.74
  A 0.64 0.64 0.0 0 0 88.37 48.93
  Q 84.35 47.01 81.93 50.18
  Q 80.52 52.03 81.21 53.96
  Q 82.74 58.26 87.67 57.17
  A 1.13 1.12 -10.2 0 0 88.54 55.93
  L 88.48 55.52
  A 0.49 0.49 0.0 0 0 87.81 55.12
  Z
  M 94.45 50.94
  L 94.38 56.48
  Q 94.37 57.33 95.20 57.47
  L 95.62 57.54
  A 0.55 0.55 0.0 0 0 96.26 57.00
  L 96.26 50.68
  Q 96.26 50.11 96.82 50.04
  L 97.90 49.91
  Q 98.60 49.83 98.72 49.13
  L 98.78 48.83
  A 0.48 0.48 0.0 0 0 98.31 48.27
  L 92.51 48.18
  A 0.67 0.67 0.0 0 0 91.93 49.21
  Q 92.50 50.10 93.57 50.07
  A 0.86 0.86 0.0 0 1 94.45 50.94
  Z"
/>
<path fill="#000000" d="
  M 90.38 37.78
  Q 93.25 37.69 93.29 34.83
  A 2.08 2.07 7.9 0 0 91.75 32.80
  C 88.29 31.88 83.39 29.70 82.56 25.89
  Q 81.83 22.57 83.41 19.89
  C 87.26 13.32 95.80 14.86 98.57 21.53
  Q 99.62 24.07 96.87 24.10
  L 94.22 24.13
  Q 93.46 24.14 93.17 23.44
  C 90.85 17.77 84.15 24.51 90.36 26.93
  C 93.17 28.03 95.70 28.54 97.64 31.16
  C 99.97 34.32 98.54 39.69 95.68 41.67
  C 90.13 45.51 82.62 42.54 82.40 35.44
  A 0.45 0.45 0.0 0 1 82.96 34.99
  Q 84.73 35.43 86.61 35.01
  Q 87.28 34.86 87.63 35.46
  C 88.21 36.46 89.04 37.82 90.38 37.78
  Z"
/>
<path fill="#000000" d="
  M 49.72 16.22
  L 54.24 16.09
  A 0.35 0.35 0.0 0 1 54.60 16.44
  L 54.62 42.24
  A 0.35 0.35 0.0 0 1 54.03 42.50
  L 39.24 28.82
  A 0.35 0.35 0.0 0 0 38.65 29.08
  L 38.64 42.67
  A 0.35 0.35 0.0 0 1 38.29 43.02
  L 33.62 43.01
  A 0.35 0.35 0.0 0 1 33.27 42.66
  L 33.27 16.94
  A 0.35 0.35 0.0 0 1 33.86 16.69
  L 48.78 30.32
  A 0.35 0.35 0.0 0 0 49.36 30.06
  L 49.38 16.57
  A 0.35 0.35 0.0 0 1 49.72 16.22
  Z"
/>
<path fill="#449d5f" d="
  M 69.05 29.26
  Q 69.15 28.96 69.15 28.66
  Q 69.16 28.41 68.98 28.12
  Q 67.54 25.78 66.54 22.45
  L 68.89 17.17
  A 0.52 0.52 0.0 0 1 69.83 17.16
  L 81.27 42.42
  Q 81.58 43.08 80.84 43.10
  L 76.73 43.20
  A 1.65 1.64 77.0 0 1 75.19 42.23
  L 69.57 29.50
  Q 69.51 29.37 69.38 29.32
  Q 69.18 29.23 69.05 29.26
  Z"
/>
<path fill="#000000" d="
  M 66.54 22.45
  Q 67.54 25.78 68.98 28.12
  Q 69.16 28.41 69.15 28.66
  Q 69.15 28.96 69.05 29.26
  L 63.01 42.65
  Q 62.78 43.15 62.24 43.07
  Q 60.03 42.75 57.63 43.16
  A 0.23 0.23 0.0 0 1 57.38 42.84
  L 66.54 22.45
  Z"
/>
<path fill="#000000" d="
  M 35.08 55.30
  L 34.94 56.77
  A 0.74 0.74 0.0 0 1 34.25 57.44
  L 33.85 57.48
  Q 33.27 57.52 33.27 56.94
  L 33.24 49.05
  Q 33.24 48.40 33.86 48.24
  C 40.48 46.52 42.02 54.65 35.70 54.73
  A 0.62 0.62 0.0 0 0 35.08 55.30
  Z
  M 37.81 51.40
  A 1.47 1.47 0.0 0 0 36.34 49.93
  A 1.47 1.47 0.0 0 0 34.87 51.40
  A 1.47 1.47 0.0 0 0 36.34 52.87
  A 1.47 1.47 0.0 0 0 37.81 51.40
  Z"
/>
<path fill="#000000" d="
  M 44.69 55.46
  Q 44.73 56.42 44.39 57.28
  A 0.37 0.36 10.2 0 1 44.07 57.50
  L 43.65 57.52
  Q 42.74 57.56 42.75 56.65
  L 42.78 48.86
  A 0.71 0.70 -3.2 0 1 43.41 48.16
  Q 45.27 47.93 47.09 48.44
  C 49.52 49.11 50.05 51.67 48.43 53.41
  Q 46.97 54.98 48.84 56.57
  Q 49.55 57.17 48.65 57.41
  C 47.01 57.84 46.35 55.99 45.47 55.12
  Q 44.65 54.32 44.69 55.46
  Z
  M 47.46 51.37
  A 1.48 1.48 0.0 0 0 45.98 49.89
  A 1.48 1.48 0.0 0 0 44.50 51.37
  A 1.48 1.48 0.0 0 0 45.98 52.85
  A 1.48 1.48 0.0 0 0 47.46 51.37
  Z"
/>
<path fill="#000000" d="
  M 67.03 53.82
  L 67.19 48.67
  Q 67.20 48.10 67.77 47.99
  L 68.06 47.94
  Q 68.63 47.83 68.71 48.40
  C 69.10 51.18 69.72 57.29 65.55 57.26
  Q 63.72 57.24 65.10 56.05
  Q 65.77 55.47 66.47 54.93
  Q 67.01 54.51 67.03 53.82
  Z"
/>
<path fill="#000000" d="
  M 61.90 52.82
  A 4.64 4.64 0.0 0 1 57.26 57.46
  A 4.64 4.64 0.0 0 1 52.62 52.82
  A 4.64 4.64 0.0 0 1 57.26 48.18
  A 4.64 4.64 0.0 0 1 61.90 52.82
  Z
  M 60.06 52.81
  A 2.83 2.83 0.0 0 0 57.23 49.98
  A 2.83 2.83 0.0 0 0 54.40 52.81
  A 2.83 2.83 0.0 0 0 57.23 55.64
  A 2.83 2.83 0.0 0 0 60.06 52.81
  Z"
/>
<path fill="#000000" d="
  M 74.26 50.34
  A 0.81 0.81 0.0 0 0 74.75 51.78
  L 76.31 51.81
  Q 76.86 51.83 76.98 52.36
  Q 77.03 52.56 77.01 52.76
  Q 76.94 53.42 76.29 53.52
  L 74.46 53.79
  Q 74.03 53.86 74.03 54.29
  L 74.03 54.68
  A 0.94 0.94 0.0 0 0 74.92 55.61
  L 77.19 55.72
  Q 77.78 55.74 77.91 56.32
  Q 78.00 56.70 77.79 57.01
  Q 77.52 57.41 77.03 57.43
  Q 74.99 57.52 73.08 57.42
  Q 72.19 57.38 72.21 56.49
  L 72.33 48.86
  A 0.68 0.68 0.0 0 1 73.02 48.19
  L 77.60 48.27
  A 0.52 0.52 0.0 0 1 78.07 48.98
  L 77.92 49.35
  A 1.10 1.09 -75.1 0 1 76.75 50.03
  Q 74.94 49.79 74.26 50.34
  Z"
/>
<path fill="#000000" d="
  M 87.39 50.50
  C 81.51 47.89 81.20 57.82 87.81 55.12
  A 0.49 0.49 0.0 0 1 88.48 55.52
  L 88.54 55.93
  A 1.13 1.12 -10.2 0 1 87.67 57.17
  Q 82.74 58.26 81.21 53.96
  Q 80.52 52.03 81.93 50.18
  Q 84.35 47.01 88.37 48.93
  A 0.64 0.64 0.0 0 1 88.70 49.74
  L 88.61 49.99
  A 0.91 0.91 0.0 0 1 87.39 50.50
  Z"
/>
<path fill="#000000" d="
  M 93.57 50.07
  Q 92.50 50.10 91.93 49.21
  A 0.67 0.67 0.0 0 1 92.51 48.18
  L 98.31 48.27
  A 0.48 0.48 0.0 0 1 98.78 48.83
  L 98.72 49.13
  Q 98.60 49.83 97.90 49.91
  L 96.82 50.04
  Q 96.26 50.11 96.26 50.68
  L 96.26 57.00
  A 0.55 0.55 0.0 0 1 95.62 57.54
  L 95.20 57.47
  Q 94.37 57.33 94.38 56.48
  L 94.45 50.94
  A 0.86 0.86 0.0 0 0 93.57 50.07
  Z"
/>
<circle fill="#ffffff" cx="36.34" cy="51.40" r="1.47"/>
<circle fill="#ffffff" cx="45.98" cy="51.37" r="1.48"/>
<circle fill="#ffffff" cx="57.23" cy="52.81" r="2.83"/>
</svg>
