<?xml version="1.0" encoding="UTF-8" standalone="no"?>
<!DOCTYPE svg PUBLIC "-//W3C//DTD SVG 1.1//EN" "http://www.w3.org/Graphics/SVG/1.1/DTD/svg11.dtd">
<svg xmlns="http://www.w3.org/2000/svg" version="1.1" viewBox="0.00 0.00 200.00 142.00">
<g stroke-width="2.00" fill="none" stroke-linecap="butt">
<path stroke="#83b2cb" vector-effect="non-scaling-stroke" d="
  M 71.44 88.64
  A 0.67 0.67 0.0 0 1 71.64 88.16
  L 83.03 76.89
  A 0.67 0.67 0.0 0 0 83.04 75.94
  L 71.62 64.45
  A 0.67 0.67 0.0 0 1 71.43 63.97
  L 71.40 47.91
  A 0.67 0.67 0.0 0 0 70.73 47.24
  L 54.72 47.24
  A 0.67 0.67 0.0 0 1 54.24 47.04
  L 42.84 35.56
  A 0.67 0.67 0.0 0 0 41.88 35.56
  L 30.52 47.02
  A 0.67 0.67 0.0 0 1 30.04 47.22
  L 13.96 47.24
  A 0.67 0.67 0.0 0 0 13.29 47.91
  L 13.32 63.96
  A 0.67 0.67 0.0 0 1 13.12 64.44
  L 1.71 75.92
  A 0.67 0.67 0.0 0 0 1.71 76.86
  L 13.07 88.21
  A 0.67 0.67 0.0 0 1 13.27 88.69
  L 13.32 104.83
  A 0.67 0.67 0.0 0 0 13.99 105.50
  L 30.09 105.50
  A 0.67 0.67 0.0 0 1 30.57 105.70
  L 41.86 117.18
  A 0.67 0.67 0.0 0 0 42.81 117.18
  L 54.26 105.68
  A 0.67 0.67 0.0 0 1 54.74 105.48
  L 70.76 105.54
  A 0.67 0.67 0.0 0 0 71.43 104.87
  L 71.44 88.64"
/>
<path stroke="#83b2cb" vector-effect="non-scaling-stroke" d="
  M 132.23 60.72
  Q 131.87 61.81 131.52 60.72
  L 128.80 52.34
  A 0.49 0.48 -9.2 0 0 128.34 52.01
  L 120.53 51.94
  A 0.18 0.17 -12.7 0 0 120.37 52.19
  Q 123.22 58.53 126.66 65.63
  C 128.27 68.97 127.68 72.59 127.79 76.13
  Q 127.80 76.43 128.10 76.43
  L 134.75 76.36
  A 0.39 0.39 0.0 0 0 135.14 75.93
  Q 134.48 69.13 135.93 66.12
  Q 139.19 59.33 142.70 52.21
  A 0.17 0.17 0.0 0 0 142.55 51.97
  L 135.46 51.92
  A 0.48 0.47 -80.6 0 0 135.01 52.25
  L 132.23 60.72"
/>
<path stroke="#83b2cb" vector-effect="non-scaling-stroke" d="
  M 161.39 64.66
  L 153.07 53.19
  A 2.90 2.88 72.2 0 0 150.75 51.99
  L 145.59 51.95
  A 0.34 0.33 90.0 0 0 145.26 52.29
  L 145.23 75.95
  Q 145.23 76.42 145.70 76.42
  L 151.41 76.43
  Q 152.01 76.43 152.00 75.84
  L 151.99 62.87
  Q 151.99 62.24 152.36 62.75
  Q 157.02 69.32 161.54 75.61
  Q 162.02 76.28 162.83 76.33
  Q 165.51 76.49 167.95 76.46
  A 0.67 0.66 90.0 0 0 168.61 75.79
  L 168.63 52.82
  Q 168.63 52.01 167.82 52.01
  L 162.39 51.97
  Q 161.75 51.96 161.75 52.61
  L 161.84 64.51
  Q 161.85 65.29 161.39 64.66"
/>
<path stroke="#83b2cb" vector-effect="non-scaling-stroke" d="
  M 110.20 71.88
  A 0.66 0.66 0.0 0 1 110.83 72.37
  L 111.76 75.91
  A 0.66 0.66 0.0 0 0 112.39 76.40
  L 118.89 76.45
  A 0.66 0.66 0.0 0 0 119.52 75.59
  L 112.03 52.46
  A 0.66 0.66 0.0 0 0 111.40 52.00
  L 103.27 51.99
  A 0.66 0.66 0.0 0 0 102.65 52.44
  L 94.73 75.64
  A 0.66 0.66 0.0 0 0 95.37 76.51
  L 102.00 76.31
  A 0.66 0.66 0.0 0 0 102.63 75.77
  L 103.30 72.29
  A 0.66 0.66 0.0 0 1 103.96 71.76
  L 110.20 71.88"
/>
<path stroke="#83b2cb" vector-effect="non-scaling-stroke" d="
  M 180.20 72.27
  A 0.54 0.54 0.0 0 1 180.71 71.87
  L 187.14 71.74
  A 0.54 0.54 0.0 0 1 187.68 72.15
  L 188.59 75.99
  A 0.54 0.54 0.0 0 0 189.12 76.41
  L 195.84 76.41
  A 0.54 0.54 0.0 0 0 196.35 75.70
  L 188.82 52.37
  A 0.54 0.54 0.0 0 0 188.31 52.00
  L 180.01 51.99
  A 0.54 0.54 0.0 0 0 179.49 52.36
  L 171.50 75.67
  A 0.54 0.54 0.0 0 0 172.01 76.39
  L 178.66 76.46
  A 0.54 0.54 0.0 0 0 179.19 76.05
  L 180.20 72.27"
/>
<path stroke="#83b2cb" vector-effect="non-scaling-stroke" d="
  M 176.25 80.66
  C 176.82 80.72 177.56 80.93 178.10 80.92
  Q 178.59 80.91 178.19 80.63
  Q 177.34 80.02 176.22 80.35
  Q 175.47 80.57 176.25 80.66"
/>
<path stroke="#83b2cb" vector-effect="non-scaling-stroke" d="
  M 195.71 81.65
  Q 195.27 83.70 195.42 85.96
  Q 195.51 87.35 194.16 87.70
  Q 193.75 87.81 193.31 87.38
  Q 192.59 86.66 192.59 85.65
  L 192.62 82.21
  A 0.31 0.31 0.0 0 0 192.27 81.90
  L 191.82 81.97
  Q 191.60 82.00 191.58 82.22
  Q 191.36 84.78 191.53 87.01
  Q 191.57 87.46 191.88 87.77
  C 193.64 89.55 196.37 88.74 196.55 86.16
  C 196.68 84.43 196.71 82.06 195.66 80.90
  Q 195.55 80.78 195.59 80.93
  Q 195.63 81.06 195.68 81.19
  Q 195.76 81.41 195.71 81.65"
/>
<path stroke="#83b2cb" vector-effect="non-scaling-stroke" d="
  M 97.62 83.75
  Q 98.07 84.27 98.13 84.96
  Q 98.27 86.61 99.12 87.95
  Q 99.28 88.21 99.59 88.27
  Q 99.71 88.29 99.85 88.30
  Q 100.36 88.32 100.22 87.82
  Q 99.53 85.45 98.64 83.34
  Q 97.29 80.15 96.32 83.47
  Q 95.74 85.46 94.84 87.55
  Q 94.24 88.92 95.46 88.05
  Q 96.37 87.40 96.72 86.35
  C 96.99 85.57 96.88 84.68 97.11 83.87
  Q 97.26 83.35 97.62 83.75"
/>
<path stroke="#83b2cb" vector-effect="non-scaling-stroke" d="
  M 102.99 86.98
  L 105.92 82.66
  A 0.49 0.49 0.0 0 0 105.49 81.89
  L 101.49 82.04
  Q 101.27 82.05 101.28 82.26
  L 101.30 82.77
  Q 101.32 83.03 101.57 83.01
  L 103.78 82.81
  A 0.44 0.43 -74.9 0 1 104.17 83.50
  L 101.09 87.89
  Q 100.75 88.37 101.33 88.43
  Q 103.54 88.66 105.92 88.39
  Q 106.89 88.28 105.98 87.91
  Q 104.77 87.41 103.34 87.57
  Q 102.52 87.67 102.99 86.98"
/>
<path stroke="#83b2cb" vector-effect="non-scaling-stroke" d="
  M 111.37 84.87
  Q 109.25 84.48 107.28 84.79
  Q 106.66 84.88 106.74 85.50
  C 107.33 90.55 113.51 89.02 112.84 84.77
  Q 112.20 80.67 107.87 82.03
  Q 107.68 82.09 107.73 82.28
  L 107.79 82.55
  Q 107.88 82.88 108.21 82.82
  Q 110.54 82.36 111.79 84.21
  A 0.43 0.42 77.8 0 1 111.37 84.87"
/>
<path stroke="#83b2cb" vector-effect="non-scaling-stroke" d="
  M 115.74 85.94
  Q 117.11 86.27 117.48 87.72
  Q 117.63 88.29 118.11 88.66
  Q 118.32 88.83 118.72 88.25
  A 0.56 0.55 41.4 0 0 118.67 87.56
  Q 118.06 86.88 117.84 86.08
  Q 117.71 85.60 117.99 85.18
  Q 119.05 83.58 117.64 82.20
  Q 117.28 81.84 116.77 81.88
  L 114.63 82.05
  Q 113.94 82.11 114.03 82.79
  Q 114.36 85.26 114.15 88.10
  Q 114.12 88.49 114.51 88.50
  L 114.93 88.51
  A 0.40 0.40 0.0 0 0 115.34 88.06
  L 115.13 86.49
  Q 115.03 85.77 115.74 85.94"
/>
<path stroke="#83b2cb" vector-effect="non-scaling-stroke" d="
  M 124.0010 82.7972
  A 1.03 1.03 0.0 0 0 122.9202 81.8206
  L 120.8029 81.9279
  A 1.03 1.03 0.0 0 0 119.8263 83.0087
  L 120.0590 87.6028
  A 1.03 1.03 0.0 0 0 121.1398 88.5794
  L 123.2571 88.4721
  A 1.03 1.03 0.0 0 0 124.2337 87.3913
  L 124.0010 82.7972"
/>
<path stroke="#83b2cb" vector-effect="non-scaling-stroke" d="
  M 129.25 87.53
  Q 129.46 88.27 130.12 88.56
  Q 130.90 88.91 130.73 88.08
  Q 130.08 84.82 128.65 82.12
  A 0.84 0.84 0.0 0 0 127.12 82.24
  L 125.18 87.91
  A 0.52 0.52 0.0 0 0 125.47 88.56
  L 125.79 88.71
  A 0.19 0.18 -68.0 0 0 126.04 88.60
  Q 126.66 86.72 128.44 86.87
  Q 129.08 86.92 129.25 87.53"
/>
<path stroke="#83b2cb" vector-effect="non-scaling-stroke" d="
  M 133.56 84.04
  Q 132.94 84.76 132.68 83.85
  Q 131.77 80.67 130.75 82.15
  A 0.69 0.68 41.9 0 0 130.80 82.98
  Q 132.80 85.34 132.57 87.97
  Q 132.53 88.49 133.05 88.48
  L 133.44 88.46
  Q 133.96 88.45 133.89 87.93
  Q 133.47 85.01 135.54 82.88
  Q 135.99 82.42 135.43 82.10
  Q 135.29 82.02 135.13 82.02
  Q 134.28 82.02 134.12 82.85
  Q 133.99 83.54 133.56 84.04"
/>
<path stroke="#83b2cb" vector-effect="non-scaling-stroke" d="
  M 144.39 86.59
  Q 145.76 86.81 146.62 88.61
  Q 146.69 88.75 146.84 88.71
  L 147.40 88.55
  Q 147.69 88.47 147.59 88.19
  L 145.55 82.37
  A 0.87 0.87 0.0 0 0 143.91 82.35
  L 141.98 87.45
  Q 141.76 88.02 141.20 87.77
  Q 140.57 87.49 139.91 87.61
  C 137.88 87.96 136.60 85.80 137.40 84.01
  Q 137.67 83.41 138.30 83.20
  Q 139.56 82.80 140.77 83.02
  Q 141.29 83.12 141.16 82.61
  L 141.05 82.13
  A 0.45 0.45 0.0 0 0 140.57 81.79
  L 137.91 82.03
  Q 137.35 82.08 137.01 82.53
  C 134.49 86.01 137.21 90.29 141.29 88.21
  Q 141.58 88.07 141.86 88.23
  L 142.08 88.36
  A 0.52 0.52 0.0 0 0 142.83 88.10
  Q 143.10 87.38 143.60 86.85
  Q 143.93 86.51 144.39 86.59"
/>
<path stroke="#83b2cb" vector-effect="non-scaling-stroke" d="
  M 170.25 85.94
  Q 170.77 85.89 171.18 86.20
  C 171.99 86.81 171.82 87.90 173.01 88.56
  Q 173.21 88.67 173.40 88.53
  Q 173.44 88.50 173.46 88.46
  Q 173.63 88.15 173.37 87.91
  Q 171.63 86.21 172.79 84.39
  A 1.70 1.70 0.0 0 0 171.14 81.79
  L 169.28 82.03
  A 0.70 0.69 86.2 0 0 168.68 82.72
  L 168.70 87.21
  Q 168.70 87.86 168.05 87.81
  L 165.58 87.59
  Q 164.88 87.53 164.96 86.83
  L 165.06 86.07
  Q 165.09 85.76 165.41 85.78
  Q 166.22 85.82 166.90 85.59
  Q 167.05 85.54 167.09 85.39
  Q 167.13 85.22 167.07 85.04
  Q 166.95 84.75 166.64 84.76
  L 165.70 84.80
  Q 165.15 84.82 165.01 84.29
  Q 164.83 83.61 165.31 83.16
  Q 165.68 82.82 166.18 82.86
  Q 166.81 82.91 167.25 82.49
  Q 167.85 81.91 167.01 81.87
  L 164.76 81.78
  Q 164.02 81.75 164.00 82.49
  L 163.84 87.99
  Q 163.82 88.66 164.49 88.61
  L 169.49 88.23
  Q 169.93 88.20 169.88 87.76
  L 169.74 86.58
  Q 169.67 86.01 170.25 85.94"
/>
<path stroke="#83b2cb" vector-effect="non-scaling-stroke" d="
  M 175.61 86.24
  L 175.73 82.56
  Q 175.75 81.95 175.14 81.86
  L 174.76 81.81
  Q 174.45 81.76 174.46 82.07
  L 174.50 86.38
  Q 174.52 88.14 176.23 88.55
  Q 176.93 88.71 177.58 88.61
  Q 179.57 88.31 179.67 86.31
  L 179.87 82.48
  A 0.43 0.42 -80.0 0 0 179.58 82.06
  L 179.12 81.91
  A 0.37 0.37 0.0 0 0 178.63 82.25
  L 178.49 86.41
  A 1.26 1.26 0.0 0 1 177.08 87.61
  L 176.74 87.56
  Q 175.57 87.42 175.61 86.24"
/>
<path stroke="#83b2cb" vector-effect="non-scaling-stroke" d="
  M 182.63 82.81
  L 184.51 82.93
  Q 184.78 82.95 184.86 82.68
  L 184.95 82.40
  Q 185.07 82.00 184.66 81.96
  Q 183.74 81.85 182.79 81.83
  C 180.84 81.78 180.46 84.47 182.08 85.28
  Q 183.01 85.75 183.79 86.37
  A 0.65 0.64 52.9 0 1 183.64 87.47
  Q 182.46 87.96 181.32 87.55
  Q 180.89 87.40 180.96 87.84
  L 181.03 88.30
  Q 181.05 88.43 181.17 88.47
  Q 182.91 89.06 184.27 88.26
  A 1.76 1.76 0.0 0 0 184.06 85.12
  Q 182.83 84.60 182.16 83.63
  Q 181.55 82.74 182.63 82.81"
/>
<path stroke="#83b2cb" vector-effect="non-scaling-stroke" d="
  M 187.60 83.70
  L 187.73 88.23
  Q 187.74 88.53 188.04 88.51
  L 188.31 88.49
  Q 188.74 88.47 188.73 88.04
  L 188.70 83.90
  Q 188.70 83.20 189.34 82.92
  L 189.82 82.72
  Q 190.25 82.54 190.11 82.10
  Q 190.05 81.87 189.80 81.89
  Q 188.03 82.03 186.29 81.97
  Q 186.16 81.97 186.05 82.02
  Q 185.79 82.15 185.83 82.32
  Q 185.95 82.79 186.45 82.92
  Q 186.69 82.98 186.92 83.00
  Q 187.58 83.04 187.60 83.70"
/>
<path stroke="#83b2cb" vector-effect="non-scaling-stroke" d="
  M 150.23 83.95
  Q 150.52 84.13 150.51 84.43
  Q 150.50 84.74 150.67 84.99
  L 152.55 87.75
  Q 154.00 89.89 154.28 87.32
  Q 154.55 84.94 154.26 82.38
  Q 154.21 81.96 153.80 82.09
  L 153.48 82.20
  A 0.56 0.56 0.0 0 0 153.09 82.77
  L 153.32 85.74
  Q 153.41 86.85 152.67 86.01
  Q 151.42 84.58 150.68 82.82
  Q 150.21 81.69 149.00 82.01
  Q 148.39 82.17 148.49 82.80
  Q 148.89 85.25 148.53 87.63
  Q 148.45 88.18 149.00 88.26
  L 149.38 88.31
  A 0.45 0.44 2.7 0 0 149.89 87.85
  L 149.72 84.25
  Q 149.69 83.62 150.23 83.95"
/>
<path stroke="#83b2cb" vector-effect="non-scaling-stroke" d="
  M 158.50 83.48
  Q 158.73 84.28 159.07 85.11
  Q 159.45 86.04 159.68 85.06
  Q 160.09 83.27 158.87 82.14
  Q 158.34 81.65 158.13 82.33
  Q 158.00 82.75 158.28 83.08
  Q 158.43 83.26 158.50 83.48"
/>
<path stroke="#83b2cb" vector-effect="non-scaling-stroke" d="
  M 160.57 84.41
  Q 159.35 85.90 159.76 87.68
  Q 160.24 89.75 160.60 87.66
  Q 161.05 85.02 162.78 82.58
  Q 163.20 81.98 162.47 82.02
  Q 161.41 82.09 161.14 83.24
  Q 160.99 83.89 160.57 84.41"
/>
<path stroke="#83b2cb" vector-effect="non-scaling-stroke" d="
  M 193.8738 91.8875
  A 0.36 0.36 0.0 0 0 193.5189 91.5225
  L 193.2189 91.5183
  A 0.36 0.36 0.0 0 0 192.8539 91.8733
  L 192.7462 99.5925
  A 0.36 0.36 0.0 0 0 193.1011 99.9575
  L 193.4011 99.9617
  A 0.36 0.36 0.0 0 0 193.7661 99.6067
  L 193.8738 91.8875"
/>
<path stroke="#83b2cb" vector-effect="non-scaling-stroke" d="
  M 120.23 98.28
  L 120.21 93.02
  Q 120.21 92.82 120.01 92.86
  L 119.58 92.96
  A 0.44 0.43 -3.1 0 0 119.25 93.32
  Q 118.78 96.50 119.09 99.65
  A 0.34 0.34 0.0 0 0 119.46 99.96
  L 124.70 99.52
  Q 124.90 99.51 124.89 99.31
  C 124.82 97.45 125.06 93.45 124.20 91.92
  Q 123.84 91.27 123.74 92.01
  Q 123.27 95.57 123.74 98.48
  Q 123.82 98.99 123.31 98.96
  L 120.77 98.84
  A 0.56 0.56 0.0 0 1 120.23 98.28"
/>
<path stroke="#83b2cb" vector-effect="non-scaling-stroke" d="
  M 181.13 97.78
  L 181.29 93.70
  Q 181.30 93.33 180.93 93.34
  L 180.59 93.36
  A 0.44 0.44 0.0 0 0 180.17 93.78
  L 179.98 99.67
  Q 179.97 99.95 180.25 99.93
  L 185.68 99.47
  Q 185.82 99.46 185.82 99.33
  C 185.80 97.49 186.22 93.48 185.25 91.91
  Q 184.87 91.31 184.78 92.01
  Q 184.39 95.11 184.75 97.85
  Q 184.90 99.00 183.74 98.99
  L 182.27 98.98
  Q 181.08 98.97 181.13 97.78"
/>
<path stroke="#83b2cb" vector-effect="non-scaling-stroke" d="
  M 111.30 97.27
  Q 112.30 100.02 115.21 100.02
  Q 115.76 100.02 116.19 100.36
  Q 116.78 100.83 117.47 100.98
  Q 118.14 101.12 117.89 100.49
  Q 117.74 100.10 117.36 99.90
  Q 116.80 99.60 117.12 99.04
  C 119.96 94.10 114.05 90.55 111.79 95.02
  Q 111.57 95.46 111.73 95.93
  Q 112.13 97.13 111.30 97.27"
/>
<path stroke="#83b2cb" vector-effect="non-scaling-stroke" d="
  M 111.30 97.27
  L 110.36 94.71
  Q 110.18 94.21 109.75 93.90
  C 108.77 93.16 106.88 92.66 105.74 93.42
  Q 105.04 93.89 105.88 93.98
  L 108.28 94.22
  Q 109.03 94.30 109.21 95.03
  L 109.33 95.50
  A 0.35 0.35 0.0 0 1 109.00 95.94
  L 105.30 96.04
  Q 104.37 96.07 104.67 96.95
  L 105.37 98.96
  Q 105.72 99.97 106.79 100.03
  Q 109.86 100.21 110.54 97.51
  Q 110.72 96.81 111.30 97.27"
/>
<path stroke="#83b2cb" vector-effect="non-scaling-stroke" d="
  M 128.07 95.83
  L 127.05 93.48
  Q 126.96 93.27 126.74 93.27
  L 126.25 93.28
  Q 125.73 93.29 125.95 93.76
  L 127.54 97.19
  Q 127.75 97.64 127.72 98.14
  L 127.66 99.18
  Q 127.62 99.74 128.18 99.82
  L 128.50 99.87
  Q 128.91 99.94 128.91 99.52
  Q 128.91 96.77 130.44 94.21
  A 0.70 0.70 0.0 0 1 131.67 94.26
  Q 132.94 96.80 133.09 99.61
  Q 133.10 99.92 133.41 99.87
  L 133.85 99.80
  Q 134.19 99.74 134.09 99.41
  C 133.63 97.82 135.44 95.21 136.27 93.84
  A 0.40 0.40 0.0 0 0 135.95 93.24
  L 135.47 93.21
  A 0.54 0.54 0.0 0 0 134.95 93.53
  L 134.10 95.52
  Q 133.66 96.54 133.32 95.48
  L 132.71 93.60
  A 0.65 0.65 0.0 0 0 132.17 93.16
  Q 131.04 93.04 129.95 93.35
  Q 129.26 93.55 129.22 94.26
  Q 129.17 95.08 128.82 95.84
  Q 128.43 96.67 128.07 95.83"
/>
<path stroke="#83b2cb" vector-effect="non-scaling-stroke" d="
  M 143.45 94.70
  Q 143.04 97.37 143.67 99.70
  Q 143.74 99.93 143.97 99.87
  L 144.73 99.67
  Q 144.84 99.64 144.83 99.52
  L 144.60 95.00
  Q 144.57 94.38 145.20 94.37
  Q 145.91 94.35 146.28 93.74
  Q 146.71 93.02 145.86 93.03
  L 142.00 93.10
  A 0.40 0.40 0.0 0 0 141.69 93.74
  Q 142.19 94.40 143.01 94.27
  Q 143.53 94.19 143.45 94.70"
/>
<path stroke="#83b2cb" vector-effect="non-scaling-stroke" d="
  M 151.90 98.05
  L 152.95 97.99
  Q 153.59 97.95 153.61 98.59
  Q 153.66 99.64 154.58 99.94
  Q 155.34 100.19 155.13 99.41
  Q 154.25 96.08 152.99 93.47
  A 0.85 0.85 0.0 0 0 151.43 93.56
  L 149.32 99.37
  A 0.50 0.49 -4.2 0 0 150.02 99.97
  Q 150.66 99.63 150.83 98.93
  A 1.16 1.16 0.0 0 1 151.90 98.05"
/>
<path stroke="#83b2cb" vector-effect="non-scaling-stroke" d="
  M 158.08 98.81
  C 156.00 96.81 157.37 93.12 160.31 94.18
  Q 160.81 94.36 160.95 93.85
  L 161.03 93.57
  Q 161.11 93.29 160.83 93.22
  C 154.15 91.42 154.38 101.18 159.84 99.98
  A 2.00 1.99 -5.9 0 0 161.41 98.06
  Q 161.45 94.98 158.92 96.31
  A 0.27 0.27 0.0 0 0 158.96 96.81
  L 159.36 96.95
  Q 159.95 97.15 160.11 97.76
  Q 160.33 98.63 159.28 99.04
  A 1.14 1.12 -33.7 0 1 158.08 98.81"
/>
<path stroke="#83b2cb" vector-effect="non-scaling-stroke" d="
  M 164.22 97.15
  L 165.72 97.02
  Q 166.92 96.91 165.88 96.31
  Q 165.30 95.97 164.62 96.05
  A 0.76 0.76 0.0 0 1 163.77 95.29
  L 163.77 94.92
  Q 163.78 94.13 164.57 94.06
  L 165.95 93.94
  Q 166.59 93.89 166.23 93.36
  Q 166.06 93.11 165.77 93.08
  Q 164.54 92.97 163.28 93.21
  A 0.73 0.73 0.0 0 0 162.68 93.93
  L 162.69 99.15
  A 0.77 0.76 -83.9 0 0 163.29 99.90
  Q 165.10 100.28 166.59 99.41
  Q 167.26 99.02 166.49 99.01
  L 164.55 98.98
  Q 163.89 98.97 163.75 98.33
  L 163.66 97.91
  A 0.63 0.63 0.0 0 1 164.22 97.15"
/>
<path stroke="#83b2cb" vector-effect="non-scaling-stroke" d="
  M 176.02 94.55
  L 176.00 99.26
  Q 176.00 99.72 176.47 99.71
  L 176.78 99.71
  A 0.49 0.49 0.0 0 0 177.26 99.21
  L 177.23 94.75
  Q 177.23 94.23 177.75 94.21
  L 178.72 94.18
  Q 179.05 94.17 179.07 93.84
  L 179.08 93.49
  Q 179.10 93.14 178.75 93.10
  Q 176.47 92.86 174.31 93.26
  Q 174.12 93.30 174.02 93.47
  Q 173.99 93.52 174.00 93.58
  Q 174.07 93.96 174.47 93.96
  Q 175.00 93.96 175.49 93.99
  Q 176.02 94.02 176.02 94.55"
/>
<path stroke="#83b2cb" vector-effect="non-scaling-stroke" d="
  M 99.37 95.34
  Q 100.38 96.71 101.17 98.19
  Q 103.55 102.65 103.41 97.59
  Q 103.36 96.00 103.54 93.76
  Q 103.58 93.25 103.08 93.29
  L 102.69 93.33
  Q 102.30 93.36 102.31 93.75
  L 102.35 97.16
  Q 102.37 98.32 101.74 97.34
  L 99.66 94.09
  A 1.61 1.58 -5.3 0 0 98.89 93.46
  L 98.48 93.30
  Q 97.79 93.03 97.79 93.77
  L 97.79 99.52
  Q 97.79 99.93 98.20 99.91
  L 98.48 99.90
  A 0.46 0.46 0.0 0 0 98.91 99.44
  L 98.83 95.53
  Q 98.81 94.58 99.37 95.34"
/>
<path stroke="#83b2cb" vector-effect="non-scaling-stroke" d="
  M 140.27 98.66
  Q 140.37 99.63 141.33 99.89
  Q 142.20 100.12 141.87 99.28
  L 140.03 94.53
  Q 138.84 91.44 137.74 94.56
  Q 136.97 96.75 135.81 99.16
  Q 135.64 99.52 135.91 99.80
  Q 136.05 99.95 136.25 99.92
  Q 136.56 99.88 136.76 99.64
  Q 137.16 99.13 137.42 98.49
  Q 137.63 97.98 138.14 98.17
  Q 138.81 98.41 139.52 98.18
  A 0.58 0.57 -12.1 0 1 140.27 98.66"
/>
<path stroke="#83b2cb" vector-effect="non-scaling-stroke" d="
  M 171.73 97.41
  Q 170.27 95.80 169.48 93.96
  Q 169.34 93.64 169.09 93.43
  Q 168.45 92.91 167.83 93.56
  A 0.72 0.72 0.0 0 0 167.62 94.09
  L 167.73 99.55
  Q 167.73 99.68 167.86 99.71
  L 168.42 99.83
  Q 168.81 99.92 168.80 99.52
  L 168.66 95.99
  Q 168.62 94.98 169.28 95.74
  C 170.19 96.77 170.98 99.05 171.94 99.78
  Q 172.29 100.04 172.74 99.99
  A 0.55 0.54 -4.1 0 0 173.22 99.44
  L 173.07 93.71
  A 0.36 0.35 -89.2 0 0 172.74 93.36
  L 172.47 93.35
  Q 172.05 93.33 172.05 93.75
  L 172.08 97.28
  Q 172.08 97.79 171.73 97.41"
/>
<path stroke="#83b2cb" vector-effect="non-scaling-stroke" d="
  M 189.66 95.35
  Q 188.95 96.43 188.73 95.16
  Q 188.43 93.46 187.04 93.18
  Q 186.39 93.05 186.74 93.61
  Q 188.45 96.40 188.90 99.49
  Q 188.95 99.82 189.28 99.78
  L 189.57 99.74
  Q 190.04 99.69 189.99 99.21
  Q 189.64 96.22 191.73 93.90
  Q 192.29 93.28 191.48 93.13
  Q 191.24 93.09 191.03 93.18
  Q 190.45 93.43 190.26 94.06
  Q 190.04 94.77 189.66 95.35"
/>
<path stroke="#83b2cb" vector-effect="non-scaling-stroke" d="
  M 22.19 66.56
  Q 19.26 69.62 16.55 68.72
  A 1.08 1.08 0.0 0 0 15.48 68.95
  Q 12.86 71.35 10.46 74.06
  Q 9.58 75.05 10.83 74.59
  Q 32.82 66.45 40.18 45.36
  Q 40.81 43.57 39.46 44.90
  L 34.54 49.71
  Q 34.12 50.12 34.19 50.70
  Q 34.27 51.34 34.60 51.84
  Q 34.95 52.38 34.62 52.92
  L 32.29 56.76
  A 0.56 0.56 0.0 0 1 31.30 56.68
  L 29.63 52.66
  Q 29.35 51.99 28.63 51.99
  L 18.65 51.98
  A 0.63 0.62 0.0 0 0 18.02 52.60
  L 18.05 63.47
  A 0.93 0.91 -80.1 0 0 18.65 64.34
  L 21.97 65.59
  Q 22.81 65.91 22.19 66.56"
/>
<path stroke="#83b2cb" vector-effect="non-scaling-stroke" d="
  M 48.76 54.01
  Q 49.44 52.53 49.94 50.95
  Q 50.30 49.79 49.44 48.93
  L 46.10 45.60
  Q 45.33 44.82 44.99 45.86
  Q 36.79 70.60 11.48 79.46
  A 0.19 0.19 0.0 0 0 11.41 79.78
  L 16.05 84.39
  A 0.35 0.35 0.0 0 0 16.42 84.47
  Q 38.74 75.72 48.76 54.01"
/>
<path stroke="#83b2cb" vector-effect="non-scaling-stroke" d="
  M 34.19 98.89
  Q 34.83 99.81 34.40 100.84
  Q 33.76 102.40 35.04 103.62
  Q 37.40 105.86 39.61 108.18
  Q 40.95 109.59 40.33 107.75
  Q 36.32 95.81 27.03 87.78
  A 0.68 0.68 0.0 0 1 27.15 86.67
  L 30.09 85.09
  Q 30.93 84.64 31.61 85.30
  Q 41.23 94.73 45.09 106.97
  Q 45.35 107.80 45.97 107.19
  L 49.78 103.48
  A 1.52 1.51 57.2 0 0 50.13 101.84
  Q 45.41 90.00 36.57 81.27
  Q 36.08 80.79 36.60 80.35
  L 39.13 78.17
  Q 39.69 77.69 40.22 78.20
  Q 49.22 86.92 54.37 99.64
  Q 54.80 100.71 55.96 100.71
  L 65.95 100.72
  A 0.67 0.66 90.0 0 0 66.61 100.05
  L 66.64 89.56
  Q 66.64 88.94 66.07 88.70
  L 62.00 86.98
  A 0.67 0.66 -52.3 0 1 61.86 85.84
  C 63.40 84.68 65.74 82.94 67.70 84.11
  A 1.27 1.26 -51.7 0 0 69.26 83.92
  L 74.57 78.56
  Q 75.78 77.34 74.14 77.84
  Q 61.96 81.51 52.78 91.65
  A 0.17 0.16 52.5 0 1 52.52 91.61
  L 50.32 87.51
  Q 50.23 87.36 50.36 87.23
  Q 59.84 77.19 72.72 73.38
  Q 73.56 73.13 72.94 72.52
  L 68.98 68.59
  A 1.41 1.40 -32.8 0 0 67.49 68.27
  Q 55.57 72.82 46.49 82.04
  Q 46.32 82.22 46.17 82.03
  L 43.48 78.71
  A 0.38 0.37 -42.0 0 1 43.51 78.21
  Q 53.44 68.38 65.83 63.85
  A 1.20 1.20 0.0 0 0 66.61 62.74
  L 66.65 52.58
  A 0.58 0.57 90.0 0 0 66.08 52.00
  L 55.31 51.98
  Q 54.79 51.97 54.59 52.46
  C 47.53 69.53 36.00 81.79 18.77 88.64
  Q 18.05 88.93 18.05 89.71
  L 18.07 100.04
  Q 18.07 100.75 18.79 100.75
  L 28.55 100.73
  Q 29.34 100.72 29.62 99.98
  L 30.94 96.32
  Q 31.43 94.97 32.26 96.15
  L 34.19 98.89"
/>
<path stroke="#83b2cb" vector-effect="non-scaling-stroke" d="
  M 46.27 51.02
  Q 44.85 53.72 43.92 56.18
  Q 43.85 56.37 44.03 56.45
  L 44.04 56.46
  Q 44.24 56.55 44.34 56.36
  Q 45.64 53.92 46.83 51.53
  Q 46.99 51.21 46.66 51.07
  L 46.43 50.96
  Q 46.32 50.92 46.27 51.02"
/>
<path stroke="#83b2cb" vector-effect="non-scaling-stroke" d="
  M 37.1541 66.4877
  A 2.63 0.31 126.0 0 0 38.9508 64.5422
  A 2.63 0.31 126.0 0 0 40.2459 62.2323
  A 2.63 0.31 126.0 0 0 38.4492 64.1778
  A 2.63 0.31 126.0 0 0 37.1541 66.4877"
/>
<path stroke="#83b2cb" vector-effect="non-scaling-stroke" d="
  M 32.6625 71.0912
  A 3.09 0.33 -35.6 0 0 29.9579 72.6217
  A 3.09 0.33 -35.6 0 0 27.6375 74.6888
  A 3.09 0.33 -35.6 0 0 30.3421 73.1583
  A 3.09 0.33 -35.6 0 0 32.6625 71.0912"
/>
<path stroke="#83b2cb" vector-effect="non-scaling-stroke" d="
  M 22.4031 78.2222
  A 3.33 0.33 -25.2 0 0 19.2495 79.3414
  A 3.33 0.33 -25.2 0 0 16.3769 81.0578
  A 3.33 0.33 -25.2 0 0 19.5305 79.9386
  A 3.33 0.33 -25.2 0 0 22.4031 78.2222"
/>
<path stroke="#83b2cb" vector-effect="non-scaling-stroke" d="
  M 53.20 61.24
  A 0.50 0.50 0.0 0 0 52.41 61.36
  L 50.47 64.98
  A 0.50 0.50 0.0 0 0 50.56 65.57
  L 52.76 67.68
  A 0.50 0.50 0.0 0 0 53.34 67.77
  L 56.99 65.89
  A 0.50 0.50 0.0 0 0 57.12 65.09
  L 53.20 61.24"
/>
<path stroke="#83b2cb" vector-effect="non-scaling-stroke" d="
  M 43.7389 74.5679
  A 2.75 0.81 134.9 0 0 46.2538 73.1918
  A 2.75 0.81 134.9 0 0 47.6211 70.6721
  A 2.75 0.81 134.9 0 0 45.1062 72.0482
  A 2.75 0.81 134.9 0 0 43.7389 74.5679"
/>
<path stroke="#83b2cb" vector-effect="non-scaling-stroke" d="
  M 67.1393 71.8317
  A 3.04 0.33 -25.7 0 0 64.2569 72.8526
  A 3.04 0.33 -25.7 0 0 61.6607 74.4683
  A 3.04 0.33 -25.7 0 0 64.5431 73.4474
  A 3.04 0.33 -25.7 0 0 67.1393 71.8317"
/>
<path stroke="#83b2cb" vector-effect="non-scaling-stroke" d="
  M 56.1533 77.8624
  A 3.02 0.35 -38.2 0 0 53.5636 79.4550
  A 3.02 0.35 -38.2 0 0 51.4067 81.5976
  A 3.02 0.35 -38.2 0 0 53.9964 80.0050
  A 3.02 0.35 -38.2 0 0 56.1533 77.8624"
/>
<path stroke="#83b2cb" vector-effect="non-scaling-stroke" d="
  M 40.8521 90.9751
  A 2.94 0.36 50.7 0 0 39.2686 88.4720
  A 2.94 0.36 50.7 0 0 37.1279 86.4249
  A 2.94 0.36 50.7 0 0 38.7114 88.9280
  A 2.94 0.36 50.7 0 0 40.8521 90.9751"
/>
<path stroke="#83b2cb" vector-effect="non-scaling-stroke" d="
  M 46.7866 101.8766
  A 3.05 0.37 63.8 0 0 45.7720 98.9766
  A 3.05 0.37 63.8 0 0 44.0934 96.4034
  A 3.05 0.37 63.8 0 0 45.1080 99.3034
  A 3.05 0.37 63.8 0 0 46.7866 101.8766"
/>
<path stroke="#83b2cb" vector-effect="non-scaling-stroke" d="
  M 104.87 66.33
  A 0.33 0.33 0.0 0 0 105.19 66.74
  L 108.99 66.74
  A 0.33 0.33 0.0 0 0 109.31 66.33
  L 107.41 58.65
  A 0.33 0.33 0.0 0 0 106.77 58.65
  L 104.87 66.33"
/>
<path stroke="#83b2cb" vector-effect="non-scaling-stroke" d="
  M 181.78 66.34
  A 0.32 0.32 0.0 0 0 182.10 66.73
  L 185.79 66.69
  A 0.32 0.32 0.0 0 0 186.10 66.29
  L 184.17 58.54
  A 0.32 0.32 0.0 0 0 183.55 58.55
  L 181.78 66.34"
/>
<path stroke="#83b2cb" vector-effect="non-scaling-stroke" d="
  M 111.62 85.73
  L 108.08 85.65
  A 0.12 0.12 0.0 0 0 107.96 85.77
  L 107.96 85.79
  A 1.84 1.82 1.3 0 0 109.76 87.65
  L 109.86 87.65
  A 1.84 1.82 1.3 0 0 111.74 85.87
  L 111.74 85.85
  A 0.12 0.12 0.0 0 0 111.62 85.73"
/>
<path stroke="#83b2cb" vector-effect="non-scaling-stroke" d="
  M 117.39 83.93
  A 1.13 1.13 0.0 0 0 116.26 82.80
  A 1.13 1.13 0.0 0 0 115.13 83.93
  A 1.13 1.13 0.0 0 0 116.26 85.06
  A 1.13 1.13 0.0 0 0 117.39 83.93"
/>
<path stroke="#83b2cb" vector-effect="non-scaling-stroke" d="
  M 122.09 82.78
  Q 121.01 82.42 120.96 83.55
  Q 120.91 84.45 122.01 84.85
  A 0.97 0.97 0.0 0 0 123.09 84.54
  Q 123.98 83.42 122.09 82.78"
/>
<path stroke="#83b2cb" vector-effect="non-scaling-stroke" d="
  M 121.82 85.67
  Q 121.68 85.58 121.52 85.58
  Q 120.86 85.54 120.97 86.20
  L 121.14 87.17
  Q 121.26 87.85 121.94 87.75
  Q 123.08 87.60 123.39 86.58
  Q 123.58 85.92 122.90 85.83
  L 121.97 85.72
  A 0.40 0.40 0.0 0 1 121.82 85.67"
/>
<path stroke="#83b2cb" vector-effect="non-scaling-stroke" d="
  M 127.70 83.72
  L 127.09 85.44
  Q 126.91 85.94 127.44 85.99
  L 128.53 86.09
  A 0.42 0.41 87.8 0 0 128.97 85.61
  Q 128.80 84.49 128.07 83.65
  A 0.22 0.22 0.0 0 0 127.70 83.72"
/>
<path stroke="#83b2cb" vector-effect="non-scaling-stroke" d="
  M 144.9705 86.4919
  A 1.35 0.69 80.6 0 0 145.4307 85.0473
  A 1.35 0.69 80.6 0 0 144.5295 83.8281
  A 1.35 0.69 80.6 0 0 144.0693 85.2727
  A 1.35 0.69 80.6 0 0 144.9705 86.4919"
/>
<path stroke="#83b2cb" vector-effect="non-scaling-stroke" d="
  M 171.81 83.98
  A 1.11 1.11 0.0 0 0 170.70 82.87
  A 1.11 1.11 0.0 0 0 169.59 83.98
  A 1.11 1.11 0.0 0 0 170.70 85.09
  A 1.11 1.11 0.0 0 0 171.81 83.98"
/>
<path stroke="#83b2cb" vector-effect="non-scaling-stroke" d="
  M 109.3343 97.7615
  A 1.69 1.02 -4.7 0 0 107.5664 96.8834
  A 1.69 1.02 -4.7 0 0 105.9657 98.0385
  A 1.69 1.02 -4.7 0 0 107.7336 98.9166
  A 1.69 1.02 -4.7 0 0 109.3343 97.7615"
/>
<path stroke="#83b2cb" vector-effect="non-scaling-stroke" d="
  M 114.9281 98.9249
  A 2.45 1.99 86.3 0 0 116.7559 96.3516
  A 2.45 1.99 86.3 0 0 114.6119 94.0351
  A 2.45 1.99 86.3 0 0 112.7841 96.6084
  A 2.45 1.99 86.3 0 0 114.9281 98.9249"
/>
<path stroke="#83b2cb" vector-effect="non-scaling-stroke" d="
  M 151.47 96.70
  Q 151.22 97.38 151.94 97.30
  L 152.69 97.21
  Q 153.39 97.13 153.14 96.47
  L 152.65 95.19
  Q 152.32 94.32 152.00 95.20
  L 151.47 96.70"
/>
<path stroke="#83b2cb" vector-effect="non-scaling-stroke" d="
  M 138.87 97.37
  Q 139.11 97.41 139.35 97.33
  Q 139.92 97.16 139.69 96.61
  L 139.28 95.56
  Q 139.00 94.87 138.58 95.49
  Q 138.10 96.21 138.11 97.17
  Q 138.11 97.61 138.54 97.57
  Q 138.75 97.56 138.87 97.37"
/>
</g>
<path fill="#ffffff" d="
  M 0.00 0.00
  L 200.00 0.00
  L 200.00 142.00
  L 0.00 142.00
  L 0.00 0.00
  Z
  M 71.44 88.64
  A 0.67 0.67 0.0 0 1 71.64 88.16
  L 83.03 76.89
  A 0.67 0.67 0.0 0 0 83.04 75.94
  L 71.62 64.45
  A 0.67 0.67 0.0 0 1 71.43 63.97
  L 71.40 47.91
  A 0.67 0.67 0.0 0 0 70.73 47.24
  L 54.72 47.24
  A 0.67 0.67 0.0 0 1 54.24 47.04
  L 42.84 35.56
  A 0.67 0.67 0.0 0 0 41.88 35.56
  L 30.52 47.02
  A 0.67 0.67 0.0 0 1 30.04 47.22
  L 13.96 47.24
  A 0.67 0.67 0.0 0 0 13.29 47.91
  L 13.32 63.96
  A 0.67 0.67 0.0 0 1 13.12 64.44
  L 1.71 75.92
  A 0.67 0.67 0.0 0 0 1.71 76.86
  L 13.07 88.21
  A 0.67 0.67 0.0 0 1 13.27 88.69
  L 13.32 104.83
  A 0.67 0.67 0.0 0 0 13.99 105.50
  L 30.09 105.50
  A 0.67 0.67 0.0 0 1 30.57 105.70
  L 41.86 117.18
  A 0.67 0.67 0.0 0 0 42.81 117.18
  L 54.26 105.68
  A 0.67 0.67 0.0 0 1 54.74 105.48
  L 70.76 105.54
  A 0.67 0.67 0.0 0 0 71.43 104.87
  L 71.44 88.64
  Z
  M 132.23 60.72
  Q 131.87 61.81 131.52 60.72
  L 128.80 52.34
  A 0.49 0.48 -9.2 0 0 128.34 52.01
  L 120.53 51.94
  A 0.18 0.17 -12.7 0 0 120.37 52.19
  Q 123.22 58.53 126.66 65.63
  C 128.27 68.97 127.68 72.59 127.79 76.13
  Q 127.80 76.43 128.10 76.43
  L 134.75 76.36
  A 0.39 0.39 0.0 0 0 135.14 75.93
  Q 134.48 69.13 135.93 66.12
  Q 139.19 59.33 142.70 52.21
  A 0.17 0.17 0.0 0 0 142.55 51.97
  L 135.46 51.92
  A 0.48 0.47 -80.6 0 0 135.01 52.25
  L 132.23 60.72
  Z
  M 161.39 64.66
  L 153.07 53.19
  A 2.90 2.88 72.2 0 0 150.75 51.99
  L 145.59 51.95
  A 0.34 0.33 90.0 0 0 145.26 52.29
  L 145.23 75.95
  Q 145.23 76.42 145.70 76.42
  L 151.41 76.43
  Q 152.01 76.43 152.00 75.84
  L 151.99 62.87
  Q 151.99 62.24 152.36 62.75
  Q 157.02 69.32 161.54 75.61
  Q 162.02 76.28 162.83 76.33
  Q 165.51 76.49 167.95 76.46
  A 0.67 0.66 90.0 0 0 168.61 75.79
  L 168.63 52.82
  Q 168.63 52.01 167.82 52.01
  L 162.39 51.97
  Q 161.75 51.96 161.75 52.61
  L 161.84 64.51
  Q 161.85 65.29 161.39 64.66
  Z
  M 110.20 71.88
  A 0.66 0.66 0.0 0 1 110.83 72.37
  L 111.76 75.91
  A 0.66 0.66 0.0 0 0 112.39 76.40
  L 118.89 76.45
  A 0.66 0.66 0.0 0 0 119.52 75.59
  L 112.03 52.46
  A 0.66 0.66 0.0 0 0 111.40 52.00
  L 103.27 51.99
  A 0.66 0.66 0.0 0 0 102.65 52.44
  L 94.73 75.64
  A 0.66 0.66 0.0 0 0 95.37 76.51
  L 102.00 76.31
  A 0.66 0.66 0.0 0 0 102.63 75.77
  L 103.30 72.29
  A 0.66 0.66 0.0 0 1 103.96 71.76
  L 110.20 71.88
  Z
  M 180.20 72.27
  A 0.54 0.54 0.0 0 1 180.71 71.87
  L 187.14 71.74
  A 0.54 0.54 0.0 0 1 187.68 72.15
  L 188.59 75.99
  A 0.54 0.54 0.0 0 0 189.12 76.41
  L 195.84 76.41
  A 0.54 0.54 0.0 0 0 196.35 75.70
  L 188.82 52.37
  A 0.54 0.54 0.0 0 0 188.31 52.00
  L 180.01 51.99
  A 0.54 0.54 0.0 0 0 179.49 52.36
  L 171.50 75.67
  A 0.54 0.54 0.0 0 0 172.01 76.39
  L 178.66 76.46
  A 0.54 0.54 0.0 0 0 179.19 76.05
  L 180.20 72.27
  Z
  M 176.25 80.66
  C 176.82 80.72 177.56 80.93 178.10 80.92
  Q 178.59 80.91 178.19 80.63
  Q 177.34 80.02 176.22 80.35
  Q 175.47 80.57 176.25 80.66
  Z
  M 195.71 81.65
  Q 195.27 83.70 195.42 85.96
  Q 195.51 87.35 194.16 87.70
  Q 193.75 87.81 193.31 87.38
  Q 192.59 86.66 192.59 85.65
  L 192.62 82.21
  A 0.31 0.31 0.0 0 0 192.27 81.90
  L 191.82 81.97
  Q 191.60 82.00 191.58 82.22
  Q 191.36 84.78 191.53 87.01
  Q 191.57 87.46 191.88 87.77
  C 193.64 89.55 196.37 88.74 196.55 86.16
  C 196.68 84.43 196.71 82.06 195.66 80.90
  Q 195.55 80.78 195.59 80.93
  Q 195.63 81.06 195.68 81.19
  Q 195.76 81.41 195.71 81.65
  Z
  M 97.62 83.75
  Q 98.07 84.27 98.13 84.96
  Q 98.27 86.61 99.12 87.95
  Q 99.28 88.21 99.59 88.27
  Q 99.71 88.29 99.85 88.30
  Q 100.36 88.32 100.22 87.82
  Q 99.53 85.45 98.64 83.34
  Q 97.29 80.15 96.32 83.47
  Q 95.74 85.46 94.84 87.55
  Q 94.24 88.92 95.46 88.05
  Q 96.37 87.40 96.72 86.35
  C 96.99 85.57 96.88 84.68 97.11 83.87
  Q 97.26 83.35 97.62 83.75
  Z
  M 102.99 86.98
  L 105.92 82.66
  A 0.49 0.49 0.0 0 0 105.49 81.89
  L 101.49 82.04
  Q 101.27 82.05 101.28 82.26
  L 101.30 82.77
  Q 101.32 83.03 101.57 83.01
  L 103.78 82.81
  A 0.44 0.43 -74.9 0 1 104.17 83.50
  L 101.09 87.89
  Q 100.75 88.37 101.33 88.43
  Q 103.54 88.66 105.92 88.39
  Q 106.89 88.28 105.98 87.91
  Q 104.77 87.41 103.34 87.57
  Q 102.52 87.67 102.99 86.98
  Z
  M 111.37 84.87
  Q 109.25 84.48 107.28 84.79
  Q 106.66 84.88 106.74 85.50
  C 107.33 90.55 113.51 89.02 112.84 84.77
  Q 112.20 80.67 107.87 82.03
  Q 107.68 82.09 107.73 82.28
  L 107.79 82.55
  Q 107.88 82.88 108.21 82.82
  Q 110.54 82.36 111.79 84.21
  A 0.43 0.42 77.8 0 1 111.37 84.87
  Z
  M 115.74 85.94
  Q 117.11 86.27 117.48 87.72
  Q 117.63 88.29 118.11 88.66
  Q 118.32 88.83 118.72 88.25
  A 0.56 0.55 41.4 0 0 118.67 87.56
  Q 118.06 86.88 117.84 86.08
  Q 117.71 85.60 117.99 85.18
  Q 119.05 83.58 117.64 82.20
  Q 117.28 81.84 116.77 81.88
  L 114.63 82.05
  Q 113.94 82.11 114.03 82.79
  Q 114.36 85.26 114.15 88.10
  Q 114.12 88.49 114.51 88.50
  L 114.93 88.51
  A 0.40 0.40 0.0 0 0 115.34 88.06
  L 115.13 86.49
  Q 115.03 85.77 115.74 85.94
  Z
  M 124.0010 82.7972
  A 1.03 1.03 0.0 0 0 122.9202 81.8206
  L 120.8029 81.9279
  A 1.03 1.03 0.0 0 0 119.8263 83.0087
  L 120.0590 87.6028
  A 1.03 1.03 0.0 0 0 121.1398 88.5794
  L 123.2571 88.4721
  A 1.03 1.03 0.0 0 0 124.2337 87.3913
  L 124.0010 82.7972
  Z
  M 129.25 87.53
  Q 129.46 88.27 130.12 88.56
  Q 130.90 88.91 130.73 88.08
  Q 130.08 84.82 128.65 82.12
  A 0.84 0.84 0.0 0 0 127.12 82.24
  L 125.18 87.91
  A 0.52 0.52 0.0 0 0 125.47 88.56
  L 125.79 88.71
  A 0.19 0.18 -68.0 0 0 126.04 88.60
  Q 126.66 86.72 128.44 86.87
  Q 129.08 86.92 129.25 87.53
  Z
  M 133.56 84.04
  Q 132.94 84.76 132.68 83.85
  Q 131.77 80.67 130.75 82.15
  A 0.69 0.68 41.9 0 0 130.80 82.98
  Q 132.80 85.34 132.57 87.97
  Q 132.53 88.49 133.05 88.48
  L 133.44 88.46
  Q 133.96 88.45 133.89 87.93
  Q 133.47 85.01 135.54 82.88
  Q 135.99 82.42 135.43 82.10
  Q 135.29 82.02 135.13 82.02
  Q 134.28 82.02 134.12 82.85
  Q 133.99 83.54 133.56 84.04
  Z
  M 144.39 86.59
  Q 145.76 86.81 146.62 88.61
  Q 146.69 88.75 146.84 88.71
  L 147.40 88.55
  Q 147.69 88.47 147.59 88.19
  L 145.55 82.37
  A 0.87 0.87 0.0 0 0 143.91 82.35
  L 141.98 87.45
  Q 141.76 88.02 141.20 87.77
  Q 140.57 87.49 139.91 87.61
  C 137.88 87.96 136.60 85.80 137.40 84.01
  Q 137.67 83.41 138.30 83.20
  Q 139.56 82.80 140.77 83.02
  Q 141.29 83.12 141.16 82.61
  L 141.05 82.13
  A 0.45 0.45 0.0 0 0 140.57 81.79
  L 137.91 82.03
  Q 137.35 82.08 137.01 82.53
  C 134.49 86.01 137.21 90.29 141.29 88.21
  Q 141.58 88.07 141.86 88.23
  L 142.08 88.36
  A 0.52 0.52 0.0 0 0 142.83 88.10
  Q 143.10 87.38 143.60 86.85
  Q 143.93 86.51 144.39 86.59
  Z
  M 170.25 85.94
  Q 170.77 85.89 171.18 86.20
  C 171.99 86.81 171.82 87.90 173.01 88.56
  Q 173.21 88.67 173.40 88.53
  Q 173.44 88.50 173.46 88.46
  Q 173.63 88.15 173.37 87.91
  Q 171.63 86.21 172.79 84.39
  A 1.70 1.70 0.0 0 0 171.14 81.79
  L 169.28 82.03
  A 0.70 0.69 86.2 0 0 168.68 82.72
  L 168.70 87.21
  Q 168.70 87.86 168.05 87.81
  L 165.58 87.59
  Q 164.88 87.53 164.96 86.83
  L 165.06 86.07
  Q 165.09 85.76 165.41 85.78
  Q 166.22 85.82 166.90 85.59
  Q 167.05 85.54 167.09 85.39
  Q 167.13 85.22 167.07 85.04
  Q 166.95 84.75 166.64 84.76
  L 165.70 84.80
  Q 165.15 84.82 165.01 84.29
  Q 164.83 83.61 165.31 83.16
  Q 165.68 82.82 166.18 82.86
  Q 166.81 82.91 167.25 82.49
  Q 167.85 81.91 167.01 81.87
  L 164.76 81.78
  Q 164.02 81.75 164.00 82.49
  L 163.84 87.99
  Q 163.82 88.66 164.49 88.61
  L 169.49 88.23
  Q 169.93 88.20 169.88 87.76
  L 169.74 86.58
  Q 169.67 86.01 170.25 85.94
  Z
  M 175.61 86.24
  L 175.73 82.56
  Q 175.75 81.95 175.14 81.86
  L 174.76 81.81
  Q 174.45 81.76 174.46 82.07
  L 174.50 86.38
  Q 174.52 88.14 176.23 88.55
  Q 176.93 88.71 177.58 88.61
  Q 179.57 88.31 179.67 86.31
  L 179.87 82.48
  A 0.43 0.42 -80.0 0 0 179.58 82.06
  L 179.12 81.91
  A 0.37 0.37 0.0 0 0 178.63 82.25
  L 178.49 86.41
  A 1.26 1.26 0.0 0 1 177.08 87.61
  L 176.74 87.56
  Q 175.57 87.42 175.61 86.24
  Z
  M 182.63 82.81
  L 184.51 82.93
  Q 184.78 82.95 184.86 82.68
  L 184.95 82.40
  Q 185.07 82.00 184.66 81.96
  Q 183.74 81.85 182.79 81.83
  C 180.84 81.78 180.46 84.47 182.08 85.28
  Q 183.01 85.75 183.79 86.37
  A 0.65 0.64 52.9 0 1 183.64 87.47
  Q 182.46 87.96 181.32 87.55
  Q 180.89 87.40 180.96 87.84
  L 181.03 88.30
  Q 181.05 88.43 181.17 88.47
  Q 182.91 89.06 184.27 88.26
  A 1.76 1.76 0.0 0 0 184.06 85.12
  Q 182.83 84.60 182.16 83.63
  Q 181.55 82.74 182.63 82.81
  Z
  M 187.60 83.70
  L 187.73 88.23
  Q 187.74 88.53 188.04 88.51
  L 188.31 88.49
  Q 188.74 88.47 188.73 88.04
  L 188.70 83.90
  Q 188.70 83.20 189.34 82.92
  L 189.82 82.72
  Q 190.25 82.54 190.11 82.10
  Q 190.05 81.87 189.80 81.89
  Q 188.03 82.03 186.29 81.97
  Q 186.16 81.97 186.05 82.02
  Q 185.79 82.15 185.83 82.32
  Q 185.95 82.79 186.45 82.92
  Q 186.69 82.98 186.92 83.00
  Q 187.58 83.04 187.60 83.70
  Z
  M 150.23 83.95
  Q 150.52 84.13 150.51 84.43
  Q 150.50 84.74 150.67 84.99
  L 152.55 87.75
  Q 154.00 89.89 154.28 87.32
  Q 154.55 84.94 154.26 82.38
  Q 154.21 81.96 153.80 82.09
  L 153.48 82.20
  A 0.56 0.56 0.0 0 0 153.09 82.77
  L 153.32 85.74
  Q 153.41 86.85 152.67 86.01
  Q 151.42 84.58 150.68 82.82
  Q 150.21 81.69 149.00 82.01
  Q 148.39 82.17 148.49 82.80
  Q 148.89 85.25 148.53 87.63
  Q 148.45 88.18 149.00 88.26
  L 149.38 88.31
  A 0.45 0.44 2.7 0 0 149.89 87.85
  L 149.72 84.25
  Q 149.69 83.62 150.23 83.95
  Z
  M 158.50 83.48
  Q 158.73 84.28 159.07 85.11
  Q 159.45 86.04 159.68 85.06
  Q 160.09 83.27 158.87 82.14
  Q 158.34 81.65 158.13 82.33
  Q 158.00 82.75 158.28 83.08
  Q 158.43 83.26 158.50 83.48
  Z
  M 160.57 84.41
  Q 159.35 85.90 159.76 87.68
  Q 160.24 89.75 160.60 87.66
  Q 161.05 85.02 162.78 82.58
  Q 163.20 81.98 162.47 82.02
  Q 161.41 82.09 161.14 83.24
  Q 160.99 83.89 160.57 84.41
  Z
  M 193.8738 91.8875
  A 0.36 0.36 0.0 0 0 193.5189 91.5225
  L 193.2189 91.5183
  A 0.36 0.36 0.0 0 0 192.8539 91.8733
  L 192.7462 99.5925
  A 0.36 0.36 0.0 0 0 193.1011 99.9575
  L 193.4011 99.9617
  A 0.36 0.36 0.0 0 0 193.7661 99.6067
  L 193.8738 91.8875
  Z
  M 120.23 98.28
  L 120.21 93.02
  Q 120.21 92.82 120.01 92.86
  L 119.58 92.96
  A 0.44 0.43 -3.1 0 0 119.25 93.32
  Q 118.78 96.50 119.09 99.65
  A 0.34 0.34 0.0 0 0 119.46 99.96
  L 124.70 99.52
  Q 124.90 99.51 124.89 99.31
  C 124.82 97.45 125.06 93.45 124.20 91.92
  Q 123.84 91.27 123.74 92.01
  Q 123.27 95.57 123.74 98.48
  Q 123.82 98.99 123.31 98.96
  L 120.77 98.84
  A 0.56 0.56 0.0 0 1 120.23 98.28
  Z
  M 181.13 97.78
  L 181.29 93.70
  Q 181.30 93.33 180.93 93.34
  L 180.59 93.36
  A 0.44 0.44 0.0 0 0 180.17 93.78
  L 179.98 99.67
  Q 179.97 99.95 180.25 99.93
  L 185.68 99.47
  Q 185.82 99.46 185.82 99.33
  C 185.80 97.49 186.22 93.48 185.25 91.91
  Q 184.87 91.31 184.78 92.01
  Q 184.39 95.11 184.75 97.85
  Q 184.90 99.00 183.74 98.99
  L 182.27 98.98
  Q 181.08 98.97 181.13 97.78
  Z
  M 111.30 97.27
  Q 112.30 100.02 115.21 100.02
  Q 115.76 100.02 116.19 100.36
  Q 116.78 100.83 117.47 100.98
  Q 118.14 101.12 117.89 100.49
  Q 117.74 100.10 117.36 99.90
  Q 116.80 99.60 117.12 99.04
  C 119.96 94.10 114.05 90.55 111.79 95.02
  Q 111.57 95.46 111.73 95.93
  Q 112.13 97.13 111.30 97.27
  L 110.36 94.71
  Q 110.18 94.21 109.75 93.90
  C 108.77 93.16 106.88 92.66 105.74 93.42
  Q 105.04 93.89 105.88 93.98
  L 108.28 94.22
  Q 109.03 94.30 109.21 95.03
  L 109.33 95.50
  A 0.35 0.35 0.0 0 1 109.00 95.94
  L 105.30 96.04
  Q 104.37 96.07 104.67 96.95
  L 105.37 98.96
  Q 105.72 99.97 106.79 100.03
  Q 109.86 100.21 110.54 97.51
  Q 110.72 96.81 111.30 97.27
  Z
  M 128.07 95.83
  L 127.05 93.48
  Q 126.96 93.27 126.74 93.27
  L 126.25 93.28
  Q 125.73 93.29 125.95 93.76
  L 127.54 97.19
  Q 127.75 97.64 127.72 98.14
  L 127.66 99.18
  Q 127.62 99.74 128.18 99.82
  L 128.50 99.87
  Q 128.91 99.94 128.91 99.52
  Q 128.91 96.77 130.44 94.21
  A 0.70 0.70 0.0 0 1 131.67 94.26
  Q 132.94 96.80 133.09 99.61
  Q 133.10 99.92 133.41 99.87
  L 133.85 99.80
  Q 134.19 99.74 134.09 99.41
  C 133.63 97.82 135.44 95.21 136.27 93.84
  A 0.40 0.40 0.0 0 0 135.95 93.24
  L 135.47 93.21
  A 0.54 0.54 0.0 0 0 134.95 93.53
  L 134.10 95.52
  Q 133.66 96.54 133.32 95.48
  L 132.71 93.60
  A 0.65 0.65 0.0 0 0 132.17 93.16
  Q 131.04 93.04 129.95 93.35
  Q 129.26 93.55 129.22 94.26
  Q 129.17 95.08 128.82 95.84
  Q 128.43 96.67 128.07 95.83
  Z
  M 143.45 94.70
  Q 143.04 97.37 143.67 99.70
  Q 143.74 99.93 143.97 99.87
  L 144.73 99.67
  Q 144.84 99.64 144.83 99.52
  L 144.60 95.00
  Q 144.57 94.38 145.20 94.37
  Q 145.91 94.35 146.28 93.74
  Q 146.71 93.02 145.86 93.03
  L 142.00 93.10
  A 0.40 0.40 0.0 0 0 141.69 93.74
  Q 142.19 94.40 143.01 94.27
  Q 143.53 94.19 143.45 94.70
  Z
  M 151.90 98.05
  L 152.95 97.99
  Q 153.59 97.95 153.61 98.59
  Q 153.66 99.64 154.58 99.94
  Q 155.34 100.19 155.13 99.41
  Q 154.25 96.08 152.99 93.47
  A 0.85 0.85 0.0 0 0 151.43 93.56
  L 149.32 99.37
  A 0.50 0.49 -4.2 0 0 150.02 99.97
  Q 150.66 99.63 150.83 98.93
  A 1.16 1.16 0.0 0 1 151.90 98.05
  Z
  M 158.08 98.81
  C 156.00 96.81 157.37 93.12 160.31 94.18
  Q 160.81 94.36 160.95 93.85
  L 161.03 93.57
  Q 161.11 93.29 160.83 93.22
  C 154.15 91.42 154.38 101.18 159.84 99.98
  A 2.00 1.99 -5.9 0 0 161.41 98.06
  Q 161.45 94.98 158.92 96.31
  A 0.27 0.27 0.0 0 0 158.96 96.81
  L 159.36 96.95
  Q 159.95 97.15 160.11 97.76
  Q 160.33 98.63 159.28 99.04
  A 1.14 1.12 -33.7 0 1 158.08 98.81
  Z
  M 164.22 97.15
  L 165.72 97.02
  Q 166.92 96.91 165.88 96.31
  Q 165.30 95.97 164.62 96.05
  A 0.76 0.76 0.0 0 1 163.77 95.29
  L 163.77 94.92
  Q 163.78 94.13 164.57 94.06
  L 165.95 93.94
  Q 166.59 93.89 166.23 93.36
  Q 166.06 93.11 165.77 93.08
  Q 164.54 92.97 163.28 93.21
  A 0.73 0.73 0.0 0 0 162.68 93.93
  L 162.69 99.15
  A 0.77 0.76 -83.9 0 0 163.29 99.90
  Q 165.10 100.28 166.59 99.41
  Q 167.26 99.02 166.49 99.01
  L 164.55 98.98
  Q 163.89 98.97 163.75 98.33
  L 163.66 97.91
  A 0.63 0.63 0.0 0 1 164.22 97.15
  Z
  M 176.02 94.55
  L 176.00 99.26
  Q 176.00 99.72 176.47 99.71
  L 176.78 99.71
  A 0.49 0.49 0.0 0 0 177.26 99.21
  L 177.23 94.75
  Q 177.23 94.23 177.75 94.21
  L 178.72 94.18
  Q 179.05 94.17 179.07 93.84
  L 179.08 93.49
  Q 179.10 93.14 178.75 93.10
  Q 176.47 92.86 174.31 93.26
  Q 174.12 93.30 174.02 93.47
  Q 173.99 93.52 174.00 93.58
  Q 174.07 93.96 174.47 93.96
  Q 175.00 93.96 175.49 93.99
  Q 176.02 94.02 176.02 94.55
  Z
  M 99.37 95.34
  Q 100.38 96.71 101.17 98.19
  Q 103.55 102.65 103.41 97.59
  Q 103.36 96.00 103.54 93.76
  Q 103.58 93.25 103.08 93.29
  L 102.69 93.33
  Q 102.30 93.36 102.31 93.75
  L 102.35 97.16
  Q 102.37 98.32 101.74 97.34
  L 99.66 94.09
  A 1.61 1.58 -5.3 0 0 98.89 93.46
  L 98.48 93.30
  Q 97.79 93.03 97.79 93.77
  L 97.79 99.52
  Q 97.79 99.93 98.20 99.91
  L 98.48 99.90
  A 0.46 0.46 0.0 0 0 98.91 99.44
  L 98.83 95.53
  Q 98.81 94.58 99.37 95.34
  Z
  M 140.27 98.66
  Q 140.37 99.63 141.33 99.89
  Q 142.20 100.12 141.87 99.28
  L 140.03 94.53
  Q 138.84 91.44 137.74 94.56
  Q 136.97 96.75 135.81 99.16
  Q 135.64 99.52 135.91 99.80
  Q 136.05 99.95 136.25 99.92
  Q 136.56 99.88 136.76 99.64
  Q 137.16 99.13 137.42 98.49
  Q 137.63 97.98 138.14 98.17
  Q 138.81 98.41 139.52 98.18
  A 0.58 0.57 -12.1 0 1 140.27 98.66
  Z
  M 171.73 97.41
  Q 170.27 95.80 169.48 93.96
  Q 169.34 93.64 169.09 93.43
  Q 168.45 92.91 167.83 93.56
  A 0.72 0.72 0.0 0 0 167.62 94.09
  L 167.73 99.55
  Q 167.73 99.68 167.86 99.71
  L 168.42 99.83
  Q 168.81 99.92 168.80 99.52
  L 168.66 95.99
  Q 168.62 94.98 169.28 95.74
  C 170.19 96.77 170.98 99.05 171.94 99.78
  Q 172.29 100.04 172.74 99.99
  A 0.55 0.54 -4.1 0 0 173.22 99.44
  L 173.07 93.71
  A 0.36 0.35 -89.2 0 0 172.74 93.36
  L 172.47 93.35
  Q 172.05 93.33 172.05 93.75
  L 172.08 97.28
  Q 172.08 97.79 171.73 97.41
  Z
  M 189.66 95.35
  Q 188.95 96.43 188.73 95.16
  Q 188.43 93.46 187.04 93.18
  Q 186.39 93.05 186.74 93.61
  Q 188.45 96.40 188.90 99.49
  Q 188.95 99.82 189.28 99.78
  L 189.57 99.74
  Q 190.04 99.69 189.99 99.21
  Q 189.64 96.22 191.73 93.90
  Q 192.29 93.28 191.48 93.13
  Q 191.24 93.09 191.03 93.18
  Q 190.45 93.43 190.26 94.06
  Q 190.04 94.77 189.66 95.35
  Z"
/>
<path fill="#076497" d="
  M 71.44 88.64
  L 71.43 104.87
  A 0.67 0.67 0.0 0 1 70.76 105.54
  L 54.74 105.48
  A 0.67 0.67 0.0 0 0 54.26 105.68
  L 42.81 117.18
  A 0.67 0.67 0.0 0 1 41.86 117.18
  L 30.57 105.70
  A 0.67 0.67 0.0 0 0 30.09 105.50
  L 13.99 105.50
  A 0.67 0.67 0.0 0 1 13.32 104.83
  L 13.27 88.69
  A 0.67 0.67 0.0 0 0 13.07 88.21
  L 1.71 76.86
  A 0.67 0.67 0.0 0 1 1.71 75.92
  L 13.12 64.44
  A 0.67 0.67 0.0 0 0 13.32 63.96
  L 13.29 47.91
  A 0.67 0.67 0.0 0 1 13.96 47.24
  L 30.04 47.22
  A 0.67 0.67 0.0 0 0 30.52 47.02
  L 41.88 35.56
  A 0.67 0.67 0.0 0 1 42.84 35.56
  L 54.24 47.04
  A 0.67 0.67 0.0 0 0 54.72 47.24
  L 70.73 47.24
  A 0.67 0.67 0.0 0 1 71.40 47.91
  L 71.43 63.97
  A 0.67 0.67 0.0 0 0 71.62 64.45
  L 83.04 75.94
  A 0.67 0.67 0.0 0 1 83.03 76.89
  L 71.64 88.16
  A 0.67 0.67 0.0 0 0 71.44 88.64
  Z
  M 22.19 66.56
  Q 19.26 69.62 16.55 68.72
  A 1.08 1.08 0.0 0 0 15.48 68.95
  Q 12.86 71.35 10.46 74.06
  Q 9.58 75.05 10.83 74.59
  Q 32.82 66.45 40.18 45.36
  Q 40.81 43.57 39.46 44.90
  L 34.54 49.71
  Q 34.12 50.12 34.19 50.70
  Q 34.27 51.34 34.60 51.84
  Q 34.95 52.38 34.62 52.92
  L 32.29 56.76
  A 0.56 0.56 0.0 0 1 31.30 56.68
  L 29.63 52.66
  Q 29.35 51.99 28.63 51.99
  L 18.65 51.98
  A 0.63 0.62 0.0 0 0 18.02 52.60
  L 18.05 63.47
  A 0.93 0.91 -80.1 0 0 18.65 64.34
  L 21.97 65.59
  Q 22.81 65.91 22.19 66.56
  Z
  M 48.76 54.01
  Q 49.44 52.53 49.94 50.95
  Q 50.30 49.79 49.44 48.93
  L 46.10 45.60
  Q 45.33 44.82 44.99 45.86
  Q 36.79 70.60 11.48 79.46
  A 0.19 0.19 0.0 0 0 11.41 79.78
  L 16.05 84.39
  A 0.35 0.35 0.0 0 0 16.42 84.47
  Q 38.74 75.72 48.76 54.01
  Z
  M 34.19 98.89
  Q 34.83 99.81 34.40 100.84
  Q 33.76 102.40 35.04 103.62
  Q 37.40 105.86 39.61 108.18
  Q 40.95 109.59 40.33 107.75
  Q 36.32 95.81 27.03 87.78
  A 0.68 0.68 0.0 0 1 27.15 86.67
  L 30.09 85.09
  Q 30.93 84.64 31.61 85.30
  Q 41.23 94.73 45.09 106.97
  Q 45.35 107.80 45.97 107.19
  L 49.78 103.48
  A 1.52 1.51 57.2 0 0 50.13 101.84
  Q 45.41 90.00 36.57 81.27
  Q 36.08 80.79 36.60 80.35
  L 39.13 78.17
  Q 39.69 77.69 40.22 78.20
  Q 49.22 86.92 54.37 99.64
  Q 54.80 100.71 55.96 100.71
  L 65.95 100.72
  A 0.67 0.66 90.0 0 0 66.61 100.05
  L 66.64 89.56
  Q 66.64 88.94 66.07 88.70
  L 62.00 86.98
  A 0.67 0.66 -52.3 0 1 61.86 85.84
  C 63.40 84.68 65.74 82.94 67.70 84.11
  A 1.27 1.26 -51.7 0 0 69.26 83.92
  L 74.57 78.56
  Q 75.78 77.34 74.14 77.84
  Q 61.96 81.51 52.78 91.65
  A 0.17 0.16 52.5 0 1 52.52 91.61
  L 50.32 87.51
  Q 50.23 87.36 50.36 87.23
  Q 59.84 77.19 72.72 73.38
  Q 73.56 73.13 72.94 72.52
  L 68.98 68.59
  A 1.41 1.40 -32.8 0 0 67.49 68.27
  Q 55.57 72.82 46.49 82.04
  Q 46.32 82.22 46.17 82.03
  L 43.48 78.71
  A 0.38 0.37 -42.0 0 1 43.51 78.21
  Q 53.44 68.38 65.83 63.85
  A 1.20 1.20 0.0 0 0 66.61 62.74
  L 66.65 52.58
  A 0.58 0.57 90.0 0 0 66.08 52.00
  L 55.31 51.98
  Q 54.79 51.97 54.59 52.46
  C 47.53 69.53 36.00 81.79 18.77 88.64
  Q 18.05 88.93 18.05 89.71
  L 18.07 100.04
  Q 18.07 100.75 18.79 100.75
  L 28.55 100.73
  Q 29.34 100.72 29.62 99.98
  L 30.94 96.32
  Q 31.43 94.97 32.26 96.15
  L 34.19 98.89
  Z"
/>
<path fill="#ffffff" d="
  M 21.97 65.59
  L 18.65 64.34
  A 0.93 0.91 -80.1 0 1 18.05 63.47
  L 18.02 52.60
  A 0.63 0.62 0.0 0 1 18.65 51.98
  L 28.63 51.99
  Q 29.35 51.99 29.63 52.66
  L 31.30 56.68
  A 0.56 0.56 0.0 0 0 32.29 56.76
  L 34.62 52.92
  Q 34.95 52.38 34.60 51.84
  Q 34.27 51.34 34.19 50.70
  Q 34.12 50.12 34.54 49.71
  L 39.46 44.90
  Q 40.81 43.57 40.18 45.36
  Q 32.82 66.45 10.83 74.59
  Q 9.58 75.05 10.46 74.06
  Q 12.86 71.35 15.48 68.95
  A 1.08 1.08 0.0 0 1 16.55 68.72
  Q 19.26 69.62 22.19 66.56
  Q 22.81 65.91 21.97 65.59
  Z"
/>
<path fill="#ffffff" d="
  M 48.76 54.01
  Q 38.74 75.72 16.42 84.47
  A 0.35 0.35 0.0 0 1 16.05 84.39
  L 11.41 79.78
  A 0.19 0.19 0.0 0 1 11.48 79.46
  Q 36.79 70.60 44.99 45.86
  Q 45.33 44.82 46.10 45.60
  L 49.44 48.93
  Q 50.30 49.79 49.94 50.95
  Q 49.44 52.53 48.76 54.01
  Z
  M 46.27 51.02
  Q 44.85 53.72 43.92 56.18
  Q 43.85 56.37 44.03 56.45
  L 44.04 56.46
  Q 44.24 56.55 44.34 56.36
  Q 45.64 53.92 46.83 51.53
  Q 46.99 51.21 46.66 51.07
  L 46.43 50.96
  Q 46.32 50.92 46.27 51.02
  Z
  M 37.1541 66.4877
  A 2.63 0.31 126.0 0 0 38.9508 64.5422
  A 2.63 0.31 126.0 0 0 40.2459 62.2323
  A 2.63 0.31 126.0 0 0 38.4492 64.1778
  A 2.63 0.31 126.0 0 0 37.1541 66.4877
  Z
  M 32.6625 71.0912
  A 3.09 0.33 -35.6 0 0 29.9579 72.6217
  A 3.09 0.33 -35.6 0 0 27.6375 74.6888
  A 3.09 0.33 -35.6 0 0 30.3421 73.1583
  A 3.09 0.33 -35.6 0 0 32.6625 71.0912
  Z
  M 22.4031 78.2222
  A 3.33 0.33 -25.2 0 0 19.2495 79.3414
  A 3.33 0.33 -25.2 0 0 16.3769 81.0578
  A 3.33 0.33 -25.2 0 0 19.5305 79.9386
  A 3.33 0.33 -25.2 0 0 22.4031 78.2222
  Z"
/>
<path fill="#076497" d="
  M 46.27 51.02
  Q 46.32 50.92 46.43 50.96
  L 46.66 51.07
  Q 46.99 51.21 46.83 51.53
  Q 45.64 53.92 44.34 56.36
  Q 44.24 56.55 44.04 56.46
  L 44.03 56.45
  Q 43.85 56.37 43.92 56.18
  Q 44.85 53.72 46.27 51.02
  Z"
/>
<path fill="#076497" d="
  M 132.23 60.72
  L 135.01 52.25
  A 0.48 0.47 -80.6 0 1 135.46 51.92
  L 142.55 51.97
  A 0.17 0.17 0.0 0 1 142.70 52.21
  Q 139.19 59.33 135.93 66.12
  Q 134.48 69.13 135.14 75.93
  A 0.39 0.39 0.0 0 1 134.75 76.36
  L 128.10 76.43
  Q 127.80 76.43 127.79 76.13
  C 127.68 72.59 128.27 68.97 126.66 65.63
  Q 123.22 58.53 120.37 52.19
  A 0.18 0.17 -12.7 0 1 120.53 51.94
  L 128.34 52.01
  A 0.49 0.48 -9.2 0 1 128.80 52.34
  L 131.52 60.72
  Q 131.87 61.81 132.23 60.72
  Z"
/>
<path fill="#076497" d="
  M 161.84 64.51
  L 161.75 52.61
  Q 161.75 51.96 162.39 51.97
  L 167.82 52.01
  Q 168.63 52.01 168.63 52.82
  L 168.61 75.79
  A 0.67 0.66 -90.0 0 1 167.95 76.46
  Q 165.51 76.49 162.83 76.33
  Q 162.02 76.28 161.54 75.61
  Q 157.02 69.32 152.36 62.75
  Q 151.99 62.24 151.99 62.87
  L 152.00 75.84
  Q 152.01 76.43 151.41 76.43
  L 145.70 76.42
  Q 145.23 76.42 145.23 75.95
  L 145.26 52.29
  A 0.34 0.33 90.0 0 1 145.59 51.95
  L 150.75 51.99
  A 2.90 2.88 72.2 0 1 153.07 53.19
  L 161.39 64.66
  Q 161.85 65.29 161.84 64.51
  Z"
/>
<path fill="#ffffff" d="
  M 34.19 98.89
  L 32.26 96.15
  Q 31.43 94.97 30.94 96.32
  L 29.62 99.98
  Q 29.34 100.72 28.55 100.73
  L 18.79 100.75
  Q 18.07 100.75 18.07 100.04
  L 18.05 89.71
  Q 18.05 88.93 18.77 88.64
  C 36.00 81.79 47.53 69.53 54.59 52.46
  Q 54.79 51.97 55.31 51.98
  L 66.08 52.00
  A 0.58 0.57 -90.0 0 1 66.65 52.58
  L 66.61 62.74
  A 1.20 1.20 0.0 0 1 65.83 63.85
  Q 53.44 68.38 43.51 78.21
  A 0.38 0.37 -42.0 0 0 43.48 78.71
  L 46.17 82.03
  Q 46.32 82.22 46.49 82.04
  Q 55.57 72.82 67.49 68.27
  A 1.41 1.40 -32.8 0 1 68.98 68.59
  L 72.94 72.52
  Q 73.56 73.13 72.72 73.38
  Q 59.84 77.19 50.36 87.23
  Q 50.23 87.36 50.32 87.51
  L 52.52 91.61
  A 0.17 0.16 52.5 0 0 52.78 91.65
  Q 61.96 81.51 74.14 77.84
  Q 75.78 77.34 74.57 78.56
  L 69.26 83.92
  A 1.27 1.26 -51.7 0 1 67.70 84.11
  C 65.74 82.94 63.40 84.68 61.86 85.84
  A 0.67 0.66 -52.3 0 0 62.00 86.98
  L 66.07 88.70
  Q 66.64 88.94 66.64 89.56
  L 66.61 100.05
  A 0.67 0.66 -90.0 0 1 65.95 100.72
  L 55.96 100.71
  Q 54.80 100.71 54.37 99.64
  Q 49.22 86.92 40.22 78.20
  Q 39.69 77.69 39.13 78.17
  L 36.60 80.35
  Q 36.08 80.79 36.57 81.27
  Q 45.41 90.00 50.13 101.84
  A 1.52 1.51 57.2 0 1 49.78 103.48
  L 45.97 107.19
  Q 45.35 107.80 45.09 106.97
  Q 41.23 94.73 31.61 85.30
  Q 30.93 84.64 30.09 85.09
  L 27.15 86.67
  A 0.68 0.68 0.0 0 0 27.03 87.78
  Q 36.32 95.81 40.33 107.75
  Q 40.95 109.59 39.61 108.18
  Q 37.40 105.86 35.04 103.62
  Q 33.76 102.40 34.40 100.84
  Q 34.83 99.81 34.19 98.89
  Z
  M 53.20 61.24
  A 0.50 0.50 0.0 0 0 52.41 61.36
  L 50.47 64.98
  A 0.50 0.50 0.0 0 0 50.56 65.57
  L 52.76 67.68
  A 0.50 0.50 0.0 0 0 53.34 67.77
  L 56.99 65.89
  A 0.50 0.50 0.0 0 0 57.12 65.09
  L 53.20 61.24
  Z
  M 43.7389 74.5679
  A 2.75 0.81 134.9 0 0 46.2538 73.1918
  A 2.75 0.81 134.9 0 0 47.6211 70.6721
  A 2.75 0.81 134.9 0 0 45.1062 72.0482
  A 2.75 0.81 134.9 0 0 43.7389 74.5679
  Z
  M 67.1393 71.8317
  A 3.04 0.33 -25.7 0 0 64.2569 72.8526
  A 3.04 0.33 -25.7 0 0 61.6607 74.4683
  A 3.04 0.33 -25.7 0 0 64.5431 73.4474
  A 3.04 0.33 -25.7 0 0 67.1393 71.8317
  Z
  M 56.1533 77.8624
  A 3.02 0.35 -38.2 0 0 53.5636 79.4550
  A 3.02 0.35 -38.2 0 0 51.4067 81.5976
  A 3.02 0.35 -38.2 0 0 53.9964 80.0050
  A 3.02 0.35 -38.2 0 0 56.1533 77.8624
  Z
  M 40.8521 90.9751
  A 2.94 0.36 50.7 0 0 39.2686 88.4720
  A 2.94 0.36 50.7 0 0 37.1279 86.4249
  A 2.94 0.36 50.7 0 0 38.7114 88.9280
  A 2.94 0.36 50.7 0 0 40.8521 90.9751
  Z
  M 46.7866 101.8766
  A 3.05 0.37 63.8 0 0 45.7720 98.9766
  A 3.05 0.37 63.8 0 0 44.0934 96.4034
  A 3.05 0.37 63.8 0 0 45.1080 99.3034
  A 3.05 0.37 63.8 0 0 46.7866 101.8766
  Z"
/>
<path fill="#076497" d="
  M 110.20 71.88
  L 103.96 71.76
  A 0.66 0.66 0.0 0 0 103.30 72.29
  L 102.63 75.77
  A 0.66 0.66 0.0 0 1 102.00 76.31
  L 95.37 76.51
  A 0.66 0.66 0.0 0 1 94.73 75.64
  L 102.65 52.44
  A 0.66 0.66 0.0 0 1 103.27 51.99
  L 111.40 52.00
  A 0.66 0.66 0.0 0 1 112.03 52.46
  L 119.52 75.59
  A 0.66 0.66 0.0 0 1 118.89 76.45
  L 112.39 76.40
  A 0.66 0.66 0.0 0 1 111.76 75.91
  L 110.83 72.37
  A 0.66 0.66 0.0 0 0 110.20 71.88
  Z
  M 104.87 66.33
  A 0.33 0.33 0.0 0 0 105.19 66.74
  L 108.99 66.74
  A 0.33 0.33 0.0 0 0 109.31 66.33
  L 107.41 58.65
  A 0.33 0.33 0.0 0 0 106.77 58.65
  L 104.87 66.33
  Z"
/>
<path fill="#076497" d="
  M 180.20 72.27
  L 179.19 76.05
  A 0.54 0.54 0.0 0 1 178.66 76.46
  L 172.01 76.39
  A 0.54 0.54 0.0 0 1 171.50 75.67
  L 179.49 52.36
  A 0.54 0.54 0.0 0 1 180.01 51.99
  L 188.31 52.00
  A 0.54 0.54 0.0 0 1 188.82 52.37
  L 196.35 75.70
  A 0.54 0.54 0.0 0 1 195.84 76.41
  L 189.12 76.41
  A 0.54 0.54 0.0 0 1 188.59 75.99
  L 187.68 72.15
  A 0.54 0.54 0.0 0 0 187.14 71.74
  L 180.71 71.87
  A 0.54 0.54 0.0 0 0 180.20 72.27
  Z
  M 181.78 66.34
  A 0.32 0.32 0.0 0 0 182.10 66.73
  L 185.79 66.69
  A 0.32 0.32 0.0 0 0 186.10 66.29
  L 184.17 58.54
  A 0.32 0.32 0.0 0 0 183.55 58.55
  L 181.78 66.34
  Z"
/>
<path fill="#ffffff" d="
  M 104.87 66.33
  L 106.77 58.65
  A 0.33 0.33 0.0 0 1 107.41 58.65
  L 109.31 66.33
  A 0.33 0.33 0.0 0 1 108.99 66.74
  L 105.19 66.74
  A 0.33 0.33 0.0 0 1 104.87 66.33
  Z"
/>
<path fill="#ffffff" d="
  M 181.78 66.34
  L 183.55 58.55
  A 0.32 0.32 0.0 0 1 184.17 58.54
  L 186.10 66.29
  A 0.32 0.32 0.0 0 1 185.79 66.69
  L 182.10 66.73
  A 0.32 0.32 0.0 0 1 181.78 66.34
  Z"
/>
<path fill="#076497" d="
  M 53.20 61.24
  L 57.12 65.09
  A 0.50 0.50 0.0 0 1 56.99 65.89
  L 53.34 67.77
  A 0.50 0.50 0.0 0 1 52.76 67.68
  L 50.56 65.57
  A 0.50 0.50 0.0 0 1 50.47 64.98
  L 52.41 61.36
  A 0.50 0.50 0.0 0 1 53.20 61.24
  Z"
/>
<ellipse fill="#076497" cx="0.00" cy="0.00" transform="translate(38.70,64.36) rotate(126.0)" rx="2.63" ry="0.31"/>
<ellipse fill="#076497" cx="0.00" cy="0.00" transform="translate(45.68,72.62) rotate(134.9)" rx="2.75" ry="0.81"/>
<ellipse fill="#076497" cx="0.00" cy="0.00" transform="translate(30.15,72.89) rotate(-35.6)" rx="3.09" ry="0.33"/>
<ellipse fill="#076497" cx="0.00" cy="0.00" transform="translate(64.40,73.15) rotate(-25.7)" rx="3.04" ry="0.33"/>
<ellipse fill="#076497" cx="0.00" cy="0.00" transform="translate(53.78,79.73) rotate(-38.2)" rx="3.02" ry="0.35"/>
<ellipse fill="#076497" cx="0.00" cy="0.00" transform="translate(19.39,79.64) rotate(-25.2)" rx="3.33" ry="0.33"/>
<path fill="#076497" d="
  M 178.10 80.92
  C 177.56 80.93 176.82 80.72 176.25 80.66
  Q 175.47 80.57 176.22 80.35
  Q 177.34 80.02 178.19 80.63
  Q 178.59 80.91 178.10 80.92
  Z"
/>
<path fill="#076497" d="
  M 195.68 81.19
  Q 195.63 81.06 195.59 80.93
  Q 195.55 80.78 195.66 80.90
  C 196.71 82.06 196.68 84.43 196.55 86.16
  C 196.37 88.74 193.64 89.55 191.88 87.77
  Q 191.57 87.46 191.53 87.01
  Q 191.36 84.78 191.58 82.22
  Q 191.60 82.00 191.82 81.97
  L 192.27 81.90
  A 0.31 0.31 0.0 0 1 192.62 82.21
  L 192.59 85.65
  Q 192.59 86.66 193.31 87.38
  Q 193.75 87.81 194.16 87.70
  Q 195.51 87.35 195.42 85.96
  Q 195.27 83.70 195.71 81.65
  Q 195.76 81.41 195.68 81.19
  Z"
/>
<path fill="#076497" d="
  M 97.11 83.87
  C 96.88 84.68 96.99 85.57 96.72 86.35
  Q 96.37 87.40 95.46 88.05
  Q 94.24 88.92 94.84 87.55
  Q 95.74 85.46 96.32 83.47
  Q 97.29 80.15 98.64 83.34
  Q 99.53 85.45 100.22 87.82
  Q 100.36 88.32 99.85 88.30
  Q 99.71 88.29 99.59 88.27
  Q 99.28 88.21 99.12 87.95
  Q 98.27 86.61 98.13 84.96
  Q 98.07 84.27 97.62 83.75
  Q 97.26 83.35 97.11 83.87
  Z"
/>
<path fill="#076497" d="
  M 103.34 87.57
  Q 104.77 87.41 105.98 87.91
  Q 106.89 88.28 105.92 88.39
  Q 103.54 88.66 101.33 88.43
  Q 100.75 88.37 101.09 87.89
  L 104.17 83.50
  A 0.44 0.43 -74.9 0 0 103.78 82.81
  L 101.57 83.01
  Q 101.32 83.03 101.30 82.77
  L 101.28 82.26
  Q 101.27 82.05 101.49 82.04
  L 105.49 81.89
  A 0.49 0.49 0.0 0 1 105.92 82.66
  L 102.99 86.98
  Q 102.52 87.67 103.34 87.57
  Z"
/>
<path fill="#076497" d="
  M 111.37 84.87
  A 0.43 0.42 77.8 0 0 111.79 84.21
  Q 110.54 82.36 108.21 82.82
  Q 107.88 82.88 107.79 82.55
  L 107.73 82.28
  Q 107.68 82.09 107.87 82.03
  Q 112.20 80.67 112.84 84.77
  C 113.51 89.02 107.33 90.55 106.74 85.50
  Q 106.66 84.88 107.28 84.79
  Q 109.25 84.48 111.37 84.87
  Z
  M 111.62 85.73
  L 108.08 85.65
  A 0.12 0.12 0.0 0 0 107.96 85.77
  L 107.96 85.79
  A 1.84 1.82 1.3 0 0 109.76 87.65
  L 109.86 87.65
  A 1.84 1.82 1.3 0 0 111.74 85.87
  L 111.74 85.85
  A 0.12 0.12 0.0 0 0 111.62 85.73
  Z"
/>
<path fill="#076497" d="
  M 115.13 86.49
  L 115.34 88.06
  A 0.40 0.40 0.0 0 1 114.93 88.51
  L 114.51 88.50
  Q 114.12 88.49 114.15 88.10
  Q 114.36 85.26 114.03 82.79
  Q 113.94 82.11 114.63 82.05
  L 116.77 81.88
  Q 117.28 81.84 117.64 82.20
  Q 119.05 83.58 117.99 85.18
  Q 117.71 85.60 117.84 86.08
  Q 118.06 86.88 118.67 87.56
  A 0.56 0.55 41.4 0 1 118.72 88.25
  Q 118.32 88.83 118.11 88.66
  Q 117.63 88.29 117.48 87.72
  Q 117.11 86.27 115.74 85.94
  Q 115.03 85.77 115.13 86.49
  Z
  M 117.39 83.93
  A 1.13 1.13 0.0 0 0 116.26 82.80
  A 1.13 1.13 0.0 0 0 115.13 83.93
  A 1.13 1.13 0.0 0 0 116.26 85.06
  A 1.13 1.13 0.0 0 0 117.39 83.93
  Z"
/>
<path fill="#076497" d="
  M 124.2337 87.3913
  A 1.03 1.03 0.0 0 1 123.2571 88.4721
  L 121.1398 88.5794
  A 1.03 1.03 0.0 0 1 120.0590 87.6028
  L 119.8263 83.0087
  A 1.03 1.03 0.0 0 1 120.8029 81.9279
  L 122.9202 81.8206
  A 1.03 1.03 0.0 0 1 124.0010 82.7972
  L 124.2337 87.3913
  Z
  M 122.09 82.78
  Q 121.01 82.42 120.96 83.55
  Q 120.91 84.45 122.01 84.85
  A 0.97 0.97 0.0 0 0 123.09 84.54
  Q 123.98 83.42 122.09 82.78
  Z
  M 121.82 85.67
  Q 121.68 85.58 121.52 85.58
  Q 120.86 85.54 120.97 86.20
  L 121.14 87.17
  Q 121.26 87.85 121.94 87.75
  Q 123.08 87.60 123.39 86.58
  Q 123.58 85.92 122.90 85.83
  L 121.97 85.72
  A 0.40 0.40 0.0 0 1 121.82 85.67
  Z"
/>
<path fill="#076497" d="
  M 128.44 86.87
  Q 126.66 86.72 126.04 88.60
  A 0.19 0.18 -68.0 0 1 125.79 88.71
  L 125.47 88.56
  A 0.52 0.52 0.0 0 1 125.18 87.91
  L 127.12 82.24
  A 0.84 0.84 0.0 0 1 128.65 82.12
  Q 130.08 84.82 130.73 88.08
  Q 130.90 88.91 130.12 88.56
  Q 129.46 88.27 129.25 87.53
  Q 129.08 86.92 128.44 86.87
  Z
  M 127.70 83.72
  L 127.09 85.44
  Q 126.91 85.94 127.44 85.99
  L 128.53 86.09
  A 0.42 0.41 87.8 0 0 128.97 85.61
  Q 128.80 84.49 128.07 83.65
  A 0.22 0.22 0.0 0 0 127.70 83.72
  Z"
/>
<path fill="#076497" d="
  M 133.56 84.04
  Q 133.99 83.54 134.12 82.85
  Q 134.28 82.02 135.13 82.02
  Q 135.29 82.02 135.43 82.10
  Q 135.99 82.42 135.54 82.88
  Q 133.47 85.01 133.89 87.93
  Q 133.96 88.45 133.44 88.46
  L 133.05 88.48
  Q 132.53 88.49 132.57 87.97
  Q 132.80 85.34 130.80 82.98
  A 0.69 0.68 41.9 0 1 130.75 82.15
  Q 131.77 80.67 132.68 83.85
  Q 132.94 84.76 133.56 84.04
  Z"
/>
<path fill="#076497" d="
  M 143.60 86.85
  Q 143.10 87.38 142.83 88.10
  A 0.52 0.52 0.0 0 1 142.08 88.36
  L 141.86 88.23
  Q 141.58 88.07 141.29 88.21
  C 137.21 90.29 134.49 86.01 137.01 82.53
  Q 137.35 82.08 137.91 82.03
  L 140.57 81.79
  A 0.45 0.45 0.0 0 1 141.05 82.13
  L 141.16 82.61
  Q 141.29 83.12 140.77 83.02
  Q 139.56 82.80 138.30 83.20
  Q 137.67 83.41 137.40 84.01
  C 136.60 85.80 137.88 87.96 139.91 87.61
  Q 140.57 87.49 141.20 87.77
  Q 141.76 88.02 141.98 87.45
  L 143.91 82.35
  A 0.87 0.87 0.0 0 1 145.55 82.37
  L 147.59 88.19
  Q 147.69 88.47 147.40 88.55
  L 146.84 88.71
  Q 146.69 88.75 146.62 88.61
  Q 145.76 86.81 144.39 86.59
  Q 143.93 86.51 143.60 86.85
  Z
  M 144.9705 86.4919
  A 1.35 0.69 80.6 0 0 145.4307 85.0473
  A 1.35 0.69 80.6 0 0 144.5295 83.8281
  A 1.35 0.69 80.6 0 0 144.0693 85.2727
  A 1.35 0.69 80.6 0 0 144.9705 86.4919
  Z"
/>
<path fill="#076497" d="
  M 169.74 86.58
  L 169.88 87.76
  Q 169.93 88.20 169.49 88.23
  L 164.49 88.61
  Q 163.82 88.66 163.84 87.99
  L 164.00 82.49
  Q 164.02 81.75 164.76 81.78
  L 167.01 81.87
  Q 167.85 81.91 167.25 82.49
  Q 166.81 82.91 166.18 82.86
  Q 165.68 82.82 165.31 83.16
  Q 164.83 83.61 165.01 84.29
  Q 165.15 84.82 165.70 84.80
  L 166.64 84.76
  Q 166.95 84.75 167.07 85.04
  Q 167.13 85.22 167.09 85.39
  Q 167.05 85.54 166.90 85.59
  Q 166.22 85.82 165.41 85.78
  Q 165.09 85.76 165.06 86.07
  L 164.96 86.83
  Q 164.88 87.53 165.58 87.59
  L 168.05 87.81
  Q 168.70 87.86 168.70 87.21
  L 168.68 82.72
  A 0.70 0.69 86.2 0 1 169.28 82.03
  L 171.14 81.79
  A 1.70 1.70 0.0 0 1 172.79 84.39
  Q 171.63 86.21 173.37 87.91
  Q 173.63 88.15 173.46 88.46
  Q 173.44 88.50 173.40 88.53
  Q 173.21 88.67 173.01 88.56
  C 171.82 87.90 171.99 86.81 171.18 86.20
  Q 170.77 85.89 170.25 85.94
  Q 169.67 86.01 169.74 86.58
  Z
  M 171.81 83.98
  A 1.11 1.11 0.0 0 0 170.70 82.87
  A 1.11 1.11 0.0 0 0 169.59 83.98
  A 1.11 1.11 0.0 0 0 170.70 85.09
  A 1.11 1.11 0.0 0 0 171.81 83.98
  Z"
/>
<path fill="#076497" d="
  M 175.61 86.24
  Q 175.57 87.42 176.74 87.56
  L 177.08 87.61
  A 1.26 1.26 0.0 0 0 178.49 86.41
  L 178.63 82.25
  A 0.37 0.37 0.0 0 1 179.12 81.91
  L 179.58 82.06
  A 0.43 0.42 -80.0 0 1 179.87 82.48
  L 179.67 86.31
  Q 179.57 88.31 177.58 88.61
  Q 176.93 88.71 176.23 88.55
  Q 174.52 88.14 174.50 86.38
  L 174.46 82.07
  Q 174.45 81.76 174.76 81.81
  L 175.14 81.86
  Q 175.75 81.95 175.73 82.56
  L 175.61 86.24
  Z"
/>
<path fill="#076497" d="
  M 182.16 83.63
  Q 182.83 84.60 184.06 85.12
  A 1.76 1.76 0.0 0 1 184.27 88.26
  Q 182.91 89.06 181.17 88.47
  Q 181.05 88.43 181.03 88.30
  L 180.96 87.84
  Q 180.89 87.40 181.32 87.55
  Q 182.46 87.96 183.64 87.47
  A 0.65 0.64 52.9 0 0 183.79 86.37
  Q 183.01 85.75 182.08 85.28
  C 180.46 84.47 180.84 81.78 182.79 81.83
  Q 183.74 81.85 184.66 81.96
  Q 185.07 82.00 184.95 82.40
  L 184.86 82.68
  Q 184.78 82.95 184.51 82.93
  L 182.63 82.81
  Q 181.55 82.74 182.16 83.63
  Z"
/>
<path fill="#076497" d="
  M 186.92 83.00
  Q 186.69 82.98 186.45 82.92
  Q 185.95 82.79 185.83 82.32
  Q 185.79 82.15 186.05 82.02
  Q 186.16 81.97 186.29 81.97
  Q 188.03 82.03 189.80 81.89
  Q 190.05 81.87 190.11 82.10
  Q 190.25 82.54 189.82 82.72
  L 189.34 82.92
  Q 188.70 83.20 188.70 83.90
  L 188.73 88.04
  Q 188.74 88.47 188.31 88.49
  L 188.04 88.51
  Q 187.74 88.53 187.73 88.23
  L 187.60 83.70
  Q 187.58 83.04 186.92 83.00
  Z"
/>
<path fill="#076497" d="
  M 149.72 84.25
  L 149.89 87.85
  A 0.45 0.44 2.7 0 1 149.38 88.31
  L 149.00 88.26
  Q 148.45 88.18 148.53 87.63
  Q 148.89 85.25 148.49 82.80
  Q 148.39 82.17 149.00 82.01
  Q 150.21 81.69 150.68 82.82
  Q 151.42 84.58 152.67 86.01
  Q 153.41 86.85 153.32 85.74
  L 153.09 82.77
  A 0.56 0.56 0.0 0 1 153.48 82.20
  L 153.80 82.09
  Q 154.21 81.96 154.26 82.38
  Q 154.55 84.94 154.28 87.32
  Q 154.00 89.89 152.55 87.75
  L 150.67 84.99
  Q 150.50 84.74 150.51 84.43
  Q 150.52 84.13 150.23 83.95
  Q 149.69 83.62 149.72 84.25
  Z"
/>
<path fill="#076497" d="
  M 158.28 83.08
  Q 158.00 82.75 158.13 82.33
  Q 158.34 81.65 158.87 82.14
  Q 160.09 83.27 159.68 85.06
  Q 159.45 86.04 159.07 85.11
  Q 158.73 84.28 158.50 83.48
  Q 158.43 83.26 158.28 83.08
  Z"
/>
<path fill="#076497" d="
  M 161.14 83.24
  Q 161.41 82.09 162.47 82.02
  Q 163.20 81.98 162.78 82.58
  Q 161.05 85.02 160.60 87.66
  Q 160.24 89.75 159.76 87.68
  Q 159.35 85.90 160.57 84.41
  Q 160.99 83.89 161.14 83.24
  Z"
/>
<path fill="#ffffff" d="
  M 122.09 82.78
  Q 123.98 83.42 123.09 84.54
  A 0.97 0.97 0.0 0 1 122.01 84.85
  Q 120.91 84.45 120.96 83.55
  Q 121.01 82.42 122.09 82.78
  Z"
/>
<circle fill="#ffffff" cx="116.26" cy="83.93" r="1.13"/>
<circle fill="#ffffff" cx="170.70" cy="83.98" r="1.11"/>
<path fill="#ffffff" d="
  M 127.70 83.72
  A 0.22 0.22 0.0 0 1 128.07 83.65
  Q 128.80 84.49 128.97 85.61
  A 0.42 0.41 87.8 0 1 128.53 86.09
  L 127.44 85.99
  Q 126.91 85.94 127.09 85.44
  L 127.70 83.72
  Z"
/>
<ellipse fill="#ffffff" cx="0.00" cy="0.00" transform="translate(144.75,85.16) rotate(80.6)" rx="1.35" ry="0.69"/>
<path fill="#ffffff" d="
  M 111.62 85.73
  A 0.12 0.12 0.0 0 1 111.74 85.85
  L 111.74 85.87
  A 1.84 1.82 1.3 0 1 109.86 87.65
  L 109.76 87.65
  A 1.84 1.82 1.3 0 1 107.96 85.79
  L 107.96 85.77
  A 0.12 0.12 0.0 0 1 108.08 85.65
  L 111.62 85.73
  Z"
/>
<path fill="#ffffff" d="
  M 121.97 85.72
  L 122.90 85.83
  Q 123.58 85.92 123.39 86.58
  Q 123.08 87.60 121.94 87.75
  Q 121.26 87.85 121.14 87.17
  L 120.97 86.20
  Q 120.86 85.54 121.52 85.58
  Q 121.68 85.58 121.82 85.67
  A 0.40 0.40 0.0 0 0 121.97 85.72
  Z"
/>
<ellipse fill="#076497" cx="0.00" cy="0.00" transform="translate(38.99,88.70) rotate(50.7)" rx="2.94" ry="0.36"/>
<rect fill="#076497" x="-0.51" y="-4.22" transform="translate(193.31,95.74) rotate(0.8)" width="1.02" height="8.44" rx="0.36"/>
<path fill="#076497" d="
  M 120.23 98.28
  A 0.56 0.56 0.0 0 0 120.77 98.84
  L 123.31 98.96
  Q 123.82 98.99 123.74 98.48
  Q 123.27 95.57 123.74 92.01
  Q 123.84 91.27 124.20 91.92
  C 125.06 93.45 124.82 97.45 124.89 99.31
  Q 124.90 99.51 124.70 99.52
  L 119.46 99.96
  A 0.34 0.34 0.0 0 1 119.09 99.65
  Q 118.78 96.50 119.25 93.32
  A 0.44 0.43 -3.1 0 1 119.58 92.96
  L 120.01 92.86
  Q 120.21 92.82 120.21 93.02
  L 120.23 98.28
  Z"
/>
<path fill="#076497" d="
  M 181.13 97.78
  Q 181.08 98.97 182.27 98.98
  L 183.74 98.99
  Q 184.90 99.00 184.75 97.85
  Q 184.39 95.11 184.78 92.01
  Q 184.87 91.31 185.25 91.91
  C 186.22 93.48 185.80 97.49 185.82 99.33
  Q 185.82 99.46 185.68 99.47
  L 180.25 99.93
  Q 179.97 99.95 179.98 99.67
  L 180.17 93.78
  A 0.44 0.44 0.0 0 1 180.59 93.36
  L 180.93 93.34
  Q 181.30 93.33 181.29 93.70
  L 181.13 97.78
  Z"
/>
<path fill="#076497" d="
  M 111.30 97.27
  Q 110.72 96.81 110.54 97.51
  Q 109.86 100.21 106.79 100.03
  Q 105.72 99.97 105.37 98.96
  L 104.67 96.95
  Q 104.37 96.07 105.30 96.04
  L 109.00 95.94
  A 0.35 0.35 0.0 0 0 109.33 95.50
  L 109.21 95.03
  Q 109.03 94.30 108.28 94.22
  L 105.88 93.98
  Q 105.04 93.89 105.74 93.42
  C 106.88 92.66 108.77 93.16 109.75 93.90
  Q 110.18 94.21 110.36 94.71
  L 111.30 97.27
  Z
  M 109.3343 97.7615
  A 1.69 1.02 -4.7 0 0 107.5664 96.8834
  A 1.69 1.02 -4.7 0 0 105.9657 98.0385
  A 1.69 1.02 -4.7 0 0 107.7336 98.9166
  A 1.69 1.02 -4.7 0 0 109.3343 97.7615
  Z"
/>
<path fill="#076497" d="
  M 111.30 97.27
  Q 112.13 97.13 111.73 95.93
  Q 111.57 95.46 111.79 95.02
  C 114.05 90.55 119.96 94.10 117.12 99.04
  Q 116.80 99.60 117.36 99.90
  Q 117.74 100.10 117.89 100.49
  Q 118.14 101.12 117.47 100.98
  Q 116.78 100.83 116.19 100.36
  Q 115.76 100.02 115.21 100.02
  Q 112.30 100.02 111.30 97.27
  Z
  M 114.9281 98.9249
  A 2.45 1.99 86.3 0 0 116.7559 96.3516
  A 2.45 1.99 86.3 0 0 114.6119 94.0351
  A 2.45 1.99 86.3 0 0 112.7841 96.6084
  A 2.45 1.99 86.3 0 0 114.9281 98.9249
  Z"
/>
<path fill="#076497" d="
  M 128.82 95.84
  Q 129.17 95.08 129.22 94.26
  Q 129.26 93.55 129.95 93.35
  Q 131.04 93.04 132.17 93.16
  A 0.65 0.65 0.0 0 1 132.71 93.60
  L 133.32 95.48
  Q 133.66 96.54 134.10 95.52
  L 134.95 93.53
  A 0.54 0.54 0.0 0 1 135.47 93.21
  L 135.95 93.24
  A 0.40 0.40 0.0 0 1 136.27 93.84
  C 135.44 95.21 133.63 97.82 134.09 99.41
  Q 134.19 99.74 133.85 99.80
  L 133.41 99.87
  Q 133.10 99.92 133.09 99.61
  Q 132.94 96.80 131.67 94.26
  A 0.70 0.70 0.0 0 0 130.44 94.21
  Q 128.91 96.77 128.91 99.52
  Q 128.91 99.94 128.50 99.87
  L 128.18 99.82
  Q 127.62 99.74 127.66 99.18
  L 127.72 98.14
  Q 127.75 97.64 127.54 97.19
  L 125.95 93.76
  Q 125.73 93.29 126.25 93.28
  L 126.74 93.27
  Q 126.96 93.27 127.05 93.48
  L 128.07 95.83
  Q 128.43 96.67 128.82 95.84
  Z"
/>
<path fill="#076497" d="
  M 143.01 94.27
  Q 142.19 94.40 141.69 93.74
  A 0.40 0.40 0.0 0 1 142.00 93.10
  L 145.86 93.03
  Q 146.71 93.02 146.28 93.74
  Q 145.91 94.35 145.20 94.37
  Q 144.57 94.38 144.60 95.00
  L 144.83 99.52
  Q 144.84 99.64 144.73 99.67
  L 143.97 99.87
  Q 143.74 99.93 143.67 99.70
  Q 143.04 97.37 143.45 94.70
  Q 143.53 94.19 143.01 94.27
  Z"
/>
<path fill="#076497" d="
  M 150.83 98.93
  Q 150.66 99.63 150.02 99.97
  A 0.50 0.49 -4.2 0 1 149.32 99.37
  L 151.43 93.56
  A 0.85 0.85 0.0 0 1 152.99 93.47
  Q 154.25 96.08 155.13 99.41
  Q 155.34 100.19 154.58 99.94
  Q 153.66 99.64 153.61 98.59
  Q 153.59 97.95 152.95 97.99
  L 151.90 98.05
  A 1.16 1.16 0.0 0 0 150.83 98.93
  Z
  M 151.47 96.70
  Q 151.22 97.38 151.94 97.30
  L 152.69 97.21
  Q 153.39 97.13 153.14 96.47
  L 152.65 95.19
  Q 152.32 94.32 152.00 95.20
  L 151.47 96.70
  Z"
/>
<path fill="#076497" d="
  M 158.08 98.81
  A 1.14 1.12 -33.7 0 0 159.28 99.04
  Q 160.33 98.63 160.11 97.76
  Q 159.95 97.15 159.36 96.95
  L 158.96 96.81
  A 0.27 0.27 0.0 0 1 158.92 96.31
  Q 161.45 94.98 161.41 98.06
  A 2.00 1.99 -5.9 0 1 159.84 99.98
  C 154.38 101.18 154.15 91.42 160.83 93.22
  Q 161.11 93.29 161.03 93.57
  L 160.95 93.85
  Q 160.81 94.36 160.31 94.18
  C 157.37 93.12 156.00 96.81 158.08 98.81
  Z"
/>
<path fill="#076497" d="
  M 164.22 97.15
  A 0.63 0.63 0.0 0 0 163.66 97.91
  L 163.75 98.33
  Q 163.89 98.97 164.55 98.98
  L 166.49 99.01
  Q 167.26 99.02 166.59 99.41
  Q 165.10 100.28 163.29 99.90
  A 0.77 0.76 -83.9 0 1 162.69 99.15
  L 162.68 93.93
  A 0.73 0.73 0.0 0 1 163.28 93.21
  Q 164.54 92.97 165.77 93.08
  Q 166.06 93.11 166.23 93.36
  Q 166.59 93.89 165.95 93.94
  L 164.57 94.06
  Q 163.78 94.13 163.77 94.92
  L 163.77 95.29
  A 0.76 0.76 0.0 0 0 164.62 96.05
  Q 165.30 95.97 165.88 96.31
  Q 166.92 96.91 165.72 97.02
  L 164.22 97.15
  Z"
/>
<path fill="#076497" d="
  M 175.49 93.99
  Q 175.00 93.96 174.47 93.96
  Q 174.07 93.96 174.00 93.58
  Q 173.99 93.52 174.02 93.47
  Q 174.12 93.30 174.31 93.26
  Q 176.47 92.86 178.75 93.10
  Q 179.10 93.14 179.08 93.49
  L 179.07 93.84
  Q 179.05 94.17 178.72 94.18
  L 177.75 94.21
  Q 177.23 94.23 177.23 94.75
  L 177.26 99.21
  A 0.49 0.49 0.0 0 1 176.78 99.71
  L 176.47 99.71
  Q 176.00 99.72 176.00 99.26
  L 176.02 94.55
  Q 176.02 94.02 175.49 93.99
  Z"
/>
<path fill="#076497" d="
  M 98.83 95.53
  L 98.91 99.44
  A 0.46 0.46 0.0 0 1 98.48 99.90
  L 98.20 99.91
  Q 97.79 99.93 97.79 99.52
  L 97.79 93.77
  Q 97.79 93.03 98.48 93.30
  L 98.89 93.46
  A 1.61 1.58 -5.3 0 1 99.66 94.09
  L 101.74 97.34
  Q 102.37 98.32 102.35 97.16
  L 102.31 93.75
  Q 102.30 93.36 102.69 93.33
  L 103.08 93.29
  Q 103.58 93.25 103.54 93.76
  Q 103.36 96.00 103.41 97.59
  Q 103.55 102.65 101.17 98.19
  Q 100.38 96.71 99.37 95.34
  Q 98.81 94.58 98.83 95.53
  Z"
/>
<path fill="#076497" d="
  M 139.52 98.18
  Q 138.81 98.41 138.14 98.17
  Q 137.63 97.98 137.42 98.49
  Q 137.16 99.13 136.76 99.64
  Q 136.56 99.88 136.25 99.92
  Q 136.05 99.95 135.91 99.80
  Q 135.64 99.52 135.81 99.16
  Q 136.97 96.75 137.74 94.56
  Q 138.84 91.44 140.03 94.53
  L 141.87 99.28
  Q 142.20 100.12 141.33 99.89
  Q 140.37 99.63 140.27 98.66
  A 0.58 0.57 -12.1 0 0 139.52 98.18
  Z
  M 138.87 97.37
  Q 139.11 97.41 139.35 97.33
  Q 139.92 97.16 139.69 96.61
  L 139.28 95.56
  Q 139.00 94.87 138.58 95.49
  Q 138.10 96.21 138.11 97.17
  Q 138.11 97.61 138.54 97.57
  Q 138.75 97.56 138.87 97.37
  Z"
/>
<path fill="#076497" d="
  M 172.08 97.28
  L 172.05 93.75
  Q 172.05 93.33 172.47 93.35
  L 172.74 93.36
  A 0.36 0.35 -89.2 0 1 173.07 93.71
  L 173.22 99.44
  A 0.55 0.54 -4.1 0 1 172.74 99.99
  Q 172.29 100.04 171.94 99.78
  C 170.98 99.05 170.19 96.77 169.28 95.74
  Q 168.62 94.98 168.66 95.99
  L 168.80 99.52
  Q 168.81 99.92 168.42 99.83
  L 167.86 99.71
  Q 167.73 99.68 167.73 99.55
  L 167.62 94.09
  A 0.72 0.72 0.0 0 1 167.83 93.56
  Q 168.45 92.91 169.09 93.43
  Q 169.34 93.64 169.48 93.96
  Q 170.27 95.80 171.73 97.41
  Q 172.08 97.79 172.08 97.28
  Z"
/>
<path fill="#076497" d="
  M 189.66 95.35
  Q 190.04 94.77 190.26 94.06
  Q 190.45 93.43 191.03 93.18
  Q 191.24 93.09 191.48 93.13
  Q 192.29 93.28 191.73 93.90
  Q 189.64 96.22 189.99 99.21
  Q 190.04 99.69 189.57 99.74
  L 189.28 99.78
  Q 188.95 99.82 188.90 99.49
  Q 188.45 96.40 186.74 93.61
  Q 186.39 93.05 187.04 93.18
  Q 188.43 93.46 188.73 95.16
  Q 188.95 96.43 189.66 95.35
  Z"
/>
<ellipse fill="#ffffff" cx="0.00" cy="0.00" transform="translate(114.77,96.48) rotate(86.3)" rx="2.45" ry="1.99"/>
<path fill="#ffffff" d="
  M 151.47 96.70
  L 152.00 95.20
  Q 152.32 94.32 152.65 95.19
  L 153.14 96.47
  Q 153.39 97.13 152.69 97.21
  L 151.94 97.30
  Q 151.22 97.38 151.47 96.70
  Z"
/>
<path fill="#ffffff" d="
  M 138.87 97.37
  Q 138.75 97.56 138.54 97.57
  Q 138.11 97.61 138.11 97.17
  Q 138.10 96.21 138.58 95.49
  Q 139.00 94.87 139.28 95.56
  L 139.69 96.61
  Q 139.92 97.16 139.35 97.33
  Q 139.11 97.41 138.87 97.37
  Z"
/>
<ellipse fill="#076497" cx="0.00" cy="0.00" transform="translate(45.44,99.14) rotate(63.8)" rx="3.05" ry="0.37"/>
<ellipse fill="#ffffff" cx="0.00" cy="0.00" transform="translate(107.65,97.90) rotate(-4.7)" rx="1.69" ry="1.02"/>
</svg>
