<?xml version="1.0" standalone="no"?>
<!DOCTYPE svg PUBLIC "-//W3C//DTD SVG 20010904//EN"
 "http://www.w3.org/TR/2001/REC-SVG-20010904/DTD/svg10.dtd">
<svg version="1.0" xmlns="http://www.w3.org/2000/svg"
 width="1200.000000pt" height="628.000000pt" viewBox="0 0 1200.000000 628.000000"
 preserveAspectRatio="xMidYMid meet">
<metadata>
Created by potrace 1.16, written by Peter Selinger 2001-2019
</metadata>
<g transform="translate(0.000000,628.000000) scale(0.100000,-0.100000)"
fill="#000000" stroke="none">
<path d="M0 3140 l0 -3140 6000 0 6000 0 0 3140 0 3140 -6000 0 -6000 0 0
-3140z m6870 2326 c0 -2 -267 -266 -592 -587 -326 -321 -593 -588 -593 -594 0
-5 267 -273 593 -594 325 -321 592 -585 592 -587 0 -2 -574 -4 -1275 -4
l-1275 0 0 1185 0 1185 1275 0 c701 0 1275 -2 1275 -4z m830 -3146 l0 -450
-75 0 -75 0 0 450 0 450 75 0 75 0 0 -450z m-1285 366 c62 -26 74 -89 26 -137
-20 -20 -39 -29 -61 -29 -22 0 -41 9 -61 29 -45 45 -37 105 19 135 34 19 35
19 77 2z m-1933 -187 l3 -161 145 161 145 160 99 1 98 0 -123 -130 c-68 -72
-148 -158 -178 -191 l-53 -59 110 -118 c61 -64 145 -151 186 -192 42 -41 76
-80 76 -87 0 -10 -24 -13 -89 -13 l-89 0 -164 170 -163 170 -5 -167 -5 -168
-75 0 -75 0 -3 393 -2 392 80 0 80 0 2 -161z m2286 -21 l3 -88 44 0 45 0 0
-60 0 -60 -45 0 -45 0 -2 -197 -3 -198 -75 0 -75 0 -3 198 -2 197 -25 0 c-24
0 -25 3 -25 60 0 57 1 60 25 60 25 0 25 1 25 83 0 46 3 87 7 91 4 4 39 5 78 4
l70 -3 3 -87z m-1465 -82 c21 -8 47 -22 58 -32 18 -16 19 -16 19 4 0 21 5 22
75 22 l75 0 0 -260 0 -260 -75 0 c-68 0 -75 2 -75 20 0 19 -1 19 -35 -1 -144
-85 -311 5 -345 185 -39 208 127 384 303 322z m728 0 c62 -22 107 -64 140
-132 29 -59 31 -69 27 -146 -5 -91 -21 -132 -72 -186 -36 -39 -86 -67 -137
-76 -41 -7 -121 14 -150 40 -19 17 -19 14 -19 -139 l0 -157 -80 0 -80 0 0 395
0 395 80 0 c64 0 80 -3 80 -15 0 -19 -4 -19 54 10 54 27 102 31 157 11z m1150
3 c19 -7 41 -18 50 -25 20 -18 29 -18 29 1 0 12 15 15 73 15 l74 0 6 -252 c3
-138 4 -255 1 -260 -3 -4 -37 -8 -76 -8 -61 0 -71 2 -75 20 -5 20 -5 20 -33 0
-57 -40 -146 -43 -216 -7 -48 25 -100 89 -119 147 -24 74 -17 181 17 246 54
104 170 156 269 123z m-723 -266 l-3 -258 -75 0 -75 0 -3 258 -2 257 80 0 80
0 -2 -257z m-76 -692 l3 -280 75 90 75 91 98 5 c53 2 97 1 97 -4 0 -5 -47 -55
-105 -113 -58 -58 -105 -109 -105 -115 1 -5 52 -71 114 -145 l114 -135 -95 -3
c-62 -2 -100 1 -109 9 -8 6 -47 54 -87 107 l-72 95 -3 -107 -3 -106 -74 0 -75
0 0 445 0 445 75 0 75 0 2 -279z m-1713 168 c94 -21 142 -87 143 -193 0 -67
-13 -110 -43 -142 l-20 -21 30 -12 c64 -27 101 -97 101 -191 0 -33 -6 -75 -14
-93 -17 -43 -85 -101 -133 -115 -31 -9 -239 -16 -390 -13 l-33 1 0 394 0 395
33 3 c60 6 282 -3 326 -13z m630 -277 c37 -27 41 -27 41 -2 0 18 7 20 75 20
l75 0 0 -260 0 -260 -75 0 c-70 0 -75 1 -75 22 0 20 -1 20 -18 5 -29 -26 -88
-47 -134 -47 -208 1 -312 302 -165 476 45 53 101 76 179 72 50 -3 75 -9 97
-26z m711 6 c76 -52 90 -106 90 -350 l0 -158 -80 0 -80 0 0 176 c0 207 -8 233
-72 234 -77 0 -90 -32 -96 -242 l-5 -168 -74 0 -73 0 2 258 3 257 73 3 c67 3
72 1 72 -18 0 -22 15 -27 26 -9 26 42 161 52 214 17z"/>
<path d="M5246 2269 c-140 -39 -119 -279 25 -279 97 0 154 127 101 226 -23 44
-77 66 -126 53z"/>
<path d="M5893 2269 c-68 -20 -107 -104 -83 -182 42 -142 207 -124 235 24 5
27 1 50 -13 82 -29 66 -79 93 -139 76z"/>
<path d="M7123 2268 c-41 -11 -80 -62 -89 -115 -12 -80 49 -163 121 -163 64 0
124 69 125 143 0 89 -78 156 -157 135z"/>
<path d="M4470 1396 l0 -106 55 0 c81 0 121 20 134 66 13 49 -1 104 -31 123
-12 8 -53 16 -90 19 l-68 5 0 -107z"/>
<path d="M4470 1060 l0 -110 68 0 c127 0 182 34 182 112 0 81 -42 108 -170
108 l-80 0 0 -110z"/>
<path d="M5173 1210 c-46 -28 -66 -72 -61 -135 8 -99 82 -155 161 -122 124 53
90 276 -43 277 -14 0 -39 -9 -57 -20z"/>
</g>
</svg>
