<?xml version="1.0" encoding="UTF-8" standalone="no"?>
<!DOCTYPE svg PUBLIC "-//W3C//DTD SVG 1.1//EN" "http://www.w3.org/Graphics/SVG/1.1/DTD/svg11.dtd">
<svg xmlns="http://www.w3.org/2000/svg" version="1.1" viewBox="0.00 0.00 1448.00 1448.00">
<path fill="#9d1a39" d="
  M 855.28 431.84
  L 803.47 370.09
  A 0.32 0.32 0.0 0 1 803.66 369.57
  L 1075.12 321.71
  A 0.32 0.32 0.0 0 1 1075.48 322.13
  L 981.20 581.17
  A 0.32 0.32 0.0 0 1 980.65 581.27
  L 922.44 511.89
  A 0.32 0.32 0.0 0 0 921.98 511.85
  L 694.03 703.12
  A 0.32 0.32 0.0 0 1 693.57 703.08
  L 589.36 578.89
  A 0.32 0.32 0.0 0 0 588.90 578.85
  L 438.09 705.39
  A 0.32 0.32 0.0 0 1 437.63 705.35
  L 372.44 627.66
  A 0.32 0.32 0.0 0 1 372.48 627.20
  L 610.14 427.78
  A 0.32 0.32 0.0 0 1 610.60 427.82
  L 713.67 550.67
  A 0.32 0.32 0.0 0 0 714.13 550.71
  L 855.24 432.30
  A 0.32 0.32 0.0 0 0 855.28 431.84
  Z"
/>
<rect fill="#9d1a39" x="979.09" y="594.50" width="98.88" height="532.02" rx="0.26"/>
<rect fill="#9d1a39" x="836.29" y="713.54" width="98.88" height="412.98" rx="0.42"/>
<rect fill="#9d1a39" x="682.87" y="765.22" width="98.88" height="361.30" rx="0.38"/>
<rect fill="#9d1a39" x="522.32" y="827.04" width="98.88" height="299.48" rx="0.39"/>
<path fill="#9d1a39" d="
  M 468.79 887.22
  L 468.79 1126.17
  A 0.35 0.35 0.0 0 1 468.44 1126.52
  L 370.22 1126.52
  A 0.35 0.35 0.0 0 1 369.87 1126.17
  L 369.87 887.22
  A 0.35 0.35 0.0 0 1 370.22 886.87
  L 468.44 886.87
  A 0.35 0.35 0.0 0 1 468.79 887.22
  Z"
/>
</svg>
