<?xml version="1.0" encoding="UTF-8" standalone="no"?>
<!DOCTYPE svg PUBLIC "-//W3C//DTD SVG 1.1//EN" "http://www.w3.org/Graphics/SVG/1.1/DTD/svg11.dtd">
<svg xmlns="http://www.w3.org/2000/svg" version="1.1" viewBox="0.00 0.00 1448.00 1448.00">
<path fill="#9d1a39" d="
  M 864.24 652.95
  L 864.24 370.49
  A 0.33 0.33 0.0 0 1 864.57 370.16
  L 1007.55 370.16
  A 0.33 0.33 0.0 0 1 1007.88 370.49
  L 1007.88 652.95
  A 0.33 0.33 0.0 0 0 1008.21 653.28
  L 1077.52 653.28
  A 0.33 0.33 0.0 0 1 1077.85 653.61
  L 1077.85 1077.64
  A 0.33 0.33 0.0 0 1 1077.52 1077.97
  L 724.29 1077.97
  A 0.33 0.33 0.0 0 1 723.96 1077.64
  L 723.96 793.63
  A 0.33 0.33 0.0 0 0 723.63 793.30
  L 443.38 793.30
  A 0.33 0.33 0.0 0 0 443.05 793.63
  L 443.05 1077.64
  A 0.33 0.33 0.0 0 1 442.72 1077.97
  L 370.36 1077.97
  A 0.33 0.33 0.0 0 1 370.03 1077.64
  L 370.03 653.61
  A 0.33 0.33 0.0 0 1 370.36 653.28
  L 651.87 653.28
  A 0.33 0.33 0.0 0 0 652.20 652.95
  L 652.20 477.30
  A 0.33 0.33 0.0 0 1 652.53 476.97
  L 793.46 476.96
  A 0.33 0.33 0.0 0 1 793.79 477.29
  L 793.79 652.95
  A 0.33 0.33 0.0 0 0 794.12 653.28
  L 863.91 653.28
  A 0.33 0.33 0.0 0 0 864.24 652.95
  Z
  M 864.24 793.72
  A 0.42 0.42 0.0 0 0 863.82 793.30
  L 794.70 793.30
  A 0.42 0.42 0.0 0 0 794.28 793.72
  L 794.28 865.40
  A 0.42 0.42 0.0 0 0 794.70 865.82
  L 863.82 865.82
  A 0.42 0.42 0.0 0 0 864.24 865.40
  L 864.24 793.72
  Z
  M 1007.80 793.66
  A 0.36 0.36 0.0 0 0 1007.44 793.30
  L 937.18 793.30
  A 0.36 0.36 0.0 0 0 936.82 793.66
  L 936.82 865.46
  A 0.36 0.36 0.0 0 0 937.18 865.82
  L 1007.44 865.82
  A 0.36 0.36 0.0 0 0 1007.80 865.46
  L 1007.80 793.66
  Z
  M 864.24 936.74
  A 0.40 0.40 0.0 0 0 863.84 936.34
  L 794.68 936.34
  A 0.40 0.40 0.0 0 0 794.28 936.74
  L 794.28 1006.92
  A 0.40 0.40 0.0 0 0 794.68 1007.32
  L 863.84 1007.32
  A 0.40 0.40 0.0 0 0 864.24 1006.92
  L 864.24 936.74
  Z
  M 1007.80 936.66
  A 0.32 0.32 0.0 0 0 1007.48 936.34
  L 937.14 936.34
  A 0.32 0.32 0.0 0 0 936.82 936.66
  L 936.82 1007.00
  A 0.32 0.32 0.0 0 0 937.14 1007.32
  L 1007.48 1007.32
  A 0.32 0.32 0.0 0 0 1007.80 1007.00
  L 1007.80 936.66
  Z"
/>
<rect fill="#9d1a39" x="511.19" y="865.81" width="143.10" height="212.16" rx="0.32"/>
</svg>
