<?xml version="1.0" encoding="UTF-8" standalone="no"?>
<!DOCTYPE svg PUBLIC "-//W3C//DTD SVG 1.1//EN" "http://www.w3.org/Graphics/SVG/1.1/DTD/svg11.dtd">
<svg xmlns="http://www.w3.org/2000/svg" version="1.1" viewBox="0.00 0.00 1448.00 1448.00">
<path fill="#9d1a39" d="
  M 441.37 441.25
  L 1006.51 441.25
  A 0.30 0.30 0.0 0 1 1006.81 441.55
  L 1006.81 844.13
  A 0.30 0.30 0.0 0 1 1006.51 844.43
  L 441.37 844.43
  A 0.30 0.30 0.0 0 1 441.07 844.13
  L 441.07 441.55
  A 0.30 0.30 0.0 0 1 441.37 441.25
  Z
  M 975.78 483.75
  A 11.05 11.05 0.0 0 0 964.73 472.70
  L 483.17 472.70
  A 11.05 11.05 0.0 0 0 472.12 483.75
  L 472.12 801.93
  A 11.05 11.05 0.0 0 0 483.17 812.98
  L 964.73 812.98
  A 11.05 11.05 0.0 0 0 975.78 801.93
  L 975.78 483.75
  Z"
/>
<path fill="#9d1a39" d="
  M 953.44 790.31
  A 0.26 0.26 0.0 0 1 953.18 790.57
  L 494.76 790.57
  A 0.26 0.26 0.0 0 1 494.50 790.31
  L 494.50 495.31
  A 0.26 0.26 0.0 0 1 494.76 495.05
  L 953.18 495.05
  A 0.26 0.26 0.0 0 1 953.44 495.31
  L 953.44 790.31
  Z
  M 659.48 734.54
  A 5.57 5.57 0.0 0 0 664.52 742.46
  L 684.28 742.46
  A 5.57 5.57 0.0 0 0 689.33 739.25
  L 777.18 551.17
  A 5.57 5.57 0.0 0 0 772.13 543.24
  L 752.25 543.24
  A 5.57 5.57 0.0 0 0 747.20 546.46
  L 659.48 734.54
  Z
  M 582.47 632.81
  A 0.26 0.26 0.0 0 1 582.47 632.33
  Q 612.98 618.55 645.00 604.00
  C 646.95 603.11 648.49 601.26 648.50 599.03
  Q 648.55 587.41 648.54 576.20
  C 648.54 572.52 645.15 569.32 641.46 571.04
  Q 592.62 593.71 546.15 615.26
  C 543.90 616.31 542.56 618.35 542.56 620.87
  Q 542.55 633.20 542.56 645.77
  Q 542.57 649.61 546.18 651.27
  Q 592.81 672.72 641.27 694.94
  C 645.10 696.69 648.60 693.78 648.57 689.84
  Q 648.49 677.84 648.55 666.81
  C 648.56 664.74 647.34 662.70 645.45 661.83
  Q 613.46 647.07 582.47 632.81
  Z
  M 866.07 632.15
  Q 834.66 646.62 803.64 660.90
  Q 799.74 662.69 799.72 666.96
  Q 799.70 676.05 799.70 689.20
  C 799.70 693.33 803.52 695.97 807.34 694.20
  Q 854.76 672.23 902.08 650.61
  C 904.23 649.63 905.67 647.58 905.68 645.16
  Q 905.73 632.54 905.64 620.69
  Q 905.60 616.77 902.15 615.17
  Q 853.89 592.78 807.32 571.10
  C 803.37 569.26 799.79 571.96 799.80 576.13
  Q 799.83 587.82 799.84 598.34
  C 799.85 600.51 801.16 602.43 803.14 603.32
  Q 834.97 617.74 866.07 631.84
  A 0.17 0.17 0.0 0 1 866.07 632.15
  Z"
/>
<rect fill="#9d1a39" x="606.73" y="866.88" width="234.00" height="76.82" rx="0.37"/>
<rect fill="#9d1a39" x="560.49" y="966.47" width="326.88" height="40.44" rx="0.26"/>
</svg>
